STARTFONT 2.1
FONT -FontForge-Good Times Rg-Book-R-Normal--13-120-75-75-P-96-ISO10646-1
SIZE 12 75 75
FONTBOUNDINGBOX 26 16 -4 -3
COMMENT "Generated by fontforge, http://fontforge.sourceforge.net"
COMMENT "(c) 1998-2012 Typodermic Fonts Inc. See attached license agreement. If agreement is missing visit typodermicfonts.com for more info. Languages by Chikako Larabie"
STARTPROPERTIES 39
FOUNDRY "FontForge"
FAMILY_NAME "Good Times Rg"
WEIGHT_NAME "Book"
SLANT "R"
SETWIDTH_NAME "Normal"
ADD_STYLE_NAME ""
PIXEL_SIZE 13
POINT_SIZE 120
RESOLUTION_X 75
RESOLUTION_Y 75
SPACING "P"
AVERAGE_WIDTH 96
CHARSET_REGISTRY "ISO10646"
CHARSET_ENCODING "1"
FONTNAME_REGISTRY ""
CHARSET_COLLECTIONS "ISO8859-2 ISO8859-9 ISO8859-4 ISO10646-1"
FONT_NAME "GoodTimesRg-Regular"
FACE_NAME "GoodTimesRg-Regular"
COPYRIGHT "(c) 1998-2012 Typodermic Fonts Inc. See attached license agreement. If agreement is missing visit typodermicfonts.com for more info. Languages by Chikako Larabie"
FONT_VERSION "4.001"
FONT_ASCENT 10
FONT_DESCENT 3
UNDERLINE_POSITION -2
UNDERLINE_THICKNESS 1
X_HEIGHT 9
CAP_HEIGHT 9
RAW_ASCENT 799
RAW_DESCENT 201
NORM_SPACE 4
RELATIVE_WEIGHT 40
RELATIVE_SETWIDTH 50
SUPERSCRIPT_X 0
SUPERSCRIPT_Y 3
SUPERSCRIPT_SIZE 3
SUBSCRIPT_X 0
SUBSCRIPT_Y 0
SUBSCRIPT_SIZE 3
AVG_LOWERCASE_WIDTH 110
AVG_UPPERCASE_WIDTH 110
ENDPROPERTIES
CHARS 372
STARTCHAR space
ENCODING 32
SWIDTH 294 0
DWIDTH 4 0
BBX 1 1 0 0
BITMAP
00
ENDCHAR
STARTCHAR exclam
ENCODING 33
SWIDTH 298 0
DWIDTH 4 0
BBX 2 10 1 0
BITMAP
C0
C0
C0
C0
C0
C0
C0
00
C0
C0
ENDCHAR
STARTCHAR quotedbl
ENCODING 34
SWIDTH 452 0
DWIDTH 6 0
BBX 4 4 1 6
BITMAP
F0
B0
90
90
ENDCHAR
STARTCHAR numbersign
ENCODING 35
SWIDTH 697 0
DWIDTH 9 0
BBX 8 10 1 0
BITMAP
12
32
24
7F
24
4C
FE
FE
C8
90
ENDCHAR
STARTCHAR dollar
ENCODING 36
SWIDTH 744 0
DWIDTH 10 0
BBX 8 10 1 0
BITMAP
10
FF
FF
90
FE
11
11
FF
FE
10
ENDCHAR
STARTCHAR percent
ENCODING 37
SWIDTH 965 0
DWIDTH 13 0
BBX 11 12 1 -1
BITMAP
0040
F080
9100
8900
9200
6400
09C0
0A20
1220
2220
61C0
C000
ENDCHAR
STARTCHAR ampersand
ENCODING 38
SWIDTH 759 0
DWIDTH 10 0
BBX 8 10 1 0
BITMAP
78
F8
C0
C0
7F
FF
86
86
FF
7F
ENDCHAR
STARTCHAR quotesingle
ENCODING 39
SWIDTH 255 0
DWIDTH 3 0
BBX 2 4 1 6
BITMAP
C0
80
80
80
ENDCHAR
STARTCHAR parenleft
ENCODING 40
SWIDTH 356 0
DWIDTH 5 0
BBX 3 13 1 -1
BITMAP
60
40
40
40
80
80
80
80
80
40
40
40
60
ENDCHAR
STARTCHAR parenright
ENCODING 41
SWIDTH 355 0
DWIDTH 5 0
BBX 2 13 1 -1
BITMAP
80
C0
40
40
40
40
40
40
40
40
40
C0
80
ENDCHAR
STARTCHAR asterisk
ENCODING 42
SWIDTH 469 0
DWIDTH 6 0
BBX 4 5 1 5
BITMAP
20
B0
60
60
D0
ENDCHAR
STARTCHAR plus
ENCODING 43
SWIDTH 690 0
DWIDTH 9 0
BBX 7 8 1 1
BITMAP
10
10
10
FE
FE
10
10
10
ENDCHAR
STARTCHAR comma
ENCODING 44
SWIDTH 259 0
DWIDTH 3 0
BBX 2 4 1 -2
BITMAP
C0
80
80
80
ENDCHAR
STARTCHAR hyphen
ENCODING 45
SWIDTH 296 0
DWIDTH 4 0
BBX 4 2 0 5
BITMAP
F0
F0
ENDCHAR
STARTCHAR period
ENCODING 46
SWIDTH 262 0
DWIDTH 3 0
BBX 2 2 1 0
BITMAP
80
C0
ENDCHAR
STARTCHAR slash
ENCODING 47
SWIDTH 444 0
DWIDTH 6 0
BBX 6 10 0 0
BITMAP
0C
08
18
10
10
20
20
40
40
80
ENDCHAR
STARTCHAR zero
ENCODING 48
SWIDTH 838 0
DWIDTH 11 0
BBX 9 10 1 0
BITMAP
3E00
7F00
C180
8180
8080
8080
C180
C180
7F00
3E00
ENDCHAR
STARTCHAR one
ENCODING 49
SWIDTH 385 0
DWIDTH 5 0
BBX 4 10 0 0
BITMAP
E0
F0
30
10
10
10
10
10
10
10
ENDCHAR
STARTCHAR two
ENCODING 50
SWIDTH 825 0
DWIDTH 11 0
BBX 9 10 1 0
BITMAP
FF00
FF80
0180
0180
7F80
FE00
8000
8000
FF80
FF80
ENDCHAR
STARTCHAR three
ENCODING 51
SWIDTH 827 0
DWIDTH 11 0
BBX 9 10 1 0
BITMAP
FF00
FF80
0180
0180
3F00
3F80
0180
0180
FF80
FF00
ENDCHAR
STARTCHAR four
ENCODING 52
SWIDTH 845 0
DWIDTH 11 0
BBX 10 10 1 0
BITMAP
8100
8100
8100
8100
8100
C100
FFC0
7FC0
0100
0100
ENDCHAR
STARTCHAR five
ENCODING 53
SWIDTH 885 0
DWIDTH 12 0
BBX 10 10 1 0
BITMAP
FF80
FF80
C000
C000
FF80
FFC0
00C0
00C0
FFC0
FF80
ENDCHAR
STARTCHAR six
ENCODING 54
SWIDTH 872 0
DWIDTH 11 0
BBX 10 10 1 0
BITMAP
3F80
FF80
C000
8000
FF80
FF80
80C0
C0C0
FF80
3F80
ENDCHAR
STARTCHAR seven
ENCODING 55
SWIDTH 756 0
DWIDTH 10 0
BBX 9 10 1 0
BITMAP
FF80
FF00
0300
0600
0C00
1800
3800
3000
6000
C000
ENDCHAR
STARTCHAR eight
ENCODING 56
SWIDTH 898 0
DWIDTH 12 0
BBX 10 10 1 0
BITMAP
7F80
FFC0
C0C0
C0C0
7F80
FFC0
80C0
80C0
FFC0
7F80
ENDCHAR
STARTCHAR nine
ENCODING 57
SWIDTH 861 0
DWIDTH 11 0
BBX 10 10 1 0
BITMAP
7F00
FF80
8180
80C0
FFC0
FFC0
00C0
0180
7F80
7F00
ENDCHAR
STARTCHAR colon
ENCODING 58
SWIDTH 262 0
DWIDTH 3 0
BBX 2 6 1 0
BITMAP
C0
80
00
00
80
C0
ENDCHAR
STARTCHAR semicolon
ENCODING 59
SWIDTH 262 0
DWIDTH 3 0
BBX 2 8 1 -2
BITMAP
80
C0
00
00
C0
80
80
80
ENDCHAR
STARTCHAR less
ENCODING 60
SWIDTH 690 0
DWIDTH 9 0
BBX 7 8 1 1
BITMAP
02
0E
38
C0
E0
38
06
02
ENDCHAR
STARTCHAR equal
ENCODING 61
SWIDTH 690 0
DWIDTH 9 0
BBX 7 5 1 3
BITMAP
FE
FE
00
FE
FE
ENDCHAR
STARTCHAR greater
ENCODING 62
SWIDTH 690 0
DWIDTH 9 0
BBX 7 8 1 1
BITMAP
80
E0
38
06
0E
38
C0
80
ENDCHAR
STARTCHAR question
ENCODING 63
SWIDTH 776 0
DWIDTH 10 0
BBX 9 10 1 0
BITMAP
FF00
FF00
0180
0180
7F00
7E00
C000
0000
4000
C000
ENDCHAR
STARTCHAR at
ENCODING 64
SWIDTH 833 0
DWIDTH 11 0
BBX 9 10 1 0
BITMAP
3F80
7F80
C080
9E80
A280
A280
9F80
C000
7F80
3F80
ENDCHAR
STARTCHAR A
ENCODING 65
SWIDTH 989 0
DWIDTH 13 0
BBX 13 10 0 0
BITMAP
0200
0700
0F00
0D80
1880
18C0
37E0
2060
6030
C038
ENDCHAR
STARTCHAR B
ENCODING 66
SWIDTH 891 0
DWIDTH 12 0
BBX 10 10 1 0
BITMAP
FF80
FFC0
80C0
80C0
9F80
9FC0
80C0
80C0
FFC0
FF80
ENDCHAR
STARTCHAR C
ENCODING 67
SWIDTH 829 0
DWIDTH 11 0
BBX 9 10 1 0
BITMAP
3F80
7F80
C000
8000
8000
8000
C000
C000
7F80
3F80
ENDCHAR
STARTCHAR D
ENCODING 68
SWIDTH 879 0
DWIDTH 11 0
BBX 10 10 1 0
BITMAP
FE00
FF80
8180
80C0
80C0
80C0
80C0
8180
FF80
FE00
ENDCHAR
STARTCHAR E
ENCODING 69
SWIDTH 759 0
DWIDTH 10 0
BBX 8 10 1 0
BITMAP
FF
FF
80
80
9F
9F
80
80
FF
FF
ENDCHAR
STARTCHAR F
ENCODING 70
SWIDTH 705 0
DWIDTH 9 0
BBX 8 10 1 0
BITMAP
FF
FF
80
80
9E
9E
80
80
80
80
ENDCHAR
STARTCHAR G
ENCODING 71
SWIDTH 888 0
DWIDTH 12 0
BBX 10 10 1 0
BITMAP
3F80
7F80
C000
8000
8FC0
8FC0
C0C0
C0C0
7FC0
3FC0
ENDCHAR
STARTCHAR H
ENCODING 72
SWIDTH 838 0
DWIDTH 11 0
BBX 9 10 1 0
BITMAP
8180
8180
8180
8180
9F80
9F80
8180
8180
8180
8180
ENDCHAR
STARTCHAR I
ENCODING 73
SWIDTH 267 0
DWIDTH 3 0
BBX 2 10 1 0
BITMAP
C0
C0
C0
C0
C0
C0
C0
C0
C0
C0
ENDCHAR
STARTCHAR J
ENCODING 74
SWIDTH 708 0
DWIDTH 9 0
BBX 9 10 0 0
BITMAP
0180
0180
0180
0180
0180
0180
0100
0300
FF00
FC00
ENDCHAR
STARTCHAR K
ENCODING 75
SWIDTH 875 0
DWIDTH 11 0
BBX 10 10 1 0
BITMAP
81C0
8300
8E00
9C00
B000
B000
9C00
8600
8300
81C0
ENDCHAR
STARTCHAR L
ENCODING 76
SWIDTH 707 0
DWIDTH 9 0
BBX 8 10 1 0
BITMAP
80
80
80
80
80
80
80
80
FF
FF
ENDCHAR
STARTCHAR M
ENCODING 77
SWIDTH 1115 0
DWIDTH 15 0
BBX 14 10 0 0
BITMAP
1030
1830
3870
3C78
2C58
64D8
6688
638C
430C
C30C
ENDCHAR
STARTCHAR N
ENCODING 78
SWIDTH 873 0
DWIDTH 11 0
BBX 10 10 1 0
BITMAP
80C0
C0C0
E0C0
B0C0
98C0
8CC0
86C0
83C0
81C0
8080
ENDCHAR
STARTCHAR O
ENCODING 79
SWIDTH 968 0
DWIDTH 13 0
BBX 11 10 1 0
BITMAP
3F80
7FC0
C0E0
8060
8060
8060
C060
C0C0
7FC0
3F80
ENDCHAR
STARTCHAR P
ENCODING 80
SWIDTH 867 0
DWIDTH 11 0
BBX 10 10 1 0
BITMAP
FF00
FF80
80C0
80C0
80C0
9F80
9F00
8000
8000
8000
ENDCHAR
STARTCHAR Q
ENCODING 81
SWIDTH 968 0
DWIDTH 13 0
BBX 12 10 1 0
BITMAP
3F80
7FC0
C0E0
8060
8060
8060
C660
C3C0
7FC0
3FF0
ENDCHAR
STARTCHAR R
ENCODING 82
SWIDTH 921 0
DWIDTH 12 0
BBX 11 10 1 0
BITMAP
FF80
FFC0
80C0
80C0
80C0
9FC0
9F80
8180
81C0
80E0
ENDCHAR
STARTCHAR S
ENCODING 83
SWIDTH 880 0
DWIDTH 11 0
BBX 10 10 1 0
BITMAP
7F80
FF80
8000
C000
FF80
7FC0
00C0
00C0
FFC0
FF80
ENDCHAR
STARTCHAR T
ENCODING 84
SWIDTH 720 0
DWIDTH 9 0
BBX 9 10 0 0
BITMAP
FF80
FF80
0C00
0C00
0C00
0C00
0C00
0C00
0C00
0C00
ENDCHAR
STARTCHAR U
ENCODING 85
SWIDTH 889 0
DWIDTH 12 0
BBX 10 10 1 0
BITMAP
80C0
80C0
80C0
80C0
80C0
80C0
80C0
C0C0
FF80
3F00
ENDCHAR
STARTCHAR V
ENCODING 86
SWIDTH 989 0
DWIDTH 13 0
BBX 13 10 0 0
BITMAP
C038
6030
3060
3060
18C0
1880
0D80
0D00
0700
0200
ENDCHAR
STARTCHAR W
ENCODING 87
SWIDTH 1268 0
DWIDTH 16 0
BBX 16 10 0 0
BITMAP
C603
6303
6306
3184
118C
19C8
09D8
0F70
0670
0620
ENDCHAR
STARTCHAR X
ENCODING 88
SWIDTH 1000 0
DWIDTH 13 0
BBX 13 10 0 0
BITMAP
6030
3060
18C0
0D80
0700
0700
0D80
18C0
3060
E038
ENDCHAR
STARTCHAR Y
ENCODING 89
SWIDTH 926 0
DWIDTH 12 0
BBX 12 10 0 0
BITMAP
E070
7060
30C0
1980
0F00
0600
0600
0600
0600
0600
ENDCHAR
STARTCHAR Z
ENCODING 90
SWIDTH 802 0
DWIDTH 10 0
BBX 9 10 1 0
BITMAP
FF80
FF80
0700
0E00
0C00
1800
3000
6000
FF80
FF80
ENDCHAR
STARTCHAR bracketleft
ENCODING 91
SWIDTH 333 0
DWIDTH 4 0
BBX 3 13 1 -1
BITMAP
E0
E0
80
80
80
80
80
80
80
80
80
80
E0
ENDCHAR
STARTCHAR backslash
ENCODING 92
SWIDTH 445 0
DWIDTH 6 0
BBX 6 10 0 0
BITMAP
80
40
40
20
20
10
10
18
08
0C
ENDCHAR
STARTCHAR bracketright
ENCODING 93
SWIDTH 333 0
DWIDTH 4 0
BBX 2 13 1 -1
BITMAP
C0
C0
40
40
40
40
40
40
40
40
40
40
C0
ENDCHAR
STARTCHAR asciicircum
ENCODING 94
SWIDTH 559 0
DWIDTH 7 0
BBX 5 6 1 4
BITMAP
20
30
50
50
88
88
ENDCHAR
STARTCHAR underscore
ENCODING 95
SWIDTH 668 0
DWIDTH 9 0
BBX 9 1 0 -2
BITMAP
FF80
ENDCHAR
STARTCHAR grave
ENCODING 96
SWIDTH 362 0
DWIDTH 5 0
BBX 3 1 1 11
BITMAP
E0
ENDCHAR
STARTCHAR a
ENCODING 97
SWIDTH 989 0
DWIDTH 13 0
BBX 13 10 0 0
BITMAP
0200
0700
0F00
0D80
1880
18C0
37E0
2060
6030
C038
ENDCHAR
STARTCHAR b
ENCODING 98
SWIDTH 891 0
DWIDTH 12 0
BBX 10 10 1 0
BITMAP
FF80
FFC0
80C0
80C0
9F80
9FC0
80C0
80C0
FFC0
FF80
ENDCHAR
STARTCHAR c
ENCODING 99
SWIDTH 829 0
DWIDTH 11 0
BBX 9 10 1 0
BITMAP
3F80
7F80
C000
8000
8000
8000
C000
C000
7F80
3F80
ENDCHAR
STARTCHAR d
ENCODING 100
SWIDTH 879 0
DWIDTH 11 0
BBX 10 10 1 0
BITMAP
FE00
FF80
8180
80C0
80C0
80C0
80C0
8180
FF80
FE00
ENDCHAR
STARTCHAR e
ENCODING 101
SWIDTH 759 0
DWIDTH 10 0
BBX 8 10 1 0
BITMAP
FF
FF
80
80
9F
9F
80
80
FF
FF
ENDCHAR
STARTCHAR f
ENCODING 102
SWIDTH 705 0
DWIDTH 9 0
BBX 8 10 1 0
BITMAP
FF
FF
80
80
9E
9E
80
80
80
80
ENDCHAR
STARTCHAR g
ENCODING 103
SWIDTH 888 0
DWIDTH 12 0
BBX 10 10 1 0
BITMAP
3F80
7F80
C000
8000
8FC0
8FC0
C0C0
C0C0
7FC0
3FC0
ENDCHAR
STARTCHAR h
ENCODING 104
SWIDTH 838 0
DWIDTH 11 0
BBX 9 10 1 0
BITMAP
8180
8180
8180
8180
9F80
9F80
8180
8180
8180
8180
ENDCHAR
STARTCHAR i
ENCODING 105
SWIDTH 267 0
DWIDTH 3 0
BBX 2 10 1 0
BITMAP
C0
C0
C0
C0
C0
C0
C0
C0
C0
C0
ENDCHAR
STARTCHAR j
ENCODING 106
SWIDTH 708 0
DWIDTH 9 0
BBX 9 10 0 0
BITMAP
0180
0180
0180
0180
0180
0180
0100
0300
FF00
FC00
ENDCHAR
STARTCHAR k
ENCODING 107
SWIDTH 875 0
DWIDTH 11 0
BBX 10 10 1 0
BITMAP
81C0
8300
8E00
9C00
B000
B000
9C00
8600
8300
81C0
ENDCHAR
STARTCHAR l
ENCODING 108
SWIDTH 707 0
DWIDTH 9 0
BBX 8 10 1 0
BITMAP
80
80
80
80
80
80
80
80
FF
FF
ENDCHAR
STARTCHAR m
ENCODING 109
SWIDTH 1115 0
DWIDTH 15 0
BBX 14 10 0 0
BITMAP
1030
1830
3870
3C78
2C58
64D8
6688
638C
430C
C30C
ENDCHAR
STARTCHAR n
ENCODING 110
SWIDTH 873 0
DWIDTH 11 0
BBX 10 10 1 0
BITMAP
80C0
C0C0
E0C0
B0C0
98C0
8CC0
86C0
83C0
81C0
8080
ENDCHAR
STARTCHAR o
ENCODING 111
SWIDTH 968 0
DWIDTH 13 0
BBX 11 10 1 0
BITMAP
3F80
7FC0
C0E0
8060
8060
8060
C060
C0C0
7FC0
3F80
ENDCHAR
STARTCHAR p
ENCODING 112
SWIDTH 867 0
DWIDTH 11 0
BBX 10 10 1 0
BITMAP
FF00
FF80
80C0
80C0
80C0
9F80
9F00
8000
8000
8000
ENDCHAR
STARTCHAR q
ENCODING 113
SWIDTH 968 0
DWIDTH 13 0
BBX 12 10 1 0
BITMAP
3F80
7FC0
C0E0
8060
8060
8060
C660
C3C0
7FC0
3FF0
ENDCHAR
STARTCHAR r
ENCODING 114
SWIDTH 921 0
DWIDTH 12 0
BBX 11 10 1 0
BITMAP
FF80
FFC0
80C0
80C0
80C0
9FC0
9F80
8180
81C0
80E0
ENDCHAR
STARTCHAR s
ENCODING 115
SWIDTH 880 0
DWIDTH 11 0
BBX 10 10 1 0
BITMAP
7F80
FF80
8000
C000
FF80
7FC0
00C0
00C0
FFC0
FF80
ENDCHAR
STARTCHAR t
ENCODING 116
SWIDTH 720 0
DWIDTH 9 0
BBX 9 10 0 0
BITMAP
FF80
FF80
0C00
0C00
0C00
0C00
0C00
0C00
0C00
0C00
ENDCHAR
STARTCHAR u
ENCODING 117
SWIDTH 889 0
DWIDTH 12 0
BBX 10 10 1 0
BITMAP
80C0
80C0
80C0
80C0
80C0
80C0
80C0
C0C0
FF80
3F00
ENDCHAR
STARTCHAR v
ENCODING 118
SWIDTH 989 0
DWIDTH 13 0
BBX 13 10 0 0
BITMAP
C038
6030
3060
3060
18C0
1880
0D80
0D00
0700
0200
ENDCHAR
STARTCHAR w
ENCODING 119
SWIDTH 1268 0
DWIDTH 16 0
BBX 16 10 0 0
BITMAP
C603
6303
6306
3184
118C
19C8
09D8
0F70
0670
0620
ENDCHAR
STARTCHAR x
ENCODING 120
SWIDTH 1000 0
DWIDTH 13 0
BBX 13 10 0 0
BITMAP
6030
3060
18C0
0D80
0700
0700
0D80
18C0
3060
E038
ENDCHAR
STARTCHAR y
ENCODING 121
SWIDTH 926 0
DWIDTH 12 0
BBX 12 10 0 0
BITMAP
E070
7060
30C0
1980
0F00
0600
0600
0600
0600
0600
ENDCHAR
STARTCHAR z
ENCODING 122
SWIDTH 802 0
DWIDTH 10 0
BBX 9 10 1 0
BITMAP
FF80
FF80
0700
0E00
0C00
1800
3000
6000
FF80
FF80
ENDCHAR
STARTCHAR braceleft
ENCODING 123
SWIDTH 337 0
DWIDTH 4 0
BBX 3 13 1 -1
BITMAP
60
C0
C0
C0
C0
C0
80
C0
C0
C0
C0
C0
60
ENDCHAR
STARTCHAR bar
ENCODING 124
SWIDTH 297 0
DWIDTH 4 0
BBX 1 13 1 -1
BITMAP
80
80
80
80
80
80
80
80
80
80
80
80
80
ENDCHAR
STARTCHAR braceright
ENCODING 125
SWIDTH 337 0
DWIDTH 4 0
BBX 3 13 1 -1
BITMAP
C0
40
40
40
40
40
60
40
40
40
40
40
C0
ENDCHAR
STARTCHAR asciitilde
ENCODING 126
SWIDTH 691 0
DWIDTH 9 0
BBX 7 2 1 4
BITMAP
E2
9E
ENDCHAR
STARTCHAR nonbreakingspace
ENCODING 160
SWIDTH 294 0
DWIDTH 4 0
BBX 1 1 0 0
BITMAP
00
ENDCHAR
STARTCHAR exclamdown
ENCODING 161
SWIDTH 298 0
DWIDTH 4 0
BBX 2 10 1 -1
BITMAP
C0
C0
00
C0
C0
C0
C0
C0
C0
C0
ENDCHAR
STARTCHAR cent
ENCODING 162
SWIDTH 692 0
DWIDTH 9 0
BBX 7 10 1 0
BITMAP
08
7E
FE
88
88
88
88
FE
7E
08
ENDCHAR
STARTCHAR sterling
ENCODING 163
SWIDTH 709 0
DWIDTH 9 0
BBX 9 10 0 0
BITMAP
1E00
3E00
2000
2000
7C00
7C00
2000
2000
FF80
FF80
ENDCHAR
STARTCHAR yen
ENCODING 165
SWIDTH 787 0
DWIDTH 10 0
BBX 10 10 0 0
BITMAP
E0C0
6180
3300
1B00
1E00
3F80
0C00
3F80
3F80
0C00
ENDCHAR
STARTCHAR brokenbar
ENCODING 166
SWIDTH 297 0
DWIDTH 4 0
BBX 1 13 1 -1
BITMAP
80
80
80
80
80
80
00
00
80
80
80
80
80
ENDCHAR
STARTCHAR section
ENCODING 167
SWIDTH 773 0
DWIDTH 10 0
BBX 8 13 1 -3
BITMAP
7E
FE
80
80
FE
FF
C3
FE
7F
01
01
7F
7E
ENDCHAR
STARTCHAR dieresis
ENCODING 168
SWIDTH 393 0
DWIDTH 5 0
BBX 3 2 1 11
BITMAP
A0
A0
ENDCHAR
STARTCHAR copyright
ENCODING 169
SWIDTH 829 0
DWIDTH 11 0
BBX 9 10 1 0
BITMAP
3E00
4100
9C80
A080
A080
A080
9C80
8080
4100
3E00
ENDCHAR
STARTCHAR ordfeminine
ENCODING 170
SWIDTH 604 0
DWIDTH 8 0
BBX 7 6 0 4
BITMAP
10
18
24
3C
42
C2
ENDCHAR
STARTCHAR guillemotleft
ENCODING 171
SWIDTH 629 0
DWIDTH 8 0
BBX 7 5 1 3
BITMAP
12
64
98
C8
26
ENDCHAR
STARTCHAR registered
ENCODING 174
SWIDTH 585 0
DWIDTH 8 0
BBX 6 7 1 3
BITMAP
70
88
F4
F4
CC
88
70
ENDCHAR
STARTCHAR macron
ENCODING 175
SWIDTH 362 0
DWIDTH 5 0
BBX 3 1 1 11
BITMAP
E0
ENDCHAR
STARTCHAR degree
ENCODING 176
SWIDTH 361 0
DWIDTH 5 0
BBX 3 4 1 6
BITMAP
E0
A0
A0
E0
ENDCHAR
STARTCHAR plusminus
ENCODING 177
SWIDTH 690 0
DWIDTH 9 0
BBX 7 9 1 0
BITMAP
10
10
10
FE
FE
10
10
FE
FE
ENDCHAR
STARTCHAR twosuperior
ENCODING 178
SWIDTH 442 0
DWIDTH 6 0
BBX 4 5 1 5
BITMAP
F0
10
F0
80
F0
ENDCHAR
STARTCHAR threesuperior
ENCODING 179
SWIDTH 443 0
DWIDTH 6 0
BBX 5 5 0 5
BITMAP
F8
08
38
08
F8
ENDCHAR
STARTCHAR acute
ENCODING 180
SWIDTH 362 0
DWIDTH 5 0
BBX 3 1 1 11
BITMAP
E0
ENDCHAR
STARTCHAR paragraph
ENCODING 182
SWIDTH 629 0
DWIDTH 8 0
BBX 6 12 1 -2
BITMAP
FC
F4
F4
F4
74
14
14
14
14
14
14
14
ENDCHAR
STARTCHAR periodcentered
ENCODING 183
SWIDTH 262 0
DWIDTH 3 0
BBX 2 2 1 4
BITMAP
80
C0
ENDCHAR
STARTCHAR cedilla
ENCODING 184
SWIDTH 219 0
DWIDTH 3 0
BBX 1 2 1 -3
BITMAP
80
80
ENDCHAR
STARTCHAR onesuperior
ENCODING 185
SWIDTH 222 0
DWIDTH 3 0
BBX 2 5 0 5
BITMAP
C0
40
40
40
40
ENDCHAR
STARTCHAR ordmasculine
ENCODING 186
SWIDTH 592 0
DWIDTH 8 0
BBX 6 6 1 4
BITMAP
78
84
84
84
84
78
ENDCHAR
STARTCHAR guillemotright
ENCODING 187
SWIDTH 629 0
DWIDTH 8 0
BBX 7 5 1 3
BITMAP
90
D8
26
64
98
ENDCHAR
STARTCHAR onequarter
ENCODING 188
SWIDTH 972 0
DWIDTH 13 0
BBX 11 12 1 -1
BITMAP
0080
4100
2100
2200
2400
2800
0A40
1240
2240
63E0
4040
8000
ENDCHAR
STARTCHAR onehalf
ENCODING 189
SWIDTH 948 0
DWIDTH 12 0
BBX 11 12 1 -1
BITMAP
0080
4100
2100
2200
2400
2800
0BC0
1020
23C0
6200
43E0
8000
ENDCHAR
STARTCHAR threequarters
ENCODING 190
SWIDTH 1029 0
DWIDTH 13 0
BBX 12 12 1 -1
BITMAP
0040
F080
1100
7100
1200
F400
0920
0920
1120
21F0
6020
C000
ENDCHAR
STARTCHAR questiondown
ENCODING 191
SWIDTH 776 0
DWIDTH 10 0
BBX 9 10 0 -1
BITMAP
0180
0100
0000
0180
3F80
7F00
C000
C000
7F80
7F80
ENDCHAR
STARTCHAR Agrave
ENCODING 192
SWIDTH 989 0
DWIDTH 13 0
BBX 13 12 0 0
BITMAP
0F00
0000
0200
0700
0F00
0D80
1880
18C0
37E0
2060
6030
C038
ENDCHAR
STARTCHAR Aacute
ENCODING 193
SWIDTH 989 0
DWIDTH 13 0
BBX 13 12 0 0
BITMAP
0700
0000
0200
0700
0F00
0D80
1880
18C0
37E0
2060
6030
C038
ENDCHAR
STARTCHAR Acircumflex
ENCODING 194
SWIDTH 989 0
DWIDTH 13 0
BBX 13 13 0 0
BITMAP
0200
0500
0000
0200
0700
0F00
0D80
1880
18C0
37E0
2060
6030
C038
ENDCHAR
STARTCHAR Atilde
ENCODING 195
SWIDTH 989 0
DWIDTH 13 0
BBX 13 12 0 0
BITMAP
0700
0000
0200
0700
0F00
0D80
1880
18C0
37E0
2060
6030
C038
ENDCHAR
STARTCHAR Adieresis
ENCODING 196
SWIDTH 989 0
DWIDTH 13 0
BBX 13 13 0 0
BITMAP
0500
0500
0000
0200
0700
0F00
0D80
1880
18C0
37E0
2060
6030
C038
ENDCHAR
STARTCHAR Aring
ENCODING 197
SWIDTH 989 0
DWIDTH 13 0
BBX 13 13 0 0
BITMAP
0700
0900
0700
0200
0700
0F00
0D80
1880
18C0
37E0
2060
6030
C038
ENDCHAR
STARTCHAR AE
ENCODING 198
SWIDTH 1345 0
DWIDTH 17 0
BBX 17 10 0 0
BITMAP
07FF80
07FF80
0C6000
0C6000
186F80
106F80
37E000
27E000
607F80
C07F80
ENDCHAR
STARTCHAR Ccedilla
ENCODING 199
SWIDTH 829 0
DWIDTH 11 0
BBX 9 13 1 -3
BITMAP
3F80
7F80
C000
8000
8000
8000
C000
C000
7F80
3F80
0000
0C00
0800
ENDCHAR
STARTCHAR Egrave
ENCODING 200
SWIDTH 759 0
DWIDTH 10 0
BBX 8 12 1 0
BITMAP
38
00
FF
FF
80
80
9F
9F
80
80
FF
FF
ENDCHAR
STARTCHAR Eacute
ENCODING 201
SWIDTH 759 0
DWIDTH 10 0
BBX 8 12 1 0
BITMAP
1C
00
FF
FF
80
80
9F
9F
80
80
FF
FF
ENDCHAR
STARTCHAR Ecircumflex
ENCODING 202
SWIDTH 759 0
DWIDTH 10 0
BBX 8 13 1 0
BITMAP
18
18
24
FF
FF
80
80
9F
9F
80
80
FF
FF
ENDCHAR
STARTCHAR Edieresis
ENCODING 203
SWIDTH 759 0
DWIDTH 10 0
BBX 8 13 1 0
BITMAP
24
2C
00
FF
FF
80
80
9F
9F
80
80
FF
FF
ENDCHAR
STARTCHAR Igrave
ENCODING 204
SWIDTH 267 0
DWIDTH 3 0
BBX 3 12 0 0
BITMAP
E0
00
60
60
60
60
60
60
60
60
60
60
ENDCHAR
STARTCHAR Iacute
ENCODING 205
SWIDTH 267 0
DWIDTH 3 0
BBX 4 12 0 0
BITMAP
F0
00
60
60
60
60
60
60
60
60
60
60
ENDCHAR
STARTCHAR Icircumflex
ENCODING 206
SWIDTH 267 0
DWIDTH 3 0
BBX 4 13 0 0
BITMAP
60
A0
10
60
60
60
60
60
60
60
60
60
60
ENDCHAR
STARTCHAR Idieresis
ENCODING 207
SWIDTH 267 0
DWIDTH 3 0
BBX 4 13 0 0
BITMAP
A0
B0
00
60
60
60
60
60
60
60
60
60
60
ENDCHAR
STARTCHAR Eth
ENCODING 208
SWIDTH 877 0
DWIDTH 11 0
BBX 11 10 0 0
BITMAP
7F00
7FC0
40C0
4060
FC60
FC60
4060
40C0
7FC0
7F00
ENDCHAR
STARTCHAR Ntilde
ENCODING 209
SWIDTH 873 0
DWIDTH 11 0
BBX 10 12 1 0
BITMAP
1C00
0000
80C0
C0C0
E0C0
B0C0
98C0
8CC0
86C0
83C0
81C0
8080
ENDCHAR
STARTCHAR Ograve
ENCODING 210
SWIDTH 968 0
DWIDTH 13 0
BBX 11 12 1 0
BITMAP
1E00
0000
3F80
7FC0
C0E0
8060
8060
8060
C060
C0C0
7FC0
3F80
ENDCHAR
STARTCHAR Oacute
ENCODING 211
SWIDTH 968 0
DWIDTH 13 0
BBX 11 12 1 0
BITMAP
0E00
0000
3F80
7FC0
C0E0
8060
8060
8060
C060
C0C0
7FC0
3F80
ENDCHAR
STARTCHAR Ocircumflex
ENCODING 212
SWIDTH 968 0
DWIDTH 13 0
BBX 11 13 1 0
BITMAP
0C00
0A00
0000
3F80
7FC0
C0E0
8060
8060
8060
C060
C0C0
7FC0
3F80
ENDCHAR
STARTCHAR Otilde
ENCODING 213
SWIDTH 968 0
DWIDTH 13 0
BBX 11 12 1 0
BITMAP
0E00
0000
3F80
7FC0
C0E0
8060
8060
8060
C060
C0C0
7FC0
3F80
ENDCHAR
STARTCHAR Odieresis
ENCODING 214
SWIDTH 968 0
DWIDTH 13 0
BBX 11 13 1 0
BITMAP
0A00
1A00
0000
3F80
7FC0
C0E0
8060
8060
8060
C060
C0C0
7FC0
3F80
ENDCHAR
STARTCHAR multiply
ENCODING 215
SWIDTH 690 0
DWIDTH 9 0
BBX 6 6 1 2
BITMAP
C4
6C
38
38
6C
C4
ENDCHAR
STARTCHAR Oslash
ENCODING 216
SWIDTH 968 0
DWIDTH 13 0
BBX 11 12 1 -1
BITMAP
0040
3F80
7FC0
C1E0
8260
8460
8860
8860
D0C0
7FC0
7F80
4000
ENDCHAR
STARTCHAR Ugrave
ENCODING 217
SWIDTH 889 0
DWIDTH 12 0
BBX 10 12 1 0
BITMAP
1C00
0000
80C0
80C0
80C0
80C0
80C0
80C0
80C0
C0C0
FF80
3F00
ENDCHAR
STARTCHAR Uacute
ENCODING 218
SWIDTH 889 0
DWIDTH 12 0
BBX 10 12 1 0
BITMAP
1E00
0000
80C0
80C0
80C0
80C0
80C0
80C0
80C0
C0C0
FF80
3F00
ENDCHAR
STARTCHAR Ucircumflex
ENCODING 219
SWIDTH 889 0
DWIDTH 12 0
BBX 10 13 1 0
BITMAP
0C00
1400
0200
80C0
80C0
80C0
80C0
80C0
80C0
80C0
C0C0
FF80
3F00
ENDCHAR
STARTCHAR Udieresis
ENCODING 220
SWIDTH 889 0
DWIDTH 12 0
BBX 10 13 1 0
BITMAP
1400
1600
0000
80C0
80C0
80C0
80C0
80C0
80C0
80C0
C0C0
FF80
3F00
ENDCHAR
STARTCHAR Yacute
ENCODING 221
SWIDTH 926 0
DWIDTH 12 0
BBX 12 12 0 0
BITMAP
0700
0000
E070
7060
30C0
1980
0F00
0600
0600
0600
0600
0600
ENDCHAR
STARTCHAR Thorn
ENCODING 222
SWIDTH 843 0
DWIDTH 11 0
BBX 10 10 1 0
BITMAP
8000
FF00
FF80
8180
80C0
80C0
8180
9F80
9E00
8000
ENDCHAR
STARTCHAR germandbls
ENCODING 223
SWIDTH 1760 0
DWIDTH 23 0
BBX 21 10 1 0
BITMAP
7F8FF8
FF9FF8
801800
C01800
FF8FF0
7FC7F8
00C008
00C008
FFDFF8
FF9FF0
ENDCHAR
STARTCHAR agrave
ENCODING 224
SWIDTH 989 0
DWIDTH 13 0
BBX 13 12 0 0
BITMAP
0F00
0000
0200
0700
0F00
0D80
1880
18C0
37E0
2060
6030
C038
ENDCHAR
STARTCHAR aacute
ENCODING 225
SWIDTH 989 0
DWIDTH 13 0
BBX 13 12 0 0
BITMAP
0700
0000
0200
0700
0F00
0D80
1880
18C0
37E0
2060
6030
C038
ENDCHAR
STARTCHAR acircumflex
ENCODING 226
SWIDTH 989 0
DWIDTH 13 0
BBX 13 13 0 0
BITMAP
0200
0500
0000
0200
0700
0F00
0D80
1880
18C0
37E0
2060
6030
C038
ENDCHAR
STARTCHAR atilde
ENCODING 227
SWIDTH 989 0
DWIDTH 13 0
BBX 13 12 0 0
BITMAP
0700
0000
0200
0700
0F00
0D80
1880
18C0
37E0
2060
6030
C038
ENDCHAR
STARTCHAR adieresis
ENCODING 228
SWIDTH 989 0
DWIDTH 13 0
BBX 13 13 0 0
BITMAP
0500
0500
0000
0200
0700
0F00
0D80
1880
18C0
37E0
2060
6030
C038
ENDCHAR
STARTCHAR aring
ENCODING 229
SWIDTH 989 0
DWIDTH 13 0
BBX 13 13 0 0
BITMAP
0700
0900
0700
0200
0700
0F00
0D80
1880
18C0
37E0
2060
6030
C038
ENDCHAR
STARTCHAR ae
ENCODING 230
SWIDTH 1345 0
DWIDTH 17 0
BBX 17 10 0 0
BITMAP
07FF80
07FF80
0C6000
0C6000
186F80
106F80
37E000
27E000
607F80
C07F80
ENDCHAR
STARTCHAR ccedilla
ENCODING 231
SWIDTH 829 0
DWIDTH 11 0
BBX 9 13 1 -3
BITMAP
3F80
7F80
C000
8000
8000
8000
C000
C000
7F80
3F80
0000
0C00
0800
ENDCHAR
STARTCHAR egrave
ENCODING 232
SWIDTH 759 0
DWIDTH 10 0
BBX 8 12 1 0
BITMAP
38
00
FF
FF
80
80
9F
9F
80
80
FF
FF
ENDCHAR
STARTCHAR eacute
ENCODING 233
SWIDTH 759 0
DWIDTH 10 0
BBX 8 12 1 0
BITMAP
1C
00
FF
FF
80
80
9F
9F
80
80
FF
FF
ENDCHAR
STARTCHAR ecircumflex
ENCODING 234
SWIDTH 759 0
DWIDTH 10 0
BBX 8 13 1 0
BITMAP
18
18
24
FF
FF
80
80
9F
9F
80
80
FF
FF
ENDCHAR
STARTCHAR edieresis
ENCODING 235
SWIDTH 759 0
DWIDTH 10 0
BBX 8 13 1 0
BITMAP
24
2C
00
FF
FF
80
80
9F
9F
80
80
FF
FF
ENDCHAR
STARTCHAR igrave
ENCODING 236
SWIDTH 267 0
DWIDTH 3 0
BBX 3 12 0 0
BITMAP
E0
00
60
60
60
60
60
60
60
60
60
60
ENDCHAR
STARTCHAR iacute
ENCODING 237
SWIDTH 267 0
DWIDTH 3 0
BBX 4 12 0 0
BITMAP
F0
00
60
60
60
60
60
60
60
60
60
60
ENDCHAR
STARTCHAR icircumflex
ENCODING 238
SWIDTH 267 0
DWIDTH 3 0
BBX 4 13 0 0
BITMAP
60
A0
10
60
60
60
60
60
60
60
60
60
60
ENDCHAR
STARTCHAR idieresis
ENCODING 239
SWIDTH 267 0
DWIDTH 3 0
BBX 4 13 0 0
BITMAP
A0
B0
00
60
60
60
60
60
60
60
60
60
60
ENDCHAR
STARTCHAR eth
ENCODING 240
SWIDTH 877 0
DWIDTH 11 0
BBX 11 10 0 0
BITMAP
7F00
7FC0
40C0
4060
FC60
FC60
4060
40C0
7FC0
7F00
ENDCHAR
STARTCHAR ntilde
ENCODING 241
SWIDTH 873 0
DWIDTH 11 0
BBX 10 12 1 0
BITMAP
1C00
0000
80C0
C0C0
E0C0
B0C0
98C0
8CC0
86C0
83C0
81C0
8080
ENDCHAR
STARTCHAR ograve
ENCODING 242
SWIDTH 968 0
DWIDTH 13 0
BBX 11 12 1 0
BITMAP
1E00
0000
3F80
7FC0
C0E0
8060
8060
8060
C060
C0C0
7FC0
3F80
ENDCHAR
STARTCHAR oacute
ENCODING 243
SWIDTH 968 0
DWIDTH 13 0
BBX 11 12 1 0
BITMAP
0E00
0000
3F80
7FC0
C0E0
8060
8060
8060
C060
C0C0
7FC0
3F80
ENDCHAR
STARTCHAR ocircumflex
ENCODING 244
SWIDTH 968 0
DWIDTH 13 0
BBX 11 13 1 0
BITMAP
0C00
0A00
0000
3F80
7FC0
C0E0
8060
8060
8060
C060
C0C0
7FC0
3F80
ENDCHAR
STARTCHAR otilde
ENCODING 245
SWIDTH 968 0
DWIDTH 13 0
BBX 11 12 1 0
BITMAP
0E00
0000
3F80
7FC0
C0E0
8060
8060
8060
C060
C0C0
7FC0
3F80
ENDCHAR
STARTCHAR odieresis
ENCODING 246
SWIDTH 968 0
DWIDTH 13 0
BBX 11 13 1 0
BITMAP
0A00
1A00
0000
3F80
7FC0
C0E0
8060
8060
8060
C060
C0C0
7FC0
3F80
ENDCHAR
STARTCHAR divide
ENCODING 247
SWIDTH 690 0
DWIDTH 9 0
BBX 7 8 1 1
BITMAP
10
10
FE
FE
00
00
10
10
ENDCHAR
STARTCHAR oslash
ENCODING 248
SWIDTH 968 0
DWIDTH 13 0
BBX 11 12 1 -1
BITMAP
0040
3F80
7FC0
C1E0
8260
8460
8860
8860
D0C0
7FC0
7F80
4000
ENDCHAR
STARTCHAR ugrave
ENCODING 249
SWIDTH 889 0
DWIDTH 12 0
BBX 10 12 1 0
BITMAP
1C00
0000
80C0
80C0
80C0
80C0
80C0
80C0
80C0
C0C0
FF80
3F00
ENDCHAR
STARTCHAR uacute
ENCODING 250
SWIDTH 889 0
DWIDTH 12 0
BBX 10 12 1 0
BITMAP
1E00
0000
80C0
80C0
80C0
80C0
80C0
80C0
80C0
C0C0
FF80
3F00
ENDCHAR
STARTCHAR ucircumflex
ENCODING 251
SWIDTH 889 0
DWIDTH 12 0
BBX 10 13 1 0
BITMAP
0C00
1400
0200
80C0
80C0
80C0
80C0
80C0
80C0
80C0
C0C0
FF80
3F00
ENDCHAR
STARTCHAR udieresis
ENCODING 252
SWIDTH 889 0
DWIDTH 12 0
BBX 10 13 1 0
BITMAP
1400
1600
0000
80C0
80C0
80C0
80C0
80C0
80C0
80C0
C0C0
FF80
3F00
ENDCHAR
STARTCHAR yacute
ENCODING 253
SWIDTH 926 0
DWIDTH 12 0
BBX 12 12 0 0
BITMAP
0700
0000
E070
7060
30C0
1980
0F00
0600
0600
0600
0600
0600
ENDCHAR
STARTCHAR thorn
ENCODING 254
SWIDTH 843 0
DWIDTH 11 0
BBX 10 10 1 0
BITMAP
8000
FF00
FF80
8180
80C0
80C0
8180
9F80
9E00
8000
ENDCHAR
STARTCHAR ydieresis
ENCODING 255
SWIDTH 926 0
DWIDTH 12 0
BBX 12 13 0 0
BITMAP
0900
0D00
0000
E070
7060
30C0
1980
0F00
0600
0600
0600
0600
0600
ENDCHAR
STARTCHAR Amacron
ENCODING 256
SWIDTH 989 0
DWIDTH 13 0
BBX 13 12 0 0
BITMAP
0700
0000
0200
0700
0F00
0D80
1880
18C0
37E0
2060
6030
C038
ENDCHAR
STARTCHAR amacron
ENCODING 257
SWIDTH 989 0
DWIDTH 13 0
BBX 13 12 0 0
BITMAP
0700
0000
0200
0700
0F00
0D80
1880
18C0
37E0
2060
6030
C038
ENDCHAR
STARTCHAR Abreve
ENCODING 258
SWIDTH 989 0
DWIDTH 13 0
BBX 13 12 0 0
BITMAP
0500
0700
0200
0700
0F00
0D80
1880
18C0
37E0
2060
6030
C038
ENDCHAR
STARTCHAR abreve
ENCODING 259
SWIDTH 989 0
DWIDTH 13 0
BBX 13 12 0 0
BITMAP
0500
0700
0200
0700
0F00
0D80
1880
18C0
37E0
2060
6030
C038
ENDCHAR
STARTCHAR Aogonek
ENCODING 260
SWIDTH 989 0
DWIDTH 13 0
BBX 13 13 0 -3
BITMAP
0200
0700
0F00
0D80
1880
18C0
37E0
2060
6030
C038
0010
0020
0038
ENDCHAR
STARTCHAR aogonek
ENCODING 261
SWIDTH 989 0
DWIDTH 13 0
BBX 13 13 0 -3
BITMAP
0200
0700
0F00
0D80
1880
18C0
37E0
2060
6030
C038
0010
0020
0038
ENDCHAR
STARTCHAR Cacute
ENCODING 262
SWIDTH 829 0
DWIDTH 11 0
BBX 9 12 1 0
BITMAP
0E00
0000
3F80
7F80
C000
8000
8000
8000
C000
C000
7F80
3F80
ENDCHAR
STARTCHAR cacute
ENCODING 263
SWIDTH 829 0
DWIDTH 11 0
BBX 9 12 1 0
BITMAP
0E00
0000
3F80
7F80
C000
8000
8000
8000
C000
C000
7F80
3F80
ENDCHAR
STARTCHAR Cdotaccent
ENCODING 266
SWIDTH 829 0
DWIDTH 11 0
BBX 9 13 1 0
BITMAP
0400
0C00
0000
3F80
7F80
C000
8000
8000
8000
C000
C000
7F80
3F80
ENDCHAR
STARTCHAR cdotaccent
ENCODING 267
SWIDTH 829 0
DWIDTH 11 0
BBX 9 13 1 0
BITMAP
0400
0C00
0000
3F80
7F80
C000
8000
8000
8000
C000
C000
7F80
3F80
ENDCHAR
STARTCHAR Ccaron
ENCODING 268
SWIDTH 829 0
DWIDTH 11 0
BBX 9 12 1 0
BITMAP
1E00
0C00
3F80
7F80
C000
8000
8000
8000
C000
C000
7F80
3F80
ENDCHAR
STARTCHAR ccaron
ENCODING 269
SWIDTH 829 0
DWIDTH 11 0
BBX 9 12 1 0
BITMAP
1E00
0C00
3F80
7F80
C000
8000
8000
8000
C000
C000
7F80
3F80
ENDCHAR
STARTCHAR Dcaron
ENCODING 270
SWIDTH 879 0
DWIDTH 11 0
BBX 10 12 1 0
BITMAP
3400
1800
FE00
FF80
8180
80C0
80C0
80C0
80C0
8180
FF80
FE00
ENDCHAR
STARTCHAR dcaron
ENCODING 271
SWIDTH 879 0
DWIDTH 11 0
BBX 10 12 1 0
BITMAP
3400
1800
FE00
FF80
8180
80C0
80C0
80C0
80C0
8180
FF80
FE00
ENDCHAR
STARTCHAR Dcroat
ENCODING 272
SWIDTH 877 0
DWIDTH 11 0
BBX 11 10 0 0
BITMAP
7F00
7FC0
40C0
4060
FC60
FC60
4060
40C0
7FC0
7F00
ENDCHAR
STARTCHAR dcroat
ENCODING 273
SWIDTH 877 0
DWIDTH 11 0
BBX 11 10 0 0
BITMAP
7F00
7FC0
40C0
4060
FC60
FC60
4060
40C0
7FC0
7F00
ENDCHAR
STARTCHAR Emacron
ENCODING 274
SWIDTH 759 0
DWIDTH 10 0
BBX 8 12 1 0
BITMAP
3C
00
FF
FF
80
80
9F
9F
80
80
FF
FF
ENDCHAR
STARTCHAR emacron
ENCODING 275
SWIDTH 759 0
DWIDTH 10 0
BBX 8 12 1 0
BITMAP
3C
00
FF
FF
80
80
9F
9F
80
80
FF
FF
ENDCHAR
STARTCHAR Ebreve
ENCODING 276
SWIDTH 759 0
DWIDTH 10 0
BBX 8 12 1 0
BITMAP
24
18
FF
FF
80
80
9F
9F
80
80
FF
FF
ENDCHAR
STARTCHAR ebreve
ENCODING 277
SWIDTH 759 0
DWIDTH 10 0
BBX 8 12 1 0
BITMAP
24
18
FF
FF
80
80
9F
9F
80
80
FF
FF
ENDCHAR
STARTCHAR Edotaccent
ENCODING 278
SWIDTH 759 0
DWIDTH 10 0
BBX 8 13 1 0
BITMAP
10
18
00
FF
FF
80
80
9F
9F
80
80
FF
FF
ENDCHAR
STARTCHAR edotaccent
ENCODING 279
SWIDTH 759 0
DWIDTH 10 0
BBX 8 13 1 0
BITMAP
10
18
00
FF
FF
80
80
9F
9F
80
80
FF
FF
ENDCHAR
STARTCHAR Eogonek
ENCODING 280
SWIDTH 759 0
DWIDTH 10 0
BBX 8 13 1 -3
BITMAP
FF
FF
80
80
9F
9F
80
80
FF
FF
01
02
03
ENDCHAR
STARTCHAR eogonek
ENCODING 281
SWIDTH 759 0
DWIDTH 10 0
BBX 8 13 1 -3
BITMAP
FF
FF
80
80
9F
9F
80
80
FF
FF
01
02
03
ENDCHAR
STARTCHAR Ecaron
ENCODING 282
SWIDTH 759 0
DWIDTH 10 0
BBX 8 12 1 0
BITMAP
2C
18
FF
FF
80
80
9F
9F
80
80
FF
FF
ENDCHAR
STARTCHAR ecaron
ENCODING 283
SWIDTH 759 0
DWIDTH 10 0
BBX 8 12 1 0
BITMAP
2C
18
FF
FF
80
80
9F
9F
80
80
FF
FF
ENDCHAR
STARTCHAR Gbreve
ENCODING 286
SWIDTH 888 0
DWIDTH 12 0
BBX 10 12 1 0
BITMAP
1200
0C00
3F80
7F80
C000
8000
8FC0
8FC0
C0C0
C0C0
7FC0
3FC0
ENDCHAR
STARTCHAR gbreve
ENCODING 287
SWIDTH 888 0
DWIDTH 12 0
BBX 10 12 1 0
BITMAP
1200
0C00
3F80
7F80
C000
8000
8FC0
8FC0
C0C0
C0C0
7FC0
3FC0
ENDCHAR
STARTCHAR Gdotaccent
ENCODING 288
SWIDTH 888 0
DWIDTH 12 0
BBX 10 13 1 0
BITMAP
0400
0400
0000
3F80
7F80
C000
8000
8FC0
8FC0
C0C0
C0C0
7FC0
3FC0
ENDCHAR
STARTCHAR gdotaccent
ENCODING 289
SWIDTH 888 0
DWIDTH 12 0
BBX 10 13 1 0
BITMAP
0400
0400
0000
3F80
7F80
C000
8000
8FC0
8FC0
C0C0
C0C0
7FC0
3FC0
ENDCHAR
STARTCHAR Gcommaaccent
ENCODING 290
SWIDTH 888 0
DWIDTH 12 0
BBX 10 13 1 -3
BITMAP
3F80
7F80
C000
8000
8FC0
8FC0
C0C0
C0C0
7FC0
3FC0
0000
0C00
0800
ENDCHAR
STARTCHAR gcommaaccent
ENCODING 291
SWIDTH 888 0
DWIDTH 12 0
BBX 10 13 1 -3
BITMAP
3F80
7F80
C000
8000
8FC0
8FC0
C0C0
C0C0
7FC0
3FC0
0000
0C00
0800
ENDCHAR
STARTCHAR Hbar
ENCODING 294
SWIDTH 838 0
DWIDTH 11 0
BBX 9 10 1 0
BITMAP
8180
9F80
8180
8180
9F80
9F80
8180
8180
8180
8180
ENDCHAR
STARTCHAR hbar
ENCODING 295
SWIDTH 838 0
DWIDTH 11 0
BBX 9 10 1 0
BITMAP
8180
9F80
8180
8180
9F80
9F80
8180
8180
8180
8180
ENDCHAR
STARTCHAR uni012A
ENCODING 298
SWIDTH 267 0
DWIDTH 3 0
BBX 3 12 0 0
BITMAP
E0
00
60
60
60
60
60
60
60
60
60
60
ENDCHAR
STARTCHAR imacron
ENCODING 299
SWIDTH 267 0
DWIDTH 3 0
BBX 3 12 0 0
BITMAP
E0
00
60
60
60
60
60
60
60
60
60
60
ENDCHAR
STARTCHAR Ibreve
ENCODING 300
SWIDTH 267 0
DWIDTH 3 0
BBX 4 12 0 0
BITMAP
90
E0
60
60
60
60
60
60
60
60
60
60
ENDCHAR
STARTCHAR ibreve
ENCODING 301
SWIDTH 267 0
DWIDTH 3 0
BBX 4 12 0 0
BITMAP
90
E0
60
60
60
60
60
60
60
60
60
60
ENDCHAR
STARTCHAR Iogonek
ENCODING 302
SWIDTH 267 0
DWIDTH 3 0
BBX 3 13 0 -3
BITMAP
60
60
60
60
60
60
60
60
60
60
40
80
E0
ENDCHAR
STARTCHAR iogonek
ENCODING 303
SWIDTH 267 0
DWIDTH 3 0
BBX 3 13 0 -3
BITMAP
60
60
60
60
60
60
60
60
60
60
40
80
E0
ENDCHAR
STARTCHAR Idotaccent
ENCODING 304
SWIDTH 267 0
DWIDTH 3 0
BBX 2 13 1 0
BITMAP
80
80
00
C0
C0
C0
C0
C0
C0
C0
C0
C0
C0
ENDCHAR
STARTCHAR dotlessi
ENCODING 305
SWIDTH 267 0
DWIDTH 3 0
BBX 2 10 1 0
BITMAP
C0
C0
C0
C0
C0
C0
C0
C0
C0
C0
ENDCHAR
STARTCHAR IJ
ENCODING 306
SWIDTH 975 0
DWIDTH 13 0
BBX 11 10 1 0
BITMAP
C060
C060
C060
C060
C060
C060
C060
C060
DFC0
DF80
ENDCHAR
STARTCHAR ij
ENCODING 307
SWIDTH 975 0
DWIDTH 13 0
BBX 11 10 1 0
BITMAP
C060
C060
C060
C060
C060
C060
C060
C060
DFC0
DF80
ENDCHAR
STARTCHAR Kcommaaccent
ENCODING 310
SWIDTH 875 0
DWIDTH 11 0
BBX 10 13 1 -3
BITMAP
81C0
8300
8E00
9C00
B000
B000
9C00
8600
8300
81C0
0000
0C00
0800
ENDCHAR
STARTCHAR kcommaaccent
ENCODING 311
SWIDTH 875 0
DWIDTH 11 0
BBX 10 13 1 -3
BITMAP
81C0
8300
8E00
9C00
B000
B000
9C00
8600
8300
81C0
0000
0C00
0800
ENDCHAR
STARTCHAR Lacute
ENCODING 313
SWIDTH 707 0
DWIDTH 9 0
BBX 9 12 0 0
BITMAP
F000
0000
4000
4000
4000
4000
4000
4000
4000
4000
7F80
7F80
ENDCHAR
STARTCHAR lacute
ENCODING 314
SWIDTH 707 0
DWIDTH 9 0
BBX 9 12 0 0
BITMAP
F000
0000
4000
4000
4000
4000
4000
4000
4000
4000
7F80
7F80
ENDCHAR
STARTCHAR Lcommaaccent
ENCODING 315
SWIDTH 707 0
DWIDTH 9 0
BBX 8 13 1 -3
BITMAP
80
80
80
80
80
80
80
80
FF
FF
00
18
10
ENDCHAR
STARTCHAR lcommaaccent
ENCODING 316
SWIDTH 707 0
DWIDTH 9 0
BBX 8 13 1 -3
BITMAP
80
80
80
80
80
80
80
80
FF
FF
00
18
10
ENDCHAR
STARTCHAR Lcaron
ENCODING 317
SWIDTH 707 0
DWIDTH 9 0
BBX 8 10 1 0
BITMAP
98
90
90
90
80
80
80
80
FF
FF
ENDCHAR
STARTCHAR lcaron
ENCODING 318
SWIDTH 707 0
DWIDTH 9 0
BBX 8 10 1 0
BITMAP
98
90
90
90
80
80
80
80
FF
FF
ENDCHAR
STARTCHAR Ldot
ENCODING 319
SWIDTH 707 0
DWIDTH 9 0
BBX 8 10 1 0
BITMAP
80
80
80
90
90
80
80
80
FF
FF
ENDCHAR
STARTCHAR ldot
ENCODING 320
SWIDTH 707 0
DWIDTH 9 0
BBX 8 10 1 0
BITMAP
80
80
80
90
90
80
80
80
FF
FF
ENDCHAR
STARTCHAR Lslash
ENCODING 321
SWIDTH 707 0
DWIDTH 9 0
BBX 8 10 1 0
BITMAP
80
80
80
88
B8
E0
80
80
FF
FF
ENDCHAR
STARTCHAR lslash
ENCODING 322
SWIDTH 707 0
DWIDTH 9 0
BBX 8 10 1 0
BITMAP
80
80
80
88
B8
E0
80
80
FF
FF
ENDCHAR
STARTCHAR Nacute
ENCODING 323
SWIDTH 873 0
DWIDTH 11 0
BBX 10 12 1 0
BITMAP
1E00
0000
80C0
C0C0
E0C0
B0C0
98C0
8CC0
86C0
83C0
81C0
8080
ENDCHAR
STARTCHAR nacute
ENCODING 324
SWIDTH 873 0
DWIDTH 11 0
BBX 10 12 1 0
BITMAP
1E00
0000
80C0
C0C0
E0C0
B0C0
98C0
8CC0
86C0
83C0
81C0
8080
ENDCHAR
STARTCHAR Ncommaaccent
ENCODING 325
SWIDTH 873 0
DWIDTH 11 0
BBX 10 13 1 -3
BITMAP
80C0
C0C0
E0C0
B0C0
98C0
8CC0
86C0
83C0
81C0
8080
0000
0C00
0800
ENDCHAR
STARTCHAR ncommaaccent
ENCODING 326
SWIDTH 873 0
DWIDTH 11 0
BBX 10 13 1 -3
BITMAP
80C0
C0C0
E0C0
B0C0
98C0
8CC0
86C0
83C0
81C0
8080
0000
0C00
0800
ENDCHAR
STARTCHAR Ncaron
ENCODING 327
SWIDTH 873 0
DWIDTH 11 0
BBX 10 12 1 0
BITMAP
1400
0C00
80C0
C0C0
E0C0
B0C0
98C0
8CC0
86C0
83C0
81C0
8080
ENDCHAR
STARTCHAR ncaron
ENCODING 328
SWIDTH 873 0
DWIDTH 11 0
BBX 10 12 1 0
BITMAP
1400
0C00
80C0
C0C0
E0C0
B0C0
98C0
8CC0
86C0
83C0
81C0
8080
ENDCHAR
STARTCHAR Eng
ENCODING 330
SWIDTH 873 0
DWIDTH 11 0
BBX 10 13 1 -3
BITMAP
80C0
C0C0
E0C0
B0C0
98C0
8CC0
86C0
83C0
81C0
80C0
0180
0F80
0E00
ENDCHAR
STARTCHAR eng
ENCODING 331
SWIDTH 873 0
DWIDTH 11 0
BBX 10 13 1 -3
BITMAP
80C0
C0C0
E0C0
B0C0
98C0
8CC0
86C0
83C0
81C0
80C0
0180
0F80
0E00
ENDCHAR
STARTCHAR Omacron
ENCODING 332
SWIDTH 968 0
DWIDTH 13 0
BBX 11 12 1 0
BITMAP
0E00
0000
3F80
7FC0
C0E0
8060
8060
8060
C060
C0C0
7FC0
3F80
ENDCHAR
STARTCHAR omacron
ENCODING 333
SWIDTH 968 0
DWIDTH 13 0
BBX 11 12 1 0
BITMAP
0E00
0000
3F80
7FC0
C0E0
8060
8060
8060
C060
C0C0
7FC0
3F80
ENDCHAR
STARTCHAR Obreve
ENCODING 334
SWIDTH 968 0
DWIDTH 13 0
BBX 11 12 1 0
BITMAP
1A00
0E00
3F80
7FC0
C0E0
8060
8060
8060
C060
C0C0
7FC0
3F80
ENDCHAR
STARTCHAR obreve
ENCODING 335
SWIDTH 968 0
DWIDTH 13 0
BBX 11 12 1 0
BITMAP
1A00
0E00
3F80
7FC0
C0E0
8060
8060
8060
C060
C0C0
7FC0
3F80
ENDCHAR
STARTCHAR Ohungarumlaut
ENCODING 336
SWIDTH 968 0
DWIDTH 13 0
BBX 11 13 1 0
BITMAP
0F00
0A00
0000
3F80
7FC0
C0E0
8060
8060
8060
C060
C0C0
7FC0
3F80
ENDCHAR
STARTCHAR ohungarumlaut
ENCODING 337
SWIDTH 968 0
DWIDTH 13 0
BBX 11 13 1 0
BITMAP
0F00
0A00
0000
3F80
7FC0
C0E0
8060
8060
8060
C060
C0C0
7FC0
3F80
ENDCHAR
STARTCHAR OE
ENCODING 338
SWIDTH 1304 0
DWIDTH 17 0
BBX 15 10 1 0
BITMAP
3FFE
7FFE
C180
8180
81BE
81BE
C180
C180
7FFE
3FFE
ENDCHAR
STARTCHAR oe
ENCODING 339
SWIDTH 1304 0
DWIDTH 17 0
BBX 15 10 1 0
BITMAP
3FFE
7FFE
C180
8180
81BE
81BE
C180
C180
7FFE
3FFE
ENDCHAR
STARTCHAR Racute
ENCODING 340
SWIDTH 921 0
DWIDTH 12 0
BBX 11 12 1 0
BITMAP
1E00
0000
FF80
FFC0
80C0
80C0
80C0
9FC0
9F80
8180
81C0
80E0
ENDCHAR
STARTCHAR racute
ENCODING 341
SWIDTH 921 0
DWIDTH 12 0
BBX 11 12 1 0
BITMAP
1E00
0000
FF80
FFC0
80C0
80C0
80C0
9FC0
9F80
8180
81C0
80E0
ENDCHAR
STARTCHAR Rcommaaccent
ENCODING 342
SWIDTH 921 0
DWIDTH 12 0
BBX 11 13 1 -3
BITMAP
FF80
FFC0
80C0
80C0
80C0
9FC0
9F80
8180
81C0
80E0
0000
0C00
0800
ENDCHAR
STARTCHAR rcommaaccent
ENCODING 343
SWIDTH 921 0
DWIDTH 12 0
BBX 11 13 1 -3
BITMAP
FF80
FFC0
80C0
80C0
80C0
9FC0
9F80
8180
81C0
80E0
0000
0C00
0800
ENDCHAR
STARTCHAR Rcaron
ENCODING 344
SWIDTH 921 0
DWIDTH 12 0
BBX 11 12 1 0
BITMAP
1400
0800
FF80
FFC0
80C0
80C0
80C0
9FC0
9F80
8180
81C0
80E0
ENDCHAR
STARTCHAR rcaron
ENCODING 345
SWIDTH 921 0
DWIDTH 12 0
BBX 11 12 1 0
BITMAP
1400
0800
FF80
FFC0
80C0
80C0
80C0
9FC0
9F80
8180
81C0
80E0
ENDCHAR
STARTCHAR Sacute
ENCODING 346
SWIDTH 880 0
DWIDTH 11 0
BBX 10 12 1 0
BITMAP
1E00
0000
7F80
FF80
8000
C000
FF80
7FC0
00C0
00C0
FFC0
FF80
ENDCHAR
STARTCHAR sacute
ENCODING 347
SWIDTH 880 0
DWIDTH 11 0
BBX 10 12 1 0
BITMAP
1E00
0000
7F80
FF80
8000
C000
FF80
7FC0
00C0
00C0
FFC0
FF80
ENDCHAR
STARTCHAR Scedilla
ENCODING 350
SWIDTH 880 0
DWIDTH 11 0
BBX 10 13 1 -3
BITMAP
7F80
FF80
8000
C000
FF80
7FC0
00C0
00C0
FFC0
FF80
0000
0C00
0800
ENDCHAR
STARTCHAR scedilla
ENCODING 351
SWIDTH 880 0
DWIDTH 11 0
BBX 10 13 1 -3
BITMAP
7F80
FF80
8000
C000
FF80
7FC0
00C0
00C0
FFC0
FF80
0000
0C00
0800
ENDCHAR
STARTCHAR Scaron
ENCODING 352
SWIDTH 880 0
DWIDTH 11 0
BBX 10 12 1 0
BITMAP
1600
0C00
7F80
FF80
8000
C000
FF80
7FC0
00C0
00C0
FFC0
FF80
ENDCHAR
STARTCHAR scaron
ENCODING 353
SWIDTH 880 0
DWIDTH 11 0
BBX 10 12 1 0
BITMAP
1600
0C00
7F80
FF80
8000
C000
FF80
7FC0
00C0
00C0
FFC0
FF80
ENDCHAR
STARTCHAR Tcommaaccent
ENCODING 354
SWIDTH 720 0
DWIDTH 9 0
BBX 9 13 0 -3
BITMAP
FF80
FF80
0C00
0C00
0C00
0C00
0C00
0C00
0C00
0C00
0000
0C00
0800
ENDCHAR
STARTCHAR tcommaaccent
ENCODING 355
SWIDTH 720 0
DWIDTH 9 0
BBX 9 13 0 -3
BITMAP
FF80
FF80
0C00
0C00
0C00
0C00
0C00
0C00
0C00
0C00
0000
0C00
0800
ENDCHAR
STARTCHAR Tcaron
ENCODING 356
SWIDTH 720 0
DWIDTH 9 0
BBX 9 12 0 0
BITMAP
1400
0C00
FF80
FF80
0C00
0C00
0C00
0C00
0C00
0C00
0C00
0C00
ENDCHAR
STARTCHAR tcaron
ENCODING 357
SWIDTH 720 0
DWIDTH 9 0
BBX 9 12 0 0
BITMAP
1400
0C00
FF80
FF80
0C00
0C00
0C00
0C00
0C00
0C00
0C00
0C00
ENDCHAR
STARTCHAR Tbar
ENCODING 358
SWIDTH 720 0
DWIDTH 9 0
BBX 9 10 0 0
BITMAP
FF80
FF80
0C00
0C00
0C00
3E00
3E00
0C00
0C00
0C00
ENDCHAR
STARTCHAR tbar
ENCODING 359
SWIDTH 720 0
DWIDTH 9 0
BBX 9 10 0 0
BITMAP
FF80
FF80
0C00
0C00
0C00
3E00
3E00
0C00
0C00
0C00
ENDCHAR
STARTCHAR Utilde
ENCODING 360
SWIDTH 889 0
DWIDTH 12 0
BBX 10 12 1 0
BITMAP
1C00
0000
80C0
80C0
80C0
80C0
80C0
80C0
80C0
C0C0
FF80
3F00
ENDCHAR
STARTCHAR utilde
ENCODING 361
SWIDTH 889 0
DWIDTH 12 0
BBX 10 12 1 0
BITMAP
1C00
0000
80C0
80C0
80C0
80C0
80C0
80C0
80C0
C0C0
FF80
3F00
ENDCHAR
STARTCHAR Umacron
ENCODING 362
SWIDTH 889 0
DWIDTH 12 0
BBX 10 12 1 0
BITMAP
1C00
0000
80C0
80C0
80C0
80C0
80C0
80C0
80C0
C0C0
FF80
3F00
ENDCHAR
STARTCHAR umacron
ENCODING 363
SWIDTH 889 0
DWIDTH 12 0
BBX 10 12 1 0
BITMAP
1C00
0000
80C0
80C0
80C0
80C0
80C0
80C0
80C0
C0C0
FF80
3F00
ENDCHAR
STARTCHAR Ubreve
ENCODING 364
SWIDTH 889 0
DWIDTH 12 0
BBX 10 12 1 0
BITMAP
1200
1C00
80C0
80C0
80C0
80C0
80C0
80C0
80C0
C0C0
FF80
3F00
ENDCHAR
STARTCHAR ubreve
ENCODING 365
SWIDTH 889 0
DWIDTH 12 0
BBX 10 12 1 0
BITMAP
1200
1C00
80C0
80C0
80C0
80C0
80C0
80C0
80C0
C0C0
FF80
3F00
ENDCHAR
STARTCHAR Uring
ENCODING 366
SWIDTH 889 0
DWIDTH 12 0
BBX 10 13 1 0
BITMAP
1C00
1200
1C00
80C0
80C0
80C0
80C0
80C0
80C0
80C0
C0C0
FF80
3F00
ENDCHAR
STARTCHAR uring
ENCODING 367
SWIDTH 889 0
DWIDTH 12 0
BBX 10 13 1 0
BITMAP
1C00
1200
1C00
80C0
80C0
80C0
80C0
80C0
80C0
80C0
C0C0
FF80
3F00
ENDCHAR
STARTCHAR Uhungarumlaut
ENCODING 368
SWIDTH 889 0
DWIDTH 12 0
BBX 10 13 1 0
BITMAP
0A00
1400
0000
80C0
80C0
80C0
80C0
80C0
80C0
80C0
C0C0
FF80
3F00
ENDCHAR
STARTCHAR uhungarumlaut
ENCODING 369
SWIDTH 889 0
DWIDTH 12 0
BBX 10 13 1 0
BITMAP
0A00
1400
0000
80C0
80C0
80C0
80C0
80C0
80C0
80C0
C0C0
FF80
3F00
ENDCHAR
STARTCHAR Uogonek
ENCODING 370
SWIDTH 889 0
DWIDTH 12 0
BBX 10 13 1 -3
BITMAP
80C0
80C0
80C0
80C0
80C0
80C0
80C0
C0C0
FF80
3F00
0C00
0800
0C00
ENDCHAR
STARTCHAR uogonek
ENCODING 371
SWIDTH 889 0
DWIDTH 12 0
BBX 10 13 1 -3
BITMAP
80C0
80C0
80C0
80C0
80C0
80C0
80C0
C0C0
FF80
3F00
0C00
0800
0C00
ENDCHAR
STARTCHAR Wcircumflex
ENCODING 372
SWIDTH 1268 0
DWIDTH 16 0
BBX 16 13 0 0
BITMAP
0180
0140
0200
C603
6303
6306
3184
118C
19C8
09D8
0F70
0670
0620
ENDCHAR
STARTCHAR wcircumflex
ENCODING 373
SWIDTH 1268 0
DWIDTH 16 0
BBX 16 13 0 0
BITMAP
0180
0140
0200
C603
6303
6306
3184
118C
19C8
09D8
0F70
0670
0620
ENDCHAR
STARTCHAR Ycircumflex
ENCODING 374
SWIDTH 926 0
DWIDTH 12 0
BBX 12 13 0 0
BITMAP
0600
0600
0900
E070
7060
30C0
1980
0F00
0600
0600
0600
0600
0600
ENDCHAR
STARTCHAR ycircumflex
ENCODING 375
SWIDTH 926 0
DWIDTH 12 0
BBX 12 13 0 0
BITMAP
0600
0600
0900
E070
7060
30C0
1980
0F00
0600
0600
0600
0600
0600
ENDCHAR
STARTCHAR Ydieresis
ENCODING 376
SWIDTH 926 0
DWIDTH 12 0
BBX 12 13 0 0
BITMAP
0900
0D00
0000
E070
7060
30C0
1980
0F00
0600
0600
0600
0600
0600
ENDCHAR
STARTCHAR Zacute
ENCODING 377
SWIDTH 802 0
DWIDTH 10 0
BBX 9 12 1 0
BITMAP
1C00
0000
FF80
FF80
0700
0E00
0C00
1800
3000
6000
FF80
FF80
ENDCHAR
STARTCHAR zacute
ENCODING 378
SWIDTH 802 0
DWIDTH 10 0
BBX 9 12 1 0
BITMAP
1C00
0000
FF80
FF80
0700
0E00
0C00
1800
3000
6000
FF80
FF80
ENDCHAR
STARTCHAR Zdotaccent
ENCODING 379
SWIDTH 802 0
DWIDTH 10 0
BBX 9 13 1 0
BITMAP
0800
0800
0000
FF80
FF80
0700
0E00
0C00
1800
3000
6000
FF80
FF80
ENDCHAR
STARTCHAR zdotaccent
ENCODING 380
SWIDTH 802 0
DWIDTH 10 0
BBX 9 13 1 0
BITMAP
0800
0800
0000
FF80
FF80
0700
0E00
0C00
1800
3000
6000
FF80
FF80
ENDCHAR
STARTCHAR Zcaron
ENCODING 381
SWIDTH 802 0
DWIDTH 10 0
BBX 9 12 1 0
BITMAP
3400
1800
FF80
FF80
0700
0E00
0C00
1800
3000
6000
FF80
FF80
ENDCHAR
STARTCHAR zcaron
ENCODING 382
SWIDTH 802 0
DWIDTH 10 0
BBX 9 12 1 0
BITMAP
3400
1800
FF80
FF80
0700
0E00
0C00
1800
3000
6000
FF80
FF80
ENDCHAR
STARTCHAR Scommaaccent
ENCODING 536
SWIDTH 880 0
DWIDTH 11 0
BBX 10 13 1 -3
BITMAP
7F80
FF80
8000
C000
FF80
7FC0
00C0
00C0
FFC0
FF80
0000
0C00
0800
ENDCHAR
STARTCHAR scommaaccent
ENCODING 537
SWIDTH 880 0
DWIDTH 11 0
BBX 10 13 1 -3
BITMAP
7F80
FF80
8000
C000
FF80
7FC0
00C0
00C0
FFC0
FF80
0000
0C00
0800
ENDCHAR
STARTCHAR uni021A
ENCODING 538
SWIDTH 720 0
DWIDTH 9 0
BBX 9 13 0 -3
BITMAP
FF80
FF80
0C00
0C00
0C00
0C00
0C00
0C00
0C00
0C00
0000
0C00
0800
ENDCHAR
STARTCHAR uni021B
ENCODING 539
SWIDTH 720 0
DWIDTH 9 0
BBX 9 13 0 -3
BITMAP
FF80
FF80
0C00
0C00
0C00
0C00
0C00
0C00
0C00
0C00
0000
0C00
0800
ENDCHAR
STARTCHAR circumflex
ENCODING 710
SWIDTH 379 0
DWIDTH 5 0
BBX 3 2 1 11
BITMAP
40
A0
ENDCHAR
STARTCHAR caron
ENCODING 711
SWIDTH 379 0
DWIDTH 5 0
BBX 3 2 1 10
BITMAP
A0
40
ENDCHAR
STARTCHAR breve
ENCODING 728
SWIDTH 382 0
DWIDTH 5 0
BBX 3 2 1 10
BITMAP
A0
E0
ENDCHAR
STARTCHAR dotaccent
ENCODING 729
SWIDTH 208 0
DWIDTH 3 0
BBX 1 2 1 11
BITMAP
80
80
ENDCHAR
STARTCHAR ring
ENCODING 730
SWIDTH 362 0
DWIDTH 5 0
BBX 3 3 1 10
BITMAP
E0
A0
E0
ENDCHAR
STARTCHAR ogonek
ENCODING 731
SWIDTH 234 0
DWIDTH 3 0
BBX 3 3 0 -3
BITMAP
60
80
E0
ENDCHAR
STARTCHAR tilde
ENCODING 732
SWIDTH 362 0
DWIDTH 5 0
BBX 3 1 1 11
BITMAP
E0
ENDCHAR
STARTCHAR hungarumlaut
ENCODING 733
SWIDTH 399 0
DWIDTH 5 0
BBX 4 2 1 11
BITMAP
B0
A0
ENDCHAR
STARTCHAR commaaccent
ENCODING 806
SWIDTH 219 0
DWIDTH 3 0
BBX 1 2 1 -3
BITMAP
80
80
ENDCHAR
STARTCHAR Wgrave
ENCODING 7808
SWIDTH 1268 0
DWIDTH 16 0
BBX 16 12 0 0
BITMAP
03C0
0000
C603
6303
6306
3184
118C
19C8
09D8
0F70
0670
0620
ENDCHAR
STARTCHAR wgrave
ENCODING 7809
SWIDTH 1268 0
DWIDTH 16 0
BBX 16 12 0 0
BITMAP
03C0
0000
C603
6303
6306
3184
118C
19C8
09D8
0F70
0670
0620
ENDCHAR
STARTCHAR Wacute
ENCODING 7810
SWIDTH 1268 0
DWIDTH 16 0
BBX 16 12 0 0
BITMAP
01C0
0000
C603
6303
6306
3184
118C
19C8
09D8
0F70
0670
0620
ENDCHAR
STARTCHAR wacute
ENCODING 7811
SWIDTH 1268 0
DWIDTH 16 0
BBX 16 12 0 0
BITMAP
01C0
0000
C603
6303
6306
3184
118C
19C8
09D8
0F70
0670
0620
ENDCHAR
STARTCHAR Wdieresis
ENCODING 7812
SWIDTH 1268 0
DWIDTH 16 0
BBX 16 13 0 0
BITMAP
0140
0340
0000
C603
6303
6306
3184
118C
19C8
09D8
0F70
0670
0620
ENDCHAR
STARTCHAR wdieresis
ENCODING 7813
SWIDTH 1268 0
DWIDTH 16 0
BBX 16 13 0 0
BITMAP
0140
0340
0000
C603
6303
6306
3184
118C
19C8
09D8
0F70
0670
0620
ENDCHAR
STARTCHAR Ygrave
ENCODING 7922
SWIDTH 926 0
DWIDTH 12 0
BBX 12 12 0 0
BITMAP
0E00
0000
E070
7060
30C0
1980
0F00
0600
0600
0600
0600
0600
ENDCHAR
STARTCHAR ygrave
ENCODING 7923
SWIDTH 926 0
DWIDTH 12 0
BBX 12 12 0 0
BITMAP
0E00
0000
E070
7060
30C0
1980
0F00
0600
0600
0600
0600
0600
ENDCHAR
STARTCHAR endash
ENCODING 8211
SWIDTH 590 0
DWIDTH 8 0
BBX 7 2 0 4
BITMAP
FE
FE
ENDCHAR
STARTCHAR emdash
ENCODING 8212
SWIDTH 866 0
DWIDTH 11 0
BBX 11 2 0 4
BITMAP
FFE0
FFE0
ENDCHAR
STARTCHAR quoteleft
ENCODING 8216
SWIDTH 259 0
DWIDTH 3 0
BBX 2 4 1 6
BITMAP
C0
C0
C0
C0
ENDCHAR
STARTCHAR quoteright
ENCODING 8217
SWIDTH 259 0
DWIDTH 3 0
BBX 2 4 1 6
BITMAP
C0
80
80
80
ENDCHAR
STARTCHAR quotesinglbase
ENCODING 8218
SWIDTH 259 0
DWIDTH 3 0
BBX 2 4 1 -2
BITMAP
C0
80
80
80
ENDCHAR
STARTCHAR quotedblleft
ENCODING 8220
SWIDTH 462 0
DWIDTH 6 0
BBX 4 4 1 6
BITMAP
D0
D0
D0
D0
ENDCHAR
STARTCHAR quotedblright
ENCODING 8221
SWIDTH 462 0
DWIDTH 6 0
BBX 4 4 1 6
BITMAP
D0
90
90
90
ENDCHAR
STARTCHAR quotedblbase
ENCODING 8222
SWIDTH 462 0
DWIDTH 6 0
BBX 4 4 1 -2
BITMAP
D0
90
90
90
ENDCHAR
STARTCHAR dagger
ENCODING 8224
SWIDTH 466 0
DWIDTH 6 0
BBX 4 10 1 0
BITMAP
20
20
F0
20
20
20
20
20
20
20
ENDCHAR
STARTCHAR daggerdbl
ENCODING 8225
SWIDTH 466 0
DWIDTH 6 0
BBX 4 10 1 0
BITMAP
20
20
F0
20
20
20
20
F0
20
20
ENDCHAR
STARTCHAR bullet
ENCODING 8226
SWIDTH 413 0
DWIDTH 5 0
BBX 4 4 1 3
BITMAP
E0
E0
F0
E0
ENDCHAR
STARTCHAR ellipsis
ENCODING 8230
SWIDTH 1310 0
DWIDTH 17 0
BBX 15 2 1 0
BITMAP
8102
C106
ENDCHAR
STARTCHAR perthousand
ENCODING 8240
SWIDTH 1314 0
DWIDTH 17 0
BBX 16 12 1 -1
BITMAP
00C0
F080
9100
8A00
9600
6400
0B8E
1452
3451
2452
438E
8000
ENDCHAR
STARTCHAR guilsinglleft
ENCODING 8249
SWIDTH 367 0
DWIDTH 5 0
BBX 3 5 1 3
BITMAP
20
60
80
C0
20
ENDCHAR
STARTCHAR guilsinglright
ENCODING 8250
SWIDTH 368 0
DWIDTH 5 0
BBX 3 5 1 3
BITMAP
80
C0
20
60
80
ENDCHAR
STARTCHAR fraction
ENCODING 8260
SWIDTH 185 0
DWIDTH 2 0
BBX 10 12 -4 -1
BITMAP
0040
0080
0180
0100
0200
0400
0C00
0800
1000
2000
2000
C000
ENDCHAR
STARTCHAR zerosuperior
ENCODING 8304
SWIDTH 449 0
DWIDTH 6 0
BBX 5 5 0 5
BITMAP
70
48
88
48
70
ENDCHAR
STARTCHAR foursuperior
ENCODING 8308
SWIDTH 452 0
DWIDTH 6 0
BBX 6 5 0 5
BITMAP
88
88
88
7C
08
ENDCHAR
STARTCHAR fivesuperior
ENCODING 8309
SWIDTH 472 0
DWIDTH 6 0
BBX 5 5 1 5
BITMAP
F0
80
F0
08
F0
ENDCHAR
STARTCHAR sixsuperior
ENCODING 8310
SWIDTH 466 0
DWIDTH 6 0
BBX 6 5 0 5
BITMAP
78
40
F8
44
78
ENDCHAR
STARTCHAR sevensuperior
ENCODING 8311
SWIDTH 408 0
DWIDTH 5 0
BBX 5 5 0 5
BITMAP
F8
10
10
20
40
ENDCHAR
STARTCHAR eightsuperior
ENCODING 8312
SWIDTH 479 0
DWIDTH 6 0
BBX 5 5 1 5
BITMAP
F0
88
F0
88
F0
ENDCHAR
STARTCHAR ninesuperior
ENCODING 8313
SWIDTH 460 0
DWIDTH 6 0
BBX 6 5 0 5
BITMAP
78
88
7C
08
78
ENDCHAR
STARTCHAR zeroinferior
ENCODING 8320
SWIDTH 449 0
DWIDTH 6 0
BBX 5 5 0 0
BITMAP
70
48
88
48
70
ENDCHAR
STARTCHAR oneinferior
ENCODING 8321
SWIDTH 222 0
DWIDTH 3 0
BBX 2 5 0 0
BITMAP
C0
40
40
40
40
ENDCHAR
STARTCHAR twoinferior
ENCODING 8322
SWIDTH 442 0
DWIDTH 6 0
BBX 4 5 1 0
BITMAP
F0
10
F0
80
F0
ENDCHAR
STARTCHAR threeinferior
ENCODING 8323
SWIDTH 443 0
DWIDTH 6 0
BBX 5 5 0 0
BITMAP
F8
08
38
08
F8
ENDCHAR
STARTCHAR fourinferior
ENCODING 8324
SWIDTH 452 0
DWIDTH 6 0
BBX 6 5 0 0
BITMAP
88
88
88
7C
08
ENDCHAR
STARTCHAR fiveinferior
ENCODING 8325
SWIDTH 472 0
DWIDTH 6 0
BBX 5 5 1 0
BITMAP
F0
80
F0
08
F0
ENDCHAR
STARTCHAR sixinferior
ENCODING 8326
SWIDTH 466 0
DWIDTH 6 0
BBX 6 5 0 0
BITMAP
78
40
F8
44
78
ENDCHAR
STARTCHAR seveninferior
ENCODING 8327
SWIDTH 408 0
DWIDTH 5 0
BBX 5 5 0 0
BITMAP
F8
10
10
20
40
ENDCHAR
STARTCHAR eightinferior
ENCODING 8328
SWIDTH 479 0
DWIDTH 6 0
BBX 5 5 1 0
BITMAP
F0
88
F0
88
F0
ENDCHAR
STARTCHAR nineinferior
ENCODING 8329
SWIDTH 460 0
DWIDTH 6 0
BBX 6 5 0 0
BITMAP
78
88
7C
08
78
ENDCHAR
STARTCHAR Euro
ENCODING 8364
SWIDTH 884 0
DWIDTH 11 0
BBX 11 10 0 0
BITMAP
0FE0
1FC0
3000
2000
FF80
FF00
2000
3000
1FC0
0FC0
ENDCHAR
STARTCHAR uni2117
ENCODING 8471
SWIDTH 829 0
DWIDTH 11 0
BBX 9 10 1 0
BITMAP
3E00
4100
BC80
A280
A280
AC80
A080
8080
4100
3E00
ENDCHAR
STARTCHAR trademark
ENCODING 8482
SWIDTH 536 0
DWIDTH 7 0
BBX 5 3 1 7
BITMAP
E8
A8
B8
ENDCHAR
STARTCHAR onethird
ENCODING 8531
SWIDTH 951 0
DWIDTH 12 0
BBX 11 12 1 -1
BITMAP
0080
4100
2100
2200
2400
2800
0BC0
1020
21C0
6020
43C0
8000
ENDCHAR
STARTCHAR twothirds
ENCODING 8532
SWIDTH 979 0
DWIDTH 13 0
BBX 11 12 1 -1
BITMAP
0040
F080
1100
F100
8200
F400
0BE0
0820
10E0
2020
63E0
C000
ENDCHAR
STARTCHAR oneeighth
ENCODING 8539
SWIDTH 985 0
DWIDTH 13 0
BBX 11 12 1 -1
BITMAP
0080
4100
2100
2200
2400
2800
0BE0
1220
21E0
6220
43E0
8000
ENDCHAR
STARTCHAR threeeighths
ENCODING 8540
SWIDTH 972 0
DWIDTH 13 0
BBX 11 12 1 -1
BITMAP
0040
F080
1100
7300
1200
F400
0BE0
1A20
13E0
2220
43E0
C000
ENDCHAR
STARTCHAR fiveeighths
ENCODING 8541
SWIDTH 973 0
DWIDTH 13 0
BBX 11 12 1 -1
BITMAP
0040
F080
8100
F100
0A00
F400
0BE0
0A20
13E0
2220
63E0
C000
ENDCHAR
STARTCHAR seveneighths
ENCODING 8542
SWIDTH 965 0
DWIDTH 13 0
BBX 11 12 1 -1
BITMAP
0080
F900
1100
2200
4400
C800
0BE0
1220
23E0
6220
43E0
8000
ENDCHAR
STARTCHAR minus
ENCODING 8722
SWIDTH 690 0
DWIDTH 9 0
BBX 7 2 1 5
BITMAP
FE
FE
ENDCHAR
STARTCHAR approxequal
ENCODING 8776
SWIDTH 691 0
DWIDTH 9 0
BBX 7 6 1 2
BITMAP
E2
9E
00
00
E2
9E
ENDCHAR
STARTCHAR notequal
ENCODING 8800
SWIDTH 690 0
DWIDTH 9 0
BBX 9 12 0 -1
BITMAP
0080
0100
0200
7F00
7F00
0800
7F00
7F00
2000
4000
C000
8000
ENDCHAR
STARTCHAR lessequal
ENCODING 8804
SWIDTH 690 0
DWIDTH 9 0
BBX 7 10 1 -1
BITMAP
02
0C
70
80
60
1C
06
00
FE
FE
ENDCHAR
STARTCHAR greaterequal
ENCODING 8805
SWIDTH 690 0
DWIDTH 9 0
BBX 7 10 1 -1
BITMAP
80
60
1C
02
0C
70
C0
00
FE
FE
ENDCHAR
STARTCHAR .notdef
ENCODING -1
SWIDTH 430 0
DWIDTH 6 0
BBX 4 10 1 0
BITMAP
F0
90
90
90
90
90
90
90
90
F0
ENDCHAR
STARTCHAR nonmarkingreturn
ENCODING -1
SWIDTH 104 0
DWIDTH 1 0
BBX 1 1 0 0
BITMAP
00
ENDCHAR
STARTCHAR .null
ENCODING -1
SWIDTH 104 0
DWIDTH 1 0
BBX 1 1 0 0
BITMAP
00
ENDCHAR
STARTCHAR .ttfautohint
ENCODING -1
SWIDTH 104 0
DWIDTH 1 0
BBX 1 1 0 0
BITMAP
00
ENDCHAR
ENDFONT
