STARTFONT 2.1
FONT -FontForge-Good Times Rg-Book-R-Normal--5-50-75-75-P-36-ISO10646-1
SIZE 5 75 75
FONTBOUNDINGBOX 10 7 -1 -1
COMMENT "Generated by fontforge, http://fontforge.sourceforge.net"
COMMENT "(c) 1998-2012 Typodermic Fonts Inc. See attached license agreement. If agreement is missing visit typodermicfonts.com for more info. Languages by Chikako Larabie"
STARTPROPERTIES 39
FOUNDRY "FontForge"
FAMILY_NAME "Good Times Rg"
WEIGHT_NAME "Book"
SLANT "R"
SETWIDTH_NAME "Normal"
ADD_STYLE_NAME ""
PIXEL_SIZE 5
POINT_SIZE 50
RESOLUTION_X 75
RESOLUTION_Y 75
SPACING "P"
AVERAGE_WIDTH 36
CHARSET_REGISTRY "ISO10646"
CHARSET_ENCODING "1"
FONTNAME_REGISTRY ""
CHARSET_COLLECTIONS "ISO8859-2 ISO8859-9 ISO8859-4 ISO10646-1"
FONT_NAME "GoodTimesRg-Regular"
FACE_NAME "GoodTimesRg-Regular"
COPYRIGHT "(c) 1998-2012 Typodermic Fonts Inc. See attached license agreement. If agreement is missing visit typodermicfonts.com for more info. Languages by Chikako Larabie"
FONT_VERSION "4.001"
FONT_ASCENT 4
FONT_DESCENT 1
UNDERLINE_POSITION -1
UNDERLINE_THICKNESS 1
X_HEIGHT 3
CAP_HEIGHT 3
RAW_ASCENT 799
RAW_DESCENT 201
NORM_SPACE 1
RELATIVE_WEIGHT 40
RELATIVE_SETWIDTH 50
SUPERSCRIPT_X 0
SUPERSCRIPT_Y 1
SUPERSCRIPT_SIZE 1
SUBSCRIPT_X 0
SUBSCRIPT_Y 0
SUBSCRIPT_SIZE 1
AVG_LOWERCASE_WIDTH 42
AVG_UPPERCASE_WIDTH 42
ENDPROPERTIES
CHARS 372
STARTCHAR space
ENCODING 32
SWIDTH 294 0
DWIDTH 1 0
BBX 1 1 0 0
BITMAP
00
ENDCHAR
STARTCHAR exclam
ENCODING 33
SWIDTH 298 0
DWIDTH 1 0
BBX 1 4 0 0
BITMAP
80
80
80
80
ENDCHAR
STARTCHAR quotedbl
ENCODING 34
SWIDTH 452 0
DWIDTH 2 0
BBX 2 1 0 3
BITMAP
C0
ENDCHAR
STARTCHAR numbersign
ENCODING 35
SWIDTH 697 0
DWIDTH 3 0
BBX 3 4 0 0
BITMAP
60
60
E0
C0
ENDCHAR
STARTCHAR dollar
ENCODING 36
SWIDTH 744 0
DWIDTH 4 0
BBX 3 4 0 0
BITMAP
E0
E0
60
E0
ENDCHAR
STARTCHAR percent
ENCODING 37
SWIDTH 965 0
DWIDTH 5 0
BBX 5 5 0 0
BITMAP
10
D0
E0
50
D8
ENDCHAR
STARTCHAR ampersand
ENCODING 38
SWIDTH 759 0
DWIDTH 4 0
BBX 4 4 0 0
BITMAP
C0
60
A0
F0
ENDCHAR
STARTCHAR quotesingle
ENCODING 39
SWIDTH 255 0
DWIDTH 1 0
BBX 1 1 0 3
BITMAP
80
ENDCHAR
STARTCHAR parenleft
ENCODING 40
SWIDTH 356 0
DWIDTH 2 0
BBX 1 5 0 0
BITMAP
80
80
80
80
80
ENDCHAR
STARTCHAR parenright
ENCODING 41
SWIDTH 355 0
DWIDTH 2 0
BBX 1 5 0 0
BITMAP
80
80
80
80
80
ENDCHAR
STARTCHAR asterisk
ENCODING 42
SWIDTH 469 0
DWIDTH 2 0
BBX 2 2 0 2
BITMAP
C0
40
ENDCHAR
STARTCHAR plus
ENCODING 43
SWIDTH 690 0
DWIDTH 3 0
BBX 3 3 0 0
BITMAP
40
E0
40
ENDCHAR
STARTCHAR comma
ENCODING 44
SWIDTH 259 0
DWIDTH 1 0
BBX 1 1 0 0
BITMAP
80
ENDCHAR
STARTCHAR hyphen
ENCODING 45
SWIDTH 296 0
DWIDTH 1 0
BBX 1 1 0 2
BITMAP
80
ENDCHAR
STARTCHAR period
ENCODING 46
SWIDTH 262 0
DWIDTH 1 0
BBX 1 1 0 0
BITMAP
80
ENDCHAR
STARTCHAR slash
ENCODING 47
SWIDTH 444 0
DWIDTH 2 0
BBX 2 4 0 0
BITMAP
40
40
80
80
ENDCHAR
STARTCHAR zero
ENCODING 48
SWIDTH 838 0
DWIDTH 4 0
BBX 4 4 0 0
BITMAP
60
90
90
60
ENDCHAR
STARTCHAR one
ENCODING 49
SWIDTH 385 0
DWIDTH 2 0
BBX 2 4 0 0
BITMAP
80
40
40
40
ENDCHAR
STARTCHAR two
ENCODING 50
SWIDTH 825 0
DWIDTH 4 0
BBX 4 4 0 0
BITMAP
F0
70
80
F0
ENDCHAR
STARTCHAR three
ENCODING 51
SWIDTH 827 0
DWIDTH 4 0
BBX 4 4 0 0
BITMAP
F0
60
10
F0
ENDCHAR
STARTCHAR four
ENCODING 52
SWIDTH 845 0
DWIDTH 4 0
BBX 4 4 0 0
BITMAP
90
90
70
10
ENDCHAR
STARTCHAR five
ENCODING 53
SWIDTH 885 0
DWIDTH 4 0
BBX 4 4 0 0
BITMAP
F0
F0
10
F0
ENDCHAR
STARTCHAR six
ENCODING 54
SWIDTH 872 0
DWIDTH 4 0
BBX 4 4 0 0
BITMAP
70
F0
90
70
ENDCHAR
STARTCHAR seven
ENCODING 55
SWIDTH 756 0
DWIDTH 4 0
BBX 4 4 0 0
BITMAP
F0
20
40
C0
ENDCHAR
STARTCHAR eight
ENCODING 56
SWIDTH 898 0
DWIDTH 4 0
BBX 4 4 0 0
BITMAP
F0
70
90
70
ENDCHAR
STARTCHAR nine
ENCODING 57
SWIDTH 861 0
DWIDTH 4 0
BBX 4 4 0 0
BITMAP
F0
90
F0
70
ENDCHAR
STARTCHAR colon
ENCODING 58
SWIDTH 262 0
DWIDTH 1 0
BBX 1 3 0 0
BITMAP
80
00
80
ENDCHAR
STARTCHAR semicolon
ENCODING 59
SWIDTH 262 0
DWIDTH 1 0
BBX 1 3 0 0
BITMAP
80
00
80
ENDCHAR
STARTCHAR less
ENCODING 60
SWIDTH 690 0
DWIDTH 3 0
BBX 3 3 0 1
BITMAP
20
C0
60
ENDCHAR
STARTCHAR equal
ENCODING 61
SWIDTH 690 0
DWIDTH 3 0
BBX 3 2 0 1
BITMAP
E0
E0
ENDCHAR
STARTCHAR greater
ENCODING 62
SWIDTH 690 0
DWIDTH 3 0
BBX 3 3 0 1
BITMAP
80
60
C0
ENDCHAR
STARTCHAR question
ENCODING 63
SWIDTH 776 0
DWIDTH 4 0
BBX 4 4 0 0
BITMAP
F0
70
00
80
ENDCHAR
STARTCHAR at
ENCODING 64
SWIDTH 833 0
DWIDTH 4 0
BBX 4 4 0 0
BITMAP
70
F0
F0
70
ENDCHAR
STARTCHAR A
ENCODING 65
SWIDTH 989 0
DWIDTH 5 0
BBX 5 4 0 0
BITMAP
20
50
70
88
ENDCHAR
STARTCHAR B
ENCODING 66
SWIDTH 891 0
DWIDTH 4 0
BBX 4 4 0 0
BITMAP
F0
F0
90
F0
ENDCHAR
STARTCHAR C
ENCODING 67
SWIDTH 829 0
DWIDTH 4 0
BBX 4 4 0 0
BITMAP
70
80
80
70
ENDCHAR
STARTCHAR D
ENCODING 68
SWIDTH 879 0
DWIDTH 4 0
BBX 4 4 0 0
BITMAP
F0
90
90
F0
ENDCHAR
STARTCHAR E
ENCODING 69
SWIDTH 759 0
DWIDTH 4 0
BBX 4 4 0 0
BITMAP
F0
E0
80
F0
ENDCHAR
STARTCHAR F
ENCODING 70
SWIDTH 705 0
DWIDTH 4 0
BBX 3 4 0 0
BITMAP
E0
80
E0
80
ENDCHAR
STARTCHAR G
ENCODING 71
SWIDTH 888 0
DWIDTH 4 0
BBX 4 4 0 0
BITMAP
70
B0
90
70
ENDCHAR
STARTCHAR H
ENCODING 72
SWIDTH 838 0
DWIDTH 4 0
BBX 4 4 0 0
BITMAP
90
F0
90
90
ENDCHAR
STARTCHAR I
ENCODING 73
SWIDTH 267 0
DWIDTH 1 0
BBX 1 4 0 0
BITMAP
80
80
80
80
ENDCHAR
STARTCHAR J
ENCODING 74
SWIDTH 708 0
DWIDTH 4 0
BBX 3 4 0 0
BITMAP
20
20
20
E0
ENDCHAR
STARTCHAR K
ENCODING 75
SWIDTH 875 0
DWIDTH 4 0
BBX 4 4 0 0
BITMAP
90
E0
A0
90
ENDCHAR
STARTCHAR L
ENCODING 76
SWIDTH 707 0
DWIDTH 4 0
BBX 3 4 0 0
BITMAP
80
80
80
E0
ENDCHAR
STARTCHAR M
ENCODING 77
SWIDTH 1115 0
DWIDTH 6 0
BBX 5 4 0 0
BITMAP
48
58
B8
A8
ENDCHAR
STARTCHAR N
ENCODING 78
SWIDTH 873 0
DWIDTH 4 0
BBX 4 4 0 0
BITMAP
90
D0
B0
90
ENDCHAR
STARTCHAR O
ENCODING 79
SWIDTH 968 0
DWIDTH 5 0
BBX 5 4 0 0
BITMAP
70
88
88
70
ENDCHAR
STARTCHAR P
ENCODING 80
SWIDTH 867 0
DWIDTH 4 0
BBX 4 4 0 0
BITMAP
F0
90
F0
80
ENDCHAR
STARTCHAR Q
ENCODING 81
SWIDTH 968 0
DWIDTH 5 0
BBX 5 4 0 0
BITMAP
70
88
A8
78
ENDCHAR
STARTCHAR R
ENCODING 82
SWIDTH 921 0
DWIDTH 5 0
BBX 5 4 0 0
BITMAP
F0
90
F0
98
ENDCHAR
STARTCHAR S
ENCODING 83
SWIDTH 880 0
DWIDTH 4 0
BBX 4 4 0 0
BITMAP
F0
F0
10
F0
ENDCHAR
STARTCHAR T
ENCODING 84
SWIDTH 720 0
DWIDTH 4 0
BBX 4 4 0 0
BITMAP
F0
40
40
40
ENDCHAR
STARTCHAR U
ENCODING 85
SWIDTH 889 0
DWIDTH 4 0
BBX 4 4 0 0
BITMAP
90
90
90
70
ENDCHAR
STARTCHAR V
ENCODING 86
SWIDTH 989 0
DWIDTH 5 0
BBX 5 4 0 0
BITMAP
88
50
50
20
ENDCHAR
STARTCHAR W
ENCODING 87
SWIDTH 1268 0
DWIDTH 6 0
BBX 6 4 0 0
BITMAP
A4
64
58
28
ENDCHAR
STARTCHAR X
ENCODING 88
SWIDTH 1000 0
DWIDTH 5 0
BBX 5 4 0 0
BITMAP
D8
20
60
98
ENDCHAR
STARTCHAR Y
ENCODING 89
SWIDTH 926 0
DWIDTH 5 0
BBX 5 4 0 0
BITMAP
98
50
20
20
ENDCHAR
STARTCHAR Z
ENCODING 90
SWIDTH 802 0
DWIDTH 4 0
BBX 4 4 0 0
BITMAP
F0
20
40
F0
ENDCHAR
STARTCHAR bracketleft
ENCODING 91
SWIDTH 333 0
DWIDTH 2 0
BBX 1 5 0 -1
BITMAP
80
80
80
80
80
ENDCHAR
STARTCHAR backslash
ENCODING 92
SWIDTH 445 0
DWIDTH 2 0
BBX 2 4 0 0
BITMAP
80
80
40
40
ENDCHAR
STARTCHAR bracketright
ENCODING 93
SWIDTH 333 0
DWIDTH 2 0
BBX 1 5 0 -1
BITMAP
80
80
80
80
80
ENDCHAR
STARTCHAR asciicircum
ENCODING 94
SWIDTH 559 0
DWIDTH 3 0
BBX 2 3 0 1
BITMAP
40
C0
C0
ENDCHAR
STARTCHAR underscore
ENCODING 95
SWIDTH 668 0
DWIDTH 3 0
BBX 3 1 0 -1
BITMAP
E0
ENDCHAR
STARTCHAR grave
ENCODING 96
SWIDTH 362 0
DWIDTH 2 0
BBX 2 1 0 4
BITMAP
C0
ENDCHAR
STARTCHAR a
ENCODING 97
SWIDTH 989 0
DWIDTH 5 0
BBX 5 4 0 0
BITMAP
20
50
70
88
ENDCHAR
STARTCHAR b
ENCODING 98
SWIDTH 891 0
DWIDTH 4 0
BBX 4 4 0 0
BITMAP
F0
F0
90
F0
ENDCHAR
STARTCHAR c
ENCODING 99
SWIDTH 829 0
DWIDTH 4 0
BBX 4 4 0 0
BITMAP
70
80
80
70
ENDCHAR
STARTCHAR d
ENCODING 100
SWIDTH 879 0
DWIDTH 4 0
BBX 4 4 0 0
BITMAP
F0
90
90
F0
ENDCHAR
STARTCHAR e
ENCODING 101
SWIDTH 759 0
DWIDTH 4 0
BBX 4 4 0 0
BITMAP
F0
E0
80
F0
ENDCHAR
STARTCHAR f
ENCODING 102
SWIDTH 705 0
DWIDTH 4 0
BBX 3 4 0 0
BITMAP
E0
80
E0
80
ENDCHAR
STARTCHAR g
ENCODING 103
SWIDTH 888 0
DWIDTH 4 0
BBX 4 4 0 0
BITMAP
70
B0
90
70
ENDCHAR
STARTCHAR h
ENCODING 104
SWIDTH 838 0
DWIDTH 4 0
BBX 4 4 0 0
BITMAP
90
F0
90
90
ENDCHAR
STARTCHAR i
ENCODING 105
SWIDTH 267 0
DWIDTH 1 0
BBX 1 4 0 0
BITMAP
80
80
80
80
ENDCHAR
STARTCHAR j
ENCODING 106
SWIDTH 708 0
DWIDTH 4 0
BBX 3 4 0 0
BITMAP
20
20
20
E0
ENDCHAR
STARTCHAR k
ENCODING 107
SWIDTH 875 0
DWIDTH 4 0
BBX 4 4 0 0
BITMAP
90
E0
A0
90
ENDCHAR
STARTCHAR l
ENCODING 108
SWIDTH 707 0
DWIDTH 4 0
BBX 3 4 0 0
BITMAP
80
80
80
E0
ENDCHAR
STARTCHAR m
ENCODING 109
SWIDTH 1115 0
DWIDTH 6 0
BBX 5 4 0 0
BITMAP
48
58
B8
A8
ENDCHAR
STARTCHAR n
ENCODING 110
SWIDTH 873 0
DWIDTH 4 0
BBX 4 4 0 0
BITMAP
90
D0
B0
90
ENDCHAR
STARTCHAR o
ENCODING 111
SWIDTH 968 0
DWIDTH 5 0
BBX 5 4 0 0
BITMAP
70
88
88
70
ENDCHAR
STARTCHAR p
ENCODING 112
SWIDTH 867 0
DWIDTH 4 0
BBX 4 4 0 0
BITMAP
F0
90
F0
80
ENDCHAR
STARTCHAR q
ENCODING 113
SWIDTH 968 0
DWIDTH 5 0
BBX 5 4 0 0
BITMAP
70
88
A8
78
ENDCHAR
STARTCHAR r
ENCODING 114
SWIDTH 921 0
DWIDTH 5 0
BBX 5 4 0 0
BITMAP
F0
90
F0
98
ENDCHAR
STARTCHAR s
ENCODING 115
SWIDTH 880 0
DWIDTH 4 0
BBX 4 4 0 0
BITMAP
F0
F0
10
F0
ENDCHAR
STARTCHAR t
ENCODING 116
SWIDTH 720 0
DWIDTH 4 0
BBX 4 4 0 0
BITMAP
F0
40
40
40
ENDCHAR
STARTCHAR u
ENCODING 117
SWIDTH 889 0
DWIDTH 4 0
BBX 4 4 0 0
BITMAP
90
90
90
70
ENDCHAR
STARTCHAR v
ENCODING 118
SWIDTH 989 0
DWIDTH 5 0
BBX 5 4 0 0
BITMAP
88
50
50
20
ENDCHAR
STARTCHAR w
ENCODING 119
SWIDTH 1268 0
DWIDTH 6 0
BBX 6 4 0 0
BITMAP
A4
64
58
28
ENDCHAR
STARTCHAR x
ENCODING 120
SWIDTH 1000 0
DWIDTH 5 0
BBX 5 4 0 0
BITMAP
D8
20
60
98
ENDCHAR
STARTCHAR y
ENCODING 121
SWIDTH 926 0
DWIDTH 5 0
BBX 5 4 0 0
BITMAP
98
50
20
20
ENDCHAR
STARTCHAR z
ENCODING 122
SWIDTH 802 0
DWIDTH 4 0
BBX 4 4 0 0
BITMAP
F0
20
40
F0
ENDCHAR
STARTCHAR braceleft
ENCODING 123
SWIDTH 337 0
DWIDTH 2 0
BBX 1 5 0 -1
BITMAP
80
80
80
80
80
ENDCHAR
STARTCHAR bar
ENCODING 124
SWIDTH 297 0
DWIDTH 1 0
BBX 1 5 0 0
BITMAP
80
80
80
80
80
ENDCHAR
STARTCHAR braceright
ENCODING 125
SWIDTH 337 0
DWIDTH 2 0
BBX 1 5 0 -1
BITMAP
80
80
80
80
80
ENDCHAR
STARTCHAR asciitilde
ENCODING 126
SWIDTH 691 0
DWIDTH 3 0
BBX 3 1 0 1
BITMAP
E0
ENDCHAR
STARTCHAR nonbreakingspace
ENCODING 160
SWIDTH 294 0
DWIDTH 1 0
BBX 1 1 0 0
BITMAP
00
ENDCHAR
STARTCHAR exclamdown
ENCODING 161
SWIDTH 298 0
DWIDTH 1 0
BBX 1 4 0 0
BITMAP
80
80
80
80
ENDCHAR
STARTCHAR cent
ENCODING 162
SWIDTH 692 0
DWIDTH 3 0
BBX 3 4 0 0
BITMAP
60
A0
A0
60
ENDCHAR
STARTCHAR sterling
ENCODING 163
SWIDTH 709 0
DWIDTH 4 0
BBX 3 4 0 0
BITMAP
60
C0
80
E0
ENDCHAR
STARTCHAR yen
ENCODING 165
SWIDTH 787 0
DWIDTH 4 0
BBX 4 4 0 0
BITMAP
90
60
60
60
ENDCHAR
STARTCHAR brokenbar
ENCODING 166
SWIDTH 297 0
DWIDTH 1 0
BBX 1 5 0 0
BITMAP
80
80
00
80
80
ENDCHAR
STARTCHAR section
ENCODING 167
SWIDTH 773 0
DWIDTH 4 0
BBX 4 5 0 -1
BITMAP
E0
60
90
60
70
ENDCHAR
STARTCHAR dieresis
ENCODING 168
SWIDTH 393 0
DWIDTH 2 0
BBX 2 1 0 4
BITMAP
C0
ENDCHAR
STARTCHAR copyright
ENCODING 169
SWIDTH 829 0
DWIDTH 4 0
BBX 4 4 0 0
BITMAP
60
F0
F0
60
ENDCHAR
STARTCHAR ordfeminine
ENCODING 170
SWIDTH 604 0
DWIDTH 3 0
BBX 3 2 0 2
BITMAP
40
E0
ENDCHAR
STARTCHAR guillemotleft
ENCODING 171
SWIDTH 629 0
DWIDTH 3 0
BBX 3 2 0 1
BITMAP
E0
60
ENDCHAR
STARTCHAR registered
ENCODING 174
SWIDTH 585 0
DWIDTH 3 0
BBX 3 3 0 1
BITMAP
40
E0
40
ENDCHAR
STARTCHAR macron
ENCODING 175
SWIDTH 362 0
DWIDTH 2 0
BBX 2 1 0 4
BITMAP
C0
ENDCHAR
STARTCHAR degree
ENCODING 176
SWIDTH 361 0
DWIDTH 2 0
BBX 2 2 0 2
BITMAP
C0
80
ENDCHAR
STARTCHAR plusminus
ENCODING 177
SWIDTH 690 0
DWIDTH 3 0
BBX 3 3 0 0
BITMAP
40
E0
E0
ENDCHAR
STARTCHAR twosuperior
ENCODING 178
SWIDTH 442 0
DWIDTH 2 0
BBX 2 2 0 2
BITMAP
C0
C0
ENDCHAR
STARTCHAR threesuperior
ENCODING 179
SWIDTH 443 0
DWIDTH 2 0
BBX 2 2 0 2
BITMAP
C0
C0
ENDCHAR
STARTCHAR acute
ENCODING 180
SWIDTH 362 0
DWIDTH 2 0
BBX 2 1 0 4
BITMAP
C0
ENDCHAR
STARTCHAR paragraph
ENCODING 182
SWIDTH 629 0
DWIDTH 3 0
BBX 3 5 0 -1
BITMAP
E0
E0
60
60
60
ENDCHAR
STARTCHAR periodcentered
ENCODING 183
SWIDTH 262 0
DWIDTH 1 0
BBX 1 1 0 1
BITMAP
80
ENDCHAR
STARTCHAR cedilla
ENCODING 184
SWIDTH 219 0
DWIDTH 1 0
BBX 1 1 0 -1
BITMAP
80
ENDCHAR
STARTCHAR onesuperior
ENCODING 185
SWIDTH 222 0
DWIDTH 1 0
BBX 1 2 0 2
BITMAP
80
80
ENDCHAR
STARTCHAR ordmasculine
ENCODING 186
SWIDTH 592 0
DWIDTH 3 0
BBX 3 3 0 1
BITMAP
40
A0
40
ENDCHAR
STARTCHAR guillemotright
ENCODING 187
SWIDTH 629 0
DWIDTH 3 0
BBX 3 2 0 1
BITMAP
A0
C0
ENDCHAR
STARTCHAR onequarter
ENCODING 188
SWIDTH 972 0
DWIDTH 5 0
BBX 5 5 0 0
BITMAP
10
A0
40
68
98
ENDCHAR
STARTCHAR onehalf
ENCODING 189
SWIDTH 948 0
DWIDTH 5 0
BBX 5 5 0 0
BITMAP
10
A0
40
58
98
ENDCHAR
STARTCHAR threequarters
ENCODING 190
SWIDTH 1029 0
DWIDTH 5 0
BBX 5 5 0 0
BITMAP
10
D0
E0
58
D8
ENDCHAR
STARTCHAR questiondown
ENCODING 191
SWIDTH 776 0
DWIDTH 4 0
BBX 4 4 0 0
BITMAP
10
00
E0
F0
ENDCHAR
STARTCHAR Agrave
ENCODING 192
SWIDTH 989 0
DWIDTH 5 0
BBX 5 5 0 0
BITMAP
20
20
50
70
88
ENDCHAR
STARTCHAR Aacute
ENCODING 193
SWIDTH 989 0
DWIDTH 5 0
BBX 5 5 0 0
BITMAP
20
20
50
70
88
ENDCHAR
STARTCHAR Acircumflex
ENCODING 194
SWIDTH 989 0
DWIDTH 5 0
BBX 5 5 0 0
BITMAP
20
20
50
70
88
ENDCHAR
STARTCHAR Atilde
ENCODING 195
SWIDTH 989 0
DWIDTH 5 0
BBX 5 5 0 0
BITMAP
20
20
50
70
88
ENDCHAR
STARTCHAR Adieresis
ENCODING 196
SWIDTH 989 0
DWIDTH 5 0
BBX 5 5 0 0
BITMAP
20
20
50
70
88
ENDCHAR
STARTCHAR Aring
ENCODING 197
SWIDTH 989 0
DWIDTH 5 0
BBX 5 6 0 0
BITMAP
20
20
20
50
70
88
ENDCHAR
STARTCHAR AE
ENCODING 198
SWIDTH 1345 0
DWIDTH 7 0
BBX 7 4 0 0
BITMAP
3C
54
70
9E
ENDCHAR
STARTCHAR Ccedilla
ENCODING 199
SWIDTH 829 0
DWIDTH 4 0
BBX 4 5 0 -1
BITMAP
70
80
80
70
20
ENDCHAR
STARTCHAR Egrave
ENCODING 200
SWIDTH 759 0
DWIDTH 4 0
BBX 4 5 0 0
BITMAP
40
F0
E0
80
F0
ENDCHAR
STARTCHAR Eacute
ENCODING 201
SWIDTH 759 0
DWIDTH 4 0
BBX 4 5 0 0
BITMAP
60
F0
E0
80
F0
ENDCHAR
STARTCHAR Ecircumflex
ENCODING 202
SWIDTH 759 0
DWIDTH 4 0
BBX 4 5 0 0
BITMAP
40
F0
E0
80
F0
ENDCHAR
STARTCHAR Edieresis
ENCODING 203
SWIDTH 759 0
DWIDTH 4 0
BBX 4 5 0 0
BITMAP
60
F0
E0
80
F0
ENDCHAR
STARTCHAR Igrave
ENCODING 204
SWIDTH 267 0
DWIDTH 1 0
BBX 1 5 0 0
BITMAP
80
80
80
80
80
ENDCHAR
STARTCHAR Iacute
ENCODING 205
SWIDTH 267 0
DWIDTH 1 0
BBX 1 5 0 0
BITMAP
80
80
80
80
80
ENDCHAR
STARTCHAR Icircumflex
ENCODING 206
SWIDTH 267 0
DWIDTH 1 0
BBX 1 5 0 0
BITMAP
80
80
80
80
80
ENDCHAR
STARTCHAR Idieresis
ENCODING 207
SWIDTH 267 0
DWIDTH 1 0
BBX 1 5 0 0
BITMAP
80
80
80
80
80
ENDCHAR
STARTCHAR Eth
ENCODING 208
SWIDTH 877 0
DWIDTH 4 0
BBX 4 4 0 0
BITMAP
F0
D0
90
F0
ENDCHAR
STARTCHAR Ntilde
ENCODING 209
SWIDTH 873 0
DWIDTH 4 0
BBX 4 5 0 0
BITMAP
20
90
D0
B0
90
ENDCHAR
STARTCHAR Ograve
ENCODING 210
SWIDTH 968 0
DWIDTH 5 0
BBX 5 5 0 0
BITMAP
20
70
88
88
70
ENDCHAR
STARTCHAR Oacute
ENCODING 211
SWIDTH 968 0
DWIDTH 5 0
BBX 5 5 0 0
BITMAP
20
70
88
88
70
ENDCHAR
STARTCHAR Ocircumflex
ENCODING 212
SWIDTH 968 0
DWIDTH 5 0
BBX 5 5 0 0
BITMAP
20
70
88
88
70
ENDCHAR
STARTCHAR Otilde
ENCODING 213
SWIDTH 968 0
DWIDTH 5 0
BBX 5 5 0 0
BITMAP
20
70
88
88
70
ENDCHAR
STARTCHAR Odieresis
ENCODING 214
SWIDTH 968 0
DWIDTH 5 0
BBX 5 5 0 0
BITMAP
60
70
88
88
70
ENDCHAR
STARTCHAR multiply
ENCODING 215
SWIDTH 690 0
DWIDTH 3 0
BBX 2 2 1 1
BITMAP
C0
C0
ENDCHAR
STARTCHAR Oslash
ENCODING 216
SWIDTH 968 0
DWIDTH 5 0
BBX 5 4 0 0
BITMAP
70
A8
A8
70
ENDCHAR
STARTCHAR Ugrave
ENCODING 217
SWIDTH 889 0
DWIDTH 4 0
BBX 4 5 0 0
BITMAP
60
90
90
90
70
ENDCHAR
STARTCHAR Uacute
ENCODING 218
SWIDTH 889 0
DWIDTH 4 0
BBX 4 5 0 0
BITMAP
20
90
90
90
70
ENDCHAR
STARTCHAR Ucircumflex
ENCODING 219
SWIDTH 889 0
DWIDTH 4 0
BBX 4 5 0 0
BITMAP
20
90
90
90
70
ENDCHAR
STARTCHAR Udieresis
ENCODING 220
SWIDTH 889 0
DWIDTH 4 0
BBX 4 5 0 0
BITMAP
60
90
90
90
70
ENDCHAR
STARTCHAR Yacute
ENCODING 221
SWIDTH 926 0
DWIDTH 5 0
BBX 5 5 0 0
BITMAP
20
98
50
20
20
ENDCHAR
STARTCHAR Thorn
ENCODING 222
SWIDTH 843 0
DWIDTH 4 0
BBX 4 4 0 0
BITMAP
F0
90
90
F0
ENDCHAR
STARTCHAR germandbls
ENCODING 223
SWIDTH 1760 0
DWIDTH 9 0
BBX 9 4 0 0
BITMAP
F700
F700
1080
F700
ENDCHAR
STARTCHAR agrave
ENCODING 224
SWIDTH 989 0
DWIDTH 5 0
BBX 5 5 0 0
BITMAP
20
20
50
70
88
ENDCHAR
STARTCHAR aacute
ENCODING 225
SWIDTH 989 0
DWIDTH 5 0
BBX 5 5 0 0
BITMAP
20
20
50
70
88
ENDCHAR
STARTCHAR acircumflex
ENCODING 226
SWIDTH 989 0
DWIDTH 5 0
BBX 5 5 0 0
BITMAP
20
20
50
70
88
ENDCHAR
STARTCHAR atilde
ENCODING 227
SWIDTH 989 0
DWIDTH 5 0
BBX 5 5 0 0
BITMAP
20
20
50
70
88
ENDCHAR
STARTCHAR adieresis
ENCODING 228
SWIDTH 989 0
DWIDTH 5 0
BBX 5 5 0 0
BITMAP
20
20
50
70
88
ENDCHAR
STARTCHAR aring
ENCODING 229
SWIDTH 989 0
DWIDTH 5 0
BBX 5 6 0 0
BITMAP
20
20
20
50
70
88
ENDCHAR
STARTCHAR ae
ENCODING 230
SWIDTH 1345 0
DWIDTH 7 0
BBX 7 4 0 0
BITMAP
3C
54
70
9E
ENDCHAR
STARTCHAR ccedilla
ENCODING 231
SWIDTH 829 0
DWIDTH 4 0
BBX 4 5 0 -1
BITMAP
70
80
80
70
20
ENDCHAR
STARTCHAR egrave
ENCODING 232
SWIDTH 759 0
DWIDTH 4 0
BBX 4 5 0 0
BITMAP
40
F0
E0
80
F0
ENDCHAR
STARTCHAR eacute
ENCODING 233
SWIDTH 759 0
DWIDTH 4 0
BBX 4 5 0 0
BITMAP
60
F0
E0
80
F0
ENDCHAR
STARTCHAR ecircumflex
ENCODING 234
SWIDTH 759 0
DWIDTH 4 0
BBX 4 5 0 0
BITMAP
40
F0
E0
80
F0
ENDCHAR
STARTCHAR edieresis
ENCODING 235
SWIDTH 759 0
DWIDTH 4 0
BBX 4 5 0 0
BITMAP
60
F0
E0
80
F0
ENDCHAR
STARTCHAR igrave
ENCODING 236
SWIDTH 267 0
DWIDTH 1 0
BBX 1 5 0 0
BITMAP
80
80
80
80
80
ENDCHAR
STARTCHAR iacute
ENCODING 237
SWIDTH 267 0
DWIDTH 1 0
BBX 1 5 0 0
BITMAP
80
80
80
80
80
ENDCHAR
STARTCHAR icircumflex
ENCODING 238
SWIDTH 267 0
DWIDTH 1 0
BBX 1 5 0 0
BITMAP
80
80
80
80
80
ENDCHAR
STARTCHAR idieresis
ENCODING 239
SWIDTH 267 0
DWIDTH 1 0
BBX 1 5 0 0
BITMAP
80
80
80
80
80
ENDCHAR
STARTCHAR eth
ENCODING 240
SWIDTH 877 0
DWIDTH 4 0
BBX 4 4 0 0
BITMAP
F0
D0
90
F0
ENDCHAR
STARTCHAR ntilde
ENCODING 241
SWIDTH 873 0
DWIDTH 4 0
BBX 4 5 0 0
BITMAP
20
90
D0
B0
90
ENDCHAR
STARTCHAR ograve
ENCODING 242
SWIDTH 968 0
DWIDTH 5 0
BBX 5 5 0 0
BITMAP
20
70
88
88
70
ENDCHAR
STARTCHAR oacute
ENCODING 243
SWIDTH 968 0
DWIDTH 5 0
BBX 5 5 0 0
BITMAP
20
70
88
88
70
ENDCHAR
STARTCHAR ocircumflex
ENCODING 244
SWIDTH 968 0
DWIDTH 5 0
BBX 5 5 0 0
BITMAP
20
70
88
88
70
ENDCHAR
STARTCHAR otilde
ENCODING 245
SWIDTH 968 0
DWIDTH 5 0
BBX 5 5 0 0
BITMAP
20
70
88
88
70
ENDCHAR
STARTCHAR odieresis
ENCODING 246
SWIDTH 968 0
DWIDTH 5 0
BBX 5 5 0 0
BITMAP
60
70
88
88
70
ENDCHAR
STARTCHAR divide
ENCODING 247
SWIDTH 690 0
DWIDTH 3 0
BBX 3 4 0 0
BITMAP
40
E0
00
40
ENDCHAR
STARTCHAR oslash
ENCODING 248
SWIDTH 968 0
DWIDTH 5 0
BBX 5 4 0 0
BITMAP
70
A8
A8
70
ENDCHAR
STARTCHAR ugrave
ENCODING 249
SWIDTH 889 0
DWIDTH 4 0
BBX 4 5 0 0
BITMAP
60
90
90
90
70
ENDCHAR
STARTCHAR uacute
ENCODING 250
SWIDTH 889 0
DWIDTH 4 0
BBX 4 5 0 0
BITMAP
20
90
90
90
70
ENDCHAR
STARTCHAR ucircumflex
ENCODING 251
SWIDTH 889 0
DWIDTH 4 0
BBX 4 5 0 0
BITMAP
20
90
90
90
70
ENDCHAR
STARTCHAR udieresis
ENCODING 252
SWIDTH 889 0
DWIDTH 4 0
BBX 4 5 0 0
BITMAP
60
90
90
90
70
ENDCHAR
STARTCHAR yacute
ENCODING 253
SWIDTH 926 0
DWIDTH 5 0
BBX 5 5 0 0
BITMAP
20
98
50
20
20
ENDCHAR
STARTCHAR thorn
ENCODING 254
SWIDTH 843 0
DWIDTH 4 0
BBX 4 4 0 0
BITMAP
F0
90
90
F0
ENDCHAR
STARTCHAR ydieresis
ENCODING 255
SWIDTH 926 0
DWIDTH 5 0
BBX 5 5 0 0
BITMAP
60
98
50
20
20
ENDCHAR
STARTCHAR Amacron
ENCODING 256
SWIDTH 989 0
DWIDTH 5 0
BBX 5 5 0 0
BITMAP
20
20
50
70
88
ENDCHAR
STARTCHAR amacron
ENCODING 257
SWIDTH 989 0
DWIDTH 5 0
BBX 5 5 0 0
BITMAP
20
20
50
70
88
ENDCHAR
STARTCHAR Abreve
ENCODING 258
SWIDTH 989 0
DWIDTH 5 0
BBX 5 5 0 0
BITMAP
20
20
50
70
88
ENDCHAR
STARTCHAR abreve
ENCODING 259
SWIDTH 989 0
DWIDTH 5 0
BBX 5 5 0 0
BITMAP
20
20
50
70
88
ENDCHAR
STARTCHAR Aogonek
ENCODING 260
SWIDTH 989 0
DWIDTH 5 0
BBX 5 5 0 -1
BITMAP
20
50
70
88
08
ENDCHAR
STARTCHAR aogonek
ENCODING 261
SWIDTH 989 0
DWIDTH 5 0
BBX 5 5 0 -1
BITMAP
20
50
70
88
08
ENDCHAR
STARTCHAR Cacute
ENCODING 262
SWIDTH 829 0
DWIDTH 4 0
BBX 4 5 0 0
BITMAP
20
70
80
80
70
ENDCHAR
STARTCHAR cacute
ENCODING 263
SWIDTH 829 0
DWIDTH 4 0
BBX 4 5 0 0
BITMAP
20
70
80
80
70
ENDCHAR
STARTCHAR Cdotaccent
ENCODING 266
SWIDTH 829 0
DWIDTH 4 0
BBX 4 5 0 0
BITMAP
20
70
80
80
70
ENDCHAR
STARTCHAR cdotaccent
ENCODING 267
SWIDTH 829 0
DWIDTH 4 0
BBX 4 5 0 0
BITMAP
20
70
80
80
70
ENDCHAR
STARTCHAR Ccaron
ENCODING 268
SWIDTH 829 0
DWIDTH 4 0
BBX 4 5 0 0
BITMAP
20
70
80
80
70
ENDCHAR
STARTCHAR ccaron
ENCODING 269
SWIDTH 829 0
DWIDTH 4 0
BBX 4 5 0 0
BITMAP
20
70
80
80
70
ENDCHAR
STARTCHAR Dcaron
ENCODING 270
SWIDTH 879 0
DWIDTH 4 0
BBX 4 5 0 0
BITMAP
60
F0
90
90
F0
ENDCHAR
STARTCHAR dcaron
ENCODING 271
SWIDTH 879 0
DWIDTH 4 0
BBX 4 5 0 0
BITMAP
60
F0
90
90
F0
ENDCHAR
STARTCHAR Dcroat
ENCODING 272
SWIDTH 877 0
DWIDTH 4 0
BBX 4 4 0 0
BITMAP
F0
D0
90
F0
ENDCHAR
STARTCHAR dcroat
ENCODING 273
SWIDTH 877 0
DWIDTH 4 0
BBX 4 4 0 0
BITMAP
F0
D0
90
F0
ENDCHAR
STARTCHAR Emacron
ENCODING 274
SWIDTH 759 0
DWIDTH 4 0
BBX 4 5 0 0
BITMAP
60
F0
E0
80
F0
ENDCHAR
STARTCHAR emacron
ENCODING 275
SWIDTH 759 0
DWIDTH 4 0
BBX 4 5 0 0
BITMAP
60
F0
E0
80
F0
ENDCHAR
STARTCHAR Ebreve
ENCODING 276
SWIDTH 759 0
DWIDTH 4 0
BBX 4 5 0 0
BITMAP
60
F0
E0
80
F0
ENDCHAR
STARTCHAR ebreve
ENCODING 277
SWIDTH 759 0
DWIDTH 4 0
BBX 4 5 0 0
BITMAP
60
F0
E0
80
F0
ENDCHAR
STARTCHAR Edotaccent
ENCODING 278
SWIDTH 759 0
DWIDTH 4 0
BBX 4 5 0 0
BITMAP
40
F0
E0
80
F0
ENDCHAR
STARTCHAR edotaccent
ENCODING 279
SWIDTH 759 0
DWIDTH 4 0
BBX 4 5 0 0
BITMAP
40
F0
E0
80
F0
ENDCHAR
STARTCHAR Eogonek
ENCODING 280
SWIDTH 759 0
DWIDTH 4 0
BBX 4 5 0 -1
BITMAP
F0
E0
80
F0
10
ENDCHAR
STARTCHAR eogonek
ENCODING 281
SWIDTH 759 0
DWIDTH 4 0
BBX 4 5 0 -1
BITMAP
F0
E0
80
F0
10
ENDCHAR
STARTCHAR Ecaron
ENCODING 282
SWIDTH 759 0
DWIDTH 4 0
BBX 4 5 0 0
BITMAP
60
F0
E0
80
F0
ENDCHAR
STARTCHAR ecaron
ENCODING 283
SWIDTH 759 0
DWIDTH 4 0
BBX 4 5 0 0
BITMAP
60
F0
E0
80
F0
ENDCHAR
STARTCHAR Gbreve
ENCODING 286
SWIDTH 888 0
DWIDTH 4 0
BBX 4 5 0 0
BITMAP
20
70
B0
90
70
ENDCHAR
STARTCHAR gbreve
ENCODING 287
SWIDTH 888 0
DWIDTH 4 0
BBX 4 5 0 0
BITMAP
20
70
B0
90
70
ENDCHAR
STARTCHAR Gdotaccent
ENCODING 288
SWIDTH 888 0
DWIDTH 4 0
BBX 4 5 0 0
BITMAP
20
70
B0
90
70
ENDCHAR
STARTCHAR gdotaccent
ENCODING 289
SWIDTH 888 0
DWIDTH 4 0
BBX 4 5 0 0
BITMAP
20
70
B0
90
70
ENDCHAR
STARTCHAR Gcommaaccent
ENCODING 290
SWIDTH 888 0
DWIDTH 4 0
BBX 4 5 0 -1
BITMAP
70
B0
90
70
20
ENDCHAR
STARTCHAR gcommaaccent
ENCODING 291
SWIDTH 888 0
DWIDTH 4 0
BBX 4 5 0 -1
BITMAP
70
B0
90
70
20
ENDCHAR
STARTCHAR Hbar
ENCODING 294
SWIDTH 838 0
DWIDTH 4 0
BBX 4 4 0 0
BITMAP
F0
F0
90
90
ENDCHAR
STARTCHAR hbar
ENCODING 295
SWIDTH 838 0
DWIDTH 4 0
BBX 4 4 0 0
BITMAP
F0
F0
90
90
ENDCHAR
STARTCHAR uni012A
ENCODING 298
SWIDTH 267 0
DWIDTH 1 0
BBX 1 5 0 0
BITMAP
80
80
80
80
80
ENDCHAR
STARTCHAR imacron
ENCODING 299
SWIDTH 267 0
DWIDTH 1 0
BBX 1 5 0 0
BITMAP
80
80
80
80
80
ENDCHAR
STARTCHAR Ibreve
ENCODING 300
SWIDTH 267 0
DWIDTH 1 0
BBX 1 5 0 0
BITMAP
80
80
80
80
80
ENDCHAR
STARTCHAR ibreve
ENCODING 301
SWIDTH 267 0
DWIDTH 1 0
BBX 1 5 0 0
BITMAP
80
80
80
80
80
ENDCHAR
STARTCHAR Iogonek
ENCODING 302
SWIDTH 267 0
DWIDTH 1 0
BBX 1 5 0 -1
BITMAP
80
80
80
80
80
ENDCHAR
STARTCHAR iogonek
ENCODING 303
SWIDTH 267 0
DWIDTH 1 0
BBX 1 5 0 -1
BITMAP
80
80
80
80
80
ENDCHAR
STARTCHAR Idotaccent
ENCODING 304
SWIDTH 267 0
DWIDTH 1 0
BBX 1 5 0 0
BITMAP
80
80
80
80
80
ENDCHAR
STARTCHAR dotlessi
ENCODING 305
SWIDTH 267 0
DWIDTH 1 0
BBX 1 4 0 0
BITMAP
80
80
80
80
ENDCHAR
STARTCHAR IJ
ENCODING 306
SWIDTH 975 0
DWIDTH 5 0
BBX 5 4 0 0
BITMAP
88
88
88
F0
ENDCHAR
STARTCHAR ij
ENCODING 307
SWIDTH 975 0
DWIDTH 5 0
BBX 5 4 0 0
BITMAP
88
88
88
F0
ENDCHAR
STARTCHAR Kcommaaccent
ENCODING 310
SWIDTH 875 0
DWIDTH 4 0
BBX 4 5 0 -1
BITMAP
90
E0
A0
90
20
ENDCHAR
STARTCHAR kcommaaccent
ENCODING 311
SWIDTH 875 0
DWIDTH 4 0
BBX 4 5 0 -1
BITMAP
90
E0
A0
90
20
ENDCHAR
STARTCHAR Lacute
ENCODING 313
SWIDTH 707 0
DWIDTH 4 0
BBX 3 5 0 0
BITMAP
80
80
80
80
E0
ENDCHAR
STARTCHAR lacute
ENCODING 314
SWIDTH 707 0
DWIDTH 4 0
BBX 3 5 0 0
BITMAP
80
80
80
80
E0
ENDCHAR
STARTCHAR Lcommaaccent
ENCODING 315
SWIDTH 707 0
DWIDTH 4 0
BBX 3 5 0 -1
BITMAP
80
80
80
E0
40
ENDCHAR
STARTCHAR lcommaaccent
ENCODING 316
SWIDTH 707 0
DWIDTH 4 0
BBX 3 5 0 -1
BITMAP
80
80
80
E0
40
ENDCHAR
STARTCHAR Lcaron
ENCODING 317
SWIDTH 707 0
DWIDTH 4 0
BBX 3 4 0 0
BITMAP
C0
80
80
E0
ENDCHAR
STARTCHAR lcaron
ENCODING 318
SWIDTH 707 0
DWIDTH 4 0
BBX 3 4 0 0
BITMAP
C0
80
80
E0
ENDCHAR
STARTCHAR Ldot
ENCODING 319
SWIDTH 707 0
DWIDTH 4 0
BBX 3 4 0 0
BITMAP
80
C0
80
E0
ENDCHAR
STARTCHAR ldot
ENCODING 320
SWIDTH 707 0
DWIDTH 4 0
BBX 3 4 0 0
BITMAP
80
C0
80
E0
ENDCHAR
STARTCHAR Lslash
ENCODING 321
SWIDTH 707 0
DWIDTH 4 0
BBX 3 4 0 0
BITMAP
80
C0
80
E0
ENDCHAR
STARTCHAR lslash
ENCODING 322
SWIDTH 707 0
DWIDTH 4 0
BBX 3 4 0 0
BITMAP
80
C0
80
E0
ENDCHAR
STARTCHAR Nacute
ENCODING 323
SWIDTH 873 0
DWIDTH 4 0
BBX 4 5 0 0
BITMAP
20
90
D0
B0
90
ENDCHAR
STARTCHAR nacute
ENCODING 324
SWIDTH 873 0
DWIDTH 4 0
BBX 4 5 0 0
BITMAP
20
90
D0
B0
90
ENDCHAR
STARTCHAR Ncommaaccent
ENCODING 325
SWIDTH 873 0
DWIDTH 4 0
BBX 4 5 0 -1
BITMAP
90
D0
B0
90
20
ENDCHAR
STARTCHAR ncommaaccent
ENCODING 326
SWIDTH 873 0
DWIDTH 4 0
BBX 4 5 0 -1
BITMAP
90
D0
B0
90
20
ENDCHAR
STARTCHAR Ncaron
ENCODING 327
SWIDTH 873 0
DWIDTH 4 0
BBX 4 5 0 0
BITMAP
60
90
D0
B0
90
ENDCHAR
STARTCHAR ncaron
ENCODING 328
SWIDTH 873 0
DWIDTH 4 0
BBX 4 5 0 0
BITMAP
60
90
D0
B0
90
ENDCHAR
STARTCHAR Eng
ENCODING 330
SWIDTH 873 0
DWIDTH 4 0
BBX 4 5 0 -1
BITMAP
90
D0
B0
90
30
ENDCHAR
STARTCHAR eng
ENCODING 331
SWIDTH 873 0
DWIDTH 4 0
BBX 4 5 0 -1
BITMAP
90
D0
B0
90
30
ENDCHAR
STARTCHAR Omacron
ENCODING 332
SWIDTH 968 0
DWIDTH 5 0
BBX 5 5 0 0
BITMAP
20
70
88
88
70
ENDCHAR
STARTCHAR omacron
ENCODING 333
SWIDTH 968 0
DWIDTH 5 0
BBX 5 5 0 0
BITMAP
20
70
88
88
70
ENDCHAR
STARTCHAR Obreve
ENCODING 334
SWIDTH 968 0
DWIDTH 5 0
BBX 5 5 0 0
BITMAP
20
70
88
88
70
ENDCHAR
STARTCHAR obreve
ENCODING 335
SWIDTH 968 0
DWIDTH 5 0
BBX 5 5 0 0
BITMAP
20
70
88
88
70
ENDCHAR
STARTCHAR Ohungarumlaut
ENCODING 336
SWIDTH 968 0
DWIDTH 5 0
BBX 5 5 0 0
BITMAP
20
70
88
88
70
ENDCHAR
STARTCHAR ohungarumlaut
ENCODING 337
SWIDTH 968 0
DWIDTH 5 0
BBX 5 5 0 0
BITMAP
20
70
88
88
70
ENDCHAR
STARTCHAR OE
ENCODING 338
SWIDTH 1304 0
DWIDTH 7 0
BBX 6 4 0 0
BITMAP
7C
9C
90
7C
ENDCHAR
STARTCHAR oe
ENCODING 339
SWIDTH 1304 0
DWIDTH 7 0
BBX 6 4 0 0
BITMAP
7C
9C
90
7C
ENDCHAR
STARTCHAR Racute
ENCODING 340
SWIDTH 921 0
DWIDTH 5 0
BBX 5 5 0 0
BITMAP
20
F0
90
F0
98
ENDCHAR
STARTCHAR racute
ENCODING 341
SWIDTH 921 0
DWIDTH 5 0
BBX 5 5 0 0
BITMAP
20
F0
90
F0
98
ENDCHAR
STARTCHAR Rcommaaccent
ENCODING 342
SWIDTH 921 0
DWIDTH 5 0
BBX 5 5 0 -1
BITMAP
F0
90
F0
98
20
ENDCHAR
STARTCHAR rcommaaccent
ENCODING 343
SWIDTH 921 0
DWIDTH 5 0
BBX 5 5 0 -1
BITMAP
F0
90
F0
98
20
ENDCHAR
STARTCHAR Rcaron
ENCODING 344
SWIDTH 921 0
DWIDTH 5 0
BBX 5 5 0 0
BITMAP
60
F0
90
F0
98
ENDCHAR
STARTCHAR rcaron
ENCODING 345
SWIDTH 921 0
DWIDTH 5 0
BBX 5 5 0 0
BITMAP
60
F0
90
F0
98
ENDCHAR
STARTCHAR Sacute
ENCODING 346
SWIDTH 880 0
DWIDTH 4 0
BBX 4 5 0 0
BITMAP
20
F0
F0
10
F0
ENDCHAR
STARTCHAR sacute
ENCODING 347
SWIDTH 880 0
DWIDTH 4 0
BBX 4 5 0 0
BITMAP
20
F0
F0
10
F0
ENDCHAR
STARTCHAR Scedilla
ENCODING 350
SWIDTH 880 0
DWIDTH 4 0
BBX 4 5 0 -1
BITMAP
F0
F0
10
F0
20
ENDCHAR
STARTCHAR scedilla
ENCODING 351
SWIDTH 880 0
DWIDTH 4 0
BBX 4 5 0 -1
BITMAP
F0
F0
10
F0
20
ENDCHAR
STARTCHAR Scaron
ENCODING 352
SWIDTH 880 0
DWIDTH 4 0
BBX 4 5 0 0
BITMAP
20
F0
F0
10
F0
ENDCHAR
STARTCHAR scaron
ENCODING 353
SWIDTH 880 0
DWIDTH 4 0
BBX 4 5 0 0
BITMAP
20
F0
F0
10
F0
ENDCHAR
STARTCHAR Tcommaaccent
ENCODING 354
SWIDTH 720 0
DWIDTH 4 0
BBX 4 5 0 -1
BITMAP
F0
40
40
40
40
ENDCHAR
STARTCHAR tcommaaccent
ENCODING 355
SWIDTH 720 0
DWIDTH 4 0
BBX 4 5 0 -1
BITMAP
F0
40
40
40
40
ENDCHAR
STARTCHAR Tcaron
ENCODING 356
SWIDTH 720 0
DWIDTH 4 0
BBX 4 5 0 0
BITMAP
40
F0
40
40
40
ENDCHAR
STARTCHAR tcaron
ENCODING 357
SWIDTH 720 0
DWIDTH 4 0
BBX 4 5 0 0
BITMAP
40
F0
40
40
40
ENDCHAR
STARTCHAR Tbar
ENCODING 358
SWIDTH 720 0
DWIDTH 4 0
BBX 4 4 0 0
BITMAP
F0
40
60
40
ENDCHAR
STARTCHAR tbar
ENCODING 359
SWIDTH 720 0
DWIDTH 4 0
BBX 4 4 0 0
BITMAP
F0
40
60
40
ENDCHAR
STARTCHAR Utilde
ENCODING 360
SWIDTH 889 0
DWIDTH 4 0
BBX 4 5 0 0
BITMAP
20
90
90
90
70
ENDCHAR
STARTCHAR utilde
ENCODING 361
SWIDTH 889 0
DWIDTH 4 0
BBX 4 5 0 0
BITMAP
20
90
90
90
70
ENDCHAR
STARTCHAR Umacron
ENCODING 362
SWIDTH 889 0
DWIDTH 4 0
BBX 4 5 0 0
BITMAP
20
90
90
90
70
ENDCHAR
STARTCHAR umacron
ENCODING 363
SWIDTH 889 0
DWIDTH 4 0
BBX 4 5 0 0
BITMAP
20
90
90
90
70
ENDCHAR
STARTCHAR Ubreve
ENCODING 364
SWIDTH 889 0
DWIDTH 4 0
BBX 4 5 0 0
BITMAP
20
90
90
90
70
ENDCHAR
STARTCHAR ubreve
ENCODING 365
SWIDTH 889 0
DWIDTH 4 0
BBX 4 5 0 0
BITMAP
20
90
90
90
70
ENDCHAR
STARTCHAR Uring
ENCODING 366
SWIDTH 889 0
DWIDTH 4 0
BBX 4 6 0 0
BITMAP
20
20
90
90
90
70
ENDCHAR
STARTCHAR uring
ENCODING 367
SWIDTH 889 0
DWIDTH 4 0
BBX 4 6 0 0
BITMAP
20
20
90
90
90
70
ENDCHAR
STARTCHAR Uhungarumlaut
ENCODING 368
SWIDTH 889 0
DWIDTH 4 0
BBX 4 5 0 0
BITMAP
60
90
90
90
70
ENDCHAR
STARTCHAR uhungarumlaut
ENCODING 369
SWIDTH 889 0
DWIDTH 4 0
BBX 4 5 0 0
BITMAP
60
90
90
90
70
ENDCHAR
STARTCHAR Uogonek
ENCODING 370
SWIDTH 889 0
DWIDTH 4 0
BBX 4 5 0 -1
BITMAP
90
90
90
60
20
ENDCHAR
STARTCHAR uogonek
ENCODING 371
SWIDTH 889 0
DWIDTH 4 0
BBX 4 5 0 -1
BITMAP
90
90
90
60
20
ENDCHAR
STARTCHAR Wcircumflex
ENCODING 372
SWIDTH 1268 0
DWIDTH 6 0
BBX 6 5 0 0
BITMAP
10
A4
64
58
28
ENDCHAR
STARTCHAR wcircumflex
ENCODING 373
SWIDTH 1268 0
DWIDTH 6 0
BBX 6 5 0 0
BITMAP
10
A4
64
58
28
ENDCHAR
STARTCHAR Ycircumflex
ENCODING 374
SWIDTH 926 0
DWIDTH 5 0
BBX 5 5 0 0
BITMAP
20
98
50
20
20
ENDCHAR
STARTCHAR ycircumflex
ENCODING 375
SWIDTH 926 0
DWIDTH 5 0
BBX 5 5 0 0
BITMAP
20
98
50
20
20
ENDCHAR
STARTCHAR Ydieresis
ENCODING 376
SWIDTH 926 0
DWIDTH 5 0
BBX 5 5 0 0
BITMAP
60
98
50
20
20
ENDCHAR
STARTCHAR Zacute
ENCODING 377
SWIDTH 802 0
DWIDTH 4 0
BBX 4 5 0 0
BITMAP
20
F0
20
40
F0
ENDCHAR
STARTCHAR zacute
ENCODING 378
SWIDTH 802 0
DWIDTH 4 0
BBX 4 5 0 0
BITMAP
20
F0
20
40
F0
ENDCHAR
STARTCHAR Zdotaccent
ENCODING 379
SWIDTH 802 0
DWIDTH 4 0
BBX 4 5 0 0
BITMAP
20
F0
20
40
F0
ENDCHAR
STARTCHAR zdotaccent
ENCODING 380
SWIDTH 802 0
DWIDTH 4 0
BBX 4 5 0 0
BITMAP
20
F0
20
40
F0
ENDCHAR
STARTCHAR Zcaron
ENCODING 381
SWIDTH 802 0
DWIDTH 4 0
BBX 4 5 0 0
BITMAP
60
F0
20
40
F0
ENDCHAR
STARTCHAR zcaron
ENCODING 382
SWIDTH 802 0
DWIDTH 4 0
BBX 4 5 0 0
BITMAP
60
F0
20
40
F0
ENDCHAR
STARTCHAR Scommaaccent
ENCODING 536
SWIDTH 880 0
DWIDTH 4 0
BBX 4 5 0 -1
BITMAP
F0
F0
10
F0
20
ENDCHAR
STARTCHAR scommaaccent
ENCODING 537
SWIDTH 880 0
DWIDTH 4 0
BBX 4 5 0 -1
BITMAP
F0
F0
10
F0
20
ENDCHAR
STARTCHAR uni021A
ENCODING 538
SWIDTH 720 0
DWIDTH 4 0
BBX 4 5 0 -1
BITMAP
F0
40
40
40
40
ENDCHAR
STARTCHAR uni021B
ENCODING 539
SWIDTH 720 0
DWIDTH 4 0
BBX 4 5 0 -1
BITMAP
F0
40
40
40
40
ENDCHAR
STARTCHAR circumflex
ENCODING 710
SWIDTH 379 0
DWIDTH 2 0
BBX 2 1 0 4
BITMAP
C0
ENDCHAR
STARTCHAR caron
ENCODING 711
SWIDTH 379 0
DWIDTH 2 0
BBX 2 1 0 4
BITMAP
C0
ENDCHAR
STARTCHAR breve
ENCODING 728
SWIDTH 382 0
DWIDTH 2 0
BBX 2 1 0 4
BITMAP
C0
ENDCHAR
STARTCHAR dotaccent
ENCODING 729
SWIDTH 208 0
DWIDTH 1 0
BBX 1 1 0 4
BITMAP
80
ENDCHAR
STARTCHAR ring
ENCODING 730
SWIDTH 362 0
DWIDTH 2 0
BBX 2 2 0 4
BITMAP
C0
80
ENDCHAR
STARTCHAR ogonek
ENCODING 731
SWIDTH 234 0
DWIDTH 1 0
BBX 1 2 0 -1
BITMAP
80
80
ENDCHAR
STARTCHAR tilde
ENCODING 732
SWIDTH 362 0
DWIDTH 2 0
BBX 2 1 0 4
BITMAP
C0
ENDCHAR
STARTCHAR hungarumlaut
ENCODING 733
SWIDTH 399 0
DWIDTH 2 0
BBX 2 1 0 4
BITMAP
C0
ENDCHAR
STARTCHAR commaaccent
ENCODING 806
SWIDTH 219 0
DWIDTH 1 0
BBX 1 1 0 -1
BITMAP
80
ENDCHAR
STARTCHAR Wgrave
ENCODING 7808
SWIDTH 1268 0
DWIDTH 6 0
BBX 6 5 0 0
BITMAP
30
A4
64
58
28
ENDCHAR
STARTCHAR wgrave
ENCODING 7809
SWIDTH 1268 0
DWIDTH 6 0
BBX 6 5 0 0
BITMAP
30
A4
64
58
28
ENDCHAR
STARTCHAR Wacute
ENCODING 7810
SWIDTH 1268 0
DWIDTH 6 0
BBX 6 5 0 0
BITMAP
10
A4
64
58
28
ENDCHAR
STARTCHAR wacute
ENCODING 7811
SWIDTH 1268 0
DWIDTH 6 0
BBX 6 5 0 0
BITMAP
10
A4
64
58
28
ENDCHAR
STARTCHAR Wdieresis
ENCODING 7812
SWIDTH 1268 0
DWIDTH 6 0
BBX 6 5 0 0
BITMAP
30
A4
64
58
28
ENDCHAR
STARTCHAR wdieresis
ENCODING 7813
SWIDTH 1268 0
DWIDTH 6 0
BBX 6 5 0 0
BITMAP
30
A4
64
58
28
ENDCHAR
STARTCHAR Ygrave
ENCODING 7922
SWIDTH 926 0
DWIDTH 5 0
BBX 5 5 0 0
BITMAP
20
98
50
20
20
ENDCHAR
STARTCHAR ygrave
ENCODING 7923
SWIDTH 926 0
DWIDTH 5 0
BBX 5 5 0 0
BITMAP
20
98
50
20
20
ENDCHAR
STARTCHAR endash
ENCODING 8211
SWIDTH 590 0
DWIDTH 3 0
BBX 3 1 0 2
BITMAP
E0
ENDCHAR
STARTCHAR emdash
ENCODING 8212
SWIDTH 866 0
DWIDTH 4 0
BBX 4 1 0 2
BITMAP
F0
ENDCHAR
STARTCHAR quoteleft
ENCODING 8216
SWIDTH 259 0
DWIDTH 1 0
BBX 1 1 0 3
BITMAP
80
ENDCHAR
STARTCHAR quoteright
ENCODING 8217
SWIDTH 259 0
DWIDTH 1 0
BBX 1 1 0 3
BITMAP
80
ENDCHAR
STARTCHAR quotesinglbase
ENCODING 8218
SWIDTH 259 0
DWIDTH 1 0
BBX 1 1 0 0
BITMAP
80
ENDCHAR
STARTCHAR quotedblleft
ENCODING 8220
SWIDTH 462 0
DWIDTH 2 0
BBX 2 1 0 3
BITMAP
C0
ENDCHAR
STARTCHAR quotedblright
ENCODING 8221
SWIDTH 462 0
DWIDTH 2 0
BBX 2 1 0 3
BITMAP
C0
ENDCHAR
STARTCHAR quotedblbase
ENCODING 8222
SWIDTH 462 0
DWIDTH 2 0
BBX 2 1 0 0
BITMAP
C0
ENDCHAR
STARTCHAR dagger
ENCODING 8224
SWIDTH 466 0
DWIDTH 2 0
BBX 2 4 0 0
BITMAP
40
C0
40
40
ENDCHAR
STARTCHAR daggerdbl
ENCODING 8225
SWIDTH 466 0
DWIDTH 2 0
BBX 2 4 0 0
BITMAP
40
C0
C0
40
ENDCHAR
STARTCHAR bullet
ENCODING 8226
SWIDTH 413 0
DWIDTH 2 0
BBX 2 2 0 1
BITMAP
C0
C0
ENDCHAR
STARTCHAR ellipsis
ENCODING 8230
SWIDTH 1310 0
DWIDTH 7 0
BBX 6 1 0 0
BITMAP
94
ENDCHAR
STARTCHAR perthousand
ENCODING 8240
SWIDTH 1314 0
DWIDTH 7 0
BBX 6 5 0 0
BITMAP
10
D0
E0
54
BC
ENDCHAR
STARTCHAR guilsinglleft
ENCODING 8249
SWIDTH 367 0
DWIDTH 2 0
BBX 2 2 0 1
BITMAP
C0
40
ENDCHAR
STARTCHAR guilsinglright
ENCODING 8250
SWIDTH 368 0
DWIDTH 2 0
BBX 2 2 0 1
BITMAP
C0
80
ENDCHAR
STARTCHAR fraction
ENCODING 8260
SWIDTH 185 0
DWIDTH 1 0
BBX 3 5 -1 0
BITMAP
20
20
40
80
80
ENDCHAR
STARTCHAR zerosuperior
ENCODING 8304
SWIDTH 449 0
DWIDTH 2 0
BBX 2 2 0 2
BITMAP
C0
C0
ENDCHAR
STARTCHAR foursuperior
ENCODING 8308
SWIDTH 452 0
DWIDTH 2 0
BBX 2 2 0 2
BITMAP
C0
C0
ENDCHAR
STARTCHAR fivesuperior
ENCODING 8309
SWIDTH 472 0
DWIDTH 2 0
BBX 2 2 0 2
BITMAP
C0
C0
ENDCHAR
STARTCHAR sixsuperior
ENCODING 8310
SWIDTH 466 0
DWIDTH 2 0
BBX 2 2 0 2
BITMAP
C0
C0
ENDCHAR
STARTCHAR sevensuperior
ENCODING 8311
SWIDTH 408 0
DWIDTH 2 0
BBX 2 2 0 2
BITMAP
C0
80
ENDCHAR
STARTCHAR eightsuperior
ENCODING 8312
SWIDTH 479 0
DWIDTH 2 0
BBX 2 2 0 2
BITMAP
C0
C0
ENDCHAR
STARTCHAR ninesuperior
ENCODING 8313
SWIDTH 460 0
DWIDTH 2 0
BBX 2 2 0 2
BITMAP
C0
C0
ENDCHAR
STARTCHAR zeroinferior
ENCODING 8320
SWIDTH 449 0
DWIDTH 2 0
BBX 2 2 0 0
BITMAP
C0
C0
ENDCHAR
STARTCHAR oneinferior
ENCODING 8321
SWIDTH 222 0
DWIDTH 1 0
BBX 1 2 0 0
BITMAP
80
80
ENDCHAR
STARTCHAR twoinferior
ENCODING 8322
SWIDTH 442 0
DWIDTH 2 0
BBX 2 2 0 0
BITMAP
C0
C0
ENDCHAR
STARTCHAR threeinferior
ENCODING 8323
SWIDTH 443 0
DWIDTH 2 0
BBX 2 2 0 0
BITMAP
C0
C0
ENDCHAR
STARTCHAR fourinferior
ENCODING 8324
SWIDTH 452 0
DWIDTH 2 0
BBX 2 2 0 0
BITMAP
C0
C0
ENDCHAR
STARTCHAR fiveinferior
ENCODING 8325
SWIDTH 472 0
DWIDTH 2 0
BBX 2 2 0 0
BITMAP
C0
C0
ENDCHAR
STARTCHAR sixinferior
ENCODING 8326
SWIDTH 466 0
DWIDTH 2 0
BBX 2 2 0 0
BITMAP
C0
C0
ENDCHAR
STARTCHAR seveninferior
ENCODING 8327
SWIDTH 408 0
DWIDTH 2 0
BBX 2 2 0 0
BITMAP
C0
80
ENDCHAR
STARTCHAR eightinferior
ENCODING 8328
SWIDTH 479 0
DWIDTH 2 0
BBX 2 2 0 0
BITMAP
C0
C0
ENDCHAR
STARTCHAR nineinferior
ENCODING 8329
SWIDTH 460 0
DWIDTH 2 0
BBX 2 2 0 0
BITMAP
C0
C0
ENDCHAR
STARTCHAR Euro
ENCODING 8364
SWIDTH 884 0
DWIDTH 4 0
BBX 4 4 0 0
BITMAP
70
E0
E0
70
ENDCHAR
STARTCHAR uni2117
ENCODING 8471
SWIDTH 829 0
DWIDTH 4 0
BBX 4 4 0 0
BITMAP
60
F0
F0
60
ENDCHAR
STARTCHAR trademark
ENCODING 8482
SWIDTH 536 0
DWIDTH 3 0
BBX 2 1 0 3
BITMAP
C0
ENDCHAR
STARTCHAR onethird
ENCODING 8531
SWIDTH 951 0
DWIDTH 5 0
BBX 5 5 0 0
BITMAP
10
A0
40
50
98
ENDCHAR
STARTCHAR twothirds
ENCODING 8532
SWIDTH 979 0
DWIDTH 5 0
BBX 5 5 0 0
BITMAP
10
D0
E0
58
D8
ENDCHAR
STARTCHAR oneeighth
ENCODING 8539
SWIDTH 985 0
DWIDTH 5 0
BBX 5 5 0 0
BITMAP
10
A0
40
58
98
ENDCHAR
STARTCHAR threeeighths
ENCODING 8540
SWIDTH 972 0
DWIDTH 5 0
BBX 5 5 0 0
BITMAP
10
D0
E0
58
D8
ENDCHAR
STARTCHAR fiveeighths
ENCODING 8541
SWIDTH 973 0
DWIDTH 5 0
BBX 5 5 0 0
BITMAP
10
D0
E0
58
D8
ENDCHAR
STARTCHAR seveneighths
ENCODING 8542
SWIDTH 965 0
DWIDTH 5 0
BBX 5 5 0 0
BITMAP
10
E0
C0
58
98
ENDCHAR
STARTCHAR minus
ENCODING 8722
SWIDTH 690 0
DWIDTH 3 0
BBX 3 1 0 2
BITMAP
E0
ENDCHAR
STARTCHAR approxequal
ENCODING 8776
SWIDTH 691 0
DWIDTH 3 0
BBX 3 3 0 0
BITMAP
E0
00
E0
ENDCHAR
STARTCHAR notequal
ENCODING 8800
SWIDTH 690 0
DWIDTH 3 0
BBX 4 4 0 0
BITMAP
30
E0
E0
80
ENDCHAR
STARTCHAR lessequal
ENCODING 8804
SWIDTH 690 0
DWIDTH 3 0
BBX 3 4 0 -1
BITMAP
20
C0
20
E0
ENDCHAR
STARTCHAR greaterequal
ENCODING 8805
SWIDTH 690 0
DWIDTH 3 0
BBX 3 4 0 -1
BITMAP
C0
60
80
E0
ENDCHAR
STARTCHAR .notdef
ENCODING -1
SWIDTH 430 0
DWIDTH 2 0
BBX 2 4 0 0
BITMAP
C0
C0
C0
C0
ENDCHAR
STARTCHAR nonmarkingreturn
ENCODING -1
SWIDTH 104 0
DWIDTH 1 0
BBX 1 1 0 0
BITMAP
00
ENDCHAR
STARTCHAR .null
ENCODING -1
SWIDTH 104 0
DWIDTH 1 0
BBX 1 1 0 0
BITMAP
00
ENDCHAR
STARTCHAR .ttfautohint
ENCODING -1
SWIDTH 104 0
DWIDTH 1 0
BBX 1 1 0 0
BITMAP
00
ENDCHAR
ENDFONT
