STARTFONT 2.1
FONT -FontForge-Good Times Rg-Book-R-Normal--12-120-75-75-P-89-ISO10646-1
SIZE 12 75 75
FONTBOUNDINGBOX 24 16 -3 -3
COMMENT "Generated by fontforge, http://fontforge.sourceforge.net"
COMMENT "(c) 1998-2012 Typodermic Fonts Inc. See attached license agreement. If agreement is missing visit typodermicfonts.com for more info. Languages by Chikako Larabie"
STARTPROPERTIES 39
FOUNDRY "FontForge"
FAMILY_NAME "Good Times Rg"
WEIGHT_NAME "Book"
SLANT "R"
SETWIDTH_NAME "Normal"
ADD_STYLE_NAME ""
PIXEL_SIZE 12
POINT_SIZE 120
RESOLUTION_X 75
RESOLUTION_Y 75
SPACING "P"
AVERAGE_WIDTH 89
CHARSET_REGISTRY "ISO10646"
CHARSET_ENCODING "1"
FONTNAME_REGISTRY ""
CHARSET_COLLECTIONS "ISO8859-2 ISO8859-9 ISO8859-4 ISO10646-1"
FONT_NAME "GoodTimesRg-Regular"
FACE_NAME "GoodTimesRg-Regular"
COPYRIGHT "(c) 1998-2012 Typodermic Fonts Inc. See attached license agreement. If agreement is missing visit typodermicfonts.com for more info. Languages by Chikako Larabie"
FONT_VERSION "4.001"
FONT_ASCENT 10
FONT_DESCENT 2
UNDERLINE_POSITION -2
UNDERLINE_THICKNESS 1
X_HEIGHT 8
CAP_HEIGHT 8
RAW_ASCENT 799
RAW_DESCENT 201
NORM_SPACE 4
RELATIVE_WEIGHT 40
RELATIVE_SETWIDTH 50
SUPERSCRIPT_X 0
SUPERSCRIPT_Y 3
SUPERSCRIPT_SIZE 3
SUBSCRIPT_X 0
SUBSCRIPT_Y 0
SUBSCRIPT_SIZE 3
AVG_LOWERCASE_WIDTH 102
AVG_UPPERCASE_WIDTH 102
ENDPROPERTIES
CHARS 372
STARTCHAR space
ENCODING 32
SWIDTH 294 0
DWIDTH 4 0
BBX 1 1 0 0
BITMAP
00
ENDCHAR
STARTCHAR exclam
ENCODING 33
SWIDTH 298 0
DWIDTH 4 0
BBX 2 9 1 0
BITMAP
C0
C0
C0
C0
C0
C0
00
80
C0
ENDCHAR
STARTCHAR quotedbl
ENCODING 34
SWIDTH 452 0
DWIDTH 5 0
BBX 4 3 1 6
BITMAP
B0
A0
A0
ENDCHAR
STARTCHAR numbersign
ENCODING 35
SWIDTH 697 0
DWIDTH 8 0
BBX 7 9 1 0
BITMAP
34
24
FE
68
48
FC
FC
D0
90
ENDCHAR
STARTCHAR dollar
ENCODING 36
SWIDTH 744 0
DWIDTH 9 0
BBX 7 9 1 0
BITMAP
10
FE
FE
FC
FE
12
FE
FE
10
ENDCHAR
STARTCHAR percent
ENCODING 37
SWIDTH 965 0
DWIDTH 12 0
BBX 11 11 0 -1
BITMAP
7040
7880
8880
7900
7200
05C0
05E0
0A20
11E0
21C0
6000
ENDCHAR
STARTCHAR ampersand
ENCODING 38
SWIDTH 759 0
DWIDTH 9 0
BBX 8 9 1 0
BITMAP
70
F0
80
FE
FE
84
84
FF
7F
ENDCHAR
STARTCHAR quotesingle
ENCODING 39
SWIDTH 255 0
DWIDTH 3 0
BBX 1 3 1 6
BITMAP
80
80
80
ENDCHAR
STARTCHAR parenleft
ENCODING 40
SWIDTH 356 0
DWIDTH 4 0
BBX 3 11 1 -1
BITMAP
60
40
40
80
80
80
80
80
40
40
60
ENDCHAR
STARTCHAR parenright
ENCODING 41
SWIDTH 355 0
DWIDTH 4 0
BBX 2 11 1 -1
BITMAP
80
80
40
40
40
40
40
40
40
80
80
ENDCHAR
STARTCHAR asterisk
ENCODING 42
SWIDTH 469 0
DWIDTH 6 0
BBX 4 4 1 5
BITMAP
40
F0
60
A0
ENDCHAR
STARTCHAR plus
ENCODING 43
SWIDTH 690 0
DWIDTH 8 0
BBX 7 7 1 1
BITMAP
10
10
10
FE
FE
10
10
ENDCHAR
STARTCHAR comma
ENCODING 44
SWIDTH 259 0
DWIDTH 3 0
BBX 1 3 1 -1
BITMAP
80
80
80
ENDCHAR
STARTCHAR hyphen
ENCODING 45
SWIDTH 296 0
DWIDTH 4 0
BBX 3 2 0 4
BITMAP
E0
E0
ENDCHAR
STARTCHAR period
ENCODING 46
SWIDTH 262 0
DWIDTH 3 0
BBX 1 2 1 0
BITMAP
80
80
ENDCHAR
STARTCHAR slash
ENCODING 47
SWIDTH 444 0
DWIDTH 5 0
BBX 5 9 0 0
BITMAP
08
08
10
10
20
20
40
40
80
ENDCHAR
STARTCHAR zero
ENCODING 48
SWIDTH 838 0
DWIDTH 10 0
BBX 10 9 0 0
BITMAP
1E00
3F00
6180
4080
C0C0
4080
6180
3F00
1E00
ENDCHAR
STARTCHAR one
ENCODING 49
SWIDTH 385 0
DWIDTH 5 0
BBX 4 9 0 0
BITMAP
E0
F0
30
30
30
30
30
30
30
ENDCHAR
STARTCHAR two
ENCODING 50
SWIDTH 825 0
DWIDTH 10 0
BBX 8 9 1 0
BITMAP
FE
FF
01
3F
FE
80
80
FF
FF
ENDCHAR
STARTCHAR three
ENCODING 51
SWIDTH 827 0
DWIDTH 10 0
BBX 8 9 1 0
BITMAP
FE
FF
01
3F
3F
01
01
FF
FE
ENDCHAR
STARTCHAR four
ENCODING 52
SWIDTH 845 0
DWIDTH 10 0
BBX 9 9 1 0
BITMAP
8300
8300
8300
8300
8300
FF80
3F80
0300
0300
ENDCHAR
STARTCHAR five
ENCODING 53
SWIDTH 885 0
DWIDTH 11 0
BBX 9 9 1 0
BITMAP
FF80
FF80
8000
FE00
FF80
0180
0080
FF80
FF00
ENDCHAR
STARTCHAR six
ENCODING 54
SWIDTH 872 0
DWIDTH 10 0
BBX 10 9 0 0
BITMAP
3F80
7F80
4000
7F00
FF80
40C0
40C0
7FC0
3F80
ENDCHAR
STARTCHAR seven
ENCODING 55
SWIDTH 756 0
DWIDTH 9 0
BBX 8 9 1 0
BITMAP
FF
FF
06
0C
18
30
30
60
C0
ENDCHAR
STARTCHAR eight
ENCODING 56
SWIDTH 898 0
DWIDTH 11 0
BBX 9 9 1 0
BITMAP
7F00
FF80
8180
FF80
FF80
8180
8080
FF80
7F00
ENDCHAR
STARTCHAR nine
ENCODING 57
SWIDTH 861 0
DWIDTH 10 0
BBX 10 9 0 0
BITMAP
3F00
7F80
C0C0
40C0
7FC0
3FC0
00C0
7F80
7F00
ENDCHAR
STARTCHAR colon
ENCODING 58
SWIDTH 262 0
DWIDTH 3 0
BBX 1 6 1 0
BITMAP
80
80
00
00
80
80
ENDCHAR
STARTCHAR semicolon
ENCODING 59
SWIDTH 262 0
DWIDTH 3 0
BBX 1 7 1 -1
BITMAP
80
80
00
00
80
80
80
ENDCHAR
STARTCHAR less
ENCODING 60
SWIDTH 690 0
DWIDTH 8 0
BBX 7 7 1 1
BITMAP
02
1C
60
80
70
0C
02
ENDCHAR
STARTCHAR equal
ENCODING 61
SWIDTH 690 0
DWIDTH 8 0
BBX 7 5 1 2
BITMAP
FE
FE
00
FE
FE
ENDCHAR
STARTCHAR greater
ENCODING 62
SWIDTH 690 0
DWIDTH 8 0
BBX 7 7 1 1
BITMAP
80
E0
18
06
18
E0
80
ENDCHAR
STARTCHAR question
ENCODING 63
SWIDTH 776 0
DWIDTH 9 0
BBX 8 9 1 0
BITMAP
FE
FF
03
3F
7E
C0
00
40
C0
ENDCHAR
STARTCHAR at
ENCODING 64
SWIDTH 833 0
DWIDTH 10 0
BBX 9 9 0 0
BITMAP
1F80
3F80
4E80
5E80
D280
5F80
4F80
7F80
1F80
ENDCHAR
STARTCHAR A
ENCODING 65
SWIDTH 989 0
DWIDTH 12 0
BBX 12 9 0 0
BITMAP
0600
0600
0F00
1900
1080
37C0
2840
6060
C030
ENDCHAR
STARTCHAR B
ENCODING 66
SWIDTH 891 0
DWIDTH 11 0
BBX 9 9 1 0
BITMAP
FF00
FF80
8180
BF80
BF80
8180
8080
FF80
FF00
ENDCHAR
STARTCHAR C
ENCODING 67
SWIDTH 829 0
DWIDTH 10 0
BBX 9 9 0 0
BITMAP
1F80
7F80
6000
4000
C000
4000
6000
3F80
1F80
ENDCHAR
STARTCHAR D
ENCODING 68
SWIDTH 879 0
DWIDTH 11 0
BBX 9 9 1 0
BITMAP
FE00
FF00
8180
8180
8080
8180
8180
FF00
FE00
ENDCHAR
STARTCHAR E
ENCODING 69
SWIDTH 759 0
DWIDTH 9 0
BBX 8 9 1 0
BITMAP
FF
FF
80
BE
BE
80
80
FF
FF
ENDCHAR
STARTCHAR F
ENCODING 70
SWIDTH 705 0
DWIDTH 8 0
BBX 7 9 1 0
BITMAP
FE
FE
80
80
BE
BE
80
80
80
ENDCHAR
STARTCHAR G
ENCODING 71
SWIDTH 888 0
DWIDTH 11 0
BBX 10 9 0 0
BITMAP
1F80
7F80
6000
47C0
C7C0
40C0
60C0
3FC0
1FC0
ENDCHAR
STARTCHAR H
ENCODING 72
SWIDTH 838 0
DWIDTH 10 0
BBX 8 9 1 0
BITMAP
81
81
81
BF
BF
81
81
81
81
ENDCHAR
STARTCHAR I
ENCODING 73
SWIDTH 267 0
DWIDTH 3 0
BBX 1 9 1 0
BITMAP
80
80
80
80
80
80
80
80
80
ENDCHAR
STARTCHAR J
ENCODING 74
SWIDTH 708 0
DWIDTH 9 0
BBX 8 9 0 0
BITMAP
03
03
03
03
03
03
03
FE
FC
ENDCHAR
STARTCHAR K
ENCODING 75
SWIDTH 875 0
DWIDTH 11 0
BBX 9 9 1 0
BITMAP
8380
8600
8C00
B800
B000
9800
8C00
8600
8380
ENDCHAR
STARTCHAR L
ENCODING 76
SWIDTH 707 0
DWIDTH 8 0
BBX 7 9 1 0
BITMAP
80
80
80
80
80
80
80
FE
FE
ENDCHAR
STARTCHAR M
ENCODING 77
SWIDTH 1115 0
DWIDTH 13 0
BBX 13 9 0 0
BITMAP
1060
3060
3860
28F0
6CB0
6590
4710
4318
C218
ENDCHAR
STARTCHAR N
ENCODING 78
SWIDTH 873 0
DWIDTH 10 0
BBX 9 9 1 0
BITMAP
8180
C180
E180
B180
9980
8D80
8780
8380
8180
ENDCHAR
STARTCHAR O
ENCODING 79
SWIDTH 968 0
DWIDTH 12 0
BBX 11 9 0 0
BITMAP
1F80
7FC0
6060
4060
C020
4060
6060
3FC0
1F80
ENDCHAR
STARTCHAR P
ENCODING 80
SWIDTH 867 0
DWIDTH 10 0
BBX 9 9 1 0
BITMAP
FF00
FF80
8180
8080
8180
BF00
BE00
8000
8000
ENDCHAR
STARTCHAR Q
ENCODING 81
SWIDTH 968 0
DWIDTH 12 0
BBX 12 9 0 0
BITMAP
1F80
7FC0
6060
4060
C020
4660
6160
3FC0
1FF0
ENDCHAR
STARTCHAR R
ENCODING 82
SWIDTH 921 0
DWIDTH 11 0
BBX 10 9 1 0
BITMAP
FF00
FF80
8080
8080
8180
BF00
BF00
8380
81C0
ENDCHAR
STARTCHAR S
ENCODING 83
SWIDTH 880 0
DWIDTH 11 0
BBX 9 9 1 0
BITMAP
7F80
FF80
8000
FE00
7F80
0180
0080
FF80
FF00
ENDCHAR
STARTCHAR T
ENCODING 84
SWIDTH 720 0
DWIDTH 9 0
BBX 8 9 0 0
BITMAP
FF
FF
08
08
08
08
08
08
08
ENDCHAR
STARTCHAR U
ENCODING 85
SWIDTH 889 0
DWIDTH 11 0
BBX 9 9 1 0
BITMAP
8080
8080
8080
8080
8080
8080
C180
FF00
7E00
ENDCHAR
STARTCHAR V
ENCODING 86
SWIDTH 989 0
DWIDTH 12 0
BBX 12 9 0 0
BITMAP
C030
6060
20C0
30C0
1980
1900
0F00
0600
0600
ENDCHAR
STARTCHAR W
ENCODING 87
SWIDTH 1268 0
DWIDTH 15 0
BBX 15 9 0 0
BITMAP
C606
6604
630C
3308
1198
1BB0
0AF0
0EE0
0460
ENDCHAR
STARTCHAR X
ENCODING 88
SWIDTH 1000 0
DWIDTH 12 0
BBX 12 9 0 0
BITMAP
6060
30C0
1980
0F00
0600
0F00
1980
30C0
E070
ENDCHAR
STARTCHAR Y
ENCODING 89
SWIDTH 926 0
DWIDTH 11 0
BBX 11 9 0 0
BITMAP
E060
60C0
3180
1B00
0E00
0400
0400
0400
0400
ENDCHAR
STARTCHAR Z
ENCODING 90
SWIDTH 802 0
DWIDTH 10 0
BBX 9 9 0 0
BITMAP
7F80
7F80
0300
0600
0C00
1800
3000
7F80
FF80
ENDCHAR
STARTCHAR bracketleft
ENCODING 91
SWIDTH 333 0
DWIDTH 4 0
BBX 2 12 1 -1
BITMAP
C0
C0
80
80
80
80
80
80
80
80
C0
C0
ENDCHAR
STARTCHAR backslash
ENCODING 92
SWIDTH 445 0
DWIDTH 5 0
BBX 5 9 0 0
BITMAP
80
40
40
20
20
10
10
18
08
ENDCHAR
STARTCHAR bracketright
ENCODING 93
SWIDTH 333 0
DWIDTH 4 0
BBX 2 12 1 -1
BITMAP
C0
C0
40
40
40
40
40
40
40
40
C0
C0
ENDCHAR
STARTCHAR asciicircum
ENCODING 94
SWIDTH 559 0
DWIDTH 7 0
BBX 5 6 1 3
BITMAP
20
60
50
50
88
88
ENDCHAR
STARTCHAR underscore
ENCODING 95
SWIDTH 668 0
DWIDTH 8 0
BBX 8 1 0 -2
BITMAP
FF
ENDCHAR
STARTCHAR grave
ENCODING 96
SWIDTH 362 0
DWIDTH 4 0
BBX 3 1 1 10
BITMAP
E0
ENDCHAR
STARTCHAR a
ENCODING 97
SWIDTH 989 0
DWIDTH 12 0
BBX 12 9 0 0
BITMAP
0600
0600
0F00
1900
1080
37C0
2840
6060
C030
ENDCHAR
STARTCHAR b
ENCODING 98
SWIDTH 891 0
DWIDTH 11 0
BBX 9 9 1 0
BITMAP
FF00
FF80
8180
BF80
BF80
8180
8080
FF80
FF00
ENDCHAR
STARTCHAR c
ENCODING 99
SWIDTH 829 0
DWIDTH 10 0
BBX 9 9 0 0
BITMAP
1F80
7F80
6000
4000
C000
4000
6000
3F80
1F80
ENDCHAR
STARTCHAR d
ENCODING 100
SWIDTH 879 0
DWIDTH 11 0
BBX 9 9 1 0
BITMAP
FE00
FF00
8180
8180
8080
8180
8180
FF00
FE00
ENDCHAR
STARTCHAR e
ENCODING 101
SWIDTH 759 0
DWIDTH 9 0
BBX 8 9 1 0
BITMAP
FF
FF
80
BE
BE
80
80
FF
FF
ENDCHAR
STARTCHAR f
ENCODING 102
SWIDTH 705 0
DWIDTH 8 0
BBX 7 9 1 0
BITMAP
FE
FE
80
80
BE
BE
80
80
80
ENDCHAR
STARTCHAR g
ENCODING 103
SWIDTH 888 0
DWIDTH 11 0
BBX 10 9 0 0
BITMAP
1F80
7F80
6000
47C0
C7C0
40C0
60C0
3FC0
1FC0
ENDCHAR
STARTCHAR h
ENCODING 104
SWIDTH 838 0
DWIDTH 10 0
BBX 8 9 1 0
BITMAP
81
81
81
BF
BF
81
81
81
81
ENDCHAR
STARTCHAR i
ENCODING 105
SWIDTH 267 0
DWIDTH 3 0
BBX 1 9 1 0
BITMAP
80
80
80
80
80
80
80
80
80
ENDCHAR
STARTCHAR j
ENCODING 106
SWIDTH 708 0
DWIDTH 9 0
BBX 8 9 0 0
BITMAP
03
03
03
03
03
03
03
FE
FC
ENDCHAR
STARTCHAR k
ENCODING 107
SWIDTH 875 0
DWIDTH 11 0
BBX 9 9 1 0
BITMAP
8380
8600
8C00
B800
B000
9800
8C00
8600
8380
ENDCHAR
STARTCHAR l
ENCODING 108
SWIDTH 707 0
DWIDTH 8 0
BBX 7 9 1 0
BITMAP
80
80
80
80
80
80
80
FE
FE
ENDCHAR
STARTCHAR m
ENCODING 109
SWIDTH 1115 0
DWIDTH 13 0
BBX 13 9 0 0
BITMAP
1060
3060
3860
28F0
6CB0
6590
4710
4318
C218
ENDCHAR
STARTCHAR n
ENCODING 110
SWIDTH 873 0
DWIDTH 10 0
BBX 9 9 1 0
BITMAP
8180
C180
E180
B180
9980
8D80
8780
8380
8180
ENDCHAR
STARTCHAR o
ENCODING 111
SWIDTH 968 0
DWIDTH 12 0
BBX 11 9 0 0
BITMAP
1F80
7FC0
6060
4060
C020
4060
6060
3FC0
1F80
ENDCHAR
STARTCHAR p
ENCODING 112
SWIDTH 867 0
DWIDTH 10 0
BBX 9 9 1 0
BITMAP
FF00
FF80
8180
8080
8180
BF00
BE00
8000
8000
ENDCHAR
STARTCHAR q
ENCODING 113
SWIDTH 968 0
DWIDTH 12 0
BBX 12 9 0 0
BITMAP
1F80
7FC0
6060
4060
C020
4660
6160
3FC0
1FF0
ENDCHAR
STARTCHAR r
ENCODING 114
SWIDTH 921 0
DWIDTH 11 0
BBX 10 9 1 0
BITMAP
FF00
FF80
8080
8080
8180
BF00
BF00
8380
81C0
ENDCHAR
STARTCHAR s
ENCODING 115
SWIDTH 880 0
DWIDTH 11 0
BBX 9 9 1 0
BITMAP
7F80
FF80
8000
FE00
7F80
0180
0080
FF80
FF00
ENDCHAR
STARTCHAR t
ENCODING 116
SWIDTH 720 0
DWIDTH 9 0
BBX 8 9 0 0
BITMAP
FF
FF
08
08
08
08
08
08
08
ENDCHAR
STARTCHAR u
ENCODING 117
SWIDTH 889 0
DWIDTH 11 0
BBX 9 9 1 0
BITMAP
8080
8080
8080
8080
8080
8080
C180
FF00
7E00
ENDCHAR
STARTCHAR v
ENCODING 118
SWIDTH 989 0
DWIDTH 12 0
BBX 12 9 0 0
BITMAP
C030
6060
20C0
30C0
1980
1900
0F00
0600
0600
ENDCHAR
STARTCHAR w
ENCODING 119
SWIDTH 1268 0
DWIDTH 15 0
BBX 15 9 0 0
BITMAP
C606
6604
630C
3308
1198
1BB0
0AF0
0EE0
0460
ENDCHAR
STARTCHAR x
ENCODING 120
SWIDTH 1000 0
DWIDTH 12 0
BBX 12 9 0 0
BITMAP
6060
30C0
1980
0F00
0600
0F00
1980
30C0
E070
ENDCHAR
STARTCHAR y
ENCODING 121
SWIDTH 926 0
DWIDTH 11 0
BBX 11 9 0 0
BITMAP
E060
60C0
3180
1B00
0E00
0400
0400
0400
0400
ENDCHAR
STARTCHAR z
ENCODING 122
SWIDTH 802 0
DWIDTH 10 0
BBX 9 9 0 0
BITMAP
7F80
7F80
0300
0600
0C00
1800
3000
7F80
FF80
ENDCHAR
STARTCHAR braceleft
ENCODING 123
SWIDTH 337 0
DWIDTH 4 0
BBX 2 12 1 -1
BITMAP
40
C0
80
80
80
80
80
80
80
80
C0
40
ENDCHAR
STARTCHAR bar
ENCODING 124
SWIDTH 297 0
DWIDTH 4 0
BBX 1 11 1 -1
BITMAP
80
80
80
80
80
80
80
80
80
80
80
ENDCHAR
STARTCHAR braceright
ENCODING 125
SWIDTH 337 0
DWIDTH 4 0
BBX 2 12 1 -1
BITMAP
80
C0
40
40
40
40
40
40
40
40
C0
80
ENDCHAR
STARTCHAR asciitilde
ENCODING 126
SWIDTH 691 0
DWIDTH 8 0
BBX 7 2 1 4
BITMAP
FE
FE
ENDCHAR
STARTCHAR nonbreakingspace
ENCODING 160
SWIDTH 294 0
DWIDTH 4 0
BBX 1 1 0 0
BITMAP
00
ENDCHAR
STARTCHAR exclamdown
ENCODING 161
SWIDTH 298 0
DWIDTH 4 0
BBX 2 9 1 0
BITMAP
C0
80
00
C0
C0
C0
C0
C0
C0
ENDCHAR
STARTCHAR cent
ENCODING 162
SWIDTH 692 0
DWIDTH 8 0
BBX 8 9 0 0
BITMAP
04
3F
7F
44
C4
44
7F
3F
04
ENDCHAR
STARTCHAR sterling
ENCODING 163
SWIDTH 709 0
DWIDTH 9 0
BBX 8 9 0 0
BITMAP
3E
3E
60
78
78
60
60
FF
FF
ENDCHAR
STARTCHAR yen
ENCODING 165
SWIDTH 787 0
DWIDTH 9 0
BBX 9 9 0 0
BITMAP
C180
6300
3300
3600
1C00
3F00
0800
3F00
3F00
ENDCHAR
STARTCHAR brokenbar
ENCODING 166
SWIDTH 297 0
DWIDTH 4 0
BBX 1 11 1 -1
BITMAP
80
80
80
80
80
00
80
80
80
80
80
ENDCHAR
STARTCHAR section
ENCODING 167
SWIDTH 773 0
DWIDTH 9 0
BBX 8 12 1 -3
BITMAP
FE
FE
80
FC
7E
82
FE
7E
03
03
7E
7C
ENDCHAR
STARTCHAR dieresis
ENCODING 168
SWIDTH 393 0
DWIDTH 5 0
BBX 3 2 1 10
BITMAP
A0
A0
ENDCHAR
STARTCHAR copyright
ENCODING 169
SWIDTH 829 0
DWIDTH 10 0
BBX 9 9 0 0
BITMAP
1E00
3F00
4C80
9C80
9080
9C80
4C80
3F00
1E00
ENDCHAR
STARTCHAR ordfeminine
ENCODING 170
SWIDTH 604 0
DWIDTH 7 0
BBX 7 5 0 4
BITMAP
10
28
28
5C
C6
ENDCHAR
STARTCHAR guillemotleft
ENCODING 171
SWIDTH 629 0
DWIDTH 8 0
BBX 7 5 0 2
BITMAP
12
24
C8
24
12
ENDCHAR
STARTCHAR registered
ENCODING 174
SWIDTH 585 0
DWIDTH 7 0
BBX 5 8 1 1
BITMAP
70
F8
F8
F8
88
88
70
20
ENDCHAR
STARTCHAR macron
ENCODING 175
SWIDTH 362 0
DWIDTH 4 0
BBX 3 1 1 10
BITMAP
E0
ENDCHAR
STARTCHAR degree
ENCODING 176
SWIDTH 361 0
DWIDTH 4 0
BBX 4 4 0 5
BITMAP
60
70
F0
60
ENDCHAR
STARTCHAR plusminus
ENCODING 177
SWIDTH 690 0
DWIDTH 8 0
BBX 7 9 1 -1
BITMAP
10
10
10
FE
FE
10
10
FE
FE
ENDCHAR
STARTCHAR twosuperior
ENCODING 178
SWIDTH 442 0
DWIDTH 5 0
BBX 4 6 1 5
BITMAP
E0
F0
10
F0
E0
F0
ENDCHAR
STARTCHAR threesuperior
ENCODING 179
SWIDTH 443 0
DWIDTH 5 0
BBX 5 6 0 5
BITMAP
F0
F8
08
70
F8
F8
ENDCHAR
STARTCHAR acute
ENCODING 180
SWIDTH 362 0
DWIDTH 4 0
BBX 3 1 1 10
BITMAP
E0
ENDCHAR
STARTCHAR paragraph
ENCODING 182
SWIDTH 629 0
DWIDTH 8 0
BBX 6 11 1 -2
BITMAP
FC
FC
E4
E4
E4
24
24
24
24
24
24
ENDCHAR
STARTCHAR periodcentered
ENCODING 183
SWIDTH 262 0
DWIDTH 3 0
BBX 1 2 1 4
BITMAP
80
80
ENDCHAR
STARTCHAR cedilla
ENCODING 184
SWIDTH 219 0
DWIDTH 3 0
BBX 1 2 1 -3
BITMAP
80
80
ENDCHAR
STARTCHAR onesuperior
ENCODING 185
SWIDTH 222 0
DWIDTH 3 0
BBX 2 6 0 5
BITMAP
80
C0
40
40
40
40
ENDCHAR
STARTCHAR ordmasculine
ENCODING 186
SWIDTH 592 0
DWIDTH 7 0
BBX 5 6 1 4
BITMAP
70
F8
88
88
F8
78
ENDCHAR
STARTCHAR guillemotright
ENCODING 187
SWIDTH 629 0
DWIDTH 8 0
BBX 7 5 0 2
BITMAP
90
6C
12
6C
90
ENDCHAR
STARTCHAR onequarter
ENCODING 188
SWIDTH 972 0
DWIDTH 12 0
BBX 11 12 0 -1
BITMAP
4000
6080
2080
2100
2200
2400
0400
0A20
11E0
21E0
2020
C000
ENDCHAR
STARTCHAR onehalf
ENCODING 189
SWIDTH 948 0
DWIDTH 11 0
BBX 11 12 0 -1
BITMAP
4000
6080
2080
2100
2200
25C0
05E0
0820
11E0
21C0
21E0
C000
ENDCHAR
STARTCHAR threequarters
ENCODING 190
SWIDTH 1029 0
DWIDTH 12 0
BBX 12 12 0 -1
BITMAP
7000
7840
0880
3080
F900
FA00
0400
0520
09F0
11F0
2020
6000
ENDCHAR
STARTCHAR questiondown
ENCODING 191
SWIDTH 776 0
DWIDTH 9 0
BBX 9 9 0 0
BITMAP
0300
0100
0000
0300
7F00
7E00
C000
FF80
7F80
ENDCHAR
STARTCHAR Agrave
ENCODING 192
SWIDTH 989 0
DWIDTH 12 0
BBX 12 11 0 0
BITMAP
0E00
0000
0600
0600
0F00
1900
1080
37C0
2840
6060
C030
ENDCHAR
STARTCHAR Aacute
ENCODING 193
SWIDTH 989 0
DWIDTH 12 0
BBX 12 11 0 0
BITMAP
0700
0000
0600
0600
0F00
1900
1080
37C0
2840
6060
C030
ENDCHAR
STARTCHAR Acircumflex
ENCODING 194
SWIDTH 989 0
DWIDTH 12 0
BBX 12 11 0 0
BITMAP
0600
0B00
0600
0600
0F00
1900
1080
37C0
2840
6060
C030
ENDCHAR
STARTCHAR Atilde
ENCODING 195
SWIDTH 989 0
DWIDTH 12 0
BBX 12 12 0 0
BITMAP
0E00
0E00
0000
0600
0600
0F00
1900
1080
37C0
2840
6060
C030
ENDCHAR
STARTCHAR Adieresis
ENCODING 196
SWIDTH 989 0
DWIDTH 12 0
BBX 12 12 0 0
BITMAP
0900
0B00
0000
0600
0600
0F00
1900
1080
37C0
2840
6060
C030
ENDCHAR
STARTCHAR Aring
ENCODING 197
SWIDTH 989 0
DWIDTH 12 0
BBX 12 13 0 0
BITMAP
0600
0E00
0600
0000
0600
0600
0F00
1900
1080
37C0
2840
6060
C030
ENDCHAR
STARTCHAR AE
ENCODING 198
SWIDTH 1345 0
DWIDTH 16 0
BBX 16 9 0 0
BITMAP
07FF
0FFF
08C0
18DE
10DE
37C0
2FC0
60FF
C0FF
ENDCHAR
STARTCHAR Ccedilla
ENCODING 199
SWIDTH 829 0
DWIDTH 10 0
BBX 9 12 0 -3
BITMAP
1F80
7F80
6000
4000
C000
4000
6000
3F80
1F80
0000
0C00
0400
ENDCHAR
STARTCHAR Egrave
ENCODING 200
SWIDTH 759 0
DWIDTH 9 0
BBX 8 11 1 0
BITMAP
30
08
FF
FF
80
BE
BE
80
80
FF
FF
ENDCHAR
STARTCHAR Eacute
ENCODING 201
SWIDTH 759 0
DWIDTH 9 0
BBX 8 11 1 0
BITMAP
18
20
FF
FF
80
BE
BE
80
80
FF
FF
ENDCHAR
STARTCHAR Ecircumflex
ENCODING 202
SWIDTH 759 0
DWIDTH 9 0
BBX 8 11 1 0
BITMAP
10
28
FF
FF
80
BE
BE
80
80
FF
FF
ENDCHAR
STARTCHAR Edieresis
ENCODING 203
SWIDTH 759 0
DWIDTH 9 0
BBX 8 12 1 0
BITMAP
28
28
00
FF
FF
80
BE
BE
80
80
FF
FF
ENDCHAR
STARTCHAR Igrave
ENCODING 204
SWIDTH 267 0
DWIDTH 3 0
BBX 3 11 0 0
BITMAP
C0
20
40
40
40
40
40
40
40
40
40
ENDCHAR
STARTCHAR Iacute
ENCODING 205
SWIDTH 267 0
DWIDTH 3 0
BBX 4 11 0 0
BITMAP
70
80
40
40
40
40
40
40
40
40
40
ENDCHAR
STARTCHAR Icircumflex
ENCODING 206
SWIDTH 267 0
DWIDTH 3 0
BBX 3 11 0 0
BITMAP
40
A0
40
40
40
40
40
40
40
40
40
ENDCHAR
STARTCHAR Idieresis
ENCODING 207
SWIDTH 267 0
DWIDTH 3 0
BBX 3 12 0 0
BITMAP
A0
A0
00
40
40
40
40
40
40
40
40
40
ENDCHAR
STARTCHAR Eth
ENCODING 208
SWIDTH 877 0
DWIDTH 11 0
BBX 10 9 0 0
BITMAP
7F00
7F80
40C0
FCC0
FC40
40C0
40C0
7F80
7F00
ENDCHAR
STARTCHAR Ntilde
ENCODING 209
SWIDTH 873 0
DWIDTH 10 0
BBX 9 12 1 0
BITMAP
1C00
1C00
0000
8180
C180
E180
B180
9980
8D80
8780
8380
8180
ENDCHAR
STARTCHAR Ograve
ENCODING 210
SWIDTH 968 0
DWIDTH 12 0
BBX 11 11 0 0
BITMAP
0E00
0000
1F80
7FC0
6060
4060
C020
4060
6060
3FC0
1F80
ENDCHAR
STARTCHAR Oacute
ENCODING 211
SWIDTH 968 0
DWIDTH 12 0
BBX 11 11 0 0
BITMAP
0700
0000
1F80
7FC0
6060
4060
C020
4060
6060
3FC0
1F80
ENDCHAR
STARTCHAR Ocircumflex
ENCODING 212
SWIDTH 968 0
DWIDTH 12 0
BBX 11 11 0 0
BITMAP
0600
0A00
1F80
7FC0
6060
4060
C020
4060
6060
3FC0
1F80
ENDCHAR
STARTCHAR Otilde
ENCODING 213
SWIDTH 968 0
DWIDTH 12 0
BBX 11 12 0 0
BITMAP
0E00
0E00
0000
1F80
7FC0
6060
4060
C020
4060
6060
3FC0
1F80
ENDCHAR
STARTCHAR Odieresis
ENCODING 214
SWIDTH 968 0
DWIDTH 12 0
BBX 11 12 0 0
BITMAP
0A00
0B00
0000
1F80
7FC0
6060
4060
C020
4060
6060
3FC0
1F80
ENDCHAR
STARTCHAR multiply
ENCODING 215
SWIDTH 690 0
DWIDTH 8 0
BBX 6 5 1 2
BITMAP
CC
38
30
78
CC
ENDCHAR
STARTCHAR Oslash
ENCODING 216
SWIDTH 968 0
DWIDTH 12 0
BBX 11 11 0 -1
BITMAP
0040
1FC0
7FC0
6160
4260
C420
4460
6860
3FC0
3F80
2000
ENDCHAR
STARTCHAR Ugrave
ENCODING 217
SWIDTH 889 0
DWIDTH 11 0
BBX 9 11 1 0
BITMAP
3800
0400
8080
8080
8080
8080
8080
8080
C180
FF00
7E00
ENDCHAR
STARTCHAR Uacute
ENCODING 218
SWIDTH 889 0
DWIDTH 11 0
BBX 9 11 1 0
BITMAP
0C00
1000
8080
8080
8080
8080
8080
8080
C180
FF00
7E00
ENDCHAR
STARTCHAR Ucircumflex
ENCODING 219
SWIDTH 889 0
DWIDTH 11 0
BBX 9 11 1 0
BITMAP
0800
1400
8080
8080
8080
8080
8080
8080
C180
FF00
7E00
ENDCHAR
STARTCHAR Udieresis
ENCODING 220
SWIDTH 889 0
DWIDTH 11 0
BBX 9 12 1 0
BITMAP
1400
1400
0000
8080
8080
8080
8080
8080
8080
C180
FF00
7E00
ENDCHAR
STARTCHAR Yacute
ENCODING 221
SWIDTH 926 0
DWIDTH 11 0
BBX 11 11 0 0
BITMAP
0700
0800
E060
60C0
3180
1B00
0E00
0400
0400
0400
0400
ENDCHAR
STARTCHAR Thorn
ENCODING 222
SWIDTH 843 0
DWIDTH 10 0
BBX 9 9 1 0
BITMAP
8000
FC00
FF00
8180
8180
8180
BF00
BE00
8000
ENDCHAR
STARTCHAR germandbls
ENCODING 223
SWIDTH 1760 0
DWIDTH 21 0
BBX 20 9 1 0
BITMAP
7F9FE0
FFBFE0
803000
FE3FC0
7F9FE0
018030
008030
FFBFE0
FF3FE0
ENDCHAR
STARTCHAR agrave
ENCODING 224
SWIDTH 989 0
DWIDTH 12 0
BBX 12 11 0 0
BITMAP
0E00
0000
0600
0600
0F00
1900
1080
37C0
2840
6060
C030
ENDCHAR
STARTCHAR aacute
ENCODING 225
SWIDTH 989 0
DWIDTH 12 0
BBX 12 11 0 0
BITMAP
0700
0000
0600
0600
0F00
1900
1080
37C0
2840
6060
C030
ENDCHAR
STARTCHAR acircumflex
ENCODING 226
SWIDTH 989 0
DWIDTH 12 0
BBX 12 11 0 0
BITMAP
0600
0B00
0600
0600
0F00
1900
1080
37C0
2840
6060
C030
ENDCHAR
STARTCHAR atilde
ENCODING 227
SWIDTH 989 0
DWIDTH 12 0
BBX 12 12 0 0
BITMAP
0E00
0E00
0000
0600
0600
0F00
1900
1080
37C0
2840
6060
C030
ENDCHAR
STARTCHAR adieresis
ENCODING 228
SWIDTH 989 0
DWIDTH 12 0
BBX 12 12 0 0
BITMAP
0900
0B00
0000
0600
0600
0F00
1900
1080
37C0
2840
6060
C030
ENDCHAR
STARTCHAR aring
ENCODING 229
SWIDTH 989 0
DWIDTH 12 0
BBX 12 13 0 0
BITMAP
0600
0E00
0600
0000
0600
0600
0F00
1900
1080
37C0
2840
6060
C030
ENDCHAR
STARTCHAR ae
ENCODING 230
SWIDTH 1345 0
DWIDTH 16 0
BBX 16 9 0 0
BITMAP
07FF
0FFF
08C0
18DE
10DE
37C0
2FC0
60FF
C0FF
ENDCHAR
STARTCHAR ccedilla
ENCODING 231
SWIDTH 829 0
DWIDTH 10 0
BBX 9 12 0 -3
BITMAP
1F80
7F80
6000
4000
C000
4000
6000
3F80
1F80
0000
0C00
0400
ENDCHAR
STARTCHAR egrave
ENCODING 232
SWIDTH 759 0
DWIDTH 9 0
BBX 8 11 1 0
BITMAP
30
08
FF
FF
80
BE
BE
80
80
FF
FF
ENDCHAR
STARTCHAR eacute
ENCODING 233
SWIDTH 759 0
DWIDTH 9 0
BBX 8 11 1 0
BITMAP
18
20
FF
FF
80
BE
BE
80
80
FF
FF
ENDCHAR
STARTCHAR ecircumflex
ENCODING 234
SWIDTH 759 0
DWIDTH 9 0
BBX 8 11 1 0
BITMAP
10
28
FF
FF
80
BE
BE
80
80
FF
FF
ENDCHAR
STARTCHAR edieresis
ENCODING 235
SWIDTH 759 0
DWIDTH 9 0
BBX 8 12 1 0
BITMAP
28
28
00
FF
FF
80
BE
BE
80
80
FF
FF
ENDCHAR
STARTCHAR igrave
ENCODING 236
SWIDTH 267 0
DWIDTH 3 0
BBX 3 11 0 0
BITMAP
C0
20
40
40
40
40
40
40
40
40
40
ENDCHAR
STARTCHAR iacute
ENCODING 237
SWIDTH 267 0
DWIDTH 3 0
BBX 4 11 0 0
BITMAP
70
80
40
40
40
40
40
40
40
40
40
ENDCHAR
STARTCHAR icircumflex
ENCODING 238
SWIDTH 267 0
DWIDTH 3 0
BBX 3 11 0 0
BITMAP
40
A0
40
40
40
40
40
40
40
40
40
ENDCHAR
STARTCHAR idieresis
ENCODING 239
SWIDTH 267 0
DWIDTH 3 0
BBX 3 12 0 0
BITMAP
A0
A0
00
40
40
40
40
40
40
40
40
40
ENDCHAR
STARTCHAR eth
ENCODING 240
SWIDTH 877 0
DWIDTH 11 0
BBX 10 9 0 0
BITMAP
7F00
7F80
40C0
FCC0
FC40
40C0
40C0
7F80
7F00
ENDCHAR
STARTCHAR ntilde
ENCODING 241
SWIDTH 873 0
DWIDTH 10 0
BBX 9 12 1 0
BITMAP
1C00
1C00
0000
8180
C180
E180
B180
9980
8D80
8780
8380
8180
ENDCHAR
STARTCHAR ograve
ENCODING 242
SWIDTH 968 0
DWIDTH 12 0
BBX 11 11 0 0
BITMAP
0E00
0000
1F80
7FC0
6060
4060
C020
4060
6060
3FC0
1F80
ENDCHAR
STARTCHAR oacute
ENCODING 243
SWIDTH 968 0
DWIDTH 12 0
BBX 11 11 0 0
BITMAP
0700
0000
1F80
7FC0
6060
4060
C020
4060
6060
3FC0
1F80
ENDCHAR
STARTCHAR ocircumflex
ENCODING 244
SWIDTH 968 0
DWIDTH 12 0
BBX 11 11 0 0
BITMAP
0600
0A00
1F80
7FC0
6060
4060
C020
4060
6060
3FC0
1F80
ENDCHAR
STARTCHAR otilde
ENCODING 245
SWIDTH 968 0
DWIDTH 12 0
BBX 11 12 0 0
BITMAP
0E00
0E00
0000
1F80
7FC0
6060
4060
C020
4060
6060
3FC0
1F80
ENDCHAR
STARTCHAR odieresis
ENCODING 246
SWIDTH 968 0
DWIDTH 12 0
BBX 11 12 0 0
BITMAP
0A00
0B00
0000
1F80
7FC0
6060
4060
C020
4060
6060
3FC0
1F80
ENDCHAR
STARTCHAR divide
ENCODING 247
SWIDTH 690 0
DWIDTH 8 0
BBX 7 9 1 0
BITMAP
10
30
00
FE
FE
00
00
10
30
ENDCHAR
STARTCHAR oslash
ENCODING 248
SWIDTH 968 0
DWIDTH 12 0
BBX 11 11 0 -1
BITMAP
0040
1FC0
7FC0
6160
4260
C420
4460
6860
3FC0
3F80
2000
ENDCHAR
STARTCHAR ugrave
ENCODING 249
SWIDTH 889 0
DWIDTH 11 0
BBX 9 11 1 0
BITMAP
3800
0400
8080
8080
8080
8080
8080
8080
C180
FF00
7E00
ENDCHAR
STARTCHAR uacute
ENCODING 250
SWIDTH 889 0
DWIDTH 11 0
BBX 9 11 1 0
BITMAP
0C00
1000
8080
8080
8080
8080
8080
8080
C180
FF00
7E00
ENDCHAR
STARTCHAR ucircumflex
ENCODING 251
SWIDTH 889 0
DWIDTH 11 0
BBX 9 11 1 0
BITMAP
0800
1400
8080
8080
8080
8080
8080
8080
C180
FF00
7E00
ENDCHAR
STARTCHAR udieresis
ENCODING 252
SWIDTH 889 0
DWIDTH 11 0
BBX 9 12 1 0
BITMAP
1400
1400
0000
8080
8080
8080
8080
8080
8080
C180
FF00
7E00
ENDCHAR
STARTCHAR yacute
ENCODING 253
SWIDTH 926 0
DWIDTH 11 0
BBX 11 11 0 0
BITMAP
0700
0800
E060
60C0
3180
1B00
0E00
0400
0400
0400
0400
ENDCHAR
STARTCHAR thorn
ENCODING 254
SWIDTH 843 0
DWIDTH 10 0
BBX 9 9 1 0
BITMAP
8000
FC00
FF00
8180
8180
8180
BF00
BE00
8000
ENDCHAR
STARTCHAR ydieresis
ENCODING 255
SWIDTH 926 0
DWIDTH 11 0
BBX 11 12 0 0
BITMAP
0A00
0A00
0000
E060
60C0
3180
1B00
0E00
0400
0400
0400
0400
ENDCHAR
STARTCHAR Amacron
ENCODING 256
SWIDTH 989 0
DWIDTH 12 0
BBX 12 11 0 0
BITMAP
0E00
0000
0600
0600
0F00
1900
1080
37C0
2840
6060
C030
ENDCHAR
STARTCHAR amacron
ENCODING 257
SWIDTH 989 0
DWIDTH 12 0
BBX 12 11 0 0
BITMAP
0E00
0000
0600
0600
0F00
1900
1080
37C0
2840
6060
C030
ENDCHAR
STARTCHAR Abreve
ENCODING 258
SWIDTH 989 0
DWIDTH 12 0
BBX 12 12 0 0
BITMAP
0F00
0600
0000
0600
0600
0F00
1900
1080
37C0
2840
6060
C030
ENDCHAR
STARTCHAR abreve
ENCODING 259
SWIDTH 989 0
DWIDTH 12 0
BBX 12 12 0 0
BITMAP
0F00
0600
0000
0600
0600
0F00
1900
1080
37C0
2840
6060
C030
ENDCHAR
STARTCHAR Aogonek
ENCODING 260
SWIDTH 989 0
DWIDTH 12 0
BBX 12 12 0 -3
BITMAP
0600
0600
0F00
1900
1080
37C0
2840
6060
C030
0020
0070
0030
ENDCHAR
STARTCHAR aogonek
ENCODING 261
SWIDTH 989 0
DWIDTH 12 0
BBX 12 12 0 -3
BITMAP
0600
0600
0F00
1900
1080
37C0
2840
6060
C030
0020
0070
0030
ENDCHAR
STARTCHAR Cacute
ENCODING 262
SWIDTH 829 0
DWIDTH 10 0
BBX 9 11 0 0
BITMAP
0600
0800
1F80
7F80
6000
4000
C000
4000
6000
3F80
1F80
ENDCHAR
STARTCHAR cacute
ENCODING 263
SWIDTH 829 0
DWIDTH 10 0
BBX 9 11 0 0
BITMAP
0600
0800
1F80
7F80
6000
4000
C000
4000
6000
3F80
1F80
ENDCHAR
STARTCHAR Cdotaccent
ENCODING 266
SWIDTH 829 0
DWIDTH 10 0
BBX 9 12 0 0
BITMAP
0400
0400
0000
1F80
7F80
6000
4000
C000
4000
6000
3F80
1F80
ENDCHAR
STARTCHAR cdotaccent
ENCODING 267
SWIDTH 829 0
DWIDTH 10 0
BBX 9 12 0 0
BITMAP
0400
0400
0000
1F80
7F80
6000
4000
C000
4000
6000
3F80
1F80
ENDCHAR
STARTCHAR Ccaron
ENCODING 268
SWIDTH 829 0
DWIDTH 10 0
BBX 9 11 0 0
BITMAP
0A00
0400
1F80
7F80
6000
4000
C000
4000
6000
3F80
1F80
ENDCHAR
STARTCHAR ccaron
ENCODING 269
SWIDTH 829 0
DWIDTH 10 0
BBX 9 11 0 0
BITMAP
0A00
0400
1F80
7F80
6000
4000
C000
4000
6000
3F80
1F80
ENDCHAR
STARTCHAR Dcaron
ENCODING 270
SWIDTH 879 0
DWIDTH 11 0
BBX 9 11 1 0
BITMAP
2800
1800
FE00
FF00
8180
8180
8080
8180
8180
FF00
FE00
ENDCHAR
STARTCHAR dcaron
ENCODING 271
SWIDTH 879 0
DWIDTH 11 0
BBX 9 11 1 0
BITMAP
2800
1800
FE00
FF00
8180
8180
8080
8180
8180
FF00
FE00
ENDCHAR
STARTCHAR Dcroat
ENCODING 272
SWIDTH 877 0
DWIDTH 11 0
BBX 10 9 0 0
BITMAP
7F00
7F80
40C0
FCC0
FC40
40C0
40C0
7F80
7F00
ENDCHAR
STARTCHAR dcroat
ENCODING 273
SWIDTH 877 0
DWIDTH 11 0
BBX 10 9 0 0
BITMAP
7F00
7F80
40C0
FCC0
FC40
40C0
40C0
7F80
7F00
ENDCHAR
STARTCHAR Emacron
ENCODING 274
SWIDTH 759 0
DWIDTH 9 0
BBX 8 11 1 0
BITMAP
38
00
FF
FF
80
BE
BE
80
80
FF
FF
ENDCHAR
STARTCHAR emacron
ENCODING 275
SWIDTH 759 0
DWIDTH 9 0
BBX 8 11 1 0
BITMAP
38
00
FF
FF
80
BE
BE
80
80
FF
FF
ENDCHAR
STARTCHAR Ebreve
ENCODING 276
SWIDTH 759 0
DWIDTH 9 0
BBX 8 12 1 0
BITMAP
38
38
00
FF
FF
80
BE
BE
80
80
FF
FF
ENDCHAR
STARTCHAR ebreve
ENCODING 277
SWIDTH 759 0
DWIDTH 9 0
BBX 8 12 1 0
BITMAP
38
38
00
FF
FF
80
BE
BE
80
80
FF
FF
ENDCHAR
STARTCHAR Edotaccent
ENCODING 278
SWIDTH 759 0
DWIDTH 9 0
BBX 8 12 1 0
BITMAP
10
10
00
FF
FF
80
BE
BE
80
80
FF
FF
ENDCHAR
STARTCHAR edotaccent
ENCODING 279
SWIDTH 759 0
DWIDTH 9 0
BBX 8 12 1 0
BITMAP
10
10
00
FF
FF
80
BE
BE
80
80
FF
FF
ENDCHAR
STARTCHAR Eogonek
ENCODING 280
SWIDTH 759 0
DWIDTH 9 0
BBX 8 12 1 -3
BITMAP
FF
FF
80
BE
BE
80
80
FF
FF
02
07
03
ENDCHAR
STARTCHAR eogonek
ENCODING 281
SWIDTH 759 0
DWIDTH 9 0
BBX 8 12 1 -3
BITMAP
FF
FF
80
BE
BE
80
80
FF
FF
02
07
03
ENDCHAR
STARTCHAR Ecaron
ENCODING 282
SWIDTH 759 0
DWIDTH 9 0
BBX 8 11 1 0
BITMAP
28
10
FF
FF
80
BE
BE
80
80
FF
FF
ENDCHAR
STARTCHAR ecaron
ENCODING 283
SWIDTH 759 0
DWIDTH 9 0
BBX 8 11 1 0
BITMAP
28
10
FF
FF
80
BE
BE
80
80
FF
FF
ENDCHAR
STARTCHAR Gbreve
ENCODING 286
SWIDTH 888 0
DWIDTH 11 0
BBX 10 12 0 0
BITMAP
0E00
0E00
0000
1F80
7F80
6000
47C0
C7C0
40C0
60C0
3FC0
1FC0
ENDCHAR
STARTCHAR gbreve
ENCODING 287
SWIDTH 888 0
DWIDTH 11 0
BBX 10 12 0 0
BITMAP
0E00
0E00
0000
1F80
7F80
6000
47C0
C7C0
40C0
60C0
3FC0
1FC0
ENDCHAR
STARTCHAR Gdotaccent
ENCODING 288
SWIDTH 888 0
DWIDTH 11 0
BBX 10 12 0 0
BITMAP
0400
0400
0000
1F80
7F80
6000
47C0
C7C0
40C0
60C0
3FC0
1FC0
ENDCHAR
STARTCHAR gdotaccent
ENCODING 289
SWIDTH 888 0
DWIDTH 11 0
BBX 10 12 0 0
BITMAP
0400
0400
0000
1F80
7F80
6000
47C0
C7C0
40C0
60C0
3FC0
1FC0
ENDCHAR
STARTCHAR Gcommaaccent
ENCODING 290
SWIDTH 888 0
DWIDTH 11 0
BBX 10 12 0 -3
BITMAP
1F80
7F80
6000
47C0
C7C0
40C0
60C0
3FC0
1FC0
0000
0400
0400
ENDCHAR
STARTCHAR gcommaaccent
ENCODING 291
SWIDTH 888 0
DWIDTH 11 0
BBX 10 12 0 -3
BITMAP
1F80
7F80
6000
47C0
C7C0
40C0
60C0
3FC0
1FC0
0000
0400
0400
ENDCHAR
STARTCHAR Hbar
ENCODING 294
SWIDTH 838 0
DWIDTH 10 0
BBX 8 9 1 0
BITMAP
81
BF
81
BF
BF
81
81
81
81
ENDCHAR
STARTCHAR hbar
ENCODING 295
SWIDTH 838 0
DWIDTH 10 0
BBX 8 9 1 0
BITMAP
81
BF
81
BF
BF
81
81
81
81
ENDCHAR
STARTCHAR uni012A
ENCODING 298
SWIDTH 267 0
DWIDTH 3 0
BBX 3 11 0 0
BITMAP
E0
00
40
40
40
40
40
40
40
40
40
ENDCHAR
STARTCHAR imacron
ENCODING 299
SWIDTH 267 0
DWIDTH 3 0
BBX 3 11 0 0
BITMAP
E0
00
40
40
40
40
40
40
40
40
40
ENDCHAR
STARTCHAR Ibreve
ENCODING 300
SWIDTH 267 0
DWIDTH 3 0
BBX 3 12 0 0
BITMAP
E0
E0
00
40
40
40
40
40
40
40
40
40
ENDCHAR
STARTCHAR ibreve
ENCODING 301
SWIDTH 267 0
DWIDTH 3 0
BBX 3 12 0 0
BITMAP
E0
E0
00
40
40
40
40
40
40
40
40
40
ENDCHAR
STARTCHAR Iogonek
ENCODING 302
SWIDTH 267 0
DWIDTH 3 0
BBX 2 12 0 -3
BITMAP
40
40
40
40
40
40
40
40
40
40
C0
40
ENDCHAR
STARTCHAR iogonek
ENCODING 303
SWIDTH 267 0
DWIDTH 3 0
BBX 2 12 0 -3
BITMAP
40
40
40
40
40
40
40
40
40
40
C0
40
ENDCHAR
STARTCHAR Idotaccent
ENCODING 304
SWIDTH 267 0
DWIDTH 3 0
BBX 1 12 1 0
BITMAP
80
80
00
80
80
80
80
80
80
80
80
80
ENDCHAR
STARTCHAR dotlessi
ENCODING 305
SWIDTH 267 0
DWIDTH 3 0
BBX 1 9 1 0
BITMAP
80
80
80
80
80
80
80
80
80
ENDCHAR
STARTCHAR IJ
ENCODING 306
SWIDTH 975 0
DWIDTH 12 0
BBX 10 9 1 0
BITMAP
8040
8040
8040
8040
8040
8040
80C0
BF80
BF00
ENDCHAR
STARTCHAR ij
ENCODING 307
SWIDTH 975 0
DWIDTH 12 0
BBX 10 9 1 0
BITMAP
8040
8040
8040
8040
8040
8040
80C0
BF80
BF00
ENDCHAR
STARTCHAR Kcommaaccent
ENCODING 310
SWIDTH 875 0
DWIDTH 11 0
BBX 9 12 1 -3
BITMAP
8380
8600
8C00
B800
B000
9800
8C00
8600
8380
0000
1800
0800
ENDCHAR
STARTCHAR kcommaaccent
ENCODING 311
SWIDTH 875 0
DWIDTH 11 0
BBX 9 12 1 -3
BITMAP
8380
8600
8C00
B800
B000
9800
8C00
8600
8380
0000
1800
0800
ENDCHAR
STARTCHAR Lacute
ENCODING 313
SWIDTH 707 0
DWIDTH 8 0
BBX 8 11 0 0
BITMAP
60
80
40
40
40
40
40
40
40
7F
7F
ENDCHAR
STARTCHAR lacute
ENCODING 314
SWIDTH 707 0
DWIDTH 8 0
BBX 8 11 0 0
BITMAP
60
80
40
40
40
40
40
40
40
7F
7F
ENDCHAR
STARTCHAR Lcommaaccent
ENCODING 315
SWIDTH 707 0
DWIDTH 8 0
BBX 7 12 1 -3
BITMAP
80
80
80
80
80
80
80
FE
FE
00
10
10
ENDCHAR
STARTCHAR lcommaaccent
ENCODING 316
SWIDTH 707 0
DWIDTH 8 0
BBX 7 12 1 -3
BITMAP
80
80
80
80
80
80
80
FE
FE
00
10
10
ENDCHAR
STARTCHAR Lcaron
ENCODING 317
SWIDTH 707 0
DWIDTH 8 0
BBX 7 9 1 0
BITMAP
90
90
90
80
80
80
80
FE
FE
ENDCHAR
STARTCHAR lcaron
ENCODING 318
SWIDTH 707 0
DWIDTH 8 0
BBX 7 9 1 0
BITMAP
90
90
90
80
80
80
80
FE
FE
ENDCHAR
STARTCHAR Ldot
ENCODING 319
SWIDTH 707 0
DWIDTH 8 0
BBX 7 9 1 0
BITMAP
80
80
80
A0
B0
80
80
FE
FE
ENDCHAR
STARTCHAR ldot
ENCODING 320
SWIDTH 707 0
DWIDTH 8 0
BBX 7 9 1 0
BITMAP
80
80
80
A0
B0
80
80
FE
FE
ENDCHAR
STARTCHAR Lslash
ENCODING 321
SWIDTH 707 0
DWIDTH 8 0
BBX 7 9 1 0
BITMAP
80
80
80
B8
E0
80
80
FE
FE
ENDCHAR
STARTCHAR lslash
ENCODING 322
SWIDTH 707 0
DWIDTH 8 0
BBX 7 9 1 0
BITMAP
80
80
80
B8
E0
80
80
FE
FE
ENDCHAR
STARTCHAR Nacute
ENCODING 323
SWIDTH 873 0
DWIDTH 10 0
BBX 9 11 1 0
BITMAP
1C00
0000
8180
C180
E180
B180
9980
8D80
8780
8380
8180
ENDCHAR
STARTCHAR nacute
ENCODING 324
SWIDTH 873 0
DWIDTH 10 0
BBX 9 11 1 0
BITMAP
1C00
0000
8180
C180
E180
B180
9980
8D80
8780
8380
8180
ENDCHAR
STARTCHAR Ncommaaccent
ENCODING 325
SWIDTH 873 0
DWIDTH 10 0
BBX 9 12 1 -3
BITMAP
8180
C180
E180
B180
9980
8D80
8780
8380
8180
0000
1800
0800
ENDCHAR
STARTCHAR ncommaaccent
ENCODING 326
SWIDTH 873 0
DWIDTH 10 0
BBX 9 12 1 -3
BITMAP
8180
C180
E180
B180
9980
8D80
8780
8380
8180
0000
1800
0800
ENDCHAR
STARTCHAR Ncaron
ENCODING 327
SWIDTH 873 0
DWIDTH 10 0
BBX 9 11 1 0
BITMAP
1400
1800
8180
C180
E180
B180
9980
8D80
8780
8380
8180
ENDCHAR
STARTCHAR ncaron
ENCODING 328
SWIDTH 873 0
DWIDTH 10 0
BBX 9 11 1 0
BITMAP
1400
1800
8180
C180
E180
B180
9980
8D80
8780
8380
8180
ENDCHAR
STARTCHAR Eng
ENCODING 330
SWIDTH 873 0
DWIDTH 10 0
BBX 9 12 1 -3
BITMAP
8180
C180
E180
B180
9980
8D80
8780
8380
8180
0380
1F00
1800
ENDCHAR
STARTCHAR eng
ENCODING 331
SWIDTH 873 0
DWIDTH 10 0
BBX 9 12 1 -3
BITMAP
8180
C180
E180
B180
9980
8D80
8780
8380
8180
0380
1F00
1800
ENDCHAR
STARTCHAR Omacron
ENCODING 332
SWIDTH 968 0
DWIDTH 12 0
BBX 11 11 0 0
BITMAP
0E00
0000
1F80
7FC0
6060
4060
C020
4060
6060
3FC0
1F80
ENDCHAR
STARTCHAR omacron
ENCODING 333
SWIDTH 968 0
DWIDTH 12 0
BBX 11 11 0 0
BITMAP
0E00
0000
1F80
7FC0
6060
4060
C020
4060
6060
3FC0
1F80
ENDCHAR
STARTCHAR Obreve
ENCODING 334
SWIDTH 968 0
DWIDTH 12 0
BBX 11 12 0 0
BITMAP
0E00
0600
0000
1F80
7FC0
6060
4060
C020
4060
6060
3FC0
1F80
ENDCHAR
STARTCHAR obreve
ENCODING 335
SWIDTH 968 0
DWIDTH 12 0
BBX 11 12 0 0
BITMAP
0E00
0600
0000
1F80
7FC0
6060
4060
C020
4060
6060
3FC0
1F80
ENDCHAR
STARTCHAR Ohungarumlaut
ENCODING 336
SWIDTH 968 0
DWIDTH 12 0
BBX 11 12 0 0
BITMAP
0500
0E00
0000
1F80
7FC0
6060
4060
C020
4060
6060
3FC0
1F80
ENDCHAR
STARTCHAR ohungarumlaut
ENCODING 337
SWIDTH 968 0
DWIDTH 12 0
BBX 11 12 0 0
BITMAP
0500
0E00
0000
1F80
7FC0
6060
4060
C020
4060
6060
3FC0
1F80
ENDCHAR
STARTCHAR OE
ENCODING 338
SWIDTH 1304 0
DWIDTH 16 0
BBX 15 9 0 0
BITMAP
1FFE
7FFE
6080
40BE
C0BE
4080
6080
3FFE
1FFE
ENDCHAR
STARTCHAR oe
ENCODING 339
SWIDTH 1304 0
DWIDTH 16 0
BBX 15 9 0 0
BITMAP
1FFE
7FFE
6080
40BE
C0BE
4080
6080
3FFE
1FFE
ENDCHAR
STARTCHAR Racute
ENCODING 340
SWIDTH 921 0
DWIDTH 11 0
BBX 10 11 1 0
BITMAP
1C00
0000
FF00
FF80
8080
8080
8180
BF00
BF00
8380
81C0
ENDCHAR
STARTCHAR racute
ENCODING 341
SWIDTH 921 0
DWIDTH 11 0
BBX 10 11 1 0
BITMAP
1C00
0000
FF00
FF80
8080
8080
8180
BF00
BF00
8380
81C0
ENDCHAR
STARTCHAR Rcommaaccent
ENCODING 342
SWIDTH 921 0
DWIDTH 11 0
BBX 10 12 1 -3
BITMAP
FF00
FF80
8080
8080
8180
BF00
BF00
8380
81C0
0000
0800
0800
ENDCHAR
STARTCHAR rcommaaccent
ENCODING 343
SWIDTH 921 0
DWIDTH 11 0
BBX 10 12 1 -3
BITMAP
FF00
FF80
8080
8080
8180
BF00
BF00
8380
81C0
0000
0800
0800
ENDCHAR
STARTCHAR Rcaron
ENCODING 344
SWIDTH 921 0
DWIDTH 11 0
BBX 10 11 1 0
BITMAP
2400
1800
FF00
FF80
8080
8080
8180
BF00
BF00
8380
81C0
ENDCHAR
STARTCHAR rcaron
ENCODING 345
SWIDTH 921 0
DWIDTH 11 0
BBX 10 11 1 0
BITMAP
2400
1800
FF00
FF80
8080
8080
8180
BF00
BF00
8380
81C0
ENDCHAR
STARTCHAR Sacute
ENCODING 346
SWIDTH 880 0
DWIDTH 11 0
BBX 9 11 1 0
BITMAP
1C00
0000
7F80
FF80
8000
FE00
7F80
0180
0080
FF80
FF00
ENDCHAR
STARTCHAR sacute
ENCODING 347
SWIDTH 880 0
DWIDTH 11 0
BBX 9 11 1 0
BITMAP
1C00
0000
7F80
FF80
8000
FE00
7F80
0180
0080
FF80
FF00
ENDCHAR
STARTCHAR Scedilla
ENCODING 350
SWIDTH 880 0
DWIDTH 11 0
BBX 9 12 1 -3
BITMAP
7F80
FF80
8000
FE00
7F80
0180
0080
FF80
FF00
0000
1800
0800
ENDCHAR
STARTCHAR scedilla
ENCODING 351
SWIDTH 880 0
DWIDTH 11 0
BBX 9 12 1 -3
BITMAP
7F80
FF80
8000
FE00
7F80
0180
0080
FF80
FF00
0000
1800
0800
ENDCHAR
STARTCHAR Scaron
ENCODING 352
SWIDTH 880 0
DWIDTH 11 0
BBX 9 11 1 0
BITMAP
1400
0800
7F80
FF80
8000
FE00
7F80
0180
0080
FF80
FF00
ENDCHAR
STARTCHAR scaron
ENCODING 353
SWIDTH 880 0
DWIDTH 11 0
BBX 9 11 1 0
BITMAP
1400
0800
7F80
FF80
8000
FE00
7F80
0180
0080
FF80
FF00
ENDCHAR
STARTCHAR Tcommaaccent
ENCODING 354
SWIDTH 720 0
DWIDTH 9 0
BBX 8 12 0 -3
BITMAP
FF
FF
08
08
08
08
08
08
08
00
08
08
ENDCHAR
STARTCHAR tcommaaccent
ENCODING 355
SWIDTH 720 0
DWIDTH 9 0
BBX 8 12 0 -3
BITMAP
FF
FF
08
08
08
08
08
08
08
00
08
08
ENDCHAR
STARTCHAR Tcaron
ENCODING 356
SWIDTH 720 0
DWIDTH 9 0
BBX 8 11 0 0
BITMAP
14
18
FF
FF
08
08
08
08
08
08
08
ENDCHAR
STARTCHAR tcaron
ENCODING 357
SWIDTH 720 0
DWIDTH 9 0
BBX 8 11 0 0
BITMAP
14
18
FF
FF
08
08
08
08
08
08
08
ENDCHAR
STARTCHAR Tbar
ENCODING 358
SWIDTH 720 0
DWIDTH 9 0
BBX 8 9 0 0
BITMAP
FF
FF
08
08
3C
3C
08
08
08
ENDCHAR
STARTCHAR tbar
ENCODING 359
SWIDTH 720 0
DWIDTH 9 0
BBX 8 9 0 0
BITMAP
FF
FF
08
08
3C
3C
08
08
08
ENDCHAR
STARTCHAR Utilde
ENCODING 360
SWIDTH 889 0
DWIDTH 11 0
BBX 9 12 1 0
BITMAP
1C00
1C00
0000
8080
8080
8080
8080
8080
8080
C180
FF00
7E00
ENDCHAR
STARTCHAR utilde
ENCODING 361
SWIDTH 889 0
DWIDTH 11 0
BBX 9 12 1 0
BITMAP
1C00
1C00
0000
8080
8080
8080
8080
8080
8080
C180
FF00
7E00
ENDCHAR
STARTCHAR Umacron
ENCODING 362
SWIDTH 889 0
DWIDTH 11 0
BBX 9 11 1 0
BITMAP
1C00
0000
8080
8080
8080
8080
8080
8080
C180
FF00
7E00
ENDCHAR
STARTCHAR umacron
ENCODING 363
SWIDTH 889 0
DWIDTH 11 0
BBX 9 11 1 0
BITMAP
1C00
0000
8080
8080
8080
8080
8080
8080
C180
FF00
7E00
ENDCHAR
STARTCHAR Ubreve
ENCODING 364
SWIDTH 889 0
DWIDTH 11 0
BBX 9 12 1 0
BITMAP
1C00
1C00
0000
8080
8080
8080
8080
8080
8080
C180
FF00
7E00
ENDCHAR
STARTCHAR ubreve
ENCODING 365
SWIDTH 889 0
DWIDTH 11 0
BBX 9 12 1 0
BITMAP
1C00
1C00
0000
8080
8080
8080
8080
8080
8080
C180
FF00
7E00
ENDCHAR
STARTCHAR Uring
ENCODING 366
SWIDTH 889 0
DWIDTH 11 0
BBX 9 13 1 0
BITMAP
1C00
1C00
1C00
0000
8080
8080
8080
8080
8080
8080
C180
FF00
7E00
ENDCHAR
STARTCHAR uring
ENCODING 367
SWIDTH 889 0
DWIDTH 11 0
BBX 9 13 1 0
BITMAP
1C00
1C00
1C00
0000
8080
8080
8080
8080
8080
8080
C180
FF00
7E00
ENDCHAR
STARTCHAR Uhungarumlaut
ENCODING 368
SWIDTH 889 0
DWIDTH 11 0
BBX 9 12 1 0
BITMAP
0E00
1400
0000
8080
8080
8080
8080
8080
8080
C180
FF00
7E00
ENDCHAR
STARTCHAR uhungarumlaut
ENCODING 369
SWIDTH 889 0
DWIDTH 11 0
BBX 9 12 1 0
BITMAP
0E00
1400
0000
8080
8080
8080
8080
8080
8080
C180
FF00
7E00
ENDCHAR
STARTCHAR Uogonek
ENCODING 370
SWIDTH 889 0
DWIDTH 11 0
BBX 9 12 1 -3
BITMAP
8080
8080
8080
8080
8080
8080
C180
FF00
7C00
0800
1800
0800
ENDCHAR
STARTCHAR uogonek
ENCODING 371
SWIDTH 889 0
DWIDTH 11 0
BBX 9 12 1 -3
BITMAP
8080
8080
8080
8080
8080
8080
C180
FF00
7C00
0800
1800
0800
ENDCHAR
STARTCHAR Wcircumflex
ENCODING 372
SWIDTH 1268 0
DWIDTH 15 0
BBX 15 11 0 0
BITMAP
0100
0280
C606
6604
630C
3308
1198
1BB0
0AF0
0EE0
0460
ENDCHAR
STARTCHAR wcircumflex
ENCODING 373
SWIDTH 1268 0
DWIDTH 15 0
BBX 15 11 0 0
BITMAP
0100
0280
C606
6604
630C
3308
1198
1BB0
0AF0
0EE0
0460
ENDCHAR
STARTCHAR Ycircumflex
ENCODING 374
SWIDTH 926 0
DWIDTH 11 0
BBX 11 11 0 0
BITMAP
0400
0A00
E060
60C0
3180
1B00
0E00
0400
0400
0400
0400
ENDCHAR
STARTCHAR ycircumflex
ENCODING 375
SWIDTH 926 0
DWIDTH 11 0
BBX 11 11 0 0
BITMAP
0400
0A00
E060
60C0
3180
1B00
0E00
0400
0400
0400
0400
ENDCHAR
STARTCHAR Ydieresis
ENCODING 376
SWIDTH 926 0
DWIDTH 11 0
BBX 11 12 0 0
BITMAP
0A00
0A00
0000
E060
60C0
3180
1B00
0E00
0400
0400
0400
0400
ENDCHAR
STARTCHAR Zacute
ENCODING 377
SWIDTH 802 0
DWIDTH 10 0
BBX 9 11 0 0
BITMAP
0E00
0000
7F80
7F80
0300
0600
0C00
1800
3000
7F80
FF80
ENDCHAR
STARTCHAR zacute
ENCODING 378
SWIDTH 802 0
DWIDTH 10 0
BBX 9 11 0 0
BITMAP
0E00
0000
7F80
7F80
0300
0600
0C00
1800
3000
7F80
FF80
ENDCHAR
STARTCHAR Zdotaccent
ENCODING 379
SWIDTH 802 0
DWIDTH 10 0
BBX 9 12 0 0
BITMAP
0800
0800
0000
7F80
7F80
0300
0600
0C00
1800
3000
7F80
FF80
ENDCHAR
STARTCHAR zdotaccent
ENCODING 380
SWIDTH 802 0
DWIDTH 10 0
BBX 9 12 0 0
BITMAP
0800
0800
0000
7F80
7F80
0300
0600
0C00
1800
3000
7F80
FF80
ENDCHAR
STARTCHAR Zcaron
ENCODING 381
SWIDTH 802 0
DWIDTH 10 0
BBX 9 11 0 0
BITMAP
1400
0C00
7F80
7F80
0300
0600
0C00
1800
3000
7F80
FF80
ENDCHAR
STARTCHAR zcaron
ENCODING 382
SWIDTH 802 0
DWIDTH 10 0
BBX 9 11 0 0
BITMAP
1400
0C00
7F80
7F80
0300
0600
0C00
1800
3000
7F80
FF80
ENDCHAR
STARTCHAR Scommaaccent
ENCODING 536
SWIDTH 880 0
DWIDTH 11 0
BBX 9 12 1 -3
BITMAP
7F80
FF80
8000
FE00
7F80
0180
0080
FF80
FF00
0000
1800
0800
ENDCHAR
STARTCHAR scommaaccent
ENCODING 537
SWIDTH 880 0
DWIDTH 11 0
BBX 9 12 1 -3
BITMAP
7F80
FF80
8000
FE00
7F80
0180
0080
FF80
FF00
0000
1800
0800
ENDCHAR
STARTCHAR uni021A
ENCODING 538
SWIDTH 720 0
DWIDTH 9 0
BBX 8 12 0 -3
BITMAP
FF
FF
08
08
08
08
08
08
08
00
08
08
ENDCHAR
STARTCHAR uni021B
ENCODING 539
SWIDTH 720 0
DWIDTH 9 0
BBX 8 12 0 -3
BITMAP
FF
FF
08
08
08
08
08
08
08
00
08
08
ENDCHAR
STARTCHAR circumflex
ENCODING 710
SWIDTH 379 0
DWIDTH 5 0
BBX 3 2 1 9
BITMAP
C0
A0
ENDCHAR
STARTCHAR caron
ENCODING 711
SWIDTH 379 0
DWIDTH 5 0
BBX 3 2 1 9
BITMAP
A0
C0
ENDCHAR
STARTCHAR breve
ENCODING 728
SWIDTH 382 0
DWIDTH 5 0
BBX 3 2 1 10
BITMAP
E0
E0
ENDCHAR
STARTCHAR dotaccent
ENCODING 729
SWIDTH 208 0
DWIDTH 3 0
BBX 1 2 1 10
BITMAP
80
80
ENDCHAR
STARTCHAR ring
ENCODING 730
SWIDTH 362 0
DWIDTH 4 0
BBX 3 3 1 10
BITMAP
C0
E0
C0
ENDCHAR
STARTCHAR ogonek
ENCODING 731
SWIDTH 234 0
DWIDTH 3 0
BBX 3 2 0 -2
BITMAP
E0
E0
ENDCHAR
STARTCHAR tilde
ENCODING 732
SWIDTH 362 0
DWIDTH 4 0
BBX 3 2 1 10
BITMAP
E0
E0
ENDCHAR
STARTCHAR hungarumlaut
ENCODING 733
SWIDTH 399 0
DWIDTH 5 0
BBX 3 2 1 10
BITMAP
A0
A0
ENDCHAR
STARTCHAR commaaccent
ENCODING 806
SWIDTH 219 0
DWIDTH 3 0
BBX 1 2 1 -3
BITMAP
80
80
ENDCHAR
STARTCHAR Wgrave
ENCODING 7808
SWIDTH 1268 0
DWIDTH 15 0
BBX 15 11 0 0
BITMAP
0300
0080
C606
6604
630C
3308
1198
1BB0
0AF0
0EE0
0460
ENDCHAR
STARTCHAR wgrave
ENCODING 7809
SWIDTH 1268 0
DWIDTH 15 0
BBX 15 11 0 0
BITMAP
0300
0080
C606
6604
630C
3308
1198
1BB0
0AF0
0EE0
0460
ENDCHAR
STARTCHAR Wacute
ENCODING 7810
SWIDTH 1268 0
DWIDTH 15 0
BBX 15 11 0 0
BITMAP
01C0
0200
C606
6604
630C
3308
1198
1BB0
0AF0
0EE0
0460
ENDCHAR
STARTCHAR wacute
ENCODING 7811
SWIDTH 1268 0
DWIDTH 15 0
BBX 15 11 0 0
BITMAP
01C0
0200
C606
6604
630C
3308
1198
1BB0
0AF0
0EE0
0460
ENDCHAR
STARTCHAR Wdieresis
ENCODING 7812
SWIDTH 1268 0
DWIDTH 15 0
BBX 15 12 0 0
BITMAP
0280
0280
0000
C606
6604
630C
3308
1198
1BB0
0AF0
0EE0
0460
ENDCHAR
STARTCHAR wdieresis
ENCODING 7813
SWIDTH 1268 0
DWIDTH 15 0
BBX 15 12 0 0
BITMAP
0280
0280
0000
C606
6604
630C
3308
1198
1BB0
0AF0
0EE0
0460
ENDCHAR
STARTCHAR Ygrave
ENCODING 7922
SWIDTH 926 0
DWIDTH 11 0
BBX 11 11 0 0
BITMAP
0C00
0200
E060
60C0
3180
1B00
0E00
0400
0400
0400
0400
ENDCHAR
STARTCHAR ygrave
ENCODING 7923
SWIDTH 926 0
DWIDTH 11 0
BBX 11 11 0 0
BITMAP
0C00
0200
E060
60C0
3180
1B00
0E00
0400
0400
0400
0400
ENDCHAR
STARTCHAR endash
ENCODING 8211
SWIDTH 590 0
DWIDTH 7 0
BBX 7 2 0 4
BITMAP
FE
FE
ENDCHAR
STARTCHAR emdash
ENCODING 8212
SWIDTH 866 0
DWIDTH 10 0
BBX 10 2 0 4
BITMAP
FFC0
FFC0
ENDCHAR
STARTCHAR quoteleft
ENCODING 8216
SWIDTH 259 0
DWIDTH 3 0
BBX 1 3 1 6
BITMAP
80
80
80
ENDCHAR
STARTCHAR quoteright
ENCODING 8217
SWIDTH 259 0
DWIDTH 3 0
BBX 1 3 1 6
BITMAP
80
80
80
ENDCHAR
STARTCHAR quotesinglbase
ENCODING 8218
SWIDTH 259 0
DWIDTH 3 0
BBX 1 3 1 -1
BITMAP
80
80
80
ENDCHAR
STARTCHAR quotedblleft
ENCODING 8220
SWIDTH 462 0
DWIDTH 6 0
BBX 4 3 1 6
BITMAP
B0
90
90
ENDCHAR
STARTCHAR quotedblright
ENCODING 8221
SWIDTH 462 0
DWIDTH 6 0
BBX 4 3 1 6
BITMAP
B0
B0
A0
ENDCHAR
STARTCHAR quotedblbase
ENCODING 8222
SWIDTH 462 0
DWIDTH 6 0
BBX 4 3 1 -1
BITMAP
B0
B0
A0
ENDCHAR
STARTCHAR dagger
ENCODING 8224
SWIDTH 466 0
DWIDTH 6 0
BBX 4 9 1 0
BITMAP
40
40
F0
40
40
40
40
40
40
ENDCHAR
STARTCHAR daggerdbl
ENCODING 8225
SWIDTH 466 0
DWIDTH 6 0
BBX 4 9 1 0
BITMAP
40
40
F0
40
40
40
F0
40
40
ENDCHAR
STARTCHAR bullet
ENCODING 8226
SWIDTH 413 0
DWIDTH 5 0
BBX 3 4 1 3
BITMAP
E0
E0
E0
E0
ENDCHAR
STARTCHAR ellipsis
ENCODING 8230
SWIDTH 1310 0
DWIDTH 16 0
BBX 14 2 1 0
BITMAP
8204
830C
ENDCHAR
STARTCHAR perthousand
ENCODING 8240
SWIDTH 1314 0
DWIDTH 16 0
BBX 15 11 0 -1
BITMAP
7040
7880
8900
7A00
7200
078C
0BDE
1452
13DE
238C
4000
ENDCHAR
STARTCHAR guilsinglleft
ENCODING 8249
SWIDTH 367 0
DWIDTH 4 0
BBX 4 5 0 2
BITMAP
10
20
C0
20
10
ENDCHAR
STARTCHAR guilsinglright
ENCODING 8250
SWIDTH 368 0
DWIDTH 4 0
BBX 4 5 0 2
BITMAP
80
60
10
60
80
ENDCHAR
STARTCHAR fraction
ENCODING 8260
SWIDTH 185 0
DWIDTH 2 0
BBX 9 11 -3 -1
BITMAP
0080
0100
0200
0400
0400
0800
1000
2000
2000
4000
8000
ENDCHAR
STARTCHAR zerosuperior
ENCODING 8304
SWIDTH 449 0
DWIDTH 5 0
BBX 5 5 0 5
BITMAP
70
78
88
78
70
ENDCHAR
STARTCHAR foursuperior
ENCODING 8308
SWIDTH 452 0
DWIDTH 5 0
BBX 5 4 0 5
BITMAP
88
F8
78
08
ENDCHAR
STARTCHAR fivesuperior
ENCODING 8309
SWIDTH 472 0
DWIDTH 6 0
BBX 4 5 1 5
BITMAP
F0
80
F0
F0
F0
ENDCHAR
STARTCHAR sixsuperior
ENCODING 8310
SWIDTH 466 0
DWIDTH 6 0
BBX 5 6 0 5
BITMAP
38
78
80
F8
78
78
ENDCHAR
STARTCHAR sevensuperior
ENCODING 8311
SWIDTH 408 0
DWIDTH 5 0
BBX 5 5 0 5
BITMAP
F8
10
20
20
C0
ENDCHAR
STARTCHAR eightsuperior
ENCODING 8312
SWIDTH 479 0
DWIDTH 6 0
BBX 5 6 0 5
BITMAP
30
78
88
78
F8
78
ENDCHAR
STARTCHAR ninesuperior
ENCODING 8313
SWIDTH 460 0
DWIDTH 6 0
BBX 5 6 0 5
BITMAP
70
78
F8
78
78
70
ENDCHAR
STARTCHAR zeroinferior
ENCODING 8320
SWIDTH 449 0
DWIDTH 5 0
BBX 5 5 0 0
BITMAP
70
78
88
78
70
ENDCHAR
STARTCHAR oneinferior
ENCODING 8321
SWIDTH 222 0
DWIDTH 3 0
BBX 2 6 0 0
BITMAP
80
C0
40
40
40
40
ENDCHAR
STARTCHAR twoinferior
ENCODING 8322
SWIDTH 442 0
DWIDTH 5 0
BBX 4 6 1 0
BITMAP
E0
F0
10
F0
E0
F0
ENDCHAR
STARTCHAR threeinferior
ENCODING 8323
SWIDTH 443 0
DWIDTH 5 0
BBX 5 6 0 0
BITMAP
F0
F8
08
70
F8
F8
ENDCHAR
STARTCHAR fourinferior
ENCODING 8324
SWIDTH 452 0
DWIDTH 5 0
BBX 5 4 0 0
BITMAP
88
F8
78
08
ENDCHAR
STARTCHAR fiveinferior
ENCODING 8325
SWIDTH 472 0
DWIDTH 6 0
BBX 4 5 1 0
BITMAP
F0
80
F0
F0
F0
ENDCHAR
STARTCHAR sixinferior
ENCODING 8326
SWIDTH 466 0
DWIDTH 6 0
BBX 5 6 0 0
BITMAP
38
78
80
F8
78
78
ENDCHAR
STARTCHAR seveninferior
ENCODING 8327
SWIDTH 408 0
DWIDTH 5 0
BBX 5 5 0 0
BITMAP
F8
10
20
20
C0
ENDCHAR
STARTCHAR eightinferior
ENCODING 8328
SWIDTH 479 0
DWIDTH 6 0
BBX 5 6 0 0
BITMAP
30
78
88
78
F8
78
ENDCHAR
STARTCHAR nineinferior
ENCODING 8329
SWIDTH 460 0
DWIDTH 6 0
BBX 5 6 0 0
BITMAP
70
78
F8
78
78
70
ENDCHAR
STARTCHAR Euro
ENCODING 8364
SWIDTH 884 0
DWIDTH 11 0
BBX 10 9 0 0
BITMAP
1FC0
3F80
2000
FF00
6000
FE00
2000
3FC0
1FC0
ENDCHAR
STARTCHAR uni2117
ENCODING 8471
SWIDTH 829 0
DWIDTH 10 0
BBX 9 9 0 0
BITMAP
1E00
3F00
5E80
9E80
9E80
9080
4080
3F00
1E00
ENDCHAR
STARTCHAR trademark
ENCODING 8482
SWIDTH 536 0
DWIDTH 6 0
BBX 5 3 1 6
BITMAP
E8
A8
B8
ENDCHAR
STARTCHAR onethird
ENCODING 8531
SWIDTH 951 0
DWIDTH 11 0
BBX 11 12 0 -1
BITMAP
4000
6080
2080
2100
2200
25C0
05E0
0820
10C0
21E0
21E0
C000
ENDCHAR
STARTCHAR twothirds
ENCODING 8532
SWIDTH 979 0
DWIDTH 12 0
BBX 10 12 1 -1
BITMAP
E000
F080
1100
F100
E200
F780
0BC0
0840
11C0
23C0
43C0
C000
ENDCHAR
STARTCHAR oneeighth
ENCODING 8539
SWIDTH 985 0
DWIDTH 12 0
BBX 11 12 0 -1
BITMAP
4000
6080
2080
2100
2200
24C0
05E0
0920
11E0
21E0
21E0
C000
ENDCHAR
STARTCHAR threeeighths
ENCODING 8540
SWIDTH 972 0
DWIDTH 12 0
BBX 11 12 0 -1
BITMAP
7000
7840
0880
3100
F900
FBC0
05E0
0A20
09C0
13E0
21E0
4000
ENDCHAR
STARTCHAR fiveeighths
ENCODING 8541
SWIDTH 973 0
DWIDTH 12 0
BBX 10 11 1 -1
BITMAP
F080
8100
F100
F200
F780
0BC0
0C40
13C0
27C0
43C0
C000
ENDCHAR
STARTCHAR seveneighths
ENCODING 8542
SWIDTH 965 0
DWIDTH 12 0
BBX 11 11 0 -1
BITMAP
7880
0880
1100
2200
45C0
07E0
0A20
11C0
23E0
21E0
C000
ENDCHAR
STARTCHAR minus
ENCODING 8722
SWIDTH 690 0
DWIDTH 8 0
BBX 7 2 1 4
BITMAP
FE
FE
ENDCHAR
STARTCHAR approxequal
ENCODING 8776
SWIDTH 691 0
DWIDTH 8 0
BBX 7 4 1 3
BITMAP
FE
FE
FE
FE
ENDCHAR
STARTCHAR notequal
ENCODING 8800
SWIDTH 690 0
DWIDTH 8 0
BBX 9 10 0 -1
BITMAP
0180
0200
7F00
7F00
0800
7F00
7F00
2000
4000
8000
ENDCHAR
STARTCHAR lessequal
ENCODING 8804
SWIDTH 690 0
DWIDTH 8 0
BBX 7 9 1 -1
BITMAP
06
18
60
C0
30
0E
02
FE
FE
ENDCHAR
STARTCHAR greaterequal
ENCODING 8805
SWIDTH 690 0
DWIDTH 8 0
BBX 7 9 1 -1
BITMAP
80
60
1C
06
38
C0
80
FE
FE
ENDCHAR
STARTCHAR .notdef
ENCODING -1
SWIDTH 430 0
DWIDTH 5 0
BBX 4 9 1 0
BITMAP
E0
F0
90
90
90
90
90
F0
E0
ENDCHAR
STARTCHAR nonmarkingreturn
ENCODING -1
SWIDTH 104 0
DWIDTH 1 0
BBX 1 1 0 0
BITMAP
00
ENDCHAR
STARTCHAR .null
ENCODING -1
SWIDTH 104 0
DWIDTH 1 0
BBX 1 1 0 0
BITMAP
00
ENDCHAR
STARTCHAR .ttfautohint
ENCODING -1
SWIDTH 104 0
DWIDTH 1 0
BBX 1 1 0 0
BITMAP
00
ENDCHAR
ENDFONT
