STARTFONT 2.1
FONT -FontForge-Good Times Rg-Book-R-Normal--20-190-75-75-P-139-ISO10646-1
SIZE 19 75 75
FONTBOUNDINGBOX 25 24 0 -5
COMMENT "Generated by fontforge, http://fontforge.sourceforge.net"
COMMENT "(c) 1998-2012 Typodermic Fonts Inc. See attached license agreement. If agreement is missing visit typodermicfonts.com for more info. Languages by Chikako Larabie"
STARTPROPERTIES 38
FOUNDRY "FontForge"
FAMILY_NAME "Good Times Rg"
WEIGHT_NAME "Book"
SLANT "R"
SETWIDTH_NAME "Normal"
ADD_STYLE_NAME ""
PIXEL_SIZE 20
POINT_SIZE 190
RESOLUTION_X 75
RESOLUTION_Y 75
SPACING "P"
AVERAGE_WIDTH 139
CHARSET_REGISTRY "ISO10646"
CHARSET_ENCODING "1"
FONTNAME_REGISTRY ""
CHARSET_COLLECTIONS "ISO10646-1"
FONT_NAME "GoodTimesRg-Regular"
FACE_NAME "GoodTimesRg-Regular"
COPYRIGHT "(c) 1998-2012 Typodermic Fonts Inc. See attached license agreement. If agreement is missing visit typodermicfonts.com for more info. Languages by Chikako Larabie"
FONT_VERSION "4.001"
FONT_ASCENT 16
FONT_DESCENT 4
UNDERLINE_POSITION -3
UNDERLINE_THICKNESS 1
X_HEIGHT 14
CAP_HEIGHT 14
RAW_ASCENT 799
RAW_DESCENT 201
RELATIVE_WEIGHT 40
RELATIVE_SETWIDTH 50
SUPERSCRIPT_X 0
SUPERSCRIPT_Y 6
SUPERSCRIPT_SIZE 6
SUBSCRIPT_X 0
SUBSCRIPT_Y 0
SUBSCRIPT_SIZE 6
AVG_LOWERCASE_WIDTH 169
AVG_UPPERCASE_WIDTH 173
ENDPROPERTIES
CHARS 120
STARTCHAR exclam
ENCODING 33
SWIDTH 298 0
DWIDTH 6 0
BBX 2 15 2 0
BITMAP
C0
C0
C0
C0
C0
C0
C0
C0
C0
C0
00
00
C0
C0
C0
ENDCHAR
STARTCHAR quotedbl
ENCODING 34
SWIDTH 452 0
DWIDTH 9 0
BBX 7 5 1 10
BITMAP
EE
EE
6C
6C
64
ENDCHAR
STARTCHAR numbersign
ENCODING 35
SWIDTH 697 0
DWIDTH 14 0
BBX 12 15 1 0
BITMAP
0620
0C60
0C60
0C40
7FF0
7FF0
18C0
1980
3180
FFE0
FFE0
2300
6300
6300
4600
ENDCHAR
STARTCHAR dollar
ENCODING 36
SWIDTH 744 0
DWIDTH 15 0
BBX 13 15 1 0
BITMAP
0200
1FF0
7FF0
FFF0
C200
C200
7FE0
3FF0
0238
0218
0238
FFF0
FFF0
FFC0
0200
ENDCHAR
STARTCHAR percent
ENCODING 37
SWIDTH 965 0
DWIDTH 19 0
BBX 17 16 1 -1
BITMAP
380700
6E0400
820800
821800
823000
C26000
7C4000
10C000
019F00
033180
022080
042080
0C2080
183180
301F00
600000
ENDCHAR
STARTCHAR ampersand
ENCODING 38
SWIDTH 759 0
DWIDTH 15 0
BBX 14 15 1 0
BITMAP
3F00
7F00
FF00
E000
E000
6000
7FF8
7FF8
FFF8
E0E0
E0E0
E0E0
FFFC
7FFC
3FFC
ENDCHAR
STARTCHAR quotesingle
ENCODING 39
SWIDTH 255 0
DWIDTH 5 0
BBX 3 5 1 10
BITMAP
E0
E0
E0
60
40
ENDCHAR
STARTCHAR parenleft
ENCODING 40
SWIDTH 356 0
DWIDTH 7 0
BBX 4 19 2 -2
BITMAP
30
60
60
60
C0
C0
C0
C0
C0
C0
C0
C0
C0
C0
C0
40
60
60
30
ENDCHAR
STARTCHAR parenright
ENCODING 41
SWIDTH 355 0
DWIDTH 7 0
BBX 4 19 1 -2
BITMAP
C0
60
60
20
30
30
30
30
10
10
10
30
30
30
30
20
60
60
C0
ENDCHAR
STARTCHAR asterisk
ENCODING 42
SWIDTH 469 0
DWIDTH 9 0
BBX 7 7 1 8
BITMAP
10
10
F6
3C
38
6C
24
ENDCHAR
STARTCHAR plus
ENCODING 43
SWIDTH 690 0
DWIDTH 14 0
BBX 12 12 1 2
BITMAP
0600
0600
0600
0600
0600
FFF0
FFF0
0600
0600
0600
0600
0600
ENDCHAR
STARTCHAR comma
ENCODING 44
SWIDTH 259 0
DWIDTH 5 0
BBX 3 5 1 -2
BITMAP
E0
E0
C0
C0
C0
ENDCHAR
STARTCHAR hyphen
ENCODING 45
SWIDTH 296 0
DWIDTH 6 0
BBX 4 2 1 7
BITMAP
F0
F0
ENDCHAR
STARTCHAR period
ENCODING 46
SWIDTH 262 0
DWIDTH 5 0
BBX 3 3 1 0
BITMAP
40
E0
60
ENDCHAR
STARTCHAR slash
ENCODING 47
SWIDTH 444 0
DWIDTH 9 0
BBX 9 15 0 0
BITMAP
0180
0300
0300
0600
0600
0400
0C00
0800
1800
1000
3000
3000
6000
6000
C000
ENDCHAR
STARTCHAR zero
ENCODING 48
SWIDTH 838 0
DWIDTH 17 0
BBX 15 15 1 0
BITMAP
07C0
1FF0
3FF8
703C
E01C
E00E
C00E
C00E
C00E
E00E
E01C
703C
3FF8
1FF0
07C0
ENDCHAR
STARTCHAR one
ENCODING 49
SWIDTH 385 0
DWIDTH 8 0
BBX 6 15 0 0
BITMAP
F0
F8
FC
0C
0C
0C
0C
0C
0C
0C
0C
0C
0C
0C
0C
ENDCHAR
STARTCHAR two
ENCODING 50
SWIDTH 825 0
DWIDTH 17 0
BBX 14 15 1 0
BITMAP
FFF0
FFFC
FFFC
000C
000C
001C
3FFC
7FF8
7FE0
E000
E000
E000
FFFC
FFFC
FFFC
ENDCHAR
STARTCHAR three
ENCODING 51
SWIDTH 827 0
DWIDTH 17 0
BBX 15 15 1 0
BITMAP
FFF0
FFFC
FFFC
000C
000C
001C
1FF8
1FF8
1FFC
000C
000E
000C
FFFC
FFFC
FFF0
ENDCHAR
STARTCHAR four
ENCODING 52
SWIDTH 845 0
DWIDTH 17 0
BBX 15 15 1 0
BITMAP
E018
E018
E018
E018
E018
E018
E018
E018
FFFE
7FFE
3FFE
0018
0018
0018
0018
ENDCHAR
STARTCHAR five
ENCODING 53
SWIDTH 885 0
DWIDTH 18 0
BBX 16 15 1 0
BITMAP
FFFE
FFFE
FFFE
E000
E000
E000
FFFC
FFFE
FFFE
0007
0007
0007
FFFE
FFFE
FFF8
ENDCHAR
STARTCHAR six
ENCODING 54
SWIDTH 872 0
DWIDTH 17 0
BBX 15 15 1 0
BITMAP
1FFE
3FFE
7FFE
F000
E000
E000
FFF8
FFFE
FFFE
E006
E006
7006
7FFE
3FFC
0FF8
ENDCHAR
STARTCHAR seven
ENCODING 55
SWIDTH 756 0
DWIDTH 15 0
BBX 14 15 1 0
BITMAP
FFF8
FFFC
FFF8
0070
00F0
00E0
01C0
0380
0700
0F00
0E00
1C00
3800
7000
F000
ENDCHAR
STARTCHAR eight
ENCODING 56
SWIDTH 898 0
DWIDTH 18 0
BBX 16 15 1 0
BITMAP
3FFC
7FFE
FFFE
E007
E007
6006
7FFE
7FFE
FFFE
E007
E007
E007
FFFF
7FFE
3FFC
ENDCHAR
STARTCHAR nine
ENCODING 57
SWIDTH 861 0
DWIDTH 17 0
BBX 15 15 1 0
BITMAP
3FF0
7FF8
FFFC
E01E
C00E
C006
E006
FFFE
7FFE
1FFE
000E
000E
7FFC
7FF8
7FF0
ENDCHAR
STARTCHAR colon
ENCODING 58
SWIDTH 262 0
DWIDTH 5 0
BBX 3 10 1 0
BITMAP
40
E0
60
00
00
00
00
40
E0
60
ENDCHAR
STARTCHAR semicolon
ENCODING 59
SWIDTH 262 0
DWIDTH 5 0
BBX 3 12 1 -2
BITMAP
40
E0
60
00
00
00
00
E0
E0
C0
C0
C0
ENDCHAR
STARTCHAR less
ENCODING 60
SWIDTH 690 0
DWIDTH 14 0
BBX 12 11 1 2
BITMAP
0030
00F0
07C0
1E00
7800
E000
7800
0F00
03C0
00F0
0010
ENDCHAR
STARTCHAR equal
ENCODING 61
SWIDTH 690 0
DWIDTH 14 0
BBX 12 7 1 4
BITMAP
FFF0
FFF0
0000
0000
0000
FFF0
FFF0
ENDCHAR
STARTCHAR greater
ENCODING 62
SWIDTH 690 0
DWIDTH 14 0
BBX 12 11 1 2
BITMAP
C000
F000
3C00
0780
01E0
0070
01C0
0F00
3C00
F000
8000
ENDCHAR
STARTCHAR question
ENCODING 63
SWIDTH 776 0
DWIDTH 16 0
BBX 14 15 1 0
BITMAP
FFF0
FFF8
FFFC
001C
001C
001C
1FF8
3FF8
7FE0
7000
0000
0000
2000
7000
7000
ENDCHAR
STARTCHAR at
ENCODING 64
SWIDTH 833 0
DWIDTH 17 0
BBX 14 15 1 0
BITMAP
0FFC
1FFC
380C
600C
C7EC
CC6C
CC6C
CC6C
CC6C
CFFC
C7FC
6000
7000
3FFC
0FFC
ENDCHAR
STARTCHAR A
ENCODING 65
SWIDTH 989 0
DWIDTH 20 0
BBX 19 15 0 0
BITMAP
006000
00E000
00F000
01F800
03B800
039C00
070C00
070E00
0E0700
0CFF00
1CFF80
390380
3801C0
7000E0
E000E0
ENDCHAR
STARTCHAR B
ENCODING 66
SWIDTH 891 0
DWIDTH 18 0
BBX 16 15 1 0
BITMAP
FFFC
FFFE
FFFE
E007
E007
E006
E7FC
E7FE
E7FE
E007
E007
E007
FFFE
FFFE
FFFC
ENDCHAR
STARTCHAR C
ENCODING 67
SWIDTH 829 0
DWIDTH 17 0
BBX 15 15 1 0
BITMAP
0FFE
3FFE
7FFE
7000
E000
E000
C000
C000
C000
E000
E000
7000
3FFE
1FFE
0FFE
ENDCHAR
STARTCHAR D
ENCODING 68
SWIDTH 879 0
DWIDTH 18 0
BBX 16 15 1 0
BITMAP
FFE0
FFF8
FFFC
E01E
E00E
E007
E007
E007
E007
E007
E00E
E01E
FFFC
FFF8
FFE0
ENDCHAR
STARTCHAR E
ENCODING 69
SWIDTH 759 0
DWIDTH 15 0
BBX 13 15 1 0
BITMAP
FFF8
FFF8
FFF8
E000
E000
E000
E7F8
E7F8
E7F8
E000
E000
E000
FFF8
FFF8
FFF8
ENDCHAR
STARTCHAR F
ENCODING 70
SWIDTH 705 0
DWIDTH 14 0
BBX 13 15 1 0
BITMAP
FFF8
FFF8
FFF8
E000
E000
E000
E7F0
E7F0
E7F0
E000
E000
E000
E000
E000
E000
ENDCHAR
STARTCHAR G
ENCODING 71
SWIDTH 888 0
DWIDTH 18 0
BBX 16 15 1 0
BITMAP
0FFE
3FFE
7FFE
7000
E000
E000
C1FF
C1FF
C1FF
E007
E007
7007
3FFF
1FFF
0FFF
ENDCHAR
STARTCHAR H
ENCODING 72
SWIDTH 838 0
DWIDTH 17 0
BBX 15 15 1 0
BITMAP
E00E
E00E
E00E
E00E
E00E
E00E
E7FE
E7FE
E7FE
E00E
E00E
E00E
E00E
E00E
E00E
ENDCHAR
STARTCHAR I
ENCODING 73
SWIDTH 267 0
DWIDTH 5 0
BBX 3 15 1 0
BITMAP
E0
E0
E0
E0
E0
E0
E0
E0
E0
E0
E0
E0
E0
E0
E0
ENDCHAR
STARTCHAR J
ENCODING 74
SWIDTH 708 0
DWIDTH 14 0
BBX 13 15 0 0
BITMAP
0018
0018
0018
0018
0018
0018
0018
0018
0018
0038
0038
0078
FFF0
FFE0
FF80
ENDCHAR
STARTCHAR K
ENCODING 75
SWIDTH 875 0
DWIDTH 18 0
BBX 16 15 1 0
BITMAP
E01F
E03C
E078
E0E0
E3C0
E780
EF00
EC00
EF00
E780
E1C0
E0F0
E078
E03C
E00F
ENDCHAR
STARTCHAR L
ENCODING 76
SWIDTH 707 0
DWIDTH 14 0
BBX 13 15 1 0
BITMAP
E000
E000
E000
E000
E000
E000
E000
E000
E000
E000
E000
E000
FFF8
FFF8
FFF8
ENDCHAR
STARTCHAR M
ENCODING 77
SWIDTH 1115 0
DWIDTH 22 0
BBX 22 15 0 0
BITMAP
0E00C0
0E01C0
0E01E0
0F01E0
1F03E0
1F8360
198770
39C670
39CE30
30CC30
30EC38
707C38
707818
603818
E0301C
ENDCHAR
STARTCHAR N
ENCODING 78
SWIDTH 873 0
DWIDTH 17 0
BBX 15 15 1 0
BITMAP
E006
F006
F806
FC06
FC06
EE06
E706
E386
E1C6
E0E6
E076
E03E
E01E
E00E
E006
ENDCHAR
STARTCHAR O
ENCODING 79
SWIDTH 968 0
DWIDTH 19 0
BBX 18 15 1 0
BITMAP
0FF800
3FFE00
7FFF00
700780
E00380
E00180
C001C0
C001C0
C00180
E00180
E00380
700780
3FFF00
1FFE00
0FF800
ENDCHAR
STARTCHAR P
ENCODING 80
SWIDTH 867 0
DWIDTH 17 0
BBX 16 15 1 0
BITMAP
FFF8
FFFC
FFFE
E007
E007
E007
E007
E007
E7FE
E7FC
E7F8
E000
E000
E000
E000
ENDCHAR
STARTCHAR Q
ENCODING 81
SWIDTH 968 0
DWIDTH 19 0
BBX 18 15 1 0
BITMAP
0FF800
3FFE00
7FFF00
700780
E00380
E00180
C001C0
C001C0
C10180
E0F180
E03B80
701F80
3FFF00
1FFF00
0FFBC0
ENDCHAR
STARTCHAR R
ENCODING 82
SWIDTH 921 0
DWIDTH 18 0
BBX 17 15 1 0
BITMAP
FFF800
FFFE00
FFFE00
E00700
E00700
E00700
E00700
E00700
E7FE00
E7FE00
E7F800
E01C00
E01E00
E00F00
E00780
ENDCHAR
STARTCHAR S
ENCODING 83
SWIDTH 880 0
DWIDTH 18 0
BBX 16 15 1 0
BITMAP
3FFE
7FFE
FFFE
E000
E000
E000
7FFC
7FFE
1FFE
0007
0007
0007
FFFE
FFFE
FFF8
ENDCHAR
STARTCHAR T
ENCODING 84
SWIDTH 720 0
DWIDTH 14 0
BBX 14 15 0 0
BITMAP
FFFC
FFFC
FFFC
0300
0300
0300
0300
0300
0300
0300
0300
0300
0300
0300
0300
ENDCHAR
STARTCHAR U
ENCODING 85
SWIDTH 889 0
DWIDTH 18 0
BBX 16 15 1 0
BITMAP
E007
E007
E007
E007
E007
E007
E007
E007
E007
E007
E007
700E
7FFE
3FFC
0FF0
ENDCHAR
STARTCHAR V
ENCODING 86
SWIDTH 989 0
DWIDTH 20 0
BBX 19 15 0 0
BITMAP
F000E0
7000E0
3801C0
380180
1C0380
0E0700
0E0700
070E00
070C00
039C00
039800
01F800
00F000
00E000
006000
ENDCHAR
STARTCHAR W
ENCODING 87
SWIDTH 1268 0
DWIDTH 25 0
BBX 25 15 0 0
BITMAP
F0E00380
70E00700
38700700
38700E00
1C380E00
1C381C00
0E1C1C00
0E1C3800
071E3800
073E7000
03B77000
03F3E000
01E3C000
01E1C000
00C18000
ENDCHAR
STARTCHAR X
ENCODING 88
SWIDTH 1000 0
DWIDTH 20 0
BBX 19 15 0 0
BITMAP
7801E0
3C0380
1E0700
0F0E00
079C00
03F800
01F000
00F000
01F800
03BC00
071E00
0E0F00
1C0780
3803C0
F001E0
ENDCHAR
STARTCHAR Y
ENCODING 89
SWIDTH 926 0
DWIDTH 19 0
BBX 18 15 0 0
BITMAP
F001C0
780380
3C0700
1E0E00
0E1E00
071C00
03B800
03F000
01E000
00E000
00E000
00E000
00E000
00E000
00E000
ENDCHAR
STARTCHAR Z
ENCODING 90
SWIDTH 802 0
DWIDTH 16 0
BBX 14 15 1 0
BITMAP
FFFC
FFFC
FFFC
0078
00F0
01E0
03C0
0780
0F00
1E00
3C00
7800
FFFC
FFFC
FFFC
ENDCHAR
STARTCHAR bracketleft
ENCODING 91
SWIDTH 333 0
DWIDTH 7 0
BBX 3 19 2 -2
BITMAP
E0
E0
C0
C0
C0
C0
C0
C0
C0
C0
C0
C0
C0
C0
C0
C0
C0
E0
E0
ENDCHAR
STARTCHAR backslash
ENCODING 92
SWIDTH 445 0
DWIDTH 9 0
BBX 9 15 0 0
BITMAP
C000
6000
6000
2000
3000
1000
1800
0800
0C00
0C00
0600
0600
0300
0300
0180
ENDCHAR
STARTCHAR bracketright
ENCODING 93
SWIDTH 333 0
DWIDTH 7 0
BBX 4 19 1 -2
BITMAP
F0
F0
30
30
30
30
30
30
30
30
30
30
30
30
30
30
30
F0
F0
ENDCHAR
STARTCHAR asciicircum
ENCODING 94
SWIDTH 559 0
DWIDTH 11 0
BBX 9 9 1 6
BITMAP
0800
1C00
1400
1600
3600
2300
6300
6100
C180
ENDCHAR
STARTCHAR underscore
ENCODING 95
SWIDTH 668 0
DWIDTH 13 0
BBX 14 1 0 -3
BITMAP
FFFC
ENDCHAR
STARTCHAR grave
ENCODING 96
SWIDTH 362 0
DWIDTH 7 0
BBX 5 3 1 16
BITMAP
80
F0
18
ENDCHAR
STARTCHAR a
ENCODING 97
SWIDTH 989 0
DWIDTH 20 0
BBX 19 15 0 0
BITMAP
006000
00E000
00F000
01F800
01B800
039C00
071C00
070E00
0E0700
0CFF00
1CFF80
390380
3801C0
7000E0
E000E0
ENDCHAR
STARTCHAR b
ENCODING 98
SWIDTH 891 0
DWIDTH 18 0
BBX 16 15 1 0
BITMAP
FFF0
FFFC
FFFE
E00F
E007
E006
E00E
E7FC
E7FE
E007
E007
E007
FFFE
FFFE
FFFC
ENDCHAR
STARTCHAR c
ENCODING 99
SWIDTH 829 0
DWIDTH 17 0
BBX 15 15 1 0
BITMAP
03FE
1FFE
3FFE
7800
E000
E000
E000
C000
C000
E000
E000
7000
3FFE
1FFE
0FFE
ENDCHAR
STARTCHAR d
ENCODING 100
SWIDTH 879 0
DWIDTH 18 0
BBX 16 15 1 0
BITMAP
FFC0
FFF8
FFFC
E01E
E00E
E007
E007
E007
E007
E007
E00E
E01E
FFFC
FFF8
FFE0
ENDCHAR
STARTCHAR e
ENCODING 101
SWIDTH 759 0
DWIDTH 15 0
BBX 13 15 1 0
BITMAP
FFF8
FFF8
FFF8
E000
E000
E000
E000
E7F8
E7F8
E000
E000
E000
FFF8
FFF8
FFF8
ENDCHAR
STARTCHAR f
ENCODING 102
SWIDTH 705 0
DWIDTH 14 0
BBX 13 15 1 0
BITMAP
FFF8
FFF8
FFF8
E000
E000
E000
E000
E7F0
E7F0
E000
E000
E000
E000
E000
E000
ENDCHAR
STARTCHAR g
ENCODING 103
SWIDTH 888 0
DWIDTH 18 0
BBX 16 15 1 0
BITMAP
03FE
1FFE
3FFE
7800
E000
E000
E000
C1FF
C1FF
E007
E007
7007
3FFF
1FFF
0FFF
ENDCHAR
STARTCHAR h
ENCODING 104
SWIDTH 838 0
DWIDTH 17 0
BBX 15 15 1 0
BITMAP
E00E
E00E
E00E
E00E
E00E
E00E
E7FE
E7FE
E7FE
E00E
E00E
E00E
E00E
E00E
E00E
ENDCHAR
STARTCHAR i
ENCODING 105
SWIDTH 267 0
DWIDTH 5 0
BBX 3 15 1 0
BITMAP
E0
E0
E0
E0
E0
E0
E0
E0
E0
E0
E0
E0
E0
E0
E0
ENDCHAR
STARTCHAR j
ENCODING 106
SWIDTH 708 0
DWIDTH 14 0
BBX 13 15 0 0
BITMAP
0018
0018
0018
0018
0018
0018
0018
0018
0018
0038
0038
0078
FFF0
FFE0
FF80
ENDCHAR
STARTCHAR k
ENCODING 107
SWIDTH 875 0
DWIDTH 18 0
BBX 16 15 1 0
BITMAP
E00F
E01C
E078
E0F0
E1C0
E780
EF00
EC00
EF00
E780
E1C0
E0F0
E078
E03C
E00F
ENDCHAR
STARTCHAR l
ENCODING 108
SWIDTH 707 0
DWIDTH 14 0
BBX 13 15 1 0
BITMAP
E000
E000
E000
E000
E000
E000
E000
E000
E000
E000
E000
E000
FFF8
FFF8
FFF8
ENDCHAR
STARTCHAR m
ENCODING 109
SWIDTH 1115 0
DWIDTH 22 0
BBX 22 15 0 0
BITMAP
0400C0
0E00C0
0E01C0
0F01E0
1F03E0
1F8360
198770
19C670
39C630
30CE30
30EC38
707C38
707818
603818
E0301C
ENDCHAR
STARTCHAR n
ENCODING 110
SWIDTH 873 0
DWIDTH 17 0
BBX 15 15 1 0
BITMAP
4006
E006
F006
F806
FC06
EE06
E706
E386
E1C6
E0E6
E076
E03E
E01E
E00E
E006
ENDCHAR
STARTCHAR o
ENCODING 111
SWIDTH 968 0
DWIDTH 19 0
BBX 18 15 1 0
BITMAP
03E000
1FFC00
3FFF00
780700
E00380
E00180
E00180
C001C0
C001C0
E00180
E00380
700780
3FFF00
1FFE00
0FF800
ENDCHAR
STARTCHAR p
ENCODING 112
SWIDTH 867 0
DWIDTH 17 0
BBX 16 15 1 0
BITMAP
FFE0
FFFC
FFFE
E00E
E007
E007
E007
E007
E7FE
E7FC
E7F8
E000
E000
E000
E000
ENDCHAR
STARTCHAR q
ENCODING 113
SWIDTH 968 0
DWIDTH 19 0
BBX 18 15 1 0
BITMAP
03E000
1FFC00
3FFF00
780700
E00380
E00180
E00180
C001C0
C001C0
E1E180
E07B80
701F80
3FFF00
1FFF00
0FFBC0
ENDCHAR
STARTCHAR r
ENCODING 114
SWIDTH 921 0
DWIDTH 18 0
BBX 17 15 1 0
BITMAP
FFF000
FFFC00
FFFE00
E00700
E00700
E00700
E00700
E00700
E00E00
E7FE00
E7F800
E01C00
E01E00
E00F00
E00780
ENDCHAR
STARTCHAR s
ENCODING 115
SWIDTH 880 0
DWIDTH 18 0
BBX 16 15 1 0
BITMAP
0FFE
7FFE
7FFE
E000
E000
E000
F000
7FFC
1FFE
0007
0007
0007
FFFE
FFFE
FFFC
ENDCHAR
STARTCHAR t
ENCODING 116
SWIDTH 720 0
DWIDTH 14 0
BBX 14 15 0 0
BITMAP
FFFC
FFFC
FFFC
0300
0300
0300
0300
0300
0300
0300
0300
0300
0300
0300
0300
ENDCHAR
STARTCHAR u
ENCODING 117
SWIDTH 889 0
DWIDTH 18 0
BBX 16 15 1 0
BITMAP
E007
E007
E007
E007
E007
E007
E007
E007
E007
E007
E007
F00E
7C3E
3FFC
1FF0
ENDCHAR
STARTCHAR v
ENCODING 118
SWIDTH 989 0
DWIDTH 20 0
BBX 19 15 0 0
BITMAP
E00060
7000E0
3801C0
3801C0
1C0380
1C0300
0E0700
070E00
070E00
039C00
039800
01F800
00F000
00F000
006000
ENDCHAR
STARTCHAR w
ENCODING 119
SWIDTH 1268 0
DWIDTH 25 0
BBX 25 15 0 0
BITMAP
E0E00380
70E00300
70700700
38700600
38380E00
1C380C00
0C1C1C00
0E1C3800
071E3800
073E7000
03B77000
03F7E000
01E3E000
01E3C000
00C18000
ENDCHAR
STARTCHAR x
ENCODING 120
SWIDTH 1000 0
DWIDTH 20 0
BBX 19 15 0 0
BITMAP
7801E0
3C03C0
1E0780
0F0F00
079E00
03FC00
01F800
00F000
01F800
03BC00
071E00
0E0F00
1C0780
3803C0
F001E0
ENDCHAR
STARTCHAR y
ENCODING 121
SWIDTH 926 0
DWIDTH 19 0
BBX 18 15 0 0
BITMAP
F001C0
780380
380780
1C0F00
0E0E00
071C00
07B800
03F000
01E000
00E000
00E000
00E000
00E000
00E000
00E000
ENDCHAR
STARTCHAR z
ENCODING 122
SWIDTH 802 0
DWIDTH 16 0
BBX 14 15 1 0
BITMAP
FFF8
FFFC
FFFC
0078
00F0
01E0
03C0
0780
0F00
1E00
3C00
7800
F000
FFFC
FFFC
ENDCHAR
STARTCHAR braceleft
ENCODING 123
SWIDTH 337 0
DWIDTH 7 0
BBX 4 19 1 -2
BITMAP
30
60
60
60
60
60
60
60
60
C0
60
60
60
60
60
60
60
60
30
ENDCHAR
STARTCHAR bar
ENCODING 124
SWIDTH 297 0
DWIDTH 6 0
BBX 2 19 2 -2
BITMAP
C0
C0
C0
C0
C0
C0
C0
C0
C0
C0
C0
C0
C0
C0
C0
C0
C0
C0
C0
ENDCHAR
STARTCHAR braceright
ENCODING 125
SWIDTH 337 0
DWIDTH 7 0
BBX 4 19 1 -2
BITMAP
E0
60
20
20
20
20
20
20
20
30
20
20
20
20
20
20
20
20
E0
ENDCHAR
STARTCHAR asciitilde
ENCODING 126
SWIDTH 691 0
DWIDTH 14 0
BBX 12 3 1 6
BITMAP
7C10
FFF0
83E0
ENDCHAR
STARTCHAR exclamdown
ENCODING 161
SWIDTH 298 0
DWIDTH 6 0
BBX 2 15 2 0
BITMAP
C0
C0
C0
00
00
C0
C0
C0
C0
C0
C0
C0
C0
C0
C0
ENDCHAR
STARTCHAR cent
ENCODING 162
SWIDTH 692 0
DWIDTH 14 0
BBX 12 15 1 0
BITMAP
0100
0FF0
3FF0
7FF0
F100
C100
C100
C100
C100
C100
7100
7FF0
3FF0
0FF0
0100
ENDCHAR
STARTCHAR sterling
ENCODING 163
SWIDTH 709 0
DWIDTH 14 0
BBX 12 15 1 0
BITMAP
1FC0
3FC0
3FC0
7000
7000
7000
FF00
FF00
7000
7000
7000
7000
FFF0
FFF0
FFF0
ENDCHAR
STARTCHAR yen
ENCODING 165
SWIDTH 787 0
DWIDTH 16 0
BBX 15 15 0 0
BITMAP
F00E
701C
381C
1C38
1C70
0E70
07E0
07C0
1FF8
1FF8
0180
0180
1FF8
1FF8
0180
ENDCHAR
STARTCHAR brokenbar
ENCODING 166
SWIDTH 297 0
DWIDTH 6 0
BBX 2 19 2 -2
BITMAP
C0
C0
C0
C0
C0
C0
C0
C0
00
00
00
C0
C0
C0
C0
C0
C0
C0
C0
ENDCHAR
STARTCHAR section
ENCODING 167
SWIDTH 773 0
DWIDTH 15 0
BBX 13 20 1 -5
BITMAP
3FF0
7FF0
FFF0
E000
C000
E000
7FE0
3FF0
6038
6038
6030
7FF0
3FF0
0038
0018
0018
0038
3FF8
3FF0
3FC0
ENDCHAR
STARTCHAR dieresis
ENCODING 168
SWIDTH 393 0
DWIDTH 8 0
BBX 6 2 1 17
BITMAP
CC
CC
ENDCHAR
STARTCHAR copyright
ENCODING 169
SWIDTH 829 0
DWIDTH 17 0
BBX 15 15 1 0
BITMAP
07C0
1830
2008
4004
87C4
8C02
8802
8802
8802
8C02
87C4
4004
2008
1830
07C0
ENDCHAR
STARTCHAR ordfeminine
ENCODING 170
SWIDTH 604 0
DWIDTH 12 0
BBX 10 9 1 6
BITMAP
0C00
0C00
1E00
1200
3300
6F80
4080
C0C0
8040
ENDCHAR
STARTCHAR guillemotleft
ENCODING 171
SWIDTH 629 0
DWIDTH 13 0
BBX 11 8 1 4
BITMAP
0420
0C60
31C0
6300
8600
6300
18C0
0C20
ENDCHAR
STARTCHAR registered
ENCODING 174
SWIDTH 585 0
DWIDTH 12 0
BBX 9 10 1 5
BITMAP
1E00
2100
4080
9E80
9280
9E80
9280
4080
2100
1E00
ENDCHAR
STARTCHAR macron
ENCODING 175
SWIDTH 362 0
DWIDTH 7 0
BBX 5 1 1 17
BITMAP
F8
ENDCHAR
STARTCHAR degree
ENCODING 176
SWIDTH 361 0
DWIDTH 7 0
BBX 5 5 1 10
BITMAP
78
88
88
88
78
ENDCHAR
STARTCHAR plusminus
ENCODING 177
SWIDTH 690 0
DWIDTH 14 0
BBX 12 14 1 -1
BITMAP
0600
0600
0600
0600
0600
FFF0
0600
0600
0600
0600
0600
0000
FFF0
FFF0
ENDCHAR
STARTCHAR twosuperior
ENCODING 178
SWIDTH 442 0
DWIDTH 9 0
BBX 7 8 1 7
BITMAP
FC
FE
02
7E
80
80
FE
FE
ENDCHAR
STARTCHAR threesuperior
ENCODING 179
SWIDTH 443 0
DWIDTH 9 0
BBX 7 8 1 7
BITMAP
FC
FE
02
7C
06
02
FE
F8
ENDCHAR
STARTCHAR acute
ENCODING 180
SWIDTH 362 0
DWIDTH 7 0
BBX 5 3 1 16
BITMAP
08
78
E0
ENDCHAR
STARTCHAR paragraph
ENCODING 182
SWIDTH 629 0
DWIDTH 13 0
BBX 10 17 1 -2
BITMAP
7FC0
FFC0
FC40
FC40
FC40
FC40
7C40
0440
0440
0440
0440
0440
0440
0440
0440
0440
0440
ENDCHAR
STARTCHAR periodcentered
ENCODING 183
SWIDTH 262 0
DWIDTH 5 0
BBX 3 3 1 6
BITMAP
40
E0
60
ENDCHAR
STARTCHAR cedilla
ENCODING 184
SWIDTH 219 0
DWIDTH 4 0
BBX 3 3 1 -4
BITMAP
E0
C0
40
ENDCHAR
STARTCHAR onesuperior
ENCODING 185
SWIDTH 222 0
DWIDTH 4 0
BBX 3 8 1 7
BITMAP
80
C0
60
60
60
60
60
60
ENDCHAR
STARTCHAR ordmasculine
ENCODING 186
SWIDTH 592 0
DWIDTH 12 0
BBX 10 8 1 7
BITMAP
3F00
6180
C0C0
80C0
80C0
C0C0
4180
3F00
ENDCHAR
STARTCHAR guillemotright
ENCODING 187
SWIDTH 629 0
DWIDTH 13 0
BBX 11 8 1 4
BITMAP
8400
8600
6300
18C0
0C60
3080
6300
8400
ENDCHAR
STARTCHAR onequarter
ENCODING 188
SWIDTH 972 0
DWIDTH 19 0
BBX 18 16 1 -1
BITMAP
600E00
701800
101000
103000
106000
10C000
108000
110000
032180
062180
0C2180
082180
183FC0
300180
600180
C00000
ENDCHAR
STARTCHAR onehalf
ENCODING 189
SWIDTH 948 0
DWIDTH 19 0
BBX 17 16 1 -1
BITMAP
600E00
701800
101000
103000
106000
10C000
108000
110000
033F80
060080
0C0080
081F00
182000
302000
603F80
C00000
ENDCHAR
STARTCHAR threequarters
ENCODING 190
SWIDTH 1029 0
DWIDTH 21 0
BBX 19 16 1 -1
BITMAP
FC0700
FE0400
020C00
3C1800
063000
026000
FE4000
F8C000
0190C0
0310C0
0210C0
0610C0
0C1FE0
1800C0
3000C0
600000
ENDCHAR
ENDFONT
