STARTFONT 2.1
FONT -FontForge-Good Times Rg-Book-R-Normal--28-200-100-100-P-194-ISO10646-1
SIZE 20 100 100
FONTBOUNDINGBOX 35 31 0 -6
COMMENT "Generated by fontforge, http://fontforge.sourceforge.net"
COMMENT "(c) 1998-2012 Typodermic Fonts Inc. See attached license agreement. If agreement is missing visit typodermicfonts.com for more info. Languages by Chikako Larabie"
STARTPROPERTIES 38
FOUNDRY "FontForge"
FAMILY_NAME "Good Times Rg"
WEIGHT_NAME "Book"
SLANT "R"
SETWIDTH_NAME "Normal"
ADD_STYLE_NAME ""
PIXEL_SIZE 28
POINT_SIZE 200
RESOLUTION_X 100
RESOLUTION_Y 100
SPACING "P"
AVERAGE_WIDTH 194
CHARSET_REGISTRY "ISO10646"
CHARSET_ENCODING "1"
FONTNAME_REGISTRY ""
CHARSET_COLLECTIONS "ISO10646-1"
FONT_NAME "GoodTimesRg-Regular"
FACE_NAME "GoodTimesRg-Regular"
COPYRIGHT "(c) 1998-2012 Typodermic Fonts Inc. See attached license agreement. If agreement is missing visit typodermicfonts.com for more info. Languages by Chikako Larabie"
FONT_VERSION "4.001"
FONT_ASCENT 22
FONT_DESCENT 6
UNDERLINE_POSITION -4
UNDERLINE_THICKNESS 1
X_HEIGHT 19
CAP_HEIGHT 19
RAW_ASCENT 799
RAW_DESCENT 201
RELATIVE_WEIGHT 40
RELATIVE_SETWIDTH 50
SUPERSCRIPT_X 0
SUPERSCRIPT_Y 8
SUPERSCRIPT_SIZE 8
SUBSCRIPT_X 0
SUBSCRIPT_Y 0
SUBSCRIPT_SIZE 8
AVG_LOWERCASE_WIDTH 237
AVG_UPPERCASE_WIDTH 242
ENDPROPERTIES
CHARS 120
STARTCHAR exclam
ENCODING 33
SWIDTH 298 0
DWIDTH 8 0
BBX 4 20 2 0
BITMAP
F0
F0
F0
F0
F0
F0
F0
F0
F0
F0
F0
F0
F0
F0
00
00
20
F0
F0
70
ENDCHAR
STARTCHAR quotedbl
ENCODING 34
SWIDTH 452 0
DWIDTH 13 0
BBX 9 7 2 13
BITMAP
F780
E780
E780
E700
E300
E300
E300
ENDCHAR
STARTCHAR numbersign
ENCODING 35
SWIDTH 697 0
DWIDTH 20 0
BBX 17 20 1 0
BITMAP
01C300
018700
038700
038600
030600
3FFF80
3FFF80
060C00
061C00
0E1800
0C1800
0C3800
FFFE00
FFFE00
187000
387000
386000
30E000
30E000
70C000
ENDCHAR
STARTCHAR dollar
ENCODING 36
SWIDTH 744 0
DWIDTH 21 0
BBX 17 20 2 0
BITMAP
008000
008000
3FFF00
7FFF00
FFFF00
E08000
E08000
E08000
E08000
7FFE00
3FFF00
008380
008380
008380
008380
FFFF80
FFFF00
FFFE00
008000
008000
ENDCHAR
STARTCHAR percent
ENCODING 37
SWIDTH 965 0
DWIDTH 27 0
BBX 25 24 1 -2
BITMAP
00000C00
0E001C00
3F803800
61C03000
C0C06000
C060E000
C061C000
C0618000
60C30000
71C60000
3F8E0000
041C0000
00187C00
0030FE00
00618300
00E30180
01C30180
01830180
03030180
07018300
0E01EF00
0C007E00
18000000
30000000
ENDCHAR
STARTCHAR ampersand
ENCODING 38
SWIDTH 759 0
DWIDTH 21 0
BBX 19 20 1 0
BITMAP
0FE000
3FE000
7FE000
7FE000
780000
700000
700000
780000
3FFFC0
1FFFC0
3FFFC0
7FFFC0
700F00
F00F00
F00F00
700F00
7FFFE0
7FFFE0
3FFFE0
0FFFE0
ENDCHAR
STARTCHAR quotesingle
ENCODING 39
SWIDTH 255 0
DWIDTH 7 0
BBX 3 7 2 13
BITMAP
E0
E0
E0
E0
E0
E0
E0
ENDCHAR
STARTCHAR parenleft
ENCODING 40
SWIDTH 356 0
DWIDTH 10 0
BBX 5 25 3 -2
BITMAP
38
38
30
70
60
60
E0
E0
C0
C0
C0
C0
C0
C0
C0
C0
C0
C0
E0
60
60
70
30
30
38
ENDCHAR
STARTCHAR parenright
ENCODING 41
SWIDTH 355 0
DWIDTH 10 0
BBX 5 25 2 -2
BITMAP
E0
E0
60
70
30
30
38
38
18
18
18
18
18
18
18
18
18
38
38
30
30
70
60
E0
E0
ENDCHAR
STARTCHAR asterisk
ENCODING 42
SWIDTH 469 0
DWIDTH 13 0
BBX 9 9 2 11
BITMAP
0800
0800
8880
FF80
7F00
1C00
3600
7300
2200
ENDCHAR
STARTCHAR plus
ENCODING 43
SWIDTH 690 0
DWIDTH 19 0
BBX 16 16 2 2
BITMAP
0380
0380
0380
0380
0380
0380
0380
FFFF
FFFF
0380
0380
0380
0380
0380
0380
0380
ENDCHAR
STARTCHAR comma
ENCODING 44
SWIDTH 259 0
DWIDTH 7 0
BBX 3 7 2 -3
BITMAP
E0
E0
E0
E0
E0
C0
C0
ENDCHAR
STARTCHAR hyphen
ENCODING 45
SWIDTH 296 0
DWIDTH 8 0
BBX 7 2 1 9
BITMAP
FE
FE
ENDCHAR
STARTCHAR period
ENCODING 46
SWIDTH 262 0
DWIDTH 7 0
BBX 4 4 2 0
BITMAP
40
E0
F0
E0
ENDCHAR
STARTCHAR slash
ENCODING 47
SWIDTH 444 0
DWIDTH 12 0
BBX 12 20 0 0
BITMAP
0030
0060
0060
00E0
00C0
01C0
0180
0380
0300
0700
0600
0E00
0C00
1C00
1800
3800
3000
7000
6000
E000
ENDCHAR
STARTCHAR zero
ENCODING 48
SWIDTH 838 0
DWIDTH 23 0
BBX 21 20 1 0
BITMAP
01FC00
07FF00
1FFFC0
3FFFE0
3E01F0
7800F0
780078
F00078
F00038
F00038
F00038
F00038
700078
780078
7800F0
3E01F0
1FFFE0
0FFFC0
07FF00
01FC00
ENDCHAR
STARTCHAR one
ENCODING 49
SWIDTH 385 0
DWIDTH 11 0
BBX 8 20 1 0
BITMAP
F8
FC
FE
FE
0F
0F
0F
0F
0F
0F
0F
0F
0F
0F
0F
0F
0F
0F
0F
0F
ENDCHAR
STARTCHAR two
ENCODING 50
SWIDTH 825 0
DWIDTH 23 0
BBX 20 20 2 0
BITMAP
FFFF00
FFFFC0
FFFFE0
FFFFE0
0000F0
0000F0
0000F0
0001E0
1FFFE0
7FFFC0
7FFF80
FFFC00
F00000
E00000
E00000
E00000
FFFFE0
FFFFE0
FFFFE0
FFFFE0
ENDCHAR
STARTCHAR three
ENCODING 51
SWIDTH 827 0
DWIDTH 23 0
BBX 21 20 1 0
BITMAP
FFFF80
FFFFE0
FFFFF0
FFFFF0
0000F0
000070
000070
0000F0
07FFE0
07FFC0
07FFF0
07FFF0
000078
000078
000078
000078
FFFFF0
FFFFF0
FFFFE0
FFFF80
ENDCHAR
STARTCHAR four
ENCODING 52
SWIDTH 845 0
DWIDTH 24 0
BBX 22 20 1 0
BITMAP
F001E0
F001E0
F001E0
F001E0
F001E0
F001E0
F001E0
F001E0
F001E0
F001E0
7801E0
7FFFFC
3FFFFC
1FFFFC
03FFFC
0001E0
0001E0
0001E0
0001E0
0001E0
ENDCHAR
STARTCHAR five
ENCODING 53
SWIDTH 885 0
DWIDTH 25 0
BBX 21 20 2 0
BITMAP
FFFFF0
FFFFF0
FFFFF0
FFFFF0
E00000
E00000
E00000
E00000
FFFFC0
FFFFF0
FFFFF8
FFFFF8
000038
000038
000038
000078
FFFFF8
FFFFF0
FFFFF0
FFFFC0
ENDCHAR
STARTCHAR six
ENCODING 54
SWIDTH 872 0
DWIDTH 24 0
BBX 22 20 1 0
BITMAP
03FFF8
0FFFF8
3FFFF8
3FFFF8
7C0000
780000
F00000
F00000
FFFFE0
FFFFF0
FFFFF8
FFFFFC
F0003C
70003C
78003C
7C003C
3FFFF8
1FFFF8
0FFFF0
03FFE0
ENDCHAR
STARTCHAR seven
ENCODING 55
SWIDTH 756 0
DWIDTH 21 0
BBX 20 20 1 0
BITMAP
FFFFE0
FFFFF0
FFFFE0
FFFFE0
0007C0
000780
000F00
001E00
003E00
007C00
00F800
00F000
01E000
03C000
07C000
0F8000
1F0000
3E0000
3C0000
F80000
ENDCHAR
STARTCHAR eight
ENCODING 56
SWIDTH 898 0
DWIDTH 25 0
BBX 23 20 1 0
BITMAP
0FFFE0
3FFFF8
7FFFFC
7FFFFC
78003C
70001C
70001C
78003C
3FFFF8
1FFFF0
3FFFF8
7FFFFC
70001E
F0001E
F0001E
78001E
7FFFFC
7FFFFC
3FFFF8
0FFFE0
ENDCHAR
STARTCHAR nine
ENCODING 57
SWIDTH 861 0
DWIDTH 24 0
BBX 22 20 1 0
BITMAP
0FFF00
3FFFC0
7FFFE0
7FFFF0
F000F8
F00078
F0003C
F0003C
F8003C
7FFFFC
7FFFFC
3FFFFC
07FFFC
00003C
000078
0000F8
3FFFF0
3FFFF0
3FFFE0
3FFF00
ENDCHAR
STARTCHAR colon
ENCODING 58
SWIDTH 262 0
DWIDTH 7 0
BBX 4 13 2 0
BITMAP
40
E0
F0
E0
00
00
00
00
00
40
E0
F0
E0
ENDCHAR
STARTCHAR semicolon
ENCODING 59
SWIDTH 262 0
DWIDTH 7 0
BBX 4 16 2 -3
BITMAP
40
E0
F0
E0
00
00
00
00
00
E0
E0
E0
E0
E0
C0
C0
ENDCHAR
STARTCHAR less
ENCODING 60
SWIDTH 690 0
DWIDTH 19 0
BBX 16 15 2 3
BITMAP
0001
0007
003F
00FC
03E0
1F80
7C00
F000
F800
3E00
0FC0
03F0
007E
001F
0003
ENDCHAR
STARTCHAR equal
ENCODING 61
SWIDTH 690 0
DWIDTH 19 0
BBX 16 10 2 5
BITMAP
FFFF
FFFF
0000
0000
0000
0000
0000
0000
FFFF
FFFF
ENDCHAR
STARTCHAR greater
ENCODING 62
SWIDTH 690 0
DWIDTH 19 0
BBX 16 15 2 3
BITMAP
8000
C000
F800
7E00
0FC0
03F0
007E
000F
001E
00FC
03E0
1F80
FC00
F000
C000
ENDCHAR
STARTCHAR question
ENCODING 63
SWIDTH 776 0
DWIDTH 22 0
BBX 20 20 1 0
BITMAP
FFFF80
FFFFC0
FFFFE0
FFFFF0
0000F0
0000F0
0000F0
0001F0
0FFFE0
1FFFE0
3FFF80
3FFC00
3C0000
3C0000
000000
000000
100000
3C0000
3C0000
180000
ENDCHAR
STARTCHAR at
ENCODING 64
SWIDTH 833 0
DWIDTH 23 0
BBX 21 20 1 0
BITMAP
01FFF8
07FFF8
0FFFF8
1E0038
380038
700038
70FE38
E1FE38
E38638
E38638
E30638
E38638
E38638
71FFF8
70FFF8
380000
3E0000
1FFFF8
07FFF8
01FFF8
ENDCHAR
STARTCHAR A
ENCODING 65
SWIDTH 989 0
DWIDTH 28 0
BBX 27 20 0 0
BITMAP
00060000
000F0000
001F0000
001F8000
003FC000
007BC000
0079E000
00F1F000
00F0F000
01E07800
03C07800
03C03C00
078FFE00
0F1FFE00
0F3FFF00
1E000F00
1E000780
3C0007C0
780003C0
F80001E0
ENDCHAR
STARTCHAR B
ENCODING 66
SWIDTH 891 0
DWIDTH 25 0
BBX 22 20 2 0
BITMAP
FFFFC0
FFFFF0
FFFFF8
FFFFF8
E00078
E00038
E00038
E00078
E3FFF0
E3FFE0
E3FFF0
E3FFF8
E00038
E0003C
E0003C
E00078
FFFFF8
FFFFF8
FFFFF0
FFFFC0
ENDCHAR
STARTCHAR C
ENCODING 67
SWIDTH 829 0
DWIDTH 23 0
BBX 21 20 1 0
BITMAP
01FFF8
07FFF8
1FFFF8
3FFFF8
3E0000
780000
780000
F00000
F00000
F00000
F00000
F00000
F00000
780000
780000
3E0000
3FFFF8
1FFFF8
07FFF8
01FFF8
ENDCHAR
STARTCHAR D
ENCODING 68
SWIDTH 879 0
DWIDTH 25 0
BBX 21 20 2 0
BITMAP
FFFE00
FFFF80
FFFFC0
FFFFE0
E001F0
E000F8
E00078
E00078
E00038
E00038
E00038
E00038
E00078
E00078
E000F0
E001F0
FFFFE0
FFFFC0
FFFF80
FFFE00
ENDCHAR
STARTCHAR E
ENCODING 69
SWIDTH 759 0
DWIDTH 21 0
BBX 18 20 2 0
BITMAP
FFFFC0
FFFFC0
FFFFC0
FFFFC0
E00000
E00000
E00000
E00000
E3FF80
E3FF80
E3FF80
E3FF80
E00000
E00000
E00000
E00000
FFFFC0
FFFFC0
FFFFC0
FFFFC0
ENDCHAR
STARTCHAR F
ENCODING 70
SWIDTH 705 0
DWIDTH 20 0
BBX 17 20 2 0
BITMAP
FFFF80
FFFF80
FFFF80
FFFF80
E00000
E00000
E00000
E00000
E3FF00
E3FF00
E3FF00
E3FF00
E00000
E00000
E00000
E00000
E00000
E00000
E00000
E00000
ENDCHAR
STARTCHAR G
ENCODING 71
SWIDTH 888 0
DWIDTH 25 0
BBX 22 20 1 0
BITMAP
01FFF8
07FFF8
1FFFF8
3FFFF8
3E0000
780000
780000
F00000
F03FFC
F03FFC
F03FFC
F03FFC
F0001C
78001C
78001C
3E001C
3FFFFC
1FFFFC
07FFFC
01FFFC
ENDCHAR
STARTCHAR H
ENCODING 72
SWIDTH 838 0
DWIDTH 23 0
BBX 20 20 2 0
BITMAP
E000F0
E000F0
E000F0
E000F0
E000F0
E000F0
E000F0
E000F0
E3FFF0
E3FFF0
E3FFF0
E3FFF0
E000F0
E000F0
E000F0
E000F0
E000F0
E000F0
E000F0
E000F0
ENDCHAR
STARTCHAR I
ENCODING 73
SWIDTH 267 0
DWIDTH 7 0
BBX 4 20 2 0
BITMAP
F0
F0
F0
F0
F0
F0
F0
F0
F0
F0
F0
F0
F0
F0
F0
F0
F0
F0
F0
F0
ENDCHAR
STARTCHAR J
ENCODING 74
SWIDTH 708 0
DWIDTH 20 0
BBX 17 20 1 0
BITMAP
000380
000380
000380
000380
000380
000380
000380
000380
000380
000380
000380
000380
000380
000780
000780
000F80
FFFF00
FFFE00
FFFC00
FFE000
ENDCHAR
STARTCHAR K
ENCODING 75
SWIDTH 875 0
DWIDTH 25 0
BBX 22 20 2 0
BITMAP
E001FC
E003F0
E007C0
E01F80
E03F00
E07C00
E1F800
E3E000
E7C000
EF8000
E78000
E3C000
E1F000
E0F800
E07E00
E01F00
E00F80
E007E0
E001F0
E000FC
ENDCHAR
STARTCHAR L
ENCODING 76
SWIDTH 707 0
DWIDTH 20 0
BBX 17 20 2 0
BITMAP
E00000
E00000
E00000
E00000
E00000
E00000
E00000
E00000
E00000
E00000
E00000
E00000
E00000
E00000
E00000
E00000
FFFF80
FFFF80
FFFF80
FFFF80
ENDCHAR
STARTCHAR M
ENCODING 77
SWIDTH 1115 0
DWIDTH 31 0
BBX 30 20 1 0
BITMAP
07000700
07800700
07800F80
0FC00F80
0FC01F80
0FC01FC0
1FE01FC0
1EE03DC0
1CF039C0
1C7079E0
3C7871E0
3C78F0E0
383CE0F0
783DE0F0
781DC070
701FC070
700F8078
F00F8078
F0078038
E007003C
ENDCHAR
STARTCHAR N
ENCODING 78
SWIDTH 873 0
DWIDTH 24 0
BBX 21 20 2 0
BITMAP
E00078
F00078
F80078
FC0078
FE0078
FF0078
EF8078
E7C078
E3E078
E1F078
E0F878
E07C78
E03E78
E01F78
E00FF8
E007F8
E003F8
E000F8
E00078
E00030
ENDCHAR
STARTCHAR O
ENCODING 79
SWIDTH 968 0
DWIDTH 27 0
BBX 25 20 1 0
BITMAP
01FFC000
07FFF800
1FFFFC00
3FFFFE00
3E001F00
78000F00
78000F00
F0000780
F0000780
F0000780
F0000780
F0000780
F0000780
78000F00
78000F00
3E001E00
3FFFFE00
1FFFFC00
07FFF000
01FFC000
ENDCHAR
STARTCHAR P
ENCODING 80
SWIDTH 867 0
DWIDTH 24 0
BBX 22 20 2 0
BITMAP
FFFF80
FFFFE0
FFFFF0
FFFFF8
E00078
E00038
E00038
E0003C
E00038
E00078
E000F8
E3FFF0
E3FFF0
E3FFC0
E3FE00
E00000
E00000
E00000
E00000
E00000
ENDCHAR
STARTCHAR Q
ENCODING 81
SWIDTH 968 0
DWIDTH 27 0
BBX 26 20 1 0
BITMAP
01FFC000
07FFF800
1FFFFC00
3FFFFE00
3E001F00
78000F00
78000F00
F0000780
F0000780
F0000780
F0000780
F0100780
F00F8780
7807CF00
7803EF00
3E00FE00
3FFFFE00
1FFFFE00
07FFFF00
01FFC7C0
ENDCHAR
STARTCHAR R
ENCODING 82
SWIDTH 921 0
DWIDTH 26 0
BBX 24 20 2 0
BITMAP
FFFF80
FFFFE0
FFFFF0
FFFFF8
E00078
E0003C
E0003C
E0003C
E0003C
E0003C
E00078
E3FFF8
E3FFF0
E3FFE0
E3FFC0
E003E0
E001F0
E000F8
E0007C
E0003F
ENDCHAR
STARTCHAR S
ENCODING 83
SWIDTH 880 0
DWIDTH 25 0
BBX 22 20 1 0
BITMAP
0FFFF8
3FFFF8
7FFFF8
7FFFF8
780000
F00000
F00000
780000
7FFFE0
3FFFF8
1FFFFC
03FFFC
00001C
00001C
00001C
00003C
7FFFFC
7FFFF8
7FFFF8
7FFFE0
ENDCHAR
STARTCHAR T
ENCODING 84
SWIDTH 720 0
DWIDTH 20 0
BBX 19 20 1 0
BITMAP
FFFFE0
FFFFE0
FFFFE0
FFFFE0
01E000
01E000
01E000
01E000
01E000
01E000
01E000
01E000
01E000
01E000
01E000
01E000
01E000
01E000
01E000
01E000
ENDCHAR
STARTCHAR U
ENCODING 85
SWIDTH 889 0
DWIDTH 25 0
BBX 22 20 1 0
BITMAP
F0001C
F0001C
F0001C
F0001C
F0001C
F0001C
F0001C
F0001C
F0001C
F0001C
F0001C
F0001C
70001C
78001C
78003C
7C007C
3FFFF8
1FFFF0
0FFFE0
03FF00
ENDCHAR
STARTCHAR V
ENCODING 86
SWIDTH 989 0
DWIDTH 28 0
BBX 27 20 0 0
BITMAP
F80001E0
7C0003C0
3C0003C0
1E000780
1E000F00
0F000F00
0F801E00
07801E00
03C03C00
03C07800
01E07800
00F0F000
00F0F000
0079E000
007FC000
003FC000
001F8000
001F0000
000F0000
00060000
ENDCHAR
STARTCHAR W
ENCODING 87
SWIDTH 1268 0
DWIDTH 36 0
BBX 35 20 0 0
BITMAP
F81E0001E0
781F0003C0
3C0F0003C0
3E07800780
1E07800780
1F03C00F00
0F03C00E00
0781E01E00
0781E03C00
03C0F03C00
03C0F07800
01E1F87800
01E3F8F000
00F3FCF000
00FFBDE000
007F1FC000
003F0FC000
003E0F8000
001E078000
001C070000
ENDCHAR
STARTCHAR X
ENCODING 88
SWIDTH 1000 0
DWIDTH 28 0
BBX 26 20 1 0
BITMAP
FC000F80
3E001F00
1F003E00
0F807C00
07C0F800
03E1F000
01F3E000
00FFC000
007F8000
003E0000
003F0000
007F8000
00F7C000
01E3E000
07C1F000
0F80F800
1F007C00
3E001F00
7C000F80
F80007C0
ENDCHAR
STARTCHAR Y
ENCODING 89
SWIDTH 926 0
DWIDTH 26 0
BBX 26 20 0 0
BITMAP
FC0007C0
3C000F00
1E001E00
1F003E00
0F807C00
07C0F800
03E0F000
01E1E000
00F3C000
007F8000
007F0000
003F0000
001E0000
001E0000
001E0000
001E0000
001E0000
001E0000
001E0000
001E0000
ENDCHAR
STARTCHAR Z
ENCODING 90
SWIDTH 802 0
DWIDTH 22 0
BBX 20 20 1 0
BITMAP
FFFFF0
FFFFF0
FFFFF0
FFFFE0
0007C0
000F80
001F00
003E00
007C00
00F800
01F000
03E000
07C000
0F8000
1F0000
3E0000
7FFFF0
FFFFF0
FFFFF0
7FFFF0
ENDCHAR
STARTCHAR bracketleft
ENCODING 91
SWIDTH 333 0
DWIDTH 9 0
BBX 5 25 3 -2
BITMAP
F8
F8
C0
C0
C0
C0
C0
C0
C0
C0
C0
C0
C0
C0
C0
C0
C0
C0
C0
C0
C0
C0
C0
F8
F8
ENDCHAR
STARTCHAR backslash
ENCODING 92
SWIDTH 445 0
DWIDTH 12 0
BBX 12 20 0 0
BITMAP
E000
6000
7000
3000
3800
1800
1C00
0C00
0E00
0600
0700
0300
0380
0180
01C0
00C0
00E0
0060
0060
0070
ENDCHAR
STARTCHAR bracketright
ENCODING 93
SWIDTH 333 0
DWIDTH 9 0
BBX 5 25 2 -2
BITMAP
F8
F8
38
38
38
38
38
38
38
38
38
38
38
38
38
38
38
38
38
38
38
38
38
F8
F8
ENDCHAR
STARTCHAR asciicircum
ENCODING 94
SWIDTH 559 0
DWIDTH 16 0
BBX 12 12 2 8
BITMAP
0600
0E00
0F00
1F00
1B80
1980
31C0
30C0
70C0
60E0
E060
C070
ENDCHAR
STARTCHAR underscore
ENCODING 95
SWIDTH 668 0
DWIDTH 19 0
BBX 19 2 0 -4
BITMAP
FFFFE0
FFFFE0
ENDCHAR
STARTCHAR grave
ENCODING 96
SWIDTH 362 0
DWIDTH 10 0
BBX 8 4 1 21
BITMAP
C0
F8
3F
03
ENDCHAR
STARTCHAR a
ENCODING 97
SWIDTH 989 0
DWIDTH 28 0
BBX 27 21 0 0
BITMAP
00060000
000F0000
001F0000
001F8000
003F8000
003FC000
007BE000
00F1E000
00F0F000
01E0F000
01E07800
03C07C00
07803C00
078FFE00
0F1FFE00
0F3FFF00
1E000F80
3E000780
3C0007C0
780003C0
F80001E0
ENDCHAR
STARTCHAR b
ENCODING 98
SWIDTH 891 0
DWIDTH 25 0
BBX 22 20 2 0
BITMAP
FFFFE0
FFFFF0
FFFFF8
E000F8
E00078
E00038
E00038
E00078
E3FFF0
E3FFE0
E3FFF0
E00078
E00038
E0003C
E0003C
E00078
FFFFF8
FFFFF8
FFFFF0
FFFFC0
ENDCHAR
STARTCHAR c
ENCODING 99
SWIDTH 829 0
DWIDTH 23 0
BBX 21 20 1 0
BITMAP
03FFF8
0FFFF8
1FFFF8
3F0000
7C0000
780000
700000
F00000
F00000
F00000
F00000
F00000
F00000
780000
780000
3E0000
1FFFF8
1FFFF8
07FFF8
01FFF8
ENDCHAR
STARTCHAR d
ENCODING 100
SWIDTH 879 0
DWIDTH 25 0
BBX 21 20 2 0
BITMAP
FFFF00
FFFFC0
FFFFE0
E007F0
E001F0
E000F8
E00078
E00038
E00038
E00038
E00038
E00038
E00078
E00078
E000F0
E001F0
FFFFE0
FFFFC0
FFFF80
FFFE00
ENDCHAR
STARTCHAR e
ENCODING 101
SWIDTH 759 0
DWIDTH 21 0
BBX 18 20 2 0
BITMAP
FFFFC0
FFFFC0
FFFFC0
E00000
E00000
E00000
E00000
E00000
E3FF80
E3FF80
E3FF80
E00000
E00000
E00000
E00000
E00000
FFFFC0
FFFFC0
FFFFC0
FFFFC0
ENDCHAR
STARTCHAR f
ENCODING 102
SWIDTH 705 0
DWIDTH 20 0
BBX 17 20 2 0
BITMAP
FFFF80
FFFF80
FFFF80
E00000
E00000
E00000
E00000
E00000
E3FF00
E3FF00
E3FF00
E3FF00
E00000
E00000
E00000
E00000
E00000
E00000
E00000
E00000
ENDCHAR
STARTCHAR g
ENCODING 103
SWIDTH 888 0
DWIDTH 25 0
BBX 22 20 1 0
BITMAP
03FFF8
0FFFF8
1FFFF8
3F0000
7C0000
780000
700000
F00000
F03FFC
F03FFC
F03FFC
F0001C
F0001C
78001C
78001C
3E001C
1FFFFC
1FFFFC
07FFFC
01FFFC
ENDCHAR
STARTCHAR h
ENCODING 104
SWIDTH 838 0
DWIDTH 23 0
BBX 20 20 2 0
BITMAP
E000F0
E000F0
E000F0
E000F0
E000F0
E000F0
E000F0
E000F0
E3FFF0
E3FFF0
E3FFF0
E000F0
E000F0
E000F0
E000F0
E000F0
E000F0
E000F0
E000F0
E000F0
ENDCHAR
STARTCHAR i
ENCODING 105
SWIDTH 267 0
DWIDTH 7 0
BBX 4 20 2 0
BITMAP
F0
F0
F0
F0
F0
F0
F0
F0
F0
F0
F0
F0
F0
F0
F0
F0
F0
F0
F0
F0
ENDCHAR
STARTCHAR j
ENCODING 106
SWIDTH 708 0
DWIDTH 20 0
BBX 17 20 1 0
BITMAP
000380
000380
000380
000380
000380
000380
000380
000380
000380
000380
000380
000380
000380
000780
000780
000F80
FFFF00
FFFE00
FFFC00
FFF000
ENDCHAR
STARTCHAR k
ENCODING 107
SWIDTH 875 0
DWIDTH 25 0
BBX 22 20 2 0
BITMAP
E001FC
E003E0
E00FC0
E01F00
E03E00
E0FC00
E1F000
E3E000
E7C000
EF0000
E78000
E3E000
E1F000
E0F800
E03E00
E01F00
E00F80
E007E0
E001F0
E000FC
ENDCHAR
STARTCHAR l
ENCODING 108
SWIDTH 707 0
DWIDTH 20 0
BBX 17 20 2 0
BITMAP
E00000
E00000
E00000
E00000
E00000
E00000
E00000
E00000
E00000
E00000
E00000
E00000
E00000
E00000
E00000
E00000
FFFF80
FFFF80
FFFF80
FFFF80
ENDCHAR
STARTCHAR m
ENCODING 109
SWIDTH 1115 0
DWIDTH 31 0
BBX 30 21 1 0
BITMAP
02000200
07000700
07800780
0F800F80
0FC00F80
0FC01F80
0FE01FC0
1FE03FC0
1EE039C0
1CF039C0
1C7079E0
3C7870E0
3C38F0E0
383CE0F0
783DE0F0
781FC070
701FC070
700FC078
F00F8078
F0078038
E007003C
ENDCHAR
STARTCHAR n
ENCODING 110
SWIDTH 873 0
DWIDTH 24 0
BBX 21 21 2 0
BITMAP
400078
E00078
F00078
F80078
FC0078
FE0078
FF0078
EF8078
E7C078
E3E078
E1F078
E0F878
E07C78
E03E78
E01FF8
E00FF8
E007F8
E003F8
E001F8
E000F8
E00070
ENDCHAR
STARTCHAR o
ENCODING 111
SWIDTH 968 0
DWIDTH 27 0
BBX 25 20 1 0
BITMAP
03FFE000
0FFFF800
1FFFFC00
3F007E00
7C001F00
78000F00
70000780
F0000780
F0000780
F0000780
F0000780
F0000780
F0000780
78000F00
78000F00
3E003E00
1FFFFE00
1FFFFC00
07FFF000
01FFC000
ENDCHAR
STARTCHAR p
ENCODING 112
SWIDTH 867 0
DWIDTH 24 0
BBX 22 20 2 0
BITMAP
FFFFC0
FFFFE0
FFFFF0
E000F8
E00078
E00038
E0003C
E0003C
E00038
E00078
E000F8
E3FFF0
E3FFE0
E3FFC0
E00000
E00000
E00000
E00000
E00000
E00000
ENDCHAR
STARTCHAR q
ENCODING 113
SWIDTH 968 0
DWIDTH 27 0
BBX 26 20 1 0
BITMAP
03FFE000
0FFFF800
1FFFFC00
3F007E00
7C001F00
78000F00
70000780
F0000780
F0000780
F0000780
F0000780
F0100780
F00F8780
7807CF00
7801EF00
3E00FE00
1FFFFE00
1FFFFE00
07FFFF00
01FFC7C0
ENDCHAR
STARTCHAR r
ENCODING 114
SWIDTH 921 0
DWIDTH 26 0
BBX 24 20 2 0
BITMAP
FFFFC0
FFFFF0
FFFFF8
E000F8
E00038
E0003C
E0003C
E0003C
E0003C
E00038
E00078
E3FFF8
E3FFF0
E3FFC0
E003C0
E001E0
E001F0
E000F8
E0007C
E0003F
ENDCHAR
STARTCHAR s
ENCODING 115
SWIDTH 880 0
DWIDTH 25 0
BBX 22 20 1 0
BITMAP
1FFFF8
3FFFF8
7FFFF8
780000
F00000
F00000
700000
780000
7FFFE0
3FFFF8
0FFFF8
00003C
00001C
00001C
00001C
00003C
7FFFFC
7FFFF8
7FFFF8
7FFFE0
ENDCHAR
STARTCHAR t
ENCODING 116
SWIDTH 720 0
DWIDTH 20 0
BBX 19 20 1 0
BITMAP
FFFFE0
FFFFE0
FFFFE0
01E000
01E000
01E000
01E000
01E000
01E000
01E000
01E000
01E000
01E000
01E000
01E000
01E000
01E000
01E000
01E000
01E000
ENDCHAR
STARTCHAR u
ENCODING 117
SWIDTH 889 0
DWIDTH 25 0
BBX 22 20 1 0
BITMAP
F0001C
F0001C
F0001C
F0001C
F0001C
F0001C
F0001C
F0001C
F0001C
F0001C
F0001C
F0001C
70001C
70001C
78003C
7C007C
3F01F8
3FFFF0
0FFFE0
03FF80
ENDCHAR
STARTCHAR v
ENCODING 118
SWIDTH 989 0
DWIDTH 28 0
BBX 27 20 0 0
BITMAP
F80001E0
7C0003C0
3C0007C0
1E000780
1F000F00
0F000F00
0F801E00
07801E00
03C03C00
03E07800
01E07800
00F0F000
00F0F000
0079E000
007BC000
003FC000
001F8000
001F8000
000F0000
000E0000
ENDCHAR
STARTCHAR w
ENCODING 119
SWIDTH 1268 0
DWIDTH 36 0
BBX 35 20 0 0
BITMAP
F81E0001E0
7C0F0003C0
3C0F0003C0
3E07800780
1E07800700
0F03C00F00
0F03C01E00
0781E01E00
0781E03C00
03C0F03C00
03C0F07800
01E1F87800
01E3F8F000
00F3FCF000
00F7BDE000
007F9FE000
007F1FC000
003E0F8000
001E078000
001C070000
ENDCHAR
STARTCHAR x
ENCODING 120
SWIDTH 1000 0
DWIDTH 28 0
BBX 26 20 1 0
BITMAP
FC000F80
3E001E00
1F003C00
0F807800
07C0F000
03E1E000
01F3C000
007F8000
003F0000
003E0000
007F0000
00FF8000
01F3C000
03E1E000
07C0F800
0F807C00
1F003E00
3E001F00
7C000F80
F80007C0
ENDCHAR
STARTCHAR y
ENCODING 121
SWIDTH 926 0
DWIDTH 26 0
BBX 26 20 0 0
BITMAP
FC000FC0
3E001F00
1F001E00
0F003C00
07807800
07C0F800
03E1F000
01F3E000
00FBC000
007F8000
003F0000
001E0000
001E0000
001E0000
001E0000
001E0000
001E0000
001E0000
001E0000
001E0000
ENDCHAR
STARTCHAR z
ENCODING 122
SWIDTH 802 0
DWIDTH 22 0
BBX 20 20 1 0
BITMAP
FFFFF0
FFFFF0
FFFFF0
0003E0
0007C0
000F80
001F00
003E00
007C00
00F800
01F000
03E000
07C000
0F8000
1F0000
3E0000
7C0000
FFFFF0
FFFFF0
7FFFF0
ENDCHAR
STARTCHAR braceleft
ENCODING 123
SWIDTH 337 0
DWIDTH 9 0
BBX 6 25 2 -2
BITMAP
3C
7C
70
70
60
60
60
60
60
60
60
E0
E0
60
60
60
60
60
60
60
60
60
70
3C
3C
ENDCHAR
STARTCHAR bar
ENCODING 124
SWIDTH 297 0
DWIDTH 8 0
BBX 2 25 3 -2
BITMAP
C0
C0
C0
C0
C0
C0
C0
C0
C0
C0
C0
C0
C0
C0
C0
C0
C0
C0
C0
C0
C0
C0
C0
C0
C0
ENDCHAR
STARTCHAR braceright
ENCODING 125
SWIDTH 337 0
DWIDTH 9 0
BBX 6 25 2 -2
BITMAP
E0
F0
70
30
30
30
30
30
30
30
30
3C
3C
30
30
30
30
30
30
30
30
30
70
F0
E0
ENDCHAR
STARTCHAR asciitilde
ENCODING 126
SWIDTH 691 0
DWIDTH 19 0
BBX 16 4 2 8
BITMAP
7E01
FF87
C3FF
807C
ENDCHAR
STARTCHAR exclamdown
ENCODING 161
SWIDTH 298 0
DWIDTH 8 0
BBX 4 21 2 0
BITMAP
60
F0
F0
70
00
00
00
70
70
70
70
70
70
70
70
70
70
70
70
70
70
ENDCHAR
STARTCHAR cent
ENCODING 162
SWIDTH 692 0
DWIDTH 19 0
BBX 17 20 1 0
BITMAP
003000
003000
07FF80
1FFF80
3FFF80
7C3000
703000
F03000
E03000
E03000
E03000
E03000
703000
703000
7C3000
3FFF80
1FFF80
07FF80
003000
003000
ENDCHAR
STARTCHAR sterling
ENCODING 163
SWIDTH 709 0
DWIDTH 20 0
BBX 18 20 1 0
BITMAP
03FE00
0FFE00
1FFE00
1FFE00
3C0000
3C0000
3C0000
3C0000
7FE000
7FE000
7FE000
3C0000
3C0000
3C0000
3C0000
3C0000
FFFFC0
FFFFC0
FFFFC0
FFFFC0
ENDCHAR
STARTCHAR yen
ENCODING 165
SWIDTH 787 0
DWIDTH 22 0
BBX 20 20 1 0
BITMAP
F000F0
7801E0
7801E0
3C03C0
1E0780
1E0780
0F0F00
079E00
079E00
03FC00
01F800
1FFFC0
1FFFC0
00F000
00F000
00F000
1FFFC0
1FFFC0
00F000
00F000
ENDCHAR
STARTCHAR brokenbar
ENCODING 166
SWIDTH 297 0
DWIDTH 8 0
BBX 2 25 3 -2
BITMAP
C0
C0
C0
C0
C0
C0
C0
C0
C0
C0
C0
00
00
00
C0
C0
C0
C0
C0
C0
C0
C0
C0
C0
C0
ENDCHAR
STARTCHAR section
ENCODING 167
SWIDTH 773 0
DWIDTH 22 0
BBX 19 26 1 -6
BITMAP
1FFF80
3FFF80
7FFF80
7FFF80
F00000
F00000
F00000
700000
7FFE00
3FFF80
3FFFC0
3803C0
7001C0
7001C0
7803C0
3FFF80
3FFF80
0FFFC0
0001E0
0000E0
0000E0
0001E0
1FFFE0
1FFFC0
1FFF80
1FFF00
ENDCHAR
STARTCHAR dieresis
ENCODING 168
SWIDTH 393 0
DWIDTH 11 0
BBX 9 2 1 22
BITMAP
E380
6300
ENDCHAR
STARTCHAR copyright
ENCODING 169
SWIDTH 829 0
DWIDTH 23 0
BBX 21 20 1 0
BITMAP
01FC00
070300
0800C0
100060
200020
40FC10
418010
C30008
860008
860008
860008
820008
C30008
40FC10
400010
200020
100060
080080
070300
01FC00
ENDCHAR
STARTCHAR ordfeminine
ENCODING 170
SWIDTH 604 0
DWIDTH 17 0
BBX 15 12 1 8
BITMAP
0100
0380
0380
06C0
0EC0
0C60
1870
1BF0
33F8
3418
600C
E00E
ENDCHAR
STARTCHAR guillemotleft
ENCODING 171
SWIDTH 629 0
DWIDTH 18 0
BBX 15 10 1 5
BITMAP
0102
070E
1C18
3070
E1C0
60E0
3830
0E1C
0306
0102
ENDCHAR
STARTCHAR registered
ENCODING 174
SWIDTH 585 0
DWIDTH 16 0
BBX 13 13 2 7
BITMAP
0F80
30C0
4020
DF90
9090
9098
9788
9198
90D0
C010
4020
30C0
0F80
ENDCHAR
STARTCHAR macron
ENCODING 175
SWIDTH 362 0
DWIDTH 10 0
BBX 8 2 1 22
BITMAP
FF
FF
ENDCHAR
STARTCHAR degree
ENCODING 176
SWIDTH 361 0
DWIDTH 10 0
BBX 8 8 1 12
BITMAP
3C
7E
C3
C3
C3
C3
7E
3C
ENDCHAR
STARTCHAR plusminus
ENCODING 177
SWIDTH 690 0
DWIDTH 19 0
BBX 16 19 2 -1
BITMAP
0380
0380
0380
0380
0380
0380
FFFF
FFFF
FFFF
0380
0380
0380
0380
0380
0380
0380
0000
FFFF
FFFF
ENDCHAR
STARTCHAR twosuperior
ENCODING 178
SWIDTH 442 0
DWIDTH 12 0
BBX 10 11 1 10
BITMAP
FF00
FFC0
00C0
00C0
01C0
7F80
C000
C000
C000
FFC0
FFC0
ENDCHAR
STARTCHAR threesuperior
ENCODING 179
SWIDTH 443 0
DWIDTH 12 0
BBX 10 11 1 10
BITMAP
FF00
FFC0
00C0
00C0
01C0
3F80
00C0
00C0
00C0
FFC0
FE00
ENDCHAR
STARTCHAR acute
ENCODING 180
SWIDTH 362 0
DWIDTH 10 0
BBX 8 4 1 21
BITMAP
03
1F
FC
C0
ENDCHAR
STARTCHAR paragraph
ENCODING 182
SWIDTH 629 0
DWIDTH 18 0
BBX 15 23 1 -3
BITMAP
1FFE
7FFE
7F86
FF86
FF86
FF86
7F86
7F86
3F86
0186
0186
0186
0186
0186
0186
0186
0186
0186
0186
0186
0186
0186
0186
ENDCHAR
STARTCHAR periodcentered
ENCODING 183
SWIDTH 262 0
DWIDTH 7 0
BBX 4 4 2 8
BITMAP
40
E0
F0
E0
ENDCHAR
STARTCHAR cedilla
ENCODING 184
SWIDTH 219 0
DWIDTH 6 0
BBX 4 4 1 -5
BITMAP
F0
60
60
20
ENDCHAR
STARTCHAR onesuperior
ENCODING 185
SWIDTH 222 0
DWIDTH 6 0
BBX 4 11 1 10
BITMAP
C0
E0
30
30
30
30
30
30
30
30
30
ENDCHAR
STARTCHAR ordmasculine
ENCODING 186
SWIDTH 592 0
DWIDTH 17 0
BBX 14 11 1 8
BITMAP
1FE0
3FF8
7018
600C
600C
C00C
600C
600C
7018
3FF0
0FE0
ENDCHAR
STARTCHAR guillemotright
ENCODING 187
SWIDTH 629 0
DWIDTH 18 0
BBX 15 10 1 5
BITMAP
C180
E0E0
3870
0E1C
0306
070E
1C18
3070
E1C0
8100
ENDCHAR
STARTCHAR onequarter
ENCODING 188
SWIDTH 972 0
DWIDTH 27 0
BBX 25 24 1 -2
BITMAP
00003800
38003000
3C006000
0600E000
0601C000
06018000
06030000
06060000
060E0000
061C0000
06180000
06300000
00730300
00E30300
00C30300
01830300
03030300
07030300
0E01FF80
0C007F80
18000300
30000300
70000000
E0000000
ENDCHAR
STARTCHAR onehalf
ENCODING 189
SWIDTH 948 0
DWIDTH 27 0
BBX 24 24 1 -2
BITMAP
000038
380030
3C0060
0600E0
0601C0
060180
060300
060600
060E00
061C00
061800
063000
0071FE
00E1FF
00C003
018003
03007F
0701FE
0E0300
0C0300
180300
3003FF
700000
E00000
ENDCHAR
STARTCHAR threequarters
ENCODING 190
SWIDTH 1029 0
DWIDTH 29 0
BBX 27 24 1 -2
BITMAP
00000E00
FF001C00
FFC01800
00C03000
00C06000
01C0E000
1FC1C000
00C18000
00430000
00C60000
FFCE0000
FF1C0000
0018C180
0030C180
0070C180
00E0C180
00C0C180
0180C180
0300FFE0
07001FE0
0E000180
0C000180
18000000
38000000
ENDCHAR
ENDFONT
