STARTFONT 2.1
FONT -FontForge-Good Times Rg-Book-R-Normal--6-60-75-75-P-42-ISO10646-1
SIZE 6 75 75
FONTBOUNDINGBOX 8 8 0 -2
COMMENT "Generated by fontforge, http://fontforge.sourceforge.net"
COMMENT "(c) 1998-2012 Typodermic Fonts Inc. See attached license agreement. If agreement is missing visit typodermicfonts.com for more info. Languages by Chikako Larabie"
STARTPROPERTIES 38
FOUNDRY "FontForge"
FAMILY_NAME "Good Times Rg"
WEIGHT_NAME "Book"
SLANT "R"
SETWIDTH_NAME "Normal"
ADD_STYLE_NAME ""
PIXEL_SIZE 6
POINT_SIZE 60
RESOLUTION_X 75
RESOLUTION_Y 75
SPACING "P"
AVERAGE_WIDTH 42
CHARSET_REGISTRY "ISO10646"
CHARSET_ENCODING "1"
FONTNAME_REGISTRY ""
CHARSET_COLLECTIONS "ISO10646-1"
FONT_NAME "GoodTimesRg-Regular"
FACE_NAME "GoodTimesRg-Regular"
COPYRIGHT "(c) 1998-2012 Typodermic Fonts Inc. See attached license agreement. If agreement is missing visit typodermicfonts.com for more info. Languages by Chikako Larabie"
FONT_VERSION "4.001"
FONT_ASCENT 5
FONT_DESCENT 1
UNDERLINE_POSITION -1
UNDERLINE_THICKNESS 1
X_HEIGHT 3
CAP_HEIGHT 4
RAW_ASCENT 799
RAW_DESCENT 201
RELATIVE_WEIGHT 40
RELATIVE_SETWIDTH 50
SUPERSCRIPT_X 0
SUPERSCRIPT_Y 1
SUPERSCRIPT_SIZE 1
SUBSCRIPT_X 0
SUBSCRIPT_Y 0
SUBSCRIPT_SIZE 1
AVG_LOWERCASE_WIDTH 51
AVG_UPPERCASE_WIDTH 51
ENDPROPERTIES
CHARS 120
STARTCHAR exclam
ENCODING 33
SWIDTH 298 0
DWIDTH 2 0
BBX 1 5 0 0
BITMAP
80
80
80
00
80
ENDCHAR
STARTCHAR quotedbl
ENCODING 34
SWIDTH 452 0
DWIDTH 3 0
BBX 2 2 0 3
BITMAP
C0
C0
ENDCHAR
STARTCHAR numbersign
ENCODING 35
SWIDTH 697 0
DWIDTH 4 0
BBX 4 5 0 0
BITMAP
50
70
60
E0
A0
ENDCHAR
STARTCHAR dollar
ENCODING 36
SWIDTH 744 0
DWIDTH 4 0
BBX 4 5 0 0
BITMAP
70
A0
70
30
F0
ENDCHAR
STARTCHAR percent
ENCODING 37
SWIDTH 965 0
DWIDTH 6 0
BBX 6 5 0 0
BITMAP
48
B0
50
3C
5C
ENDCHAR
STARTCHAR ampersand
ENCODING 38
SWIDTH 759 0
DWIDTH 5 0
BBX 4 5 0 0
BITMAP
60
80
70
90
70
ENDCHAR
STARTCHAR quotesingle
ENCODING 39
SWIDTH 255 0
DWIDTH 2 0
BBX 1 2 0 3
BITMAP
80
80
ENDCHAR
STARTCHAR parenleft
ENCODING 40
SWIDTH 356 0
DWIDTH 2 0
BBX 1 6 1 -1
BITMAP
80
80
80
80
80
80
ENDCHAR
STARTCHAR parenright
ENCODING 41
SWIDTH 355 0
DWIDTH 2 0
BBX 2 6 0 -1
BITMAP
80
40
40
40
40
80
ENDCHAR
STARTCHAR asterisk
ENCODING 42
SWIDTH 469 0
DWIDTH 3 0
BBX 2 2 0 3
BITMAP
C0
40
ENDCHAR
STARTCHAR plus
ENCODING 43
SWIDTH 690 0
DWIDTH 4 0
BBX 4 4 0 1
BITMAP
20
20
F0
20
ENDCHAR
STARTCHAR comma
ENCODING 44
SWIDTH 259 0
DWIDTH 2 0
BBX 1 2 0 -1
BITMAP
80
80
ENDCHAR
STARTCHAR hyphen
ENCODING 45
SWIDTH 296 0
DWIDTH 2 0
BBX 2 1 0 2
BITMAP
C0
ENDCHAR
STARTCHAR period
ENCODING 46
SWIDTH 262 0
DWIDTH 2 0
BBX 1 1 0 0
BITMAP
80
ENDCHAR
STARTCHAR slash
ENCODING 47
SWIDTH 444 0
DWIDTH 3 0
BBX 3 5 0 0
BITMAP
20
40
40
80
80
ENDCHAR
STARTCHAR zero
ENCODING 48
SWIDTH 838 0
DWIDTH 5 0
BBX 5 5 0 0
BITMAP
70
88
88
88
70
ENDCHAR
STARTCHAR one
ENCODING 49
SWIDTH 385 0
DWIDTH 2 0
BBX 2 5 0 0
BITMAP
C0
40
40
40
40
ENDCHAR
STARTCHAR two
ENCODING 50
SWIDTH 825 0
DWIDTH 5 0
BBX 5 5 0 0
BITMAP
F0
08
70
80
F8
ENDCHAR
STARTCHAR three
ENCODING 51
SWIDTH 827 0
DWIDTH 5 0
BBX 5 5 0 0
BITMAP
F0
08
70
08
F0
ENDCHAR
STARTCHAR four
ENCODING 52
SWIDTH 845 0
DWIDTH 5 0
BBX 5 5 0 0
BITMAP
90
90
90
78
10
ENDCHAR
STARTCHAR five
ENCODING 53
SWIDTH 885 0
DWIDTH 5 0
BBX 5 5 0 0
BITMAP
F8
80
F8
08
F8
ENDCHAR
STARTCHAR six
ENCODING 54
SWIDTH 872 0
DWIDTH 5 0
BBX 5 5 0 0
BITMAP
78
80
F8
88
78
ENDCHAR
STARTCHAR seven
ENCODING 55
SWIDTH 756 0
DWIDTH 5 0
BBX 4 5 0 0
BITMAP
F0
10
20
40
C0
ENDCHAR
STARTCHAR eight
ENCODING 56
SWIDTH 898 0
DWIDTH 5 0
BBX 5 5 0 0
BITMAP
78
88
78
88
78
ENDCHAR
STARTCHAR nine
ENCODING 57
SWIDTH 861 0
DWIDTH 5 0
BBX 5 5 0 0
BITMAP
70
88
F8
08
70
ENDCHAR
STARTCHAR colon
ENCODING 58
SWIDTH 262 0
DWIDTH 2 0
BBX 1 3 0 0
BITMAP
80
00
80
ENDCHAR
STARTCHAR semicolon
ENCODING 59
SWIDTH 262 0
DWIDTH 2 0
BBX 1 4 0 -1
BITMAP
80
00
80
80
ENDCHAR
STARTCHAR less
ENCODING 60
SWIDTH 690 0
DWIDTH 4 0
BBX 4 3 0 1
BITMAP
30
C0
30
ENDCHAR
STARTCHAR equal
ENCODING 61
SWIDTH 690 0
DWIDTH 4 0
BBX 4 3 0 1
BITMAP
F0
00
F0
ENDCHAR
STARTCHAR greater
ENCODING 62
SWIDTH 690 0
DWIDTH 4 0
BBX 4 3 0 1
BITMAP
E0
10
E0
ENDCHAR
STARTCHAR question
ENCODING 63
SWIDTH 776 0
DWIDTH 5 0
BBX 4 5 0 0
BITMAP
F0
10
70
00
40
ENDCHAR
STARTCHAR at
ENCODING 64
SWIDTH 833 0
DWIDTH 5 0
BBX 5 5 0 0
BITMAP
78
B8
D8
B8
78
ENDCHAR
STARTCHAR A
ENCODING 65
SWIDTH 989 0
DWIDTH 6 0
BBX 6 5 0 0
BITMAP
20
30
48
78
84
ENDCHAR
STARTCHAR B
ENCODING 66
SWIDTH 891 0
DWIDTH 5 0
BBX 5 5 0 0
BITMAP
F8
88
B8
88
F8
ENDCHAR
STARTCHAR C
ENCODING 67
SWIDTH 829 0
DWIDTH 5 0
BBX 5 5 0 0
BITMAP
78
80
80
80
78
ENDCHAR
STARTCHAR D
ENCODING 68
SWIDTH 879 0
DWIDTH 5 0
BBX 5 5 0 0
BITMAP
F0
88
88
88
F0
ENDCHAR
STARTCHAR E
ENCODING 69
SWIDTH 759 0
DWIDTH 5 0
BBX 4 5 0 0
BITMAP
F0
80
B0
80
F0
ENDCHAR
STARTCHAR F
ENCODING 70
SWIDTH 705 0
DWIDTH 4 0
BBX 4 5 0 0
BITMAP
F0
80
B0
80
80
ENDCHAR
STARTCHAR G
ENCODING 71
SWIDTH 888 0
DWIDTH 5 0
BBX 5 5 0 0
BITMAP
78
80
B8
88
78
ENDCHAR
STARTCHAR H
ENCODING 72
SWIDTH 838 0
DWIDTH 5 0
BBX 5 5 0 0
BITMAP
88
88
B8
88
88
ENDCHAR
STARTCHAR I
ENCODING 73
SWIDTH 267 0
DWIDTH 2 0
BBX 1 5 0 0
BITMAP
80
80
80
80
80
ENDCHAR
STARTCHAR J
ENCODING 74
SWIDTH 708 0
DWIDTH 4 0
BBX 4 5 0 0
BITMAP
10
10
10
10
E0
ENDCHAR
STARTCHAR K
ENCODING 75
SWIDTH 875 0
DWIDTH 5 0
BBX 5 5 0 0
BITMAP
98
A0
C0
A0
98
ENDCHAR
STARTCHAR L
ENCODING 76
SWIDTH 707 0
DWIDTH 4 0
BBX 4 5 0 0
BITMAP
80
80
80
80
F0
ENDCHAR
STARTCHAR M
ENCODING 77
SWIDTH 1115 0
DWIDTH 7 0
BBX 7 5 0 0
BITMAP
44
4C
6C
B4
92
ENDCHAR
STARTCHAR N
ENCODING 78
SWIDTH 873 0
DWIDTH 5 0
BBX 5 5 0 0
BITMAP
88
C8
A8
98
88
ENDCHAR
STARTCHAR O
ENCODING 79
SWIDTH 968 0
DWIDTH 6 0
BBX 6 5 0 0
BITMAP
78
88
84
88
78
ENDCHAR
STARTCHAR P
ENCODING 80
SWIDTH 867 0
DWIDTH 5 0
BBX 5 5 0 0
BITMAP
F8
88
88
B8
80
ENDCHAR
STARTCHAR Q
ENCODING 81
SWIDTH 968 0
DWIDTH 6 0
BBX 6 5 0 0
BITMAP
78
88
84
98
7C
ENDCHAR
STARTCHAR R
ENCODING 82
SWIDTH 921 0
DWIDTH 6 0
BBX 6 5 0 0
BITMAP
F8
88
88
B8
8C
ENDCHAR
STARTCHAR S
ENCODING 83
SWIDTH 880 0
DWIDTH 5 0
BBX 5 5 0 0
BITMAP
78
80
78
08
F8
ENDCHAR
STARTCHAR T
ENCODING 84
SWIDTH 720 0
DWIDTH 4 0
BBX 4 5 0 0
BITMAP
F0
20
20
20
20
ENDCHAR
STARTCHAR U
ENCODING 85
SWIDTH 889 0
DWIDTH 5 0
BBX 5 5 0 0
BITMAP
88
88
88
88
70
ENDCHAR
STARTCHAR V
ENCODING 86
SWIDTH 989 0
DWIDTH 6 0
BBX 6 5 0 0
BITMAP
84
48
48
30
20
ENDCHAR
STARTCHAR W
ENCODING 87
SWIDTH 1268 0
DWIDTH 8 0
BBX 8 5 0 0
BITMAP
A3
52
54
3C
28
ENDCHAR
STARTCHAR X
ENCODING 88
SWIDTH 1000 0
DWIDTH 6 0
BBX 6 5 0 0
BITMAP
CC
30
30
50
CC
ENDCHAR
STARTCHAR Y
ENCODING 89
SWIDTH 926 0
DWIDTH 6 0
BBX 5 5 0 0
BITMAP
88
50
30
20
20
ENDCHAR
STARTCHAR Z
ENCODING 90
SWIDTH 802 0
DWIDTH 5 0
BBX 5 5 0 0
BITMAP
F8
10
20
40
F8
ENDCHAR
STARTCHAR bracketleft
ENCODING 91
SWIDTH 333 0
DWIDTH 2 0
BBX 1 7 1 -1
BITMAP
80
80
80
80
80
80
80
ENDCHAR
STARTCHAR backslash
ENCODING 92
SWIDTH 445 0
DWIDTH 3 0
BBX 3 5 0 0
BITMAP
80
80
40
40
20
ENDCHAR
STARTCHAR bracketright
ENCODING 93
SWIDTH 333 0
DWIDTH 2 0
BBX 1 7 0 -1
BITMAP
80
80
80
80
80
80
80
ENDCHAR
STARTCHAR asciicircum
ENCODING 94
SWIDTH 559 0
DWIDTH 3 0
BBX 3 3 0 2
BITMAP
40
40
A0
ENDCHAR
STARTCHAR underscore
ENCODING 95
SWIDTH 668 0
DWIDTH 4 0
BBX 4 1 0 -1
BITMAP
F0
ENDCHAR
STARTCHAR grave
ENCODING 96
SWIDTH 362 0
DWIDTH 2 0
BBX 2 1 0 5
BITMAP
C0
ENDCHAR
STARTCHAR a
ENCODING 97
SWIDTH 989 0
DWIDTH 6 0
BBX 6 4 0 0
BITMAP
30
30
78
84
ENDCHAR
STARTCHAR b
ENCODING 98
SWIDTH 891 0
DWIDTH 5 0
BBX 5 4 0 0
BITMAP
F8
B8
88
F8
ENDCHAR
STARTCHAR c
ENCODING 99
SWIDTH 829 0
DWIDTH 5 0
BBX 5 4 0 0
BITMAP
78
80
80
78
ENDCHAR
STARTCHAR d
ENCODING 100
SWIDTH 879 0
DWIDTH 5 0
BBX 5 4 0 0
BITMAP
F8
88
88
F0
ENDCHAR
STARTCHAR e
ENCODING 101
SWIDTH 759 0
DWIDTH 5 0
BBX 4 4 0 0
BITMAP
F0
B0
80
F0
ENDCHAR
STARTCHAR f
ENCODING 102
SWIDTH 705 0
DWIDTH 4 0
BBX 4 4 0 0
BITMAP
F0
B0
80
80
ENDCHAR
STARTCHAR g
ENCODING 103
SWIDTH 888 0
DWIDTH 5 0
BBX 5 4 0 0
BITMAP
78
B8
88
78
ENDCHAR
STARTCHAR h
ENCODING 104
SWIDTH 838 0
DWIDTH 5 0
BBX 5 4 0 0
BITMAP
88
B8
88
88
ENDCHAR
STARTCHAR i
ENCODING 105
SWIDTH 267 0
DWIDTH 2 0
BBX 1 4 0 0
BITMAP
80
80
80
80
ENDCHAR
STARTCHAR j
ENCODING 106
SWIDTH 708 0
DWIDTH 4 0
BBX 4 4 0 0
BITMAP
10
10
10
E0
ENDCHAR
STARTCHAR k
ENCODING 107
SWIDTH 875 0
DWIDTH 5 0
BBX 5 4 0 0
BITMAP
98
E0
A0
98
ENDCHAR
STARTCHAR l
ENCODING 108
SWIDTH 707 0
DWIDTH 4 0
BBX 4 4 0 0
BITMAP
80
80
80
F0
ENDCHAR
STARTCHAR m
ENCODING 109
SWIDTH 1115 0
DWIDTH 7 0
BBX 7 4 0 0
BITMAP
4C
6C
B4
92
ENDCHAR
STARTCHAR n
ENCODING 110
SWIDTH 873 0
DWIDTH 5 0
BBX 5 4 0 0
BITMAP
C8
A8
98
88
ENDCHAR
STARTCHAR o
ENCODING 111
SWIDTH 968 0
DWIDTH 6 0
BBX 6 4 0 0
BITMAP
78
84
84
78
ENDCHAR
STARTCHAR p
ENCODING 112
SWIDTH 867 0
DWIDTH 5 0
BBX 5 4 0 0
BITMAP
F8
88
B0
80
ENDCHAR
STARTCHAR q
ENCODING 113
SWIDTH 968 0
DWIDTH 6 0
BBX 6 4 0 0
BITMAP
78
84
94
7C
ENDCHAR
STARTCHAR r
ENCODING 114
SWIDTH 921 0
DWIDTH 6 0
BBX 6 4 0 0
BITMAP
F8
88
B8
8C
ENDCHAR
STARTCHAR s
ENCODING 115
SWIDTH 880 0
DWIDTH 5 0
BBX 5 4 0 0
BITMAP
F8
F0
08
F8
ENDCHAR
STARTCHAR t
ENCODING 116
SWIDTH 720 0
DWIDTH 4 0
BBX 4 4 0 0
BITMAP
F0
20
20
20
ENDCHAR
STARTCHAR u
ENCODING 117
SWIDTH 889 0
DWIDTH 5 0
BBX 5 4 0 0
BITMAP
88
88
88
78
ENDCHAR
STARTCHAR v
ENCODING 118
SWIDTH 989 0
DWIDTH 6 0
BBX 6 4 0 0
BITMAP
CC
48
30
30
ENDCHAR
STARTCHAR w
ENCODING 119
SWIDTH 1268 0
DWIDTH 8 0
BBX 8 4 0 0
BITMAP
B3
52
3C
28
ENDCHAR
STARTCHAR x
ENCODING 120
SWIDTH 1000 0
DWIDTH 6 0
BBX 6 4 0 0
BITMAP
CC
30
30
CC
ENDCHAR
STARTCHAR y
ENCODING 121
SWIDTH 926 0
DWIDTH 6 0
BBX 5 4 0 0
BITMAP
C8
30
20
20
ENDCHAR
STARTCHAR z
ENCODING 122
SWIDTH 802 0
DWIDTH 5 0
BBX 5 4 0 0
BITMAP
F8
20
40
F8
ENDCHAR
STARTCHAR braceleft
ENCODING 123
SWIDTH 337 0
DWIDTH 2 0
BBX 2 7 0 -1
BITMAP
40
80
80
80
80
80
40
ENDCHAR
STARTCHAR bar
ENCODING 124
SWIDTH 297 0
DWIDTH 2 0
BBX 1 6 0 -1
BITMAP
80
80
80
80
80
80
ENDCHAR
STARTCHAR braceright
ENCODING 125
SWIDTH 337 0
DWIDTH 2 0
BBX 2 7 0 -1
BITMAP
80
40
40
40
40
40
80
ENDCHAR
STARTCHAR asciitilde
ENCODING 126
SWIDTH 691 0
DWIDTH 4 0
BBX 4 1 0 2
BITMAP
F0
ENDCHAR
STARTCHAR exclamdown
ENCODING 161
SWIDTH 298 0
DWIDTH 2 0
BBX 1 4 0 0
BITMAP
80
80
80
80
ENDCHAR
STARTCHAR cent
ENCODING 162
SWIDTH 692 0
DWIDTH 4 0
BBX 4 5 0 0
BITMAP
70
A0
A0
A0
70
ENDCHAR
STARTCHAR sterling
ENCODING 163
SWIDTH 709 0
DWIDTH 4 0
BBX 4 5 0 0
BITMAP
60
40
E0
40
F0
ENDCHAR
STARTCHAR yen
ENCODING 165
SWIDTH 787 0
DWIDTH 5 0
BBX 5 5 0 0
BITMAP
98
50
60
70
70
ENDCHAR
STARTCHAR brokenbar
ENCODING 166
SWIDTH 297 0
DWIDTH 2 0
BBX 1 6 0 -1
BITMAP
80
80
80
80
80
80
ENDCHAR
STARTCHAR section
ENCODING 167
SWIDTH 773 0
DWIDTH 5 0
BBX 4 7 0 -2
BITMAP
70
80
70
90
70
10
70
ENDCHAR
STARTCHAR dieresis
ENCODING 168
SWIDTH 393 0
DWIDTH 2 0
BBX 2 1 0 5
BITMAP
C0
ENDCHAR
STARTCHAR copyright
ENCODING 169
SWIDTH 829 0
DWIDTH 5 0
BBX 5 5 0 0
BITMAP
70
A8
C8
A8
70
ENDCHAR
STARTCHAR ordfeminine
ENCODING 170
SWIDTH 604 0
DWIDTH 4 0
BBX 3 3 0 2
BITMAP
40
60
A0
ENDCHAR
STARTCHAR guillemotleft
ENCODING 171
SWIDTH 629 0
DWIDTH 4 0
BBX 4 3 0 1
BITMAP
50
A0
50
ENDCHAR
STARTCHAR registered
ENCODING 174
SWIDTH 585 0
DWIDTH 4 0
BBX 3 4 0 1
BITMAP
60
E0
A0
60
ENDCHAR
STARTCHAR macron
ENCODING 175
SWIDTH 362 0
DWIDTH 2 0
BBX 2 1 0 5
BITMAP
C0
ENDCHAR
STARTCHAR degree
ENCODING 176
SWIDTH 361 0
DWIDTH 2 0
BBX 2 3 0 2
BITMAP
C0
C0
C0
ENDCHAR
STARTCHAR plusminus
ENCODING 177
SWIDTH 690 0
DWIDTH 4 0
BBX 4 4 0 0
BITMAP
20
F0
20
F0
ENDCHAR
STARTCHAR twosuperior
ENCODING 178
SWIDTH 442 0
DWIDTH 3 0
BBX 2 2 0 2
BITMAP
C0
C0
ENDCHAR
STARTCHAR threesuperior
ENCODING 179
SWIDTH 443 0
DWIDTH 3 0
BBX 2 2 0 2
BITMAP
C0
C0
ENDCHAR
STARTCHAR acute
ENCODING 180
SWIDTH 362 0
DWIDTH 2 0
BBX 2 1 0 5
BITMAP
C0
ENDCHAR
STARTCHAR paragraph
ENCODING 182
SWIDTH 629 0
DWIDTH 4 0
BBX 3 6 0 -1
BITMAP
E0
E0
60
60
60
60
ENDCHAR
STARTCHAR periodcentered
ENCODING 183
SWIDTH 262 0
DWIDTH 2 0
BBX 1 1 0 2
BITMAP
80
ENDCHAR
STARTCHAR cedilla
ENCODING 184
SWIDTH 219 0
DWIDTH 1 0
BBX 1 1 0 -1
BITMAP
80
ENDCHAR
STARTCHAR onesuperior
ENCODING 185
SWIDTH 222 0
DWIDTH 1 0
BBX 1 2 0 2
BITMAP
80
80
ENDCHAR
STARTCHAR ordmasculine
ENCODING 186
SWIDTH 592 0
DWIDTH 4 0
BBX 3 3 0 2
BITMAP
60
A0
60
ENDCHAR
STARTCHAR guillemotright
ENCODING 187
SWIDTH 629 0
DWIDTH 4 0
BBX 4 3 0 1
BITMAP
A0
50
E0
ENDCHAR
STARTCHAR onequarter
ENCODING 188
SWIDTH 972 0
DWIDTH 6 0
BBX 6 5 0 0
BITMAP
08
50
60
54
CC
ENDCHAR
STARTCHAR onehalf
ENCODING 189
SWIDTH 948 0
DWIDTH 6 0
BBX 5 5 0 0
BITMAP
08
50
60
58
D8
ENDCHAR
STARTCHAR threequarters
ENCODING 190
SWIDTH 1029 0
DWIDTH 6 0
BBX 6 5 0 0
BITMAP
88
50
D0
34
4C
ENDCHAR
ENDFONT
