STARTFONT 2.1
FONT -FontForge-Good Times Rg-Book-R-Normal--10-100-75-75-P-75-ISO10646-1
SIZE 10 75 75
FONTBOUNDINGBOX 20 13 -3 -3
COMMENT "Generated by fontforge, http://fontforge.sourceforge.net"
COMMENT "(c) 1998-2012 Typodermic Fonts Inc. See attached license agreement. If agreement is missing visit typodermicfonts.com for more info. Languages by Chikako Larabie"
STARTPROPERTIES 39
FOUNDRY "FontForge"
FAMILY_NAME "Good Times Rg"
WEIGHT_NAME "Book"
SLANT "R"
SETWIDTH_NAME "Normal"
ADD_STYLE_NAME ""
PIXEL_SIZE 10
POINT_SIZE 100
RESOLUTION_X 75
RESOLUTION_Y 75
SPACING "P"
AVERAGE_WIDTH 75
CHARSET_REGISTRY "ISO10646"
CHARSET_ENCODING "1"
FONTNAME_REGISTRY ""
CHARSET_COLLECTIONS "ISO8859-2 ISO8859-9 ISO8859-4 ISO10646-1"
FONT_NAME "GoodTimesRg-Regular"
FACE_NAME "GoodTimesRg-Regular"
COPYRIGHT "(c) 1998-2012 Typodermic Fonts Inc. See attached license agreement. If agreement is missing visit typodermicfonts.com for more info. Languages by Chikako Larabie"
FONT_VERSION "4.001"
FONT_ASCENT 8
FONT_DESCENT 2
UNDERLINE_POSITION -1
UNDERLINE_THICKNESS 1
X_HEIGHT 7
CAP_HEIGHT 7
RAW_ASCENT 799
RAW_DESCENT 201
NORM_SPACE 3
RELATIVE_WEIGHT 40
RELATIVE_SETWIDTH 50
SUPERSCRIPT_X 0
SUPERSCRIPT_Y 3
SUPERSCRIPT_SIZE 3
SUBSCRIPT_X 0
SUBSCRIPT_Y 0
SUBSCRIPT_SIZE 3
AVG_LOWERCASE_WIDTH 86
AVG_UPPERCASE_WIDTH 85
ENDPROPERTIES
CHARS 372
STARTCHAR space
ENCODING 32
SWIDTH 294 0
DWIDTH 3 0
BBX 1 1 0 0
BITMAP
00
ENDCHAR
STARTCHAR exclam
ENCODING 33
SWIDTH 298 0
DWIDTH 3 0
BBX 1 8 1 0
BITMAP
80
80
80
80
80
00
00
80
ENDCHAR
STARTCHAR quotedbl
ENCODING 34
SWIDTH 452 0
DWIDTH 5 0
BBX 3 3 1 5
BITMAP
A0
A0
A0
ENDCHAR
STARTCHAR numbersign
ENCODING 35
SWIDTH 697 0
DWIDTH 7 0
BBX 7 8 0 0
BITMAP
14
24
7E
28
28
FC
48
50
ENDCHAR
STARTCHAR dollar
ENCODING 36
SWIDTH 744 0
DWIDTH 7 0
BBX 6 8 1 0
BITMAP
20
FC
A0
F8
24
24
FC
20
ENDCHAR
STARTCHAR percent
ENCODING 37
SWIDTH 965 0
DWIDTH 10 0
BBX 9 9 0 -1
BITMAP
7100
9200
D200
7400
0B80
1480
1280
2380
4000
ENDCHAR
STARTCHAR ampersand
ENCODING 38
SWIDTH 759 0
DWIDTH 8 0
BBX 7 8 0 0
BITMAP
70
40
40
7E
44
C4
44
7E
ENDCHAR
STARTCHAR quotesingle
ENCODING 39
SWIDTH 255 0
DWIDTH 3 0
BBX 1 3 1 5
BITMAP
80
80
80
ENDCHAR
STARTCHAR parenleft
ENCODING 40
SWIDTH 356 0
DWIDTH 4 0
BBX 2 10 1 -1
BITMAP
40
80
80
80
80
80
80
80
80
40
ENDCHAR
STARTCHAR parenright
ENCODING 41
SWIDTH 355 0
DWIDTH 4 0
BBX 2 10 1 -1
BITMAP
80
80
80
40
40
40
40
80
80
80
ENDCHAR
STARTCHAR asterisk
ENCODING 42
SWIDTH 469 0
DWIDTH 5 0
BBX 3 4 1 4
BITMAP
40
E0
40
A0
ENDCHAR
STARTCHAR plus
ENCODING 43
SWIDTH 690 0
DWIDTH 7 0
BBX 5 6 1 1
BITMAP
20
20
F8
20
20
20
ENDCHAR
STARTCHAR comma
ENCODING 44
SWIDTH 259 0
DWIDTH 3 0
BBX 1 3 1 -1
BITMAP
80
80
80
ENDCHAR
STARTCHAR hyphen
ENCODING 45
SWIDTH 296 0
DWIDTH 3 0
BBX 3 1 0 4
BITMAP
E0
ENDCHAR
STARTCHAR period
ENCODING 46
SWIDTH 262 0
DWIDTH 3 0
BBX 1 1 1 0
BITMAP
80
ENDCHAR
STARTCHAR slash
ENCODING 47
SWIDTH 444 0
DWIDTH 4 0
BBX 4 8 0 0
BITMAP
10
10
20
20
20
40
40
80
ENDCHAR
STARTCHAR zero
ENCODING 48
SWIDTH 838 0
DWIDTH 8 0
BBX 8 8 0 0
BITMAP
3C
66
43
C1
C1
43
66
3C
ENDCHAR
STARTCHAR one
ENCODING 49
SWIDTH 385 0
DWIDTH 4 0
BBX 3 8 0 0
BITMAP
C0
60
20
20
20
20
20
20
ENDCHAR
STARTCHAR two
ENCODING 50
SWIDTH 825 0
DWIDTH 8 0
BBX 7 8 1 0
BITMAP
FC
06
06
FC
80
80
80
FE
ENDCHAR
STARTCHAR three
ENCODING 51
SWIDTH 827 0
DWIDTH 8 0
BBX 8 8 0 0
BITMAP
FE
03
03
3E
03
03
03
FE
ENDCHAR
STARTCHAR four
ENCODING 52
SWIDTH 845 0
DWIDTH 8 0
BBX 8 8 0 0
BITMAP
C2
C2
C2
C2
42
7F
02
02
ENDCHAR
STARTCHAR five
ENCODING 53
SWIDTH 885 0
DWIDTH 9 0
BBX 7 8 1 0
BITMAP
FE
80
80
FE
02
02
02
FE
ENDCHAR
STARTCHAR six
ENCODING 54
SWIDTH 872 0
DWIDTH 9 0
BBX 8 8 0 0
BITMAP
3F
60
40
FF
C1
41
63
3E
ENDCHAR
STARTCHAR seven
ENCODING 55
SWIDTH 756 0
DWIDTH 8 0
BBX 7 8 0 0
BITMAP
FE
06
04
08
18
30
20
E0
ENDCHAR
STARTCHAR eight
ENCODING 56
SWIDTH 898 0
DWIDTH 9 0
BBX 7 8 1 0
BITMAP
FE
82
82
FE
82
82
C6
FE
ENDCHAR
STARTCHAR nine
ENCODING 57
SWIDTH 861 0
DWIDTH 9 0
BBX 8 8 0 0
BITMAP
7E
43
C1
C1
7F
01
03
7E
ENDCHAR
STARTCHAR colon
ENCODING 58
SWIDTH 262 0
DWIDTH 3 0
BBX 1 5 1 0
BITMAP
80
00
00
00
80
ENDCHAR
STARTCHAR semicolon
ENCODING 59
SWIDTH 262 0
DWIDTH 3 0
BBX 1 6 1 -1
BITMAP
80
00
00
80
80
80
ENDCHAR
STARTCHAR less
ENCODING 60
SWIDTH 690 0
DWIDTH 7 0
BBX 5 6 1 1
BITMAP
08
30
C0
C0
30
08
ENDCHAR
STARTCHAR equal
ENCODING 61
SWIDTH 690 0
DWIDTH 7 0
BBX 5 4 1 2
BITMAP
F8
00
00
F8
ENDCHAR
STARTCHAR greater
ENCODING 62
SWIDTH 690 0
DWIDTH 7 0
BBX 5 6 1 1
BITMAP
80
60
18
18
60
80
ENDCHAR
STARTCHAR question
ENCODING 63
SWIDTH 776 0
DWIDTH 8 0
BBX 7 8 0 0
BITMAP
FE
02
02
7E
40
00
00
40
ENDCHAR
STARTCHAR at
ENCODING 64
SWIDTH 833 0
DWIDTH 8 0
BBX 8 8 0 0
BITMAP
3F
61
5D
95
A5
5F
60
3F
ENDCHAR
STARTCHAR A
ENCODING 65
SWIDTH 989 0
DWIDTH 10 0
BBX 10 8 0 0
BITMAP
0C00
0C00
1E00
1200
3300
2F00
4180
C0C0
ENDCHAR
STARTCHAR B
ENCODING 66
SWIDTH 891 0
DWIDTH 9 0
BBX 7 8 1 0
BITMAP
FE
82
82
BE
82
82
86
FE
ENDCHAR
STARTCHAR C
ENCODING 67
SWIDTH 829 0
DWIDTH 8 0
BBX 8 8 0 0
BITMAP
3F
60
40
C0
C0
40
60
3F
ENDCHAR
STARTCHAR D
ENCODING 68
SWIDTH 879 0
DWIDTH 9 0
BBX 7 8 1 0
BITMAP
FC
86
82
82
82
82
86
FC
ENDCHAR
STARTCHAR E
ENCODING 69
SWIDTH 759 0
DWIDTH 8 0
BBX 6 8 1 0
BITMAP
FC
80
80
BC
80
80
80
FC
ENDCHAR
STARTCHAR F
ENCODING 70
SWIDTH 705 0
DWIDTH 7 0
BBX 6 8 1 0
BITMAP
FC
80
80
BC
80
80
80
80
ENDCHAR
STARTCHAR G
ENCODING 71
SWIDTH 888 0
DWIDTH 9 0
BBX 8 8 0 0
BITMAP
3F
60
40
CF
C1
41
61
3F
ENDCHAR
STARTCHAR H
ENCODING 72
SWIDTH 838 0
DWIDTH 8 0
BBX 7 8 1 0
BITMAP
86
86
86
BE
86
86
86
86
ENDCHAR
STARTCHAR I
ENCODING 73
SWIDTH 267 0
DWIDTH 3 0
BBX 1 8 1 0
BITMAP
80
80
80
80
80
80
80
80
ENDCHAR
STARTCHAR J
ENCODING 74
SWIDTH 708 0
DWIDTH 7 0
BBX 7 8 0 0
BITMAP
06
06
06
06
06
04
0C
F8
ENDCHAR
STARTCHAR K
ENCODING 75
SWIDTH 875 0
DWIDTH 9 0
BBX 8 8 1 0
BITMAP
86
8C
B0
E0
A0
98
8C
87
ENDCHAR
STARTCHAR L
ENCODING 76
SWIDTH 707 0
DWIDTH 7 0
BBX 6 8 1 0
BITMAP
80
80
80
80
80
80
80
FC
ENDCHAR
STARTCHAR M
ENCODING 77
SWIDTH 1115 0
DWIDTH 11 0
BBX 11 8 0 0
BITMAP
2080
3180
31C0
7940
4A40
4A40
4660
C420
ENDCHAR
STARTCHAR N
ENCODING 78
SWIDTH 873 0
DWIDTH 9 0
BBX 7 8 1 0
BITMAP
82
C2
E2
B2
9A
8E
86
82
ENDCHAR
STARTCHAR O
ENCODING 79
SWIDTH 968 0
DWIDTH 10 0
BBX 9 8 0 0
BITMAP
3F00
6380
4080
C080
C080
4080
6380
3E00
ENDCHAR
STARTCHAR P
ENCODING 80
SWIDTH 867 0
DWIDTH 9 0
BBX 7 8 1 0
BITMAP
FC
86
82
82
82
BE
80
80
ENDCHAR
STARTCHAR Q
ENCODING 81
SWIDTH 968 0
DWIDTH 10 0
BBX 10 8 0 0
BITMAP
3F00
6380
4080
C080
C880
4680
6380
3FC0
ENDCHAR
STARTCHAR R
ENCODING 82
SWIDTH 921 0
DWIDTH 9 0
BBX 8 8 1 0
BITMAP
FC
86
82
82
82
BE
84
83
ENDCHAR
STARTCHAR S
ENCODING 83
SWIDTH 880 0
DWIDTH 9 0
BBX 7 8 1 0
BITMAP
FE
80
80
FE
02
02
02
FE
ENDCHAR
STARTCHAR T
ENCODING 84
SWIDTH 720 0
DWIDTH 7 0
BBX 7 8 0 0
BITMAP
FE
10
10
10
10
10
10
10
ENDCHAR
STARTCHAR U
ENCODING 85
SWIDTH 889 0
DWIDTH 9 0
BBX 7 8 1 0
BITMAP
82
82
82
82
82
82
C6
7C
ENDCHAR
STARTCHAR V
ENCODING 86
SWIDTH 989 0
DWIDTH 10 0
BBX 10 8 0 0
BITMAP
C0C0
4180
2100
3300
1200
1E00
0C00
0C00
ENDCHAR
STARTCHAR W
ENCODING 87
SWIDTH 1268 0
DWIDTH 13 0
BBX 13 8 0 0
BITMAP
CC18
4430
6420
2660
3640
17C0
1D80
0980
ENDCHAR
STARTCHAR X
ENCODING 88
SWIDTH 1000 0
DWIDTH 10 0
BBX 10 8 0 0
BITMAP
E180
3300
1E00
0C00
0C00
1200
2100
C1C0
ENDCHAR
STARTCHAR Y
ENCODING 89
SWIDTH 926 0
DWIDTH 9 0
BBX 9 8 0 0
BITMAP
C180
6300
3200
1C00
0C00
0800
0800
0800
ENDCHAR
STARTCHAR Z
ENCODING 90
SWIDTH 802 0
DWIDTH 8 0
BBX 8 8 0 0
BITMAP
FF
06
0C
08
10
20
60
FF
ENDCHAR
STARTCHAR bracketleft
ENCODING 91
SWIDTH 333 0
DWIDTH 3 0
BBX 2 10 1 -1
BITMAP
C0
80
80
80
80
80
80
80
80
C0
ENDCHAR
STARTCHAR backslash
ENCODING 92
SWIDTH 445 0
DWIDTH 4 0
BBX 4 8 0 0
BITMAP
80
40
40
40
20
20
10
10
ENDCHAR
STARTCHAR bracketright
ENCODING 93
SWIDTH 333 0
DWIDTH 3 0
BBX 1 10 1 -1
BITMAP
80
80
80
80
80
80
80
80
80
80
ENDCHAR
STARTCHAR asciicircum
ENCODING 94
SWIDTH 559 0
DWIDTH 6 0
BBX 4 5 1 3
BITMAP
40
60
A0
A0
90
ENDCHAR
STARTCHAR underscore
ENCODING 95
SWIDTH 668 0
DWIDTH 7 0
BBX 7 1 0 -2
BITMAP
FE
ENDCHAR
STARTCHAR grave
ENCODING 96
SWIDTH 362 0
DWIDTH 4 0
BBX 2 2 1 8
BITMAP
80
40
ENDCHAR
STARTCHAR a
ENCODING 97
SWIDTH 989 0
DWIDTH 10 0
BBX 10 8 0 0
BITMAP
0C00
0C00
1E00
1200
3300
2F00
4180
C0C0
ENDCHAR
STARTCHAR b
ENCODING 98
SWIDTH 891 0
DWIDTH 9 0
BBX 7 8 1 0
BITMAP
FE
82
82
BE
82
82
86
FE
ENDCHAR
STARTCHAR c
ENCODING 99
SWIDTH 829 0
DWIDTH 8 0
BBX 8 8 0 0
BITMAP
3F
60
40
C0
C0
40
60
3F
ENDCHAR
STARTCHAR d
ENCODING 100
SWIDTH 879 0
DWIDTH 9 0
BBX 7 8 1 0
BITMAP
FC
86
82
82
82
82
86
FC
ENDCHAR
STARTCHAR e
ENCODING 101
SWIDTH 759 0
DWIDTH 8 0
BBX 6 8 1 0
BITMAP
FC
80
80
BC
80
80
80
FC
ENDCHAR
STARTCHAR f
ENCODING 102
SWIDTH 705 0
DWIDTH 7 0
BBX 6 8 1 0
BITMAP
FC
80
80
BC
80
80
80
80
ENDCHAR
STARTCHAR g
ENCODING 103
SWIDTH 888 0
DWIDTH 9 0
BBX 8 8 0 0
BITMAP
3F
60
40
CF
C1
41
61
3F
ENDCHAR
STARTCHAR h
ENCODING 104
SWIDTH 838 0
DWIDTH 8 0
BBX 7 8 1 0
BITMAP
86
86
86
BE
86
86
86
86
ENDCHAR
STARTCHAR i
ENCODING 105
SWIDTH 267 0
DWIDTH 3 0
BBX 1 8 1 0
BITMAP
80
80
80
80
80
80
80
80
ENDCHAR
STARTCHAR j
ENCODING 106
SWIDTH 708 0
DWIDTH 7 0
BBX 7 8 0 0
BITMAP
06
06
06
06
06
04
0C
F8
ENDCHAR
STARTCHAR k
ENCODING 107
SWIDTH 875 0
DWIDTH 9 0
BBX 8 8 1 0
BITMAP
86
8C
B0
E0
A0
98
8C
87
ENDCHAR
STARTCHAR l
ENCODING 108
SWIDTH 707 0
DWIDTH 7 0
BBX 6 8 1 0
BITMAP
80
80
80
80
80
80
80
FC
ENDCHAR
STARTCHAR m
ENCODING 109
SWIDTH 1115 0
DWIDTH 11 0
BBX 11 8 0 0
BITMAP
2080
3180
31C0
7940
4A40
4A40
4660
C420
ENDCHAR
STARTCHAR n
ENCODING 110
SWIDTH 873 0
DWIDTH 9 0
BBX 7 8 1 0
BITMAP
82
C2
E2
B2
9A
8E
86
82
ENDCHAR
STARTCHAR o
ENCODING 111
SWIDTH 968 0
DWIDTH 10 0
BBX 9 8 0 0
BITMAP
3F00
6380
4080
C080
C080
4080
6380
3E00
ENDCHAR
STARTCHAR p
ENCODING 112
SWIDTH 867 0
DWIDTH 9 0
BBX 7 8 1 0
BITMAP
FC
86
82
82
82
BE
80
80
ENDCHAR
STARTCHAR q
ENCODING 113
SWIDTH 968 0
DWIDTH 10 0
BBX 10 8 0 0
BITMAP
3F00
6380
4080
C080
C880
4680
6380
3FC0
ENDCHAR
STARTCHAR r
ENCODING 114
SWIDTH 921 0
DWIDTH 9 0
BBX 8 8 1 0
BITMAP
FC
86
82
82
82
BE
84
83
ENDCHAR
STARTCHAR s
ENCODING 115
SWIDTH 880 0
DWIDTH 9 0
BBX 7 8 1 0
BITMAP
FE
80
80
FE
02
02
02
FE
ENDCHAR
STARTCHAR t
ENCODING 116
SWIDTH 720 0
DWIDTH 7 0
BBX 7 8 0 0
BITMAP
FE
10
10
10
10
10
10
10
ENDCHAR
STARTCHAR u
ENCODING 117
SWIDTH 889 0
DWIDTH 9 0
BBX 7 8 1 0
BITMAP
82
82
82
82
82
82
C6
7C
ENDCHAR
STARTCHAR v
ENCODING 118
SWIDTH 989 0
DWIDTH 10 0
BBX 10 8 0 0
BITMAP
C0C0
4180
2100
3300
1200
1E00
0C00
0C00
ENDCHAR
STARTCHAR w
ENCODING 119
SWIDTH 1268 0
DWIDTH 13 0
BBX 13 8 0 0
BITMAP
CC18
4430
6420
2660
3640
17C0
1D80
0980
ENDCHAR
STARTCHAR x
ENCODING 120
SWIDTH 1000 0
DWIDTH 10 0
BBX 10 8 0 0
BITMAP
E180
3300
1E00
0C00
0C00
1200
2100
C1C0
ENDCHAR
STARTCHAR y
ENCODING 121
SWIDTH 926 0
DWIDTH 9 0
BBX 9 8 0 0
BITMAP
C180
6300
3200
1C00
0C00
0800
0800
0800
ENDCHAR
STARTCHAR z
ENCODING 122
SWIDTH 802 0
DWIDTH 8 0
BBX 8 8 0 0
BITMAP
FF
06
0C
08
10
20
60
FF
ENDCHAR
STARTCHAR braceleft
ENCODING 123
SWIDTH 337 0
DWIDTH 3 0
BBX 2 10 1 -1
BITMAP
C0
80
80
80
80
80
80
80
80
C0
ENDCHAR
STARTCHAR bar
ENCODING 124
SWIDTH 297 0
DWIDTH 3 0
BBX 1 10 1 -1
BITMAP
80
80
80
80
80
80
80
80
80
80
ENDCHAR
STARTCHAR braceright
ENCODING 125
SWIDTH 337 0
DWIDTH 3 0
BBX 2 10 1 -1
BITMAP
80
80
80
80
80
40
80
80
80
80
ENDCHAR
STARTCHAR asciitilde
ENCODING 126
SWIDTH 691 0
DWIDTH 7 0
BBX 5 2 1 3
BITMAP
E8
B8
ENDCHAR
STARTCHAR nonbreakingspace
ENCODING 160
SWIDTH 294 0
DWIDTH 3 0
BBX 1 1 0 0
BITMAP
00
ENDCHAR
STARTCHAR exclamdown
ENCODING 161
SWIDTH 298 0
DWIDTH 3 0
BBX 1 8 1 -1
BITMAP
80
00
00
80
80
80
80
80
ENDCHAR
STARTCHAR cent
ENCODING 162
SWIDTH 692 0
DWIDTH 7 0
BBX 6 8 0 0
BITMAP
08
7C
48
C8
88
48
7C
08
ENDCHAR
STARTCHAR sterling
ENCODING 163
SWIDTH 709 0
DWIDTH 7 0
BBX 7 8 0 0
BITMAP
3C
60
40
70
40
40
40
FE
ENDCHAR
STARTCHAR yen
ENCODING 165
SWIDTH 787 0
DWIDTH 8 0
BBX 8 8 0 0
BITMAP
C3
66
24
38
7E
18
7E
18
ENDCHAR
STARTCHAR brokenbar
ENCODING 166
SWIDTH 297 0
DWIDTH 3 0
BBX 1 10 1 -1
BITMAP
80
80
80
80
00
00
80
80
80
80
ENDCHAR
STARTCHAR section
ENCODING 167
SWIDTH 773 0
DWIDTH 8 0
BBX 7 10 0 -2
BITMAP
7C
40
C0
7C
46
42
7C
02
02
7E
ENDCHAR
STARTCHAR dieresis
ENCODING 168
SWIDTH 393 0
DWIDTH 4 0
BBX 2 1 1 9
BITMAP
C0
ENDCHAR
STARTCHAR copyright
ENCODING 169
SWIDTH 829 0
DWIDTH 8 0
BBX 8 8 0 0
BITMAP
3C
66
59
A1
A1
59
66
3C
ENDCHAR
STARTCHAR ordfeminine
ENCODING 170
SWIDTH 604 0
DWIDTH 6 0
BBX 6 5 0 3
BITMAP
10
30
48
78
84
ENDCHAR
STARTCHAR guillemotleft
ENCODING 171
SWIDTH 629 0
DWIDTH 6 0
BBX 6 4 0 2
BITMAP
24
D8
48
24
ENDCHAR
STARTCHAR registered
ENCODING 174
SWIDTH 585 0
DWIDTH 6 0
BBX 4 6 1 2
BITMAP
60
90
F0
B0
90
E0
ENDCHAR
STARTCHAR macron
ENCODING 175
SWIDTH 362 0
DWIDTH 4 0
BBX 2 1 1 9
BITMAP
C0
ENDCHAR
STARTCHAR degree
ENCODING 176
SWIDTH 361 0
DWIDTH 4 0
BBX 3 4 0 4
BITMAP
60
A0
A0
60
ENDCHAR
STARTCHAR plusminus
ENCODING 177
SWIDTH 690 0
DWIDTH 7 0
BBX 5 7 1 0
BITMAP
20
20
F8
20
20
20
F8
ENDCHAR
STARTCHAR twosuperior
ENCODING 178
SWIDTH 442 0
DWIDTH 4 0
BBX 4 4 0 4
BITMAP
F0
70
80
F0
ENDCHAR
STARTCHAR threesuperior
ENCODING 179
SWIDTH 443 0
DWIDTH 4 0
BBX 4 4 0 4
BITMAP
F0
70
10
F0
ENDCHAR
STARTCHAR acute
ENCODING 180
SWIDTH 362 0
DWIDTH 4 0
BBX 2 2 1 8
BITMAP
40
80
ENDCHAR
STARTCHAR paragraph
ENCODING 182
SWIDTH 629 0
DWIDTH 6 0
BBX 6 9 0 -1
BITMAP
7C
F4
F4
74
14
14
14
14
14
ENDCHAR
STARTCHAR periodcentered
ENCODING 183
SWIDTH 262 0
DWIDTH 3 0
BBX 1 1 1 4
BITMAP
80
ENDCHAR
STARTCHAR cedilla
ENCODING 184
SWIDTH 219 0
DWIDTH 2 0
BBX 2 2 0 -3
BITMAP
C0
40
ENDCHAR
STARTCHAR onesuperior
ENCODING 185
SWIDTH 222 0
DWIDTH 2 0
BBX 2 4 0 4
BITMAP
C0
40
40
40
ENDCHAR
STARTCHAR ordmasculine
ENCODING 186
SWIDTH 592 0
DWIDTH 6 0
BBX 4 4 1 3
BITMAP
F0
90
90
F0
ENDCHAR
STARTCHAR guillemotright
ENCODING 187
SWIDTH 629 0
DWIDTH 6 0
BBX 6 4 0 2
BITMAP
D0
2C
68
90
ENDCHAR
STARTCHAR onequarter
ENCODING 188
SWIDTH 972 0
DWIDTH 10 0
BBX 9 9 0 -1
BITMAP
6100
2200
2400
2800
0C80
1480
2380
4080
C000
ENDCHAR
STARTCHAR onehalf
ENCODING 189
SWIDTH 948 0
DWIDTH 9 0
BBX 9 9 0 -1
BITMAP
6100
2200
2400
2800
0B80
1380
2400
4780
C000
ENDCHAR
STARTCHAR threequarters
ENCODING 190
SWIDTH 1029 0
DWIDTH 10 0
BBX 10 9 0 -1
BITMAP
F100
7200
1200
F400
0A40
1240
13C0
2040
4000
ENDCHAR
STARTCHAR questiondown
ENCODING 191
SWIDTH 776 0
DWIDTH 8 0
BBX 7 8 0 -1
BITMAP
06
00
00
06
7C
C0
C0
7E
ENDCHAR
STARTCHAR Agrave
ENCODING 192
SWIDTH 989 0
DWIDTH 10 0
BBX 10 10 0 0
BITMAP
1800
0400
0C00
0C00
1E00
1200
3300
2F00
4180
C0C0
ENDCHAR
STARTCHAR Aacute
ENCODING 193
SWIDTH 989 0
DWIDTH 10 0
BBX 10 10 0 0
BITMAP
0600
1800
0C00
0C00
1E00
1200
3300
2F00
4180
C0C0
ENDCHAR
STARTCHAR Acircumflex
ENCODING 194
SWIDTH 989 0
DWIDTH 10 0
BBX 10 10 0 0
BITMAP
0C00
0C00
0C00
0C00
1E00
1200
3300
2F00
4180
C0C0
ENDCHAR
STARTCHAR Atilde
ENCODING 195
SWIDTH 989 0
DWIDTH 10 0
BBX 10 10 0 0
BITMAP
0C00
0000
0C00
0C00
1E00
1200
3300
2F00
4180
C0C0
ENDCHAR
STARTCHAR Adieresis
ENCODING 196
SWIDTH 989 0
DWIDTH 10 0
BBX 10 10 0 0
BITMAP
0C00
0000
0C00
0C00
1E00
1200
3300
2F00
4180
C0C0
ENDCHAR
STARTCHAR Aring
ENCODING 197
SWIDTH 989 0
DWIDTH 10 0
BBX 10 10 0 0
BITMAP
0C00
0C00
0C00
0C00
1E00
1200
3300
2F00
4180
C0C0
ENDCHAR
STARTCHAR AE
ENCODING 198
SWIDTH 1345 0
DWIDTH 13 0
BBX 13 8 0 0
BITMAP
0FF8
0900
1100
1178
2100
6F00
4100
C1F8
ENDCHAR
STARTCHAR Ccedilla
ENCODING 199
SWIDTH 829 0
DWIDTH 8 0
BBX 8 11 0 -3
BITMAP
3F
60
40
C0
C0
40
60
3F
00
08
08
ENDCHAR
STARTCHAR Egrave
ENCODING 200
SWIDTH 759 0
DWIDTH 8 0
BBX 6 10 1 0
BITMAP
60
10
FC
80
80
BC
80
80
80
FC
ENDCHAR
STARTCHAR Eacute
ENCODING 201
SWIDTH 759 0
DWIDTH 8 0
BBX 6 10 1 0
BITMAP
10
60
FC
80
80
BC
80
80
80
FC
ENDCHAR
STARTCHAR Ecircumflex
ENCODING 202
SWIDTH 759 0
DWIDTH 8 0
BBX 6 10 1 0
BITMAP
20
30
FC
80
80
BC
80
80
80
FC
ENDCHAR
STARTCHAR Edieresis
ENCODING 203
SWIDTH 759 0
DWIDTH 8 0
BBX 6 10 1 0
BITMAP
50
00
FC
80
80
BC
80
80
80
FC
ENDCHAR
STARTCHAR Igrave
ENCODING 204
SWIDTH 267 0
DWIDTH 3 0
BBX 2 10 0 0
BITMAP
80
40
40
40
40
40
40
40
40
40
ENDCHAR
STARTCHAR Iacute
ENCODING 205
SWIDTH 267 0
DWIDTH 3 0
BBX 3 10 0 0
BITMAP
60
80
40
40
40
40
40
40
40
40
ENDCHAR
STARTCHAR Icircumflex
ENCODING 206
SWIDTH 267 0
DWIDTH 3 0
BBX 3 10 0 0
BITMAP
40
C0
60
40
40
40
40
40
40
40
ENDCHAR
STARTCHAR Idieresis
ENCODING 207
SWIDTH 267 0
DWIDTH 3 0
BBX 3 10 0 0
BITMAP
A0
00
40
40
40
40
40
40
40
40
ENDCHAR
STARTCHAR Eth
ENCODING 208
SWIDTH 877 0
DWIDTH 9 0
BBX 8 8 0 0
BITMAP
7E
43
41
F9
41
41
43
7E
ENDCHAR
STARTCHAR Ntilde
ENCODING 209
SWIDTH 873 0
DWIDTH 9 0
BBX 7 10 1 0
BITMAP
38
00
82
C2
E2
B2
9A
8E
86
82
ENDCHAR
STARTCHAR Ograve
ENCODING 210
SWIDTH 968 0
DWIDTH 10 0
BBX 9 10 0 0
BITMAP
1800
0400
3F00
6380
4080
C080
C080
4080
6380
3E00
ENDCHAR
STARTCHAR Oacute
ENCODING 211
SWIDTH 968 0
DWIDTH 10 0
BBX 9 10 0 0
BITMAP
0400
1800
3F00
6380
4080
C080
C080
4080
6380
3E00
ENDCHAR
STARTCHAR Ocircumflex
ENCODING 212
SWIDTH 968 0
DWIDTH 10 0
BBX 9 10 0 0
BITMAP
0C00
0C00
3F00
6380
4080
C080
C080
4080
6380
3E00
ENDCHAR
STARTCHAR Otilde
ENCODING 213
SWIDTH 968 0
DWIDTH 10 0
BBX 9 10 0 0
BITMAP
0C00
0000
3F00
6380
4080
C080
C080
4080
6380
3E00
ENDCHAR
STARTCHAR Odieresis
ENCODING 214
SWIDTH 968 0
DWIDTH 10 0
BBX 9 10 0 0
BITMAP
1400
0000
3F00
6380
4080
C080
C080
4080
6380
3E00
ENDCHAR
STARTCHAR multiply
ENCODING 215
SWIDTH 690 0
DWIDTH 7 0
BBX 5 5 1 2
BITMAP
88
50
60
70
D8
ENDCHAR
STARTCHAR Oslash
ENCODING 216
SWIDTH 968 0
DWIDTH 10 0
BBX 9 10 0 -1
BITMAP
0080
3F00
6380
4280
C480
C880
5080
6380
3E00
4000
ENDCHAR
STARTCHAR Ugrave
ENCODING 217
SWIDTH 889 0
DWIDTH 9 0
BBX 7 10 1 0
BITMAP
30
08
82
82
82
82
82
82
C6
7C
ENDCHAR
STARTCHAR Uacute
ENCODING 218
SWIDTH 889 0
DWIDTH 9 0
BBX 7 10 1 0
BITMAP
18
20
82
82
82
82
82
82
C6
7C
ENDCHAR
STARTCHAR Ucircumflex
ENCODING 219
SWIDTH 889 0
DWIDTH 9 0
BBX 7 10 1 0
BITMAP
10
28
82
82
82
82
82
82
C6
7C
ENDCHAR
STARTCHAR Udieresis
ENCODING 220
SWIDTH 889 0
DWIDTH 9 0
BBX 7 10 1 0
BITMAP
28
00
82
82
82
82
82
82
C6
7C
ENDCHAR
STARTCHAR Yacute
ENCODING 221
SWIDTH 926 0
DWIDTH 9 0
BBX 9 10 0 0
BITMAP
0C00
1000
C180
6300
3200
1C00
0C00
0800
0800
0800
ENDCHAR
STARTCHAR Thorn
ENCODING 222
SWIDTH 843 0
DWIDTH 8 0
BBX 7 8 1 0
BITMAP
80
FC
86
82
82
86
BC
80
ENDCHAR
STARTCHAR germandbls
ENCODING 223
SWIDTH 1760 0
DWIDTH 18 0
BBX 16 8 1 0
BITMAP
FE7F
80C0
80C0
FE7F
0201
0201
0203
FEFE
ENDCHAR
STARTCHAR agrave
ENCODING 224
SWIDTH 989 0
DWIDTH 10 0
BBX 10 10 0 0
BITMAP
1800
0400
0C00
0C00
1E00
1200
3300
2F00
4180
C0C0
ENDCHAR
STARTCHAR aacute
ENCODING 225
SWIDTH 989 0
DWIDTH 10 0
BBX 10 10 0 0
BITMAP
0600
1800
0C00
0C00
1E00
1200
3300
2F00
4180
C0C0
ENDCHAR
STARTCHAR acircumflex
ENCODING 226
SWIDTH 989 0
DWIDTH 10 0
BBX 10 10 0 0
BITMAP
0C00
0C00
0C00
0C00
1E00
1200
3300
2F00
4180
C0C0
ENDCHAR
STARTCHAR atilde
ENCODING 227
SWIDTH 989 0
DWIDTH 10 0
BBX 10 10 0 0
BITMAP
0C00
0000
0C00
0C00
1E00
1200
3300
2F00
4180
C0C0
ENDCHAR
STARTCHAR adieresis
ENCODING 228
SWIDTH 989 0
DWIDTH 10 0
BBX 10 10 0 0
BITMAP
0C00
0000
0C00
0C00
1E00
1200
3300
2F00
4180
C0C0
ENDCHAR
STARTCHAR aring
ENCODING 229
SWIDTH 989 0
DWIDTH 10 0
BBX 10 10 0 0
BITMAP
0C00
0C00
0C00
0C00
1E00
1200
3300
2F00
4180
C0C0
ENDCHAR
STARTCHAR ae
ENCODING 230
SWIDTH 1345 0
DWIDTH 13 0
BBX 13 8 0 0
BITMAP
0FF8
0900
1100
1178
2100
6F00
4100
C1F8
ENDCHAR
STARTCHAR ccedilla
ENCODING 231
SWIDTH 829 0
DWIDTH 8 0
BBX 8 11 0 -3
BITMAP
3F
60
40
C0
C0
40
60
3F
00
08
08
ENDCHAR
STARTCHAR egrave
ENCODING 232
SWIDTH 759 0
DWIDTH 8 0
BBX 6 10 1 0
BITMAP
60
10
FC
80
80
BC
80
80
80
FC
ENDCHAR
STARTCHAR eacute
ENCODING 233
SWIDTH 759 0
DWIDTH 8 0
BBX 6 10 1 0
BITMAP
10
60
FC
80
80
BC
80
80
80
FC
ENDCHAR
STARTCHAR ecircumflex
ENCODING 234
SWIDTH 759 0
DWIDTH 8 0
BBX 6 10 1 0
BITMAP
20
30
FC
80
80
BC
80
80
80
FC
ENDCHAR
STARTCHAR edieresis
ENCODING 235
SWIDTH 759 0
DWIDTH 8 0
BBX 6 10 1 0
BITMAP
50
00
FC
80
80
BC
80
80
80
FC
ENDCHAR
STARTCHAR igrave
ENCODING 236
SWIDTH 267 0
DWIDTH 3 0
BBX 2 10 0 0
BITMAP
80
40
40
40
40
40
40
40
40
40
ENDCHAR
STARTCHAR iacute
ENCODING 237
SWIDTH 267 0
DWIDTH 3 0
BBX 3 10 0 0
BITMAP
60
80
40
40
40
40
40
40
40
40
ENDCHAR
STARTCHAR icircumflex
ENCODING 238
SWIDTH 267 0
DWIDTH 3 0
BBX 3 10 0 0
BITMAP
40
C0
60
40
40
40
40
40
40
40
ENDCHAR
STARTCHAR idieresis
ENCODING 239
SWIDTH 267 0
DWIDTH 3 0
BBX 3 10 0 0
BITMAP
A0
00
40
40
40
40
40
40
40
40
ENDCHAR
STARTCHAR eth
ENCODING 240
SWIDTH 877 0
DWIDTH 9 0
BBX 8 8 0 0
BITMAP
7E
43
41
F9
41
41
43
7E
ENDCHAR
STARTCHAR ntilde
ENCODING 241
SWIDTH 873 0
DWIDTH 9 0
BBX 7 10 1 0
BITMAP
38
00
82
C2
E2
B2
9A
8E
86
82
ENDCHAR
STARTCHAR ograve
ENCODING 242
SWIDTH 968 0
DWIDTH 10 0
BBX 9 10 0 0
BITMAP
1800
0400
3F00
6380
4080
C080
C080
4080
6380
3E00
ENDCHAR
STARTCHAR oacute
ENCODING 243
SWIDTH 968 0
DWIDTH 10 0
BBX 9 10 0 0
BITMAP
0400
1800
3F00
6380
4080
C080
C080
4080
6380
3E00
ENDCHAR
STARTCHAR ocircumflex
ENCODING 244
SWIDTH 968 0
DWIDTH 10 0
BBX 9 10 0 0
BITMAP
0C00
0C00
3F00
6380
4080
C080
C080
4080
6380
3E00
ENDCHAR
STARTCHAR otilde
ENCODING 245
SWIDTH 968 0
DWIDTH 10 0
BBX 9 10 0 0
BITMAP
0C00
0000
3F00
6380
4080
C080
C080
4080
6380
3E00
ENDCHAR
STARTCHAR odieresis
ENCODING 246
SWIDTH 968 0
DWIDTH 10 0
BBX 9 10 0 0
BITMAP
1400
0000
3F00
6380
4080
C080
C080
4080
6380
3E00
ENDCHAR
STARTCHAR divide
ENCODING 247
SWIDTH 690 0
DWIDTH 7 0
BBX 5 7 1 0
BITMAP
20
00
F8
00
00
00
20
ENDCHAR
STARTCHAR oslash
ENCODING 248
SWIDTH 968 0
DWIDTH 10 0
BBX 9 10 0 -1
BITMAP
0080
3F00
6380
4280
C480
C880
5080
6380
3E00
4000
ENDCHAR
STARTCHAR ugrave
ENCODING 249
SWIDTH 889 0
DWIDTH 9 0
BBX 7 10 1 0
BITMAP
30
08
82
82
82
82
82
82
C6
7C
ENDCHAR
STARTCHAR uacute
ENCODING 250
SWIDTH 889 0
DWIDTH 9 0
BBX 7 10 1 0
BITMAP
18
20
82
82
82
82
82
82
C6
7C
ENDCHAR
STARTCHAR ucircumflex
ENCODING 251
SWIDTH 889 0
DWIDTH 9 0
BBX 7 10 1 0
BITMAP
10
28
82
82
82
82
82
82
C6
7C
ENDCHAR
STARTCHAR udieresis
ENCODING 252
SWIDTH 889 0
DWIDTH 9 0
BBX 7 10 1 0
BITMAP
28
00
82
82
82
82
82
82
C6
7C
ENDCHAR
STARTCHAR yacute
ENCODING 253
SWIDTH 926 0
DWIDTH 9 0
BBX 9 10 0 0
BITMAP
0C00
1000
C180
6300
3200
1C00
0C00
0800
0800
0800
ENDCHAR
STARTCHAR thorn
ENCODING 254
SWIDTH 843 0
DWIDTH 8 0
BBX 7 8 1 0
BITMAP
80
FC
86
82
82
86
BC
80
ENDCHAR
STARTCHAR ydieresis
ENCODING 255
SWIDTH 926 0
DWIDTH 9 0
BBX 9 10 0 0
BITMAP
1400
0000
C180
6300
3200
1C00
0C00
0800
0800
0800
ENDCHAR
STARTCHAR Amacron
ENCODING 256
SWIDTH 989 0
DWIDTH 10 0
BBX 10 10 0 0
BITMAP
0C00
0000
0C00
0C00
1E00
1200
3300
2F00
4180
C0C0
ENDCHAR
STARTCHAR amacron
ENCODING 257
SWIDTH 989 0
DWIDTH 10 0
BBX 10 10 0 0
BITMAP
0C00
0000
0C00
0C00
1E00
1200
3300
2F00
4180
C0C0
ENDCHAR
STARTCHAR Abreve
ENCODING 258
SWIDTH 989 0
DWIDTH 10 0
BBX 10 9 0 0
BITMAP
0C00
0C00
0C00
1E00
1200
3300
2F00
4180
C0C0
ENDCHAR
STARTCHAR abreve
ENCODING 259
SWIDTH 989 0
DWIDTH 10 0
BBX 10 9 0 0
BITMAP
0C00
0C00
0C00
1E00
1200
3300
2F00
4180
C0C0
ENDCHAR
STARTCHAR Aogonek
ENCODING 260
SWIDTH 989 0
DWIDTH 10 0
BBX 10 10 0 -2
BITMAP
0C00
0C00
1E00
1200
3300
2F00
4180
C0C0
0080
00C0
ENDCHAR
STARTCHAR aogonek
ENCODING 261
SWIDTH 989 0
DWIDTH 10 0
BBX 10 10 0 -2
BITMAP
0C00
0C00
1E00
1200
3300
2F00
4180
C0C0
0080
00C0
ENDCHAR
STARTCHAR Cacute
ENCODING 262
SWIDTH 829 0
DWIDTH 8 0
BBX 8 10 0 0
BITMAP
0C
10
3F
60
40
C0
C0
40
60
3F
ENDCHAR
STARTCHAR cacute
ENCODING 263
SWIDTH 829 0
DWIDTH 8 0
BBX 8 10 0 0
BITMAP
0C
10
3F
60
40
C0
C0
40
60
3F
ENDCHAR
STARTCHAR Cdotaccent
ENCODING 266
SWIDTH 829 0
DWIDTH 8 0
BBX 8 10 0 0
BITMAP
08
00
3F
60
40
C0
C0
40
60
3F
ENDCHAR
STARTCHAR cdotaccent
ENCODING 267
SWIDTH 829 0
DWIDTH 8 0
BBX 8 10 0 0
BITMAP
08
00
3F
60
40
C0
C0
40
60
3F
ENDCHAR
STARTCHAR Ccaron
ENCODING 268
SWIDTH 829 0
DWIDTH 8 0
BBX 8 9 0 0
BITMAP
1C
3F
60
40
C0
C0
40
60
3F
ENDCHAR
STARTCHAR ccaron
ENCODING 269
SWIDTH 829 0
DWIDTH 8 0
BBX 8 9 0 0
BITMAP
1C
3F
60
40
C0
C0
40
60
3F
ENDCHAR
STARTCHAR Dcaron
ENCODING 270
SWIDTH 879 0
DWIDTH 9 0
BBX 7 9 1 0
BITMAP
30
FC
86
82
82
82
82
86
FC
ENDCHAR
STARTCHAR dcaron
ENCODING 271
SWIDTH 879 0
DWIDTH 9 0
BBX 7 9 1 0
BITMAP
30
FC
86
82
82
82
82
86
FC
ENDCHAR
STARTCHAR Dcroat
ENCODING 272
SWIDTH 877 0
DWIDTH 9 0
BBX 8 8 0 0
BITMAP
7E
43
41
F9
41
41
43
7E
ENDCHAR
STARTCHAR dcroat
ENCODING 273
SWIDTH 877 0
DWIDTH 9 0
BBX 8 8 0 0
BITMAP
7E
43
41
F9
41
41
43
7E
ENDCHAR
STARTCHAR Emacron
ENCODING 274
SWIDTH 759 0
DWIDTH 8 0
BBX 6 10 1 0
BITMAP
30
00
FC
80
80
BC
80
80
80
FC
ENDCHAR
STARTCHAR emacron
ENCODING 275
SWIDTH 759 0
DWIDTH 8 0
BBX 6 10 1 0
BITMAP
30
00
FC
80
80
BC
80
80
80
FC
ENDCHAR
STARTCHAR Ebreve
ENCODING 276
SWIDTH 759 0
DWIDTH 8 0
BBX 6 9 1 0
BITMAP
70
FC
80
80
BC
80
80
80
FC
ENDCHAR
STARTCHAR ebreve
ENCODING 277
SWIDTH 759 0
DWIDTH 8 0
BBX 6 9 1 0
BITMAP
70
FC
80
80
BC
80
80
80
FC
ENDCHAR
STARTCHAR Edotaccent
ENCODING 278
SWIDTH 759 0
DWIDTH 8 0
BBX 6 10 1 0
BITMAP
20
00
FC
80
80
BC
80
80
80
FC
ENDCHAR
STARTCHAR edotaccent
ENCODING 279
SWIDTH 759 0
DWIDTH 8 0
BBX 6 10 1 0
BITMAP
20
00
FC
80
80
BC
80
80
80
FC
ENDCHAR
STARTCHAR Eogonek
ENCODING 280
SWIDTH 759 0
DWIDTH 8 0
BBX 6 10 1 -2
BITMAP
FC
80
80
BC
80
80
80
FC
04
0C
ENDCHAR
STARTCHAR eogonek
ENCODING 281
SWIDTH 759 0
DWIDTH 8 0
BBX 6 10 1 -2
BITMAP
FC
80
80
BC
80
80
80
FC
04
0C
ENDCHAR
STARTCHAR Ecaron
ENCODING 282
SWIDTH 759 0
DWIDTH 8 0
BBX 6 9 1 0
BITMAP
70
FC
80
80
BC
80
80
80
FC
ENDCHAR
STARTCHAR ecaron
ENCODING 283
SWIDTH 759 0
DWIDTH 8 0
BBX 6 9 1 0
BITMAP
70
FC
80
80
BC
80
80
80
FC
ENDCHAR
STARTCHAR Gbreve
ENCODING 286
SWIDTH 888 0
DWIDTH 9 0
BBX 8 9 0 0
BITMAP
1C
3F
60
40
CF
C1
41
61
3F
ENDCHAR
STARTCHAR gbreve
ENCODING 287
SWIDTH 888 0
DWIDTH 9 0
BBX 8 9 0 0
BITMAP
1C
3F
60
40
CF
C1
41
61
3F
ENDCHAR
STARTCHAR Gdotaccent
ENCODING 288
SWIDTH 888 0
DWIDTH 9 0
BBX 8 10 0 0
BITMAP
08
00
3F
60
40
CF
C1
41
61
3F
ENDCHAR
STARTCHAR gdotaccent
ENCODING 289
SWIDTH 888 0
DWIDTH 9 0
BBX 8 10 0 0
BITMAP
08
00
3F
60
40
CF
C1
41
61
3F
ENDCHAR
STARTCHAR Gcommaaccent
ENCODING 290
SWIDTH 888 0
DWIDTH 9 0
BBX 8 11 0 -3
BITMAP
3F
60
40
CF
C1
41
61
3F
00
08
08
ENDCHAR
STARTCHAR gcommaaccent
ENCODING 291
SWIDTH 888 0
DWIDTH 9 0
BBX 8 11 0 -3
BITMAP
3F
60
40
CF
C1
41
61
3F
00
08
08
ENDCHAR
STARTCHAR Hbar
ENCODING 294
SWIDTH 838 0
DWIDTH 8 0
BBX 7 8 1 0
BITMAP
86
BE
86
BE
86
86
86
86
ENDCHAR
STARTCHAR hbar
ENCODING 295
SWIDTH 838 0
DWIDTH 8 0
BBX 7 8 1 0
BITMAP
86
BE
86
BE
86
86
86
86
ENDCHAR
STARTCHAR uni012A
ENCODING 298
SWIDTH 267 0
DWIDTH 3 0
BBX 3 10 0 0
BITMAP
E0
00
40
40
40
40
40
40
40
40
ENDCHAR
STARTCHAR imacron
ENCODING 299
SWIDTH 267 0
DWIDTH 3 0
BBX 3 10 0 0
BITMAP
E0
00
40
40
40
40
40
40
40
40
ENDCHAR
STARTCHAR Ibreve
ENCODING 300
SWIDTH 267 0
DWIDTH 3 0
BBX 3 9 0 0
BITMAP
E0
40
40
40
40
40
40
40
40
ENDCHAR
STARTCHAR ibreve
ENCODING 301
SWIDTH 267 0
DWIDTH 3 0
BBX 3 9 0 0
BITMAP
E0
40
40
40
40
40
40
40
40
ENDCHAR
STARTCHAR Iogonek
ENCODING 302
SWIDTH 267 0
DWIDTH 3 0
BBX 2 10 0 -2
BITMAP
40
40
40
40
40
40
40
40
80
C0
ENDCHAR
STARTCHAR iogonek
ENCODING 303
SWIDTH 267 0
DWIDTH 3 0
BBX 2 10 0 -2
BITMAP
40
40
40
40
40
40
40
40
80
C0
ENDCHAR
STARTCHAR Idotaccent
ENCODING 304
SWIDTH 267 0
DWIDTH 3 0
BBX 1 10 1 0
BITMAP
80
00
80
80
80
80
80
80
80
80
ENDCHAR
STARTCHAR dotlessi
ENCODING 305
SWIDTH 267 0
DWIDTH 3 0
BBX 1 8 1 0
BITMAP
80
80
80
80
80
80
80
80
ENDCHAR
STARTCHAR IJ
ENCODING 306
SWIDTH 975 0
DWIDTH 10 0
BBX 8 8 1 0
BITMAP
81
81
81
81
81
81
83
BE
ENDCHAR
STARTCHAR ij
ENCODING 307
SWIDTH 975 0
DWIDTH 10 0
BBX 8 8 1 0
BITMAP
81
81
81
81
81
81
83
BE
ENDCHAR
STARTCHAR Kcommaaccent
ENCODING 310
SWIDTH 875 0
DWIDTH 9 0
BBX 8 11 1 -3
BITMAP
86
8C
B0
E0
A0
98
8C
87
00
10
10
ENDCHAR
STARTCHAR kcommaaccent
ENCODING 311
SWIDTH 875 0
DWIDTH 9 0
BBX 8 11 1 -3
BITMAP
86
8C
B0
E0
A0
98
8C
87
00
10
10
ENDCHAR
STARTCHAR Lacute
ENCODING 313
SWIDTH 707 0
DWIDTH 7 0
BBX 7 10 0 0
BITMAP
60
80
40
40
40
40
40
40
40
7E
ENDCHAR
STARTCHAR lacute
ENCODING 314
SWIDTH 707 0
DWIDTH 7 0
BBX 7 10 0 0
BITMAP
60
80
40
40
40
40
40
40
40
7E
ENDCHAR
STARTCHAR Lcommaaccent
ENCODING 315
SWIDTH 707 0
DWIDTH 7 0
BBX 6 11 1 -3
BITMAP
80
80
80
80
80
80
80
FC
00
20
20
ENDCHAR
STARTCHAR lcommaaccent
ENCODING 316
SWIDTH 707 0
DWIDTH 7 0
BBX 6 11 1 -3
BITMAP
80
80
80
80
80
80
80
FC
00
20
20
ENDCHAR
STARTCHAR Lcaron
ENCODING 317
SWIDTH 707 0
DWIDTH 7 0
BBX 6 8 1 0
BITMAP
A0
A0
A0
80
80
80
80
FC
ENDCHAR
STARTCHAR lcaron
ENCODING 318
SWIDTH 707 0
DWIDTH 7 0
BBX 6 8 1 0
BITMAP
A0
A0
A0
80
80
80
80
FC
ENDCHAR
STARTCHAR Ldot
ENCODING 319
SWIDTH 707 0
DWIDTH 7 0
BBX 6 8 1 0
BITMAP
80
80
80
A0
80
80
80
FC
ENDCHAR
STARTCHAR ldot
ENCODING 320
SWIDTH 707 0
DWIDTH 7 0
BBX 6 8 1 0
BITMAP
80
80
80
A0
80
80
80
FC
ENDCHAR
STARTCHAR Lslash
ENCODING 321
SWIDTH 707 0
DWIDTH 7 0
BBX 6 8 1 0
BITMAP
80
80
90
F0
C0
80
80
FC
ENDCHAR
STARTCHAR lslash
ENCODING 322
SWIDTH 707 0
DWIDTH 7 0
BBX 6 8 1 0
BITMAP
80
80
90
F0
C0
80
80
FC
ENDCHAR
STARTCHAR Nacute
ENCODING 323
SWIDTH 873 0
DWIDTH 9 0
BBX 7 10 1 0
BITMAP
18
20
82
C2
E2
B2
9A
8E
86
82
ENDCHAR
STARTCHAR nacute
ENCODING 324
SWIDTH 873 0
DWIDTH 9 0
BBX 7 10 1 0
BITMAP
18
20
82
C2
E2
B2
9A
8E
86
82
ENDCHAR
STARTCHAR Ncommaaccent
ENCODING 325
SWIDTH 873 0
DWIDTH 9 0
BBX 7 11 1 -3
BITMAP
82
C2
E2
B2
9A
8E
86
82
00
10
10
ENDCHAR
STARTCHAR ncommaaccent
ENCODING 326
SWIDTH 873 0
DWIDTH 9 0
BBX 7 11 1 -3
BITMAP
82
C2
E2
B2
9A
8E
86
82
00
10
10
ENDCHAR
STARTCHAR Ncaron
ENCODING 327
SWIDTH 873 0
DWIDTH 9 0
BBX 7 9 1 0
BITMAP
38
82
C2
E2
B2
9A
8E
86
82
ENDCHAR
STARTCHAR ncaron
ENCODING 328
SWIDTH 873 0
DWIDTH 9 0
BBX 7 9 1 0
BITMAP
38
82
C2
E2
B2
9A
8E
86
82
ENDCHAR
STARTCHAR Eng
ENCODING 330
SWIDTH 873 0
DWIDTH 9 0
BBX 7 10 1 -2
BITMAP
82
C2
E2
B2
9A
8E
86
82
06
1C
ENDCHAR
STARTCHAR eng
ENCODING 331
SWIDTH 873 0
DWIDTH 9 0
BBX 7 10 1 -2
BITMAP
82
C2
E2
B2
9A
8E
86
82
06
1C
ENDCHAR
STARTCHAR Omacron
ENCODING 332
SWIDTH 968 0
DWIDTH 10 0
BBX 9 10 0 0
BITMAP
0C00
0000
3F00
6380
4080
C080
C080
4080
6380
3E00
ENDCHAR
STARTCHAR omacron
ENCODING 333
SWIDTH 968 0
DWIDTH 10 0
BBX 9 10 0 0
BITMAP
0C00
0000
3F00
6380
4080
C080
C080
4080
6380
3E00
ENDCHAR
STARTCHAR Obreve
ENCODING 334
SWIDTH 968 0
DWIDTH 10 0
BBX 9 9 0 0
BITMAP
1C00
3F00
6380
4080
C080
C080
4080
6380
3E00
ENDCHAR
STARTCHAR obreve
ENCODING 335
SWIDTH 968 0
DWIDTH 10 0
BBX 9 9 0 0
BITMAP
1C00
3F00
6380
4080
C080
C080
4080
6380
3E00
ENDCHAR
STARTCHAR Ohungarumlaut
ENCODING 336
SWIDTH 968 0
DWIDTH 10 0
BBX 9 10 0 0
BITMAP
0E00
0000
3F00
6380
4080
C080
C080
4080
6380
3E00
ENDCHAR
STARTCHAR ohungarumlaut
ENCODING 337
SWIDTH 968 0
DWIDTH 10 0
BBX 9 10 0 0
BITMAP
0E00
0000
3F00
6380
4080
C080
C080
4080
6380
3E00
ENDCHAR
STARTCHAR OE
ENCODING 338
SWIDTH 1304 0
DWIDTH 13 0
BBX 13 8 0 0
BITMAP
3FF8
6300
4300
C370
C300
4300
6300
3FF8
ENDCHAR
STARTCHAR oe
ENCODING 339
SWIDTH 1304 0
DWIDTH 13 0
BBX 13 8 0 0
BITMAP
3FF8
6300
4300
C370
C300
4300
6300
3FF8
ENDCHAR
STARTCHAR Racute
ENCODING 340
SWIDTH 921 0
DWIDTH 9 0
BBX 8 10 1 0
BITMAP
18
20
FC
86
82
82
82
BE
84
83
ENDCHAR
STARTCHAR racute
ENCODING 341
SWIDTH 921 0
DWIDTH 9 0
BBX 8 10 1 0
BITMAP
18
20
FC
86
82
82
82
BE
84
83
ENDCHAR
STARTCHAR Rcommaaccent
ENCODING 342
SWIDTH 921 0
DWIDTH 9 0
BBX 8 11 1 -3
BITMAP
FC
86
82
82
82
BE
84
83
00
10
10
ENDCHAR
STARTCHAR rcommaaccent
ENCODING 343
SWIDTH 921 0
DWIDTH 9 0
BBX 8 11 1 -3
BITMAP
FC
86
82
82
82
BE
84
83
00
10
10
ENDCHAR
STARTCHAR Rcaron
ENCODING 344
SWIDTH 921 0
DWIDTH 9 0
BBX 8 9 1 0
BITMAP
38
FC
86
82
82
82
BE
84
83
ENDCHAR
STARTCHAR rcaron
ENCODING 345
SWIDTH 921 0
DWIDTH 9 0
BBX 8 9 1 0
BITMAP
38
FC
86
82
82
82
BE
84
83
ENDCHAR
STARTCHAR Sacute
ENCODING 346
SWIDTH 880 0
DWIDTH 9 0
BBX 7 10 1 0
BITMAP
18
20
FE
80
80
FE
02
02
02
FE
ENDCHAR
STARTCHAR sacute
ENCODING 347
SWIDTH 880 0
DWIDTH 9 0
BBX 7 10 1 0
BITMAP
18
20
FE
80
80
FE
02
02
02
FE
ENDCHAR
STARTCHAR Scedilla
ENCODING 350
SWIDTH 880 0
DWIDTH 9 0
BBX 7 11 1 -3
BITMAP
FE
80
80
FE
02
02
02
FE
00
10
10
ENDCHAR
STARTCHAR scedilla
ENCODING 351
SWIDTH 880 0
DWIDTH 9 0
BBX 7 11 1 -3
BITMAP
FE
80
80
FE
02
02
02
FE
00
10
10
ENDCHAR
STARTCHAR Scaron
ENCODING 352
SWIDTH 880 0
DWIDTH 9 0
BBX 7 9 1 0
BITMAP
38
FE
80
80
FE
02
02
02
FE
ENDCHAR
STARTCHAR scaron
ENCODING 353
SWIDTH 880 0
DWIDTH 9 0
BBX 7 9 1 0
BITMAP
38
FE
80
80
FE
02
02
02
FE
ENDCHAR
STARTCHAR Tcommaaccent
ENCODING 354
SWIDTH 720 0
DWIDTH 7 0
BBX 7 11 0 -3
BITMAP
FE
10
10
10
10
10
10
10
00
10
10
ENDCHAR
STARTCHAR tcommaaccent
ENCODING 355
SWIDTH 720 0
DWIDTH 7 0
BBX 7 11 0 -3
BITMAP
FE
10
10
10
10
10
10
10
00
10
10
ENDCHAR
STARTCHAR Tcaron
ENCODING 356
SWIDTH 720 0
DWIDTH 7 0
BBX 7 9 0 0
BITMAP
38
FE
10
10
10
10
10
10
10
ENDCHAR
STARTCHAR tcaron
ENCODING 357
SWIDTH 720 0
DWIDTH 7 0
BBX 7 9 0 0
BITMAP
38
FE
10
10
10
10
10
10
10
ENDCHAR
STARTCHAR Tbar
ENCODING 358
SWIDTH 720 0
DWIDTH 7 0
BBX 7 8 0 0
BITMAP
FE
10
10
10
38
10
10
10
ENDCHAR
STARTCHAR tbar
ENCODING 359
SWIDTH 720 0
DWIDTH 7 0
BBX 7 8 0 0
BITMAP
FE
10
10
10
38
10
10
10
ENDCHAR
STARTCHAR Utilde
ENCODING 360
SWIDTH 889 0
DWIDTH 9 0
BBX 7 10 1 0
BITMAP
38
00
82
82
82
82
82
82
C6
7C
ENDCHAR
STARTCHAR utilde
ENCODING 361
SWIDTH 889 0
DWIDTH 9 0
BBX 7 10 1 0
BITMAP
38
00
82
82
82
82
82
82
C6
7C
ENDCHAR
STARTCHAR Umacron
ENCODING 362
SWIDTH 889 0
DWIDTH 9 0
BBX 7 10 1 0
BITMAP
38
00
82
82
82
82
82
82
C6
7C
ENDCHAR
STARTCHAR umacron
ENCODING 363
SWIDTH 889 0
DWIDTH 9 0
BBX 7 10 1 0
BITMAP
38
00
82
82
82
82
82
82
C6
7C
ENDCHAR
STARTCHAR Ubreve
ENCODING 364
SWIDTH 889 0
DWIDTH 9 0
BBX 7 9 1 0
BITMAP
38
82
82
82
82
82
82
C6
7C
ENDCHAR
STARTCHAR ubreve
ENCODING 365
SWIDTH 889 0
DWIDTH 9 0
BBX 7 9 1 0
BITMAP
38
82
82
82
82
82
82
C6
7C
ENDCHAR
STARTCHAR Uring
ENCODING 366
SWIDTH 889 0
DWIDTH 9 0
BBX 7 10 1 0
BITMAP
38
38
82
82
82
82
82
82
C6
7C
ENDCHAR
STARTCHAR uring
ENCODING 367
SWIDTH 889 0
DWIDTH 9 0
BBX 7 10 1 0
BITMAP
38
38
82
82
82
82
82
82
C6
7C
ENDCHAR
STARTCHAR Uhungarumlaut
ENCODING 368
SWIDTH 889 0
DWIDTH 9 0
BBX 7 10 1 0
BITMAP
38
00
82
82
82
82
82
82
C6
7C
ENDCHAR
STARTCHAR uhungarumlaut
ENCODING 369
SWIDTH 889 0
DWIDTH 9 0
BBX 7 10 1 0
BITMAP
38
00
82
82
82
82
82
82
C6
7C
ENDCHAR
STARTCHAR Uogonek
ENCODING 370
SWIDTH 889 0
DWIDTH 9 0
BBX 7 10 1 -2
BITMAP
82
82
82
82
82
82
C6
78
10
30
ENDCHAR
STARTCHAR uogonek
ENCODING 371
SWIDTH 889 0
DWIDTH 9 0
BBX 7 10 1 -2
BITMAP
82
82
82
82
82
82
C6
78
10
30
ENDCHAR
STARTCHAR Wcircumflex
ENCODING 372
SWIDTH 1268 0
DWIDTH 13 0
BBX 13 10 0 0
BITMAP
0200
0600
CD18
4430
6420
2660
3640
17C0
1D80
0980
ENDCHAR
STARTCHAR wcircumflex
ENCODING 373
SWIDTH 1268 0
DWIDTH 13 0
BBX 13 10 0 0
BITMAP
0200
0600
CD18
4430
6420
2660
3640
17C0
1D80
0980
ENDCHAR
STARTCHAR Ycircumflex
ENCODING 374
SWIDTH 926 0
DWIDTH 9 0
BBX 9 10 0 0
BITMAP
0800
0C00
D180
6300
3200
1C00
0C00
0800
0800
0800
ENDCHAR
STARTCHAR ycircumflex
ENCODING 375
SWIDTH 926 0
DWIDTH 9 0
BBX 9 10 0 0
BITMAP
0800
0C00
D180
6300
3200
1C00
0C00
0800
0800
0800
ENDCHAR
STARTCHAR Ydieresis
ENCODING 376
SWIDTH 926 0
DWIDTH 9 0
BBX 9 10 0 0
BITMAP
1400
0000
C180
6300
3200
1C00
0C00
0800
0800
0800
ENDCHAR
STARTCHAR Zacute
ENCODING 377
SWIDTH 802 0
DWIDTH 8 0
BBX 8 10 0 0
BITMAP
0C
10
FF
06
0C
08
10
20
60
FF
ENDCHAR
STARTCHAR zacute
ENCODING 378
SWIDTH 802 0
DWIDTH 8 0
BBX 8 10 0 0
BITMAP
0C
10
FF
06
0C
08
10
20
60
FF
ENDCHAR
STARTCHAR Zdotaccent
ENCODING 379
SWIDTH 802 0
DWIDTH 8 0
BBX 8 10 0 0
BITMAP
18
00
FF
06
0C
08
10
20
60
FF
ENDCHAR
STARTCHAR zdotaccent
ENCODING 380
SWIDTH 802 0
DWIDTH 8 0
BBX 8 10 0 0
BITMAP
18
00
FF
06
0C
08
10
20
60
FF
ENDCHAR
STARTCHAR Zcaron
ENCODING 381
SWIDTH 802 0
DWIDTH 8 0
BBX 8 9 0 0
BITMAP
18
FF
06
0C
08
10
20
60
FF
ENDCHAR
STARTCHAR zcaron
ENCODING 382
SWIDTH 802 0
DWIDTH 8 0
BBX 8 9 0 0
BITMAP
18
FF
06
0C
08
10
20
60
FF
ENDCHAR
STARTCHAR Scommaaccent
ENCODING 536
SWIDTH 880 0
DWIDTH 9 0
BBX 7 11 1 -3
BITMAP
FE
80
80
FE
02
02
02
FE
00
10
10
ENDCHAR
STARTCHAR scommaaccent
ENCODING 537
SWIDTH 880 0
DWIDTH 9 0
BBX 7 11 1 -3
BITMAP
FE
80
80
FE
02
02
02
FE
00
10
10
ENDCHAR
STARTCHAR uni021A
ENCODING 538
SWIDTH 720 0
DWIDTH 7 0
BBX 7 11 0 -3
BITMAP
FE
10
10
10
10
10
10
10
00
10
10
ENDCHAR
STARTCHAR uni021B
ENCODING 539
SWIDTH 720 0
DWIDTH 7 0
BBX 7 11 0 -3
BITMAP
FE
10
10
10
10
10
10
10
00
10
10
ENDCHAR
STARTCHAR circumflex
ENCODING 710
SWIDTH 379 0
DWIDTH 4 0
BBX 2 2 1 8
BITMAP
C0
C0
ENDCHAR
STARTCHAR caron
ENCODING 711
SWIDTH 379 0
DWIDTH 4 0
BBX 2 1 1 8
BITMAP
C0
ENDCHAR
STARTCHAR breve
ENCODING 728
SWIDTH 382 0
DWIDTH 4 0
BBX 2 1 1 8
BITMAP
C0
ENDCHAR
STARTCHAR dotaccent
ENCODING 729
SWIDTH 208 0
DWIDTH 2 0
BBX 1 1 1 9
BITMAP
80
ENDCHAR
STARTCHAR ring
ENCODING 730
SWIDTH 362 0
DWIDTH 4 0
BBX 2 2 1 8
BITMAP
C0
C0
ENDCHAR
STARTCHAR ogonek
ENCODING 731
SWIDTH 234 0
DWIDTH 2 0
BBX 2 2 0 -2
BITMAP
C0
C0
ENDCHAR
STARTCHAR tilde
ENCODING 732
SWIDTH 362 0
DWIDTH 4 0
BBX 2 1 1 9
BITMAP
C0
ENDCHAR
STARTCHAR hungarumlaut
ENCODING 733
SWIDTH 399 0
DWIDTH 4 0
BBX 2 1 1 9
BITMAP
C0
ENDCHAR
STARTCHAR commaaccent
ENCODING 806
SWIDTH 219 0
DWIDTH 2 0
BBX 2 2 0 -3
BITMAP
C0
40
ENDCHAR
STARTCHAR Wgrave
ENCODING 7808
SWIDTH 1268 0
DWIDTH 13 0
BBX 13 10 0 0
BITMAP
0600
0100
CC18
4430
6420
2660
3640
17C0
1D80
0980
ENDCHAR
STARTCHAR wgrave
ENCODING 7809
SWIDTH 1268 0
DWIDTH 13 0
BBX 13 10 0 0
BITMAP
0600
0100
CC18
4430
6420
2660
3640
17C0
1D80
0980
ENDCHAR
STARTCHAR Wacute
ENCODING 7810
SWIDTH 1268 0
DWIDTH 13 0
BBX 13 10 0 0
BITMAP
0300
0400
CC18
4430
6420
2660
3640
17C0
1D80
0980
ENDCHAR
STARTCHAR wacute
ENCODING 7811
SWIDTH 1268 0
DWIDTH 13 0
BBX 13 10 0 0
BITMAP
0300
0400
CC18
4430
6420
2660
3640
17C0
1D80
0980
ENDCHAR
STARTCHAR Wdieresis
ENCODING 7812
SWIDTH 1268 0
DWIDTH 13 0
BBX 13 10 0 0
BITMAP
0500
0000
CC18
4430
6420
2660
3640
17C0
1D80
0980
ENDCHAR
STARTCHAR wdieresis
ENCODING 7813
SWIDTH 1268 0
DWIDTH 13 0
BBX 13 10 0 0
BITMAP
0500
0000
CC18
4430
6420
2660
3640
17C0
1D80
0980
ENDCHAR
STARTCHAR Ygrave
ENCODING 7922
SWIDTH 926 0
DWIDTH 9 0
BBX 9 10 0 0
BITMAP
1800
0400
C180
6300
3200
1C00
0C00
0800
0800
0800
ENDCHAR
STARTCHAR ygrave
ENCODING 7923
SWIDTH 926 0
DWIDTH 9 0
BBX 9 10 0 0
BITMAP
1800
0400
C180
6300
3200
1C00
0C00
0800
0800
0800
ENDCHAR
STARTCHAR endash
ENCODING 8211
SWIDTH 590 0
DWIDTH 6 0
BBX 6 1 0 4
BITMAP
FC
ENDCHAR
STARTCHAR emdash
ENCODING 8212
SWIDTH 866 0
DWIDTH 9 0
BBX 8 1 0 4
BITMAP
FF
ENDCHAR
STARTCHAR quoteleft
ENCODING 8216
SWIDTH 259 0
DWIDTH 3 0
BBX 1 3 1 5
BITMAP
80
80
80
ENDCHAR
STARTCHAR quoteright
ENCODING 8217
SWIDTH 259 0
DWIDTH 3 0
BBX 1 3 1 5
BITMAP
80
80
80
ENDCHAR
STARTCHAR quotesinglbase
ENCODING 8218
SWIDTH 259 0
DWIDTH 3 0
BBX 1 3 1 -1
BITMAP
80
80
80
ENDCHAR
STARTCHAR quotedblleft
ENCODING 8220
SWIDTH 462 0
DWIDTH 5 0
BBX 3 3 1 5
BITMAP
A0
A0
A0
ENDCHAR
STARTCHAR quotedblright
ENCODING 8221
SWIDTH 462 0
DWIDTH 5 0
BBX 3 3 1 5
BITMAP
A0
A0
A0
ENDCHAR
STARTCHAR quotedblbase
ENCODING 8222
SWIDTH 462 0
DWIDTH 5 0
BBX 3 3 1 -1
BITMAP
A0
A0
A0
ENDCHAR
STARTCHAR dagger
ENCODING 8224
SWIDTH 466 0
DWIDTH 5 0
BBX 3 8 1 0
BITMAP
40
E0
40
40
40
40
40
40
ENDCHAR
STARTCHAR daggerdbl
ENCODING 8225
SWIDTH 466 0
DWIDTH 5 0
BBX 3 8 1 0
BITMAP
40
E0
40
40
40
E0
40
40
ENDCHAR
STARTCHAR bullet
ENCODING 8226
SWIDTH 413 0
DWIDTH 4 0
BBX 3 3 1 2
BITMAP
C0
E0
C0
ENDCHAR
STARTCHAR ellipsis
ENCODING 8230
SWIDTH 1310 0
DWIDTH 13 0
BBX 11 1 1 0
BITMAP
8420
ENDCHAR
STARTCHAR perthousand
ENCODING 8240
SWIDTH 1314 0
DWIDTH 13 0
BBX 13 9 0 -1
BITMAP
7100
9200
D400
7400
0F70
1548
2548
2730
4000
ENDCHAR
STARTCHAR guilsinglleft
ENCODING 8249
SWIDTH 367 0
DWIDTH 4 0
BBX 3 4 0 2
BITMAP
20
C0
40
20
ENDCHAR
STARTCHAR guilsinglright
ENCODING 8250
SWIDTH 368 0
DWIDTH 4 0
BBX 3 4 0 2
BITMAP
C0
20
60
80
ENDCHAR
STARTCHAR fraction
ENCODING 8260
SWIDTH 185 0
DWIDTH 2 0
BBX 8 9 -3 -1
BITMAP
03
02
04
08
10
10
20
40
C0
ENDCHAR
STARTCHAR zerosuperior
ENCODING 8304
SWIDTH 449 0
DWIDTH 4 0
BBX 4 4 0 4
BITMAP
70
90
90
60
ENDCHAR
STARTCHAR foursuperior
ENCODING 8308
SWIDTH 452 0
DWIDTH 5 0
BBX 4 4 0 4
BITMAP
90
90
F0
10
ENDCHAR
STARTCHAR fivesuperior
ENCODING 8309
SWIDTH 472 0
DWIDTH 5 0
BBX 4 4 0 4
BITMAP
F0
F0
10
F0
ENDCHAR
STARTCHAR sixsuperior
ENCODING 8310
SWIDTH 466 0
DWIDTH 5 0
BBX 4 4 0 4
BITMAP
70
F0
90
70
ENDCHAR
STARTCHAR sevensuperior
ENCODING 8311
SWIDTH 408 0
DWIDTH 4 0
BBX 4 4 0 4
BITMAP
F0
20
20
C0
ENDCHAR
STARTCHAR eightsuperior
ENCODING 8312
SWIDTH 479 0
DWIDTH 5 0
BBX 4 4 0 4
BITMAP
F0
70
90
70
ENDCHAR
STARTCHAR ninesuperior
ENCODING 8313
SWIDTH 460 0
DWIDTH 5 0
BBX 4 4 0 4
BITMAP
70
90
70
70
ENDCHAR
STARTCHAR zeroinferior
ENCODING 8320
SWIDTH 449 0
DWIDTH 4 0
BBX 4 4 0 0
BITMAP
70
90
90
60
ENDCHAR
STARTCHAR oneinferior
ENCODING 8321
SWIDTH 222 0
DWIDTH 2 0
BBX 2 4 0 0
BITMAP
C0
40
40
40
ENDCHAR
STARTCHAR twoinferior
ENCODING 8322
SWIDTH 442 0
DWIDTH 4 0
BBX 4 4 0 0
BITMAP
F0
70
80
F0
ENDCHAR
STARTCHAR threeinferior
ENCODING 8323
SWIDTH 443 0
DWIDTH 4 0
BBX 4 4 0 0
BITMAP
F0
70
10
F0
ENDCHAR
STARTCHAR fourinferior
ENCODING 8324
SWIDTH 452 0
DWIDTH 5 0
BBX 4 4 0 0
BITMAP
90
90
F0
10
ENDCHAR
STARTCHAR fiveinferior
ENCODING 8325
SWIDTH 472 0
DWIDTH 5 0
BBX 4 4 0 0
BITMAP
F0
F0
10
F0
ENDCHAR
STARTCHAR sixinferior
ENCODING 8326
SWIDTH 466 0
DWIDTH 5 0
BBX 4 4 0 0
BITMAP
70
F0
90
70
ENDCHAR
STARTCHAR seveninferior
ENCODING 8327
SWIDTH 408 0
DWIDTH 4 0
BBX 4 4 0 0
BITMAP
F0
20
20
C0
ENDCHAR
STARTCHAR eightinferior
ENCODING 8328
SWIDTH 479 0
DWIDTH 5 0
BBX 4 4 0 0
BITMAP
F0
70
90
70
ENDCHAR
STARTCHAR nineinferior
ENCODING 8329
SWIDTH 460 0
DWIDTH 5 0
BBX 4 4 0 0
BITMAP
70
90
70
70
ENDCHAR
STARTCHAR Euro
ENCODING 8364
SWIDTH 884 0
DWIDTH 9 0
BBX 9 8 0 0
BITMAP
1F80
3000
6000
FE00
FC00
6000
3000
1F00
ENDCHAR
STARTCHAR uni2117
ENCODING 8471
SWIDTH 829 0
DWIDTH 8 0
BBX 8 8 0 0
BITMAP
3C
66
5D
A5
AD
61
66
3C
ENDCHAR
STARTCHAR trademark
ENCODING 8482
SWIDTH 536 0
DWIDTH 5 0
BBX 5 3 0 5
BITMAP
E8
68
58
ENDCHAR
STARTCHAR onethird
ENCODING 8531
SWIDTH 951 0
DWIDTH 10 0
BBX 9 9 0 -1
BITMAP
6100
2200
2400
2800
0F80
1380
2080
4780
C000
ENDCHAR
STARTCHAR twothirds
ENCODING 8532
SWIDTH 979 0
DWIDTH 10 0
BBX 9 9 0 -1
BITMAP
F100
7200
8200
F400
0B80
1180
1080
2380
4000
ENDCHAR
STARTCHAR oneeighth
ENCODING 8539
SWIDTH 985 0
DWIDTH 10 0
BBX 9 9 0 -1
BITMAP
6100
2200
2400
2800
0B80
1380
2480
4380
C000
ENDCHAR
STARTCHAR threeeighths
ENCODING 8540
SWIDTH 972 0
DWIDTH 10 0
BBX 9 9 0 -1
BITMAP
F100
7200
1200
F400
0F80
1380
1480
2380
4000
ENDCHAR
STARTCHAR fiveeighths
ENCODING 8541
SWIDTH 973 0
DWIDTH 10 0
BBX 9 9 0 -1
BITMAP
F100
F200
1200
F400
0F80
1380
1480
2380
4000
ENDCHAR
STARTCHAR seveneighths
ENCODING 8542
SWIDTH 965 0
DWIDTH 10 0
BBX 9 9 0 -1
BITMAP
7100
1200
2400
4800
0F80
1380
2480
4780
C000
ENDCHAR
STARTCHAR minus
ENCODING 8722
SWIDTH 690 0
DWIDTH 7 0
BBX 5 1 1 4
BITMAP
F8
ENDCHAR
STARTCHAR approxequal
ENCODING 8776
SWIDTH 691 0
DWIDTH 7 0
BBX 5 4 1 2
BITMAP
E8
B8
E8
B8
ENDCHAR
STARTCHAR notequal
ENCODING 8800
SWIDTH 690 0
DWIDTH 7 0
BBX 7 9 0 -1
BITMAP
02
04
7C
08
10
7C
20
40
80
ENDCHAR
STARTCHAR lessequal
ENCODING 8804
SWIDTH 690 0
DWIDTH 7 0
BBX 5 8 1 -1
BITMAP
08
38
C0
C0
30
08
00
F8
ENDCHAR
STARTCHAR greaterequal
ENCODING 8805
SWIDTH 690 0
DWIDTH 7 0
BBX 5 8 1 -1
BITMAP
80
E0
18
18
60
80
00
F8
ENDCHAR
STARTCHAR .notdef
ENCODING -1
SWIDTH 430 0
DWIDTH 4 0
BBX 3 8 1 0
BITMAP
E0
A0
A0
A0
A0
A0
A0
E0
ENDCHAR
STARTCHAR nonmarkingreturn
ENCODING -1
SWIDTH 104 0
DWIDTH 1 0
BBX 1 1 0 0
BITMAP
00
ENDCHAR
STARTCHAR .null
ENCODING -1
SWIDTH 104 0
DWIDTH 1 0
BBX 1 1 0 0
BITMAP
00
ENDCHAR
STARTCHAR .ttfautohint
ENCODING -1
SWIDTH 104 0
DWIDTH 1 0
BBX 1 1 0 0
BITMAP
00
ENDCHAR
ENDFONT
