STARTFONT 2.1
FONT -FontForge-Good Times Rg-Book-R-Normal--9-90-75-75-P-66-ISO10646-1
SIZE 9 75 75
FONTBOUNDINGBOX 18 11 -3 -2
COMMENT "Generated by fontforge, http://fontforge.sourceforge.net"
COMMENT "(c) 1998-2012 Typodermic Fonts Inc. See attached license agreement. If agreement is missing visit typodermicfonts.com for more info. Languages by Chikako Larabie"
STARTPROPERTIES 39
FOUNDRY "FontForge"
FAMILY_NAME "Good Times Rg"
WEIGHT_NAME "Book"
SLANT "R"
SETWIDTH_NAME "Normal"
ADD_STYLE_NAME ""
PIXEL_SIZE 9
POINT_SIZE 90
RESOLUTION_X 75
RESOLUTION_Y 75
SPACING "P"
AVERAGE_WIDTH 66
CHARSET_REGISTRY "ISO10646"
CHARSET_ENCODING "1"
FONTNAME_REGISTRY ""
CHARSET_COLLECTIONS "ISO8859-2 ISO8859-9 ISO8859-4 ISO10646-1"
FONT_NAME "GoodTimesRg-Regular"
FACE_NAME "GoodTimesRg-Regular"
COPYRIGHT "(c) 1998-2012 Typodermic Fonts Inc. See attached license agreement. If agreement is missing visit typodermicfonts.com for more info. Languages by Chikako Larabie"
FONT_VERSION "4.001"
FONT_ASCENT 7
FONT_DESCENT 2
UNDERLINE_POSITION -1
UNDERLINE_THICKNESS 1
X_HEIGHT 6
CAP_HEIGHT 6
RAW_ASCENT 799
RAW_DESCENT 201
NORM_SPACE 3
RELATIVE_WEIGHT 40
RELATIVE_SETWIDTH 50
SUPERSCRIPT_X 0
SUPERSCRIPT_Y 2
SUPERSCRIPT_SIZE 2
SUBSCRIPT_X 0
SUBSCRIPT_Y 0
SUBSCRIPT_SIZE 2
AVG_LOWERCASE_WIDTH 76
AVG_UPPERCASE_WIDTH 75
ENDPROPERTIES
CHARS 372
STARTCHAR space
ENCODING 32
SWIDTH 294 0
DWIDTH 3 0
BBX 1 1 0 0
BITMAP
00
ENDCHAR
STARTCHAR exclam
ENCODING 33
SWIDTH 298 0
DWIDTH 3 0
BBX 1 7 1 0
BITMAP
80
80
80
80
80
00
80
ENDCHAR
STARTCHAR quotedbl
ENCODING 34
SWIDTH 452 0
DWIDTH 4 0
BBX 2 3 1 4
BITMAP
C0
C0
C0
ENDCHAR
STARTCHAR numbersign
ENCODING 35
SWIDTH 697 0
DWIDTH 6 0
BBX 6 7 0 0
BITMAP
24
28
7C
28
F8
50
50
ENDCHAR
STARTCHAR dollar
ENCODING 36
SWIDTH 744 0
DWIDTH 7 0
BBX 5 7 1 0
BITMAP
20
F8
A0
F8
28
F8
20
ENDCHAR
STARTCHAR percent
ENCODING 37
SWIDTH 965 0
DWIDTH 9 0
BBX 8 8 0 -1
BITMAP
63
92
94
6F
15
15
27
40
ENDCHAR
STARTCHAR ampersand
ENCODING 38
SWIDTH 759 0
DWIDTH 7 0
BBX 7 7 0 0
BITMAP
70
40
40
7C
C8
C8
7E
ENDCHAR
STARTCHAR quotesingle
ENCODING 39
SWIDTH 255 0
DWIDTH 2 0
BBX 1 3 1 4
BITMAP
80
80
80
ENDCHAR
STARTCHAR parenleft
ENCODING 40
SWIDTH 356 0
DWIDTH 3 0
BBX 2 9 1 -1
BITMAP
40
80
80
80
80
80
80
80
40
ENDCHAR
STARTCHAR parenright
ENCODING 41
SWIDTH 355 0
DWIDTH 3 0
BBX 1 9 1 -1
BITMAP
80
80
80
80
80
80
80
80
80
ENDCHAR
STARTCHAR asterisk
ENCODING 42
SWIDTH 469 0
DWIDTH 4 0
BBX 3 3 1 4
BITMAP
40
E0
C0
ENDCHAR
STARTCHAR plus
ENCODING 43
SWIDTH 690 0
DWIDTH 6 0
BBX 5 5 1 1
BITMAP
20
20
F8
20
20
ENDCHAR
STARTCHAR comma
ENCODING 44
SWIDTH 259 0
DWIDTH 2 0
BBX 1 2 1 -1
BITMAP
80
80
ENDCHAR
STARTCHAR hyphen
ENCODING 45
SWIDTH 296 0
DWIDTH 3 0
BBX 2 1 0 3
BITMAP
C0
ENDCHAR
STARTCHAR period
ENCODING 46
SWIDTH 262 0
DWIDTH 2 0
BBX 1 1 1 0
BITMAP
80
ENDCHAR
STARTCHAR slash
ENCODING 47
SWIDTH 444 0
DWIDTH 4 0
BBX 4 7 0 0
BITMAP
10
20
20
40
40
40
80
ENDCHAR
STARTCHAR zero
ENCODING 48
SWIDTH 838 0
DWIDTH 8 0
BBX 7 7 0 0
BITMAP
3C
66
C2
C2
42
66
3C
ENDCHAR
STARTCHAR one
ENCODING 49
SWIDTH 385 0
DWIDTH 3 0
BBX 3 7 0 0
BITMAP
C0
20
20
20
20
20
20
ENDCHAR
STARTCHAR two
ENCODING 50
SWIDTH 825 0
DWIDTH 7 0
BBX 6 7 1 0
BITMAP
F8
04
04
FC
80
80
FC
ENDCHAR
STARTCHAR three
ENCODING 51
SWIDTH 827 0
DWIDTH 7 0
BBX 7 7 0 0
BITMAP
FC
02
02
3C
02
02
FC
ENDCHAR
STARTCHAR four
ENCODING 52
SWIDTH 845 0
DWIDTH 8 0
BBX 7 7 0 0
BITMAP
C4
C4
C4
C4
7E
04
04
ENDCHAR
STARTCHAR five
ENCODING 53
SWIDTH 885 0
DWIDTH 8 0
BBX 7 7 1 0
BITMAP
FC
80
80
FC
06
04
FC
ENDCHAR
STARTCHAR six
ENCODING 54
SWIDTH 872 0
DWIDTH 8 0
BBX 7 7 0 0
BITMAP
3E
40
C0
FE
C2
42
3E
ENDCHAR
STARTCHAR seven
ENCODING 55
SWIDTH 756 0
DWIDTH 7 0
BBX 7 7 0 0
BITMAP
FE
04
08
18
30
20
C0
ENDCHAR
STARTCHAR eight
ENCODING 56
SWIDTH 898 0
DWIDTH 8 0
BBX 8 7 0 0
BITMAP
7E
43
42
7E
43
C3
7E
ENDCHAR
STARTCHAR nine
ENCODING 57
SWIDTH 861 0
DWIDTH 8 0
BBX 7 7 0 0
BITMAP
7C
C2
C2
7E
02
06
7C
ENDCHAR
STARTCHAR colon
ENCODING 58
SWIDTH 262 0
DWIDTH 2 0
BBX 1 4 1 0
BITMAP
80
00
00
80
ENDCHAR
STARTCHAR semicolon
ENCODING 59
SWIDTH 262 0
DWIDTH 2 0
BBX 1 5 1 -1
BITMAP
80
00
00
80
80
ENDCHAR
STARTCHAR less
ENCODING 60
SWIDTH 690 0
DWIDTH 6 0
BBX 5 5 1 1
BITMAP
18
60
80
60
18
ENDCHAR
STARTCHAR equal
ENCODING 61
SWIDTH 690 0
DWIDTH 6 0
BBX 5 3 1 2
BITMAP
F8
00
F8
ENDCHAR
STARTCHAR greater
ENCODING 62
SWIDTH 690 0
DWIDTH 6 0
BBX 5 5 1 1
BITMAP
80
60
18
60
80
ENDCHAR
STARTCHAR question
ENCODING 63
SWIDTH 776 0
DWIDTH 7 0
BBX 7 7 0 0
BITMAP
FC
06
06
7C
40
00
40
ENDCHAR
STARTCHAR at
ENCODING 64
SWIDTH 833 0
DWIDTH 8 0
BBX 7 7 0 0
BITMAP
3E
42
9A
AA
BE
40
3E
ENDCHAR
STARTCHAR A
ENCODING 65
SWIDTH 989 0
DWIDTH 9 0
BBX 9 7 0 0
BITMAP
0800
1C00
1400
2200
3E00
4100
C180
ENDCHAR
STARTCHAR B
ENCODING 66
SWIDTH 891 0
DWIDTH 8 0
BBX 7 7 1 0
BITMAP
FC
84
84
BC
86
86
FC
ENDCHAR
STARTCHAR C
ENCODING 67
SWIDTH 829 0
DWIDTH 7 0
BBX 7 7 0 0
BITMAP
3E
60
C0
C0
40
60
3E
ENDCHAR
STARTCHAR D
ENCODING 68
SWIDTH 879 0
DWIDTH 8 0
BBX 7 7 1 0
BITMAP
F8
8C
84
86
84
8C
F8
ENDCHAR
STARTCHAR E
ENCODING 69
SWIDTH 759 0
DWIDTH 7 0
BBX 5 7 1 0
BITMAP
F8
80
80
B8
80
80
F8
ENDCHAR
STARTCHAR F
ENCODING 70
SWIDTH 705 0
DWIDTH 6 0
BBX 5 7 1 0
BITMAP
F8
80
80
B8
80
80
80
ENDCHAR
STARTCHAR G
ENCODING 71
SWIDTH 888 0
DWIDTH 8 0
BBX 8 7 0 0
BITMAP
3E
60
C0
DF
43
63
3F
ENDCHAR
STARTCHAR H
ENCODING 72
SWIDTH 838 0
DWIDTH 8 0
BBX 6 7 1 0
BITMAP
84
84
84
BC
84
84
84
ENDCHAR
STARTCHAR I
ENCODING 73
SWIDTH 267 0
DWIDTH 2 0
BBX 1 7 1 0
BITMAP
80
80
80
80
80
80
80
ENDCHAR
STARTCHAR J
ENCODING 74
SWIDTH 708 0
DWIDTH 6 0
BBX 6 7 0 0
BITMAP
04
04
04
04
04
0C
F8
ENDCHAR
STARTCHAR K
ENCODING 75
SWIDTH 875 0
DWIDTH 8 0
BBX 7 7 1 0
BITMAP
8E
98
A0
C0
B0
98
8E
ENDCHAR
STARTCHAR L
ENCODING 76
SWIDTH 707 0
DWIDTH 6 0
BBX 5 7 1 0
BITMAP
80
80
80
80
80
80
F8
ENDCHAR
STARTCHAR M
ENCODING 77
SWIDTH 1115 0
DWIDTH 10 0
BBX 10 7 0 0
BITMAP
2100
3100
7280
5280
4C80
4C80
8C40
ENDCHAR
STARTCHAR N
ENCODING 78
SWIDTH 873 0
DWIDTH 8 0
BBX 6 7 1 0
BITMAP
84
C4
E4
B4
9C
8C
84
ENDCHAR
STARTCHAR O
ENCODING 79
SWIDTH 968 0
DWIDTH 9 0
BBX 8 7 0 0
BITMAP
3E
63
C1
C1
41
63
3E
ENDCHAR
STARTCHAR P
ENCODING 80
SWIDTH 867 0
DWIDTH 8 0
BBX 7 7 1 0
BITMAP
FC
84
86
84
BC
80
80
ENDCHAR
STARTCHAR Q
ENCODING 81
SWIDTH 968 0
DWIDTH 9 0
BBX 9 7 0 0
BITMAP
3E00
6300
C100
C100
4D00
6700
3F80
ENDCHAR
STARTCHAR R
ENCODING 82
SWIDTH 921 0
DWIDTH 8 0
BBX 7 7 1 0
BITMAP
FC
84
82
86
BC
8C
86
ENDCHAR
STARTCHAR S
ENCODING 83
SWIDTH 880 0
DWIDTH 8 0
BBX 8 7 0 0
BITMAP
7E
40
C0
7E
03
02
7E
ENDCHAR
STARTCHAR T
ENCODING 84
SWIDTH 720 0
DWIDTH 6 0
BBX 6 7 0 0
BITMAP
FC
10
10
10
10
10
10
ENDCHAR
STARTCHAR U
ENCODING 85
SWIDTH 889 0
DWIDTH 8 0
BBX 8 7 0 0
BITMAP
C3
C3
C3
C3
42
42
3C
ENDCHAR
STARTCHAR V
ENCODING 86
SWIDTH 989 0
DWIDTH 9 0
BBX 9 7 0 0
BITMAP
C180
4100
2200
2200
1400
1C00
0800
ENDCHAR
STARTCHAR W
ENCODING 87
SWIDTH 1268 0
DWIDTH 11 0
BBX 11 7 0 0
BITMAP
D820
4C60
6440
2480
3680
1B00
1900
ENDCHAR
STARTCHAR X
ENCODING 88
SWIDTH 1000 0
DWIDTH 9 0
BBX 9 7 0 0
BITMAP
C100
2200
1400
0800
1400
2200
C180
ENDCHAR
STARTCHAR Y
ENCODING 89
SWIDTH 926 0
DWIDTH 8 0
BBX 8 7 0 0
BITMAP
C3
62
34
18
08
08
08
ENDCHAR
STARTCHAR Z
ENCODING 90
SWIDTH 802 0
DWIDTH 7 0
BBX 7 7 0 0
BITMAP
FE
04
08
10
20
40
FE
ENDCHAR
STARTCHAR bracketleft
ENCODING 91
SWIDTH 333 0
DWIDTH 3 0
BBX 1 9 1 -1
BITMAP
80
80
80
80
80
80
80
80
80
ENDCHAR
STARTCHAR backslash
ENCODING 92
SWIDTH 445 0
DWIDTH 4 0
BBX 4 7 0 0
BITMAP
80
40
40
40
20
20
10
ENDCHAR
STARTCHAR bracketright
ENCODING 93
SWIDTH 333 0
DWIDTH 3 0
BBX 1 9 1 -1
BITMAP
80
80
80
80
80
80
80
80
80
ENDCHAR
STARTCHAR asciicircum
ENCODING 94
SWIDTH 559 0
DWIDTH 5 0
BBX 3 4 1 3
BITMAP
40
A0
A0
A0
ENDCHAR
STARTCHAR underscore
ENCODING 95
SWIDTH 668 0
DWIDTH 6 0
BBX 6 1 0 -2
BITMAP
FC
ENDCHAR
STARTCHAR grave
ENCODING 96
SWIDTH 362 0
DWIDTH 3 0
BBX 3 2 0 7
BITMAP
C0
20
ENDCHAR
STARTCHAR a
ENCODING 97
SWIDTH 989 0
DWIDTH 9 0
BBX 9 7 0 0
BITMAP
0800
1C00
1400
2200
3E00
4100
C180
ENDCHAR
STARTCHAR b
ENCODING 98
SWIDTH 891 0
DWIDTH 8 0
BBX 7 7 1 0
BITMAP
FC
84
84
BC
86
86
FC
ENDCHAR
STARTCHAR c
ENCODING 99
SWIDTH 829 0
DWIDTH 7 0
BBX 7 7 0 0
BITMAP
3E
60
C0
C0
40
60
3E
ENDCHAR
STARTCHAR d
ENCODING 100
SWIDTH 879 0
DWIDTH 8 0
BBX 7 7 1 0
BITMAP
F8
8C
84
86
84
8C
F8
ENDCHAR
STARTCHAR e
ENCODING 101
SWIDTH 759 0
DWIDTH 7 0
BBX 5 7 1 0
BITMAP
F8
80
80
B8
80
80
F8
ENDCHAR
STARTCHAR f
ENCODING 102
SWIDTH 705 0
DWIDTH 6 0
BBX 5 7 1 0
BITMAP
F8
80
80
B8
80
80
80
ENDCHAR
STARTCHAR g
ENCODING 103
SWIDTH 888 0
DWIDTH 8 0
BBX 8 7 0 0
BITMAP
3E
60
C0
DF
43
63
3F
ENDCHAR
STARTCHAR h
ENCODING 104
SWIDTH 838 0
DWIDTH 8 0
BBX 6 7 1 0
BITMAP
84
84
84
BC
84
84
84
ENDCHAR
STARTCHAR i
ENCODING 105
SWIDTH 267 0
DWIDTH 2 0
BBX 1 7 1 0
BITMAP
80
80
80
80
80
80
80
ENDCHAR
STARTCHAR j
ENCODING 106
SWIDTH 708 0
DWIDTH 6 0
BBX 6 7 0 0
BITMAP
04
04
04
04
04
0C
F8
ENDCHAR
STARTCHAR k
ENCODING 107
SWIDTH 875 0
DWIDTH 8 0
BBX 7 7 1 0
BITMAP
8E
98
A0
C0
B0
98
8E
ENDCHAR
STARTCHAR l
ENCODING 108
SWIDTH 707 0
DWIDTH 6 0
BBX 5 7 1 0
BITMAP
80
80
80
80
80
80
F8
ENDCHAR
STARTCHAR m
ENCODING 109
SWIDTH 1115 0
DWIDTH 10 0
BBX 10 7 0 0
BITMAP
2100
3100
7280
5280
4C80
4C80
8C40
ENDCHAR
STARTCHAR n
ENCODING 110
SWIDTH 873 0
DWIDTH 8 0
BBX 6 7 1 0
BITMAP
84
C4
E4
B4
9C
8C
84
ENDCHAR
STARTCHAR o
ENCODING 111
SWIDTH 968 0
DWIDTH 9 0
BBX 8 7 0 0
BITMAP
3E
63
C1
C1
41
63
3E
ENDCHAR
STARTCHAR p
ENCODING 112
SWIDTH 867 0
DWIDTH 8 0
BBX 7 7 1 0
BITMAP
FC
84
86
84
BC
80
80
ENDCHAR
STARTCHAR q
ENCODING 113
SWIDTH 968 0
DWIDTH 9 0
BBX 9 7 0 0
BITMAP
3E00
6300
C100
C100
4D00
6700
3F80
ENDCHAR
STARTCHAR r
ENCODING 114
SWIDTH 921 0
DWIDTH 8 0
BBX 7 7 1 0
BITMAP
FC
84
82
86
BC
8C
86
ENDCHAR
STARTCHAR s
ENCODING 115
SWIDTH 880 0
DWIDTH 8 0
BBX 8 7 0 0
BITMAP
7E
40
C0
7E
03
02
7E
ENDCHAR
STARTCHAR t
ENCODING 116
SWIDTH 720 0
DWIDTH 6 0
BBX 6 7 0 0
BITMAP
FC
10
10
10
10
10
10
ENDCHAR
STARTCHAR u
ENCODING 117
SWIDTH 889 0
DWIDTH 8 0
BBX 8 7 0 0
BITMAP
C3
C3
C3
C3
42
42
3C
ENDCHAR
STARTCHAR v
ENCODING 118
SWIDTH 989 0
DWIDTH 9 0
BBX 9 7 0 0
BITMAP
C180
4100
2200
2200
1400
1C00
0800
ENDCHAR
STARTCHAR w
ENCODING 119
SWIDTH 1268 0
DWIDTH 11 0
BBX 11 7 0 0
BITMAP
D820
4C60
6440
2480
3680
1B00
1900
ENDCHAR
STARTCHAR x
ENCODING 120
SWIDTH 1000 0
DWIDTH 9 0
BBX 9 7 0 0
BITMAP
C100
2200
1400
0800
1400
2200
C180
ENDCHAR
STARTCHAR y
ENCODING 121
SWIDTH 926 0
DWIDTH 8 0
BBX 8 7 0 0
BITMAP
C3
62
34
18
08
08
08
ENDCHAR
STARTCHAR z
ENCODING 122
SWIDTH 802 0
DWIDTH 7 0
BBX 7 7 0 0
BITMAP
FE
04
08
10
20
40
FE
ENDCHAR
STARTCHAR braceleft
ENCODING 123
SWIDTH 337 0
DWIDTH 3 0
BBX 1 9 1 -1
BITMAP
80
80
80
80
80
80
80
80
80
ENDCHAR
STARTCHAR bar
ENCODING 124
SWIDTH 297 0
DWIDTH 3 0
BBX 1 9 1 -1
BITMAP
80
80
80
80
80
80
80
80
80
ENDCHAR
STARTCHAR braceright
ENCODING 125
SWIDTH 337 0
DWIDTH 3 0
BBX 1 9 1 -1
BITMAP
80
80
80
80
80
80
80
80
80
ENDCHAR
STARTCHAR asciitilde
ENCODING 126
SWIDTH 691 0
DWIDTH 6 0
BBX 5 1 1 3
BITMAP
F8
ENDCHAR
STARTCHAR nonbreakingspace
ENCODING 160
SWIDTH 294 0
DWIDTH 3 0
BBX 1 1 0 0
BITMAP
00
ENDCHAR
STARTCHAR exclamdown
ENCODING 161
SWIDTH 298 0
DWIDTH 3 0
BBX 1 7 1 0
BITMAP
80
00
80
80
80
80
80
ENDCHAR
STARTCHAR cent
ENCODING 162
SWIDTH 692 0
DWIDTH 6 0
BBX 6 7 0 0
BITMAP
10
7C
50
90
50
7C
10
ENDCHAR
STARTCHAR sterling
ENCODING 163
SWIDTH 709 0
DWIDTH 6 0
BBX 6 7 0 0
BITMAP
38
40
40
70
40
40
FC
ENDCHAR
STARTCHAR yen
ENCODING 165
SWIDTH 787 0
DWIDTH 7 0
BBX 7 7 0 0
BITMAP
C6
44
28
28
7C
7C
10
ENDCHAR
STARTCHAR brokenbar
ENCODING 166
SWIDTH 297 0
DWIDTH 3 0
BBX 1 9 1 -1
BITMAP
80
80
80
80
00
80
80
80
80
ENDCHAR
STARTCHAR section
ENCODING 167
SWIDTH 773 0
DWIDTH 7 0
BBX 6 9 0 -2
BITMAP
7C
C0
C0
7C
44
7C
04
04
7C
ENDCHAR
STARTCHAR dieresis
ENCODING 168
SWIDTH 393 0
DWIDTH 4 0
BBX 3 1 0 8
BITMAP
A0
ENDCHAR
STARTCHAR copyright
ENCODING 169
SWIDTH 829 0
DWIDTH 7 0
BBX 7 7 0 0
BITMAP
38
5C
A2
A2
BA
44
38
ENDCHAR
STARTCHAR ordfeminine
ENCODING 170
SWIDTH 604 0
DWIDTH 5 0
BBX 5 4 0 3
BITMAP
20
30
70
88
ENDCHAR
STARTCHAR guillemotleft
ENCODING 171
SWIDTH 629 0
DWIDTH 6 0
BBX 5 3 0 2
BITMAP
68
90
68
ENDCHAR
STARTCHAR registered
ENCODING 174
SWIDTH 585 0
DWIDTH 5 0
BBX 4 6 1 1
BITMAP
60
A0
F0
B0
90
E0
ENDCHAR
STARTCHAR macron
ENCODING 175
SWIDTH 362 0
DWIDTH 3 0
BBX 3 1 0 8
BITMAP
E0
ENDCHAR
STARTCHAR degree
ENCODING 176
SWIDTH 361 0
DWIDTH 3 0
BBX 3 3 0 4
BITMAP
60
A0
60
ENDCHAR
STARTCHAR plusminus
ENCODING 177
SWIDTH 690 0
DWIDTH 6 0
BBX 5 6 1 0
BITMAP
20
20
F8
20
20
F8
ENDCHAR
STARTCHAR twosuperior
ENCODING 178
SWIDTH 442 0
DWIDTH 4 0
BBX 4 4 0 3
BITMAP
E0
10
E0
F0
ENDCHAR
STARTCHAR threesuperior
ENCODING 179
SWIDTH 443 0
DWIDTH 4 0
BBX 4 4 0 3
BITMAP
E0
10
60
F0
ENDCHAR
STARTCHAR acute
ENCODING 180
SWIDTH 362 0
DWIDTH 3 0
BBX 3 2 0 7
BITMAP
20
C0
ENDCHAR
STARTCHAR paragraph
ENCODING 182
SWIDTH 629 0
DWIDTH 6 0
BBX 5 8 0 -1
BITMAP
78
E8
68
68
28
28
28
28
ENDCHAR
STARTCHAR periodcentered
ENCODING 183
SWIDTH 262 0
DWIDTH 2 0
BBX 1 1 1 3
BITMAP
80
ENDCHAR
STARTCHAR cedilla
ENCODING 184
SWIDTH 219 0
DWIDTH 2 0
BBX 2 2 0 -2
BITMAP
C0
80
ENDCHAR
STARTCHAR onesuperior
ENCODING 185
SWIDTH 222 0
DWIDTH 2 0
BBX 2 4 0 3
BITMAP
80
40
40
40
ENDCHAR
STARTCHAR ordmasculine
ENCODING 186
SWIDTH 592 0
DWIDTH 5 0
BBX 5 4 0 3
BITMAP
70
88
88
70
ENDCHAR
STARTCHAR guillemotright
ENCODING 187
SWIDTH 629 0
DWIDTH 6 0
BBX 5 3 0 2
BITMAP
D0
28
D0
ENDCHAR
STARTCHAR onequarter
ENCODING 188
SWIDTH 972 0
DWIDTH 9 0
BBX 8 8 0 -1
BITMAP
42
24
28
28
15
27
41
C0
ENDCHAR
STARTCHAR onehalf
ENCODING 189
SWIDTH 948 0
DWIDTH 9 0
BBX 8 8 0 -1
BITMAP
42
24
28
2F
11
27
47
C0
ENDCHAR
STARTCHAR threequarters
ENCODING 190
SWIDTH 1029 0
DWIDTH 9 0
BBX 9 8 0 -1
BITMAP
E300
1200
6400
F800
1480
1780
2080
4000
ENDCHAR
STARTCHAR questiondown
ENCODING 191
SWIDTH 776 0
DWIDTH 7 0
BBX 7 7 0 0
BITMAP
04
00
04
7C
80
C0
7E
ENDCHAR
STARTCHAR Agrave
ENCODING 192
SWIDTH 989 0
DWIDTH 9 0
BBX 9 9 0 0
BITMAP
1000
0C00
0800
1C00
1400
2200
3E00
4100
C180
ENDCHAR
STARTCHAR Aacute
ENCODING 193
SWIDTH 989 0
DWIDTH 9 0
BBX 9 9 0 0
BITMAP
0400
1800
0800
1C00
1400
2200
3E00
4100
C180
ENDCHAR
STARTCHAR Acircumflex
ENCODING 194
SWIDTH 989 0
DWIDTH 9 0
BBX 9 9 0 0
BITMAP
0800
1400
0800
1C00
1400
2200
3E00
4100
C180
ENDCHAR
STARTCHAR Atilde
ENCODING 195
SWIDTH 989 0
DWIDTH 9 0
BBX 9 9 0 0
BITMAP
1C00
0000
0800
1C00
1400
2200
3E00
4100
C180
ENDCHAR
STARTCHAR Adieresis
ENCODING 196
SWIDTH 989 0
DWIDTH 9 0
BBX 9 9 0 0
BITMAP
1400
0000
0800
1C00
1400
2200
3E00
4100
C180
ENDCHAR
STARTCHAR Aring
ENCODING 197
SWIDTH 989 0
DWIDTH 9 0
BBX 9 9 0 0
BITMAP
1800
1C00
0800
1C00
1400
2200
3E00
4100
C180
ENDCHAR
STARTCHAR AE
ENCODING 198
SWIDTH 1345 0
DWIDTH 12 0
BBX 12 7 0 0
BITMAP
0FF0
1200
1200
22E0
7E00
4200
C3F0
ENDCHAR
STARTCHAR Ccedilla
ENCODING 199
SWIDTH 829 0
DWIDTH 7 0
BBX 7 9 0 -2
BITMAP
3E
60
C0
C0
40
60
3E
10
10
ENDCHAR
STARTCHAR Egrave
ENCODING 200
SWIDTH 759 0
DWIDTH 7 0
BBX 5 9 1 0
BITMAP
40
30
F8
80
80
B8
80
80
F8
ENDCHAR
STARTCHAR Eacute
ENCODING 201
SWIDTH 759 0
DWIDTH 7 0
BBX 5 9 1 0
BITMAP
10
60
F8
80
80
B8
80
80
F8
ENDCHAR
STARTCHAR Ecircumflex
ENCODING 202
SWIDTH 759 0
DWIDTH 7 0
BBX 5 9 1 0
BITMAP
20
60
F8
80
80
B8
80
80
F8
ENDCHAR
STARTCHAR Edieresis
ENCODING 203
SWIDTH 759 0
DWIDTH 7 0
BBX 5 9 1 0
BITMAP
50
00
F8
80
80
B8
80
80
F8
ENDCHAR
STARTCHAR Igrave
ENCODING 204
SWIDTH 267 0
DWIDTH 2 0
BBX 2 9 0 0
BITMAP
80
40
40
40
40
40
40
40
40
ENDCHAR
STARTCHAR Iacute
ENCODING 205
SWIDTH 267 0
DWIDTH 2 0
BBX 3 9 0 0
BITMAP
60
80
40
40
40
40
40
40
40
ENDCHAR
STARTCHAR Icircumflex
ENCODING 206
SWIDTH 267 0
DWIDTH 2 0
BBX 2 9 0 0
BITMAP
40
C0
40
40
40
40
40
40
40
ENDCHAR
STARTCHAR Idieresis
ENCODING 207
SWIDTH 267 0
DWIDTH 2 0
BBX 3 9 0 0
BITMAP
A0
00
40
40
40
40
40
40
40
ENDCHAR
STARTCHAR Eth
ENCODING 208
SWIDTH 877 0
DWIDTH 8 0
BBX 8 7 0 0
BITMAP
7C
46
42
F3
42
46
7C
ENDCHAR
STARTCHAR Ntilde
ENCODING 209
SWIDTH 873 0
DWIDTH 8 0
BBX 6 9 1 0
BITMAP
30
00
84
C4
E4
B4
9C
8C
84
ENDCHAR
STARTCHAR Ograve
ENCODING 210
SWIDTH 968 0
DWIDTH 9 0
BBX 8 9 0 0
BITMAP
10
0C
3E
63
C1
C1
41
63
3E
ENDCHAR
STARTCHAR Oacute
ENCODING 211
SWIDTH 968 0
DWIDTH 9 0
BBX 8 9 0 0
BITMAP
04
18
3E
63
C1
C1
41
63
3E
ENDCHAR
STARTCHAR Ocircumflex
ENCODING 212
SWIDTH 968 0
DWIDTH 9 0
BBX 8 9 0 0
BITMAP
08
18
3E
63
C1
C1
41
63
3E
ENDCHAR
STARTCHAR Otilde
ENCODING 213
SWIDTH 968 0
DWIDTH 9 0
BBX 8 9 0 0
BITMAP
1C
00
3E
63
C1
C1
41
63
3E
ENDCHAR
STARTCHAR Odieresis
ENCODING 214
SWIDTH 968 0
DWIDTH 9 0
BBX 8 9 0 0
BITMAP
14
00
3E
63
C1
C1
41
63
3E
ENDCHAR
STARTCHAR multiply
ENCODING 215
SWIDTH 690 0
DWIDTH 6 0
BBX 4 5 1 1
BITMAP
90
70
20
50
90
ENDCHAR
STARTCHAR Oslash
ENCODING 216
SWIDTH 968 0
DWIDTH 9 0
BBX 8 7 0 0
BITMAP
3F
63
C5
C9
51
63
7E
ENDCHAR
STARTCHAR Ugrave
ENCODING 217
SWIDTH 889 0
DWIDTH 8 0
BBX 8 9 0 0
BITMAP
30
08
C3
C3
C3
C3
42
42
3C
ENDCHAR
STARTCHAR Uacute
ENCODING 218
SWIDTH 889 0
DWIDTH 8 0
BBX 8 9 0 0
BITMAP
0C
10
C3
C3
C3
C3
42
42
3C
ENDCHAR
STARTCHAR Ucircumflex
ENCODING 219
SWIDTH 889 0
DWIDTH 8 0
BBX 8 9 0 0
BITMAP
18
18
C3
C3
C3
C3
42
42
3C
ENDCHAR
STARTCHAR Udieresis
ENCODING 220
SWIDTH 889 0
DWIDTH 8 0
BBX 8 9 0 0
BITMAP
18
00
C3
C3
C3
C3
42
42
3C
ENDCHAR
STARTCHAR Yacute
ENCODING 221
SWIDTH 926 0
DWIDTH 8 0
BBX 8 9 0 0
BITMAP
0C
10
C3
62
34
18
08
08
08
ENDCHAR
STARTCHAR Thorn
ENCODING 222
SWIDTH 843 0
DWIDTH 8 0
BBX 6 7 1 0
BITMAP
80
F8
84
84
84
BC
80
ENDCHAR
STARTCHAR germandbls
ENCODING 223
SWIDTH 1760 0
DWIDTH 16 0
BBX 15 7 0 0
BITMAP
7E7E
40C0
C0C0
7E7E
0302
0202
7EFE
ENDCHAR
STARTCHAR agrave
ENCODING 224
SWIDTH 989 0
DWIDTH 9 0
BBX 9 9 0 0
BITMAP
1000
0C00
0800
1C00
1400
2200
3E00
4100
C180
ENDCHAR
STARTCHAR aacute
ENCODING 225
SWIDTH 989 0
DWIDTH 9 0
BBX 9 9 0 0
BITMAP
0400
1800
0800
1C00
1400
2200
3E00
4100
C180
ENDCHAR
STARTCHAR acircumflex
ENCODING 226
SWIDTH 989 0
DWIDTH 9 0
BBX 9 9 0 0
BITMAP
0800
1400
0800
1C00
1400
2200
3E00
4100
C180
ENDCHAR
STARTCHAR atilde
ENCODING 227
SWIDTH 989 0
DWIDTH 9 0
BBX 9 9 0 0
BITMAP
1C00
0000
0800
1C00
1400
2200
3E00
4100
C180
ENDCHAR
STARTCHAR adieresis
ENCODING 228
SWIDTH 989 0
DWIDTH 9 0
BBX 9 9 0 0
BITMAP
1400
0000
0800
1C00
1400
2200
3E00
4100
C180
ENDCHAR
STARTCHAR aring
ENCODING 229
SWIDTH 989 0
DWIDTH 9 0
BBX 9 9 0 0
BITMAP
1800
1C00
0800
1C00
1400
2200
3E00
4100
C180
ENDCHAR
STARTCHAR ae
ENCODING 230
SWIDTH 1345 0
DWIDTH 12 0
BBX 12 7 0 0
BITMAP
0FF0
1200
1200
22E0
7E00
4200
C3F0
ENDCHAR
STARTCHAR ccedilla
ENCODING 231
SWIDTH 829 0
DWIDTH 7 0
BBX 7 9 0 -2
BITMAP
3E
60
C0
C0
40
60
3E
10
10
ENDCHAR
STARTCHAR egrave
ENCODING 232
SWIDTH 759 0
DWIDTH 7 0
BBX 5 9 1 0
BITMAP
40
30
F8
80
80
B8
80
80
F8
ENDCHAR
STARTCHAR eacute
ENCODING 233
SWIDTH 759 0
DWIDTH 7 0
BBX 5 9 1 0
BITMAP
10
60
F8
80
80
B8
80
80
F8
ENDCHAR
STARTCHAR ecircumflex
ENCODING 234
SWIDTH 759 0
DWIDTH 7 0
BBX 5 9 1 0
BITMAP
20
60
F8
80
80
B8
80
80
F8
ENDCHAR
STARTCHAR edieresis
ENCODING 235
SWIDTH 759 0
DWIDTH 7 0
BBX 5 9 1 0
BITMAP
50
00
F8
80
80
B8
80
80
F8
ENDCHAR
STARTCHAR igrave
ENCODING 236
SWIDTH 267 0
DWIDTH 2 0
BBX 2 9 0 0
BITMAP
80
40
40
40
40
40
40
40
40
ENDCHAR
STARTCHAR iacute
ENCODING 237
SWIDTH 267 0
DWIDTH 2 0
BBX 3 9 0 0
BITMAP
60
80
40
40
40
40
40
40
40
ENDCHAR
STARTCHAR icircumflex
ENCODING 238
SWIDTH 267 0
DWIDTH 2 0
BBX 2 9 0 0
BITMAP
40
C0
40
40
40
40
40
40
40
ENDCHAR
STARTCHAR idieresis
ENCODING 239
SWIDTH 267 0
DWIDTH 2 0
BBX 3 9 0 0
BITMAP
A0
00
40
40
40
40
40
40
40
ENDCHAR
STARTCHAR eth
ENCODING 240
SWIDTH 877 0
DWIDTH 8 0
BBX 8 7 0 0
BITMAP
7C
46
42
F3
42
46
7C
ENDCHAR
STARTCHAR ntilde
ENCODING 241
SWIDTH 873 0
DWIDTH 8 0
BBX 6 9 1 0
BITMAP
30
00
84
C4
E4
B4
9C
8C
84
ENDCHAR
STARTCHAR ograve
ENCODING 242
SWIDTH 968 0
DWIDTH 9 0
BBX 8 9 0 0
BITMAP
10
0C
3E
63
C1
C1
41
63
3E
ENDCHAR
STARTCHAR oacute
ENCODING 243
SWIDTH 968 0
DWIDTH 9 0
BBX 8 9 0 0
BITMAP
04
18
3E
63
C1
C1
41
63
3E
ENDCHAR
STARTCHAR ocircumflex
ENCODING 244
SWIDTH 968 0
DWIDTH 9 0
BBX 8 9 0 0
BITMAP
08
18
3E
63
C1
C1
41
63
3E
ENDCHAR
STARTCHAR otilde
ENCODING 245
SWIDTH 968 0
DWIDTH 9 0
BBX 8 9 0 0
BITMAP
1C
00
3E
63
C1
C1
41
63
3E
ENDCHAR
STARTCHAR odieresis
ENCODING 246
SWIDTH 968 0
DWIDTH 9 0
BBX 8 9 0 0
BITMAP
14
00
3E
63
C1
C1
41
63
3E
ENDCHAR
STARTCHAR divide
ENCODING 247
SWIDTH 690 0
DWIDTH 6 0
BBX 5 6 1 0
BITMAP
60
00
F8
00
00
60
ENDCHAR
STARTCHAR oslash
ENCODING 248
SWIDTH 968 0
DWIDTH 9 0
BBX 8 7 0 0
BITMAP
3F
63
C5
C9
51
63
7E
ENDCHAR
STARTCHAR ugrave
ENCODING 249
SWIDTH 889 0
DWIDTH 8 0
BBX 8 9 0 0
BITMAP
30
08
C3
C3
C3
C3
42
42
3C
ENDCHAR
STARTCHAR uacute
ENCODING 250
SWIDTH 889 0
DWIDTH 8 0
BBX 8 9 0 0
BITMAP
0C
10
C3
C3
C3
C3
42
42
3C
ENDCHAR
STARTCHAR ucircumflex
ENCODING 251
SWIDTH 889 0
DWIDTH 8 0
BBX 8 9 0 0
BITMAP
18
18
C3
C3
C3
C3
42
42
3C
ENDCHAR
STARTCHAR udieresis
ENCODING 252
SWIDTH 889 0
DWIDTH 8 0
BBX 8 9 0 0
BITMAP
18
00
C3
C3
C3
C3
42
42
3C
ENDCHAR
STARTCHAR yacute
ENCODING 253
SWIDTH 926 0
DWIDTH 8 0
BBX 8 9 0 0
BITMAP
0C
10
C3
62
34
18
08
08
08
ENDCHAR
STARTCHAR thorn
ENCODING 254
SWIDTH 843 0
DWIDTH 8 0
BBX 6 7 1 0
BITMAP
80
F8
84
84
84
BC
80
ENDCHAR
STARTCHAR ydieresis
ENCODING 255
SWIDTH 926 0
DWIDTH 8 0
BBX 8 9 0 0
BITMAP
14
00
C3
62
34
18
08
08
08
ENDCHAR
STARTCHAR Amacron
ENCODING 256
SWIDTH 989 0
DWIDTH 9 0
BBX 9 9 0 0
BITMAP
1C00
0000
0800
1C00
1400
2200
3E00
4100
C180
ENDCHAR
STARTCHAR amacron
ENCODING 257
SWIDTH 989 0
DWIDTH 9 0
BBX 9 9 0 0
BITMAP
1C00
0000
0800
1C00
1400
2200
3E00
4100
C180
ENDCHAR
STARTCHAR Abreve
ENCODING 258
SWIDTH 989 0
DWIDTH 9 0
BBX 9 8 0 0
BITMAP
1C00
0800
1C00
1400
2200
3E00
4100
C180
ENDCHAR
STARTCHAR abreve
ENCODING 259
SWIDTH 989 0
DWIDTH 9 0
BBX 9 8 0 0
BITMAP
1C00
0800
1C00
1400
2200
3E00
4100
C180
ENDCHAR
STARTCHAR Aogonek
ENCODING 260
SWIDTH 989 0
DWIDTH 9 0
BBX 9 9 0 -2
BITMAP
0800
1C00
1400
2200
3E00
4100
C180
0100
0180
ENDCHAR
STARTCHAR aogonek
ENCODING 261
SWIDTH 989 0
DWIDTH 9 0
BBX 9 9 0 -2
BITMAP
0800
1C00
1400
2200
3E00
4100
C180
0100
0180
ENDCHAR
STARTCHAR Cacute
ENCODING 262
SWIDTH 829 0
DWIDTH 7 0
BBX 7 9 0 0
BITMAP
0C
10
3E
60
C0
C0
40
60
3E
ENDCHAR
STARTCHAR cacute
ENCODING 263
SWIDTH 829 0
DWIDTH 7 0
BBX 7 9 0 0
BITMAP
0C
10
3E
60
C0
C0
40
60
3E
ENDCHAR
STARTCHAR Cdotaccent
ENCODING 266
SWIDTH 829 0
DWIDTH 7 0
BBX 7 9 0 0
BITMAP
08
00
3E
60
C0
C0
40
60
3E
ENDCHAR
STARTCHAR cdotaccent
ENCODING 267
SWIDTH 829 0
DWIDTH 7 0
BBX 7 9 0 0
BITMAP
08
00
3E
60
C0
C0
40
60
3E
ENDCHAR
STARTCHAR Ccaron
ENCODING 268
SWIDTH 829 0
DWIDTH 7 0
BBX 7 8 0 0
BITMAP
18
3E
60
C0
C0
40
60
3E
ENDCHAR
STARTCHAR ccaron
ENCODING 269
SWIDTH 829 0
DWIDTH 7 0
BBX 7 8 0 0
BITMAP
18
3E
60
C0
C0
40
60
3E
ENDCHAR
STARTCHAR Dcaron
ENCODING 270
SWIDTH 879 0
DWIDTH 8 0
BBX 7 8 1 0
BITMAP
70
F8
8C
84
86
84
8C
F8
ENDCHAR
STARTCHAR dcaron
ENCODING 271
SWIDTH 879 0
DWIDTH 8 0
BBX 7 8 1 0
BITMAP
70
F8
8C
84
86
84
8C
F8
ENDCHAR
STARTCHAR Dcroat
ENCODING 272
SWIDTH 877 0
DWIDTH 8 0
BBX 8 7 0 0
BITMAP
7C
46
42
F3
42
46
7C
ENDCHAR
STARTCHAR dcroat
ENCODING 273
SWIDTH 877 0
DWIDTH 8 0
BBX 8 7 0 0
BITMAP
7C
46
42
F3
42
46
7C
ENDCHAR
STARTCHAR Emacron
ENCODING 274
SWIDTH 759 0
DWIDTH 7 0
BBX 5 9 1 0
BITMAP
70
00
F8
80
80
B8
80
80
F8
ENDCHAR
STARTCHAR emacron
ENCODING 275
SWIDTH 759 0
DWIDTH 7 0
BBX 5 9 1 0
BITMAP
70
00
F8
80
80
B8
80
80
F8
ENDCHAR
STARTCHAR Ebreve
ENCODING 276
SWIDTH 759 0
DWIDTH 7 0
BBX 5 8 1 0
BITMAP
70
F8
80
80
B8
80
80
F8
ENDCHAR
STARTCHAR ebreve
ENCODING 277
SWIDTH 759 0
DWIDTH 7 0
BBX 5 8 1 0
BITMAP
70
F8
80
80
B8
80
80
F8
ENDCHAR
STARTCHAR Edotaccent
ENCODING 278
SWIDTH 759 0
DWIDTH 7 0
BBX 5 9 1 0
BITMAP
20
00
F8
80
80
B8
80
80
F8
ENDCHAR
STARTCHAR edotaccent
ENCODING 279
SWIDTH 759 0
DWIDTH 7 0
BBX 5 9 1 0
BITMAP
20
00
F8
80
80
B8
80
80
F8
ENDCHAR
STARTCHAR Eogonek
ENCODING 280
SWIDTH 759 0
DWIDTH 7 0
BBX 5 9 1 -2
BITMAP
F8
80
80
B8
80
80
F8
08
08
ENDCHAR
STARTCHAR eogonek
ENCODING 281
SWIDTH 759 0
DWIDTH 7 0
BBX 5 9 1 -2
BITMAP
F8
80
80
B8
80
80
F8
08
08
ENDCHAR
STARTCHAR Ecaron
ENCODING 282
SWIDTH 759 0
DWIDTH 7 0
BBX 5 8 1 0
BITMAP
70
F8
80
80
B8
80
80
F8
ENDCHAR
STARTCHAR ecaron
ENCODING 283
SWIDTH 759 0
DWIDTH 7 0
BBX 5 8 1 0
BITMAP
70
F8
80
80
B8
80
80
F8
ENDCHAR
STARTCHAR Gbreve
ENCODING 286
SWIDTH 888 0
DWIDTH 8 0
BBX 8 8 0 0
BITMAP
1C
3E
60
C0
DF
43
63
3F
ENDCHAR
STARTCHAR gbreve
ENCODING 287
SWIDTH 888 0
DWIDTH 8 0
BBX 8 8 0 0
BITMAP
1C
3E
60
C0
DF
43
63
3F
ENDCHAR
STARTCHAR Gdotaccent
ENCODING 288
SWIDTH 888 0
DWIDTH 8 0
BBX 8 9 0 0
BITMAP
08
00
3E
60
C0
DF
43
63
3F
ENDCHAR
STARTCHAR gdotaccent
ENCODING 289
SWIDTH 888 0
DWIDTH 8 0
BBX 8 9 0 0
BITMAP
08
00
3E
60
C0
DF
43
63
3F
ENDCHAR
STARTCHAR Gcommaaccent
ENCODING 290
SWIDTH 888 0
DWIDTH 8 0
BBX 8 9 0 -2
BITMAP
3E
60
C0
DF
43
63
3F
08
08
ENDCHAR
STARTCHAR gcommaaccent
ENCODING 291
SWIDTH 888 0
DWIDTH 8 0
BBX 8 9 0 -2
BITMAP
3E
60
C0
DF
43
63
3F
08
08
ENDCHAR
STARTCHAR Hbar
ENCODING 294
SWIDTH 838 0
DWIDTH 8 0
BBX 6 7 1 0
BITMAP
84
BC
84
BC
84
84
84
ENDCHAR
STARTCHAR hbar
ENCODING 295
SWIDTH 838 0
DWIDTH 8 0
BBX 6 7 1 0
BITMAP
84
BC
84
BC
84
84
84
ENDCHAR
STARTCHAR uni012A
ENCODING 298
SWIDTH 267 0
DWIDTH 2 0
BBX 2 9 0 0
BITMAP
C0
00
40
40
40
40
40
40
40
ENDCHAR
STARTCHAR imacron
ENCODING 299
SWIDTH 267 0
DWIDTH 2 0
BBX 2 9 0 0
BITMAP
C0
00
40
40
40
40
40
40
40
ENDCHAR
STARTCHAR Ibreve
ENCODING 300
SWIDTH 267 0
DWIDTH 2 0
BBX 2 8 0 0
BITMAP
C0
40
40
40
40
40
40
40
ENDCHAR
STARTCHAR ibreve
ENCODING 301
SWIDTH 267 0
DWIDTH 2 0
BBX 2 8 0 0
BITMAP
C0
40
40
40
40
40
40
40
ENDCHAR
STARTCHAR Iogonek
ENCODING 302
SWIDTH 267 0
DWIDTH 2 0
BBX 2 9 0 -2
BITMAP
40
40
40
40
40
40
40
80
C0
ENDCHAR
STARTCHAR iogonek
ENCODING 303
SWIDTH 267 0
DWIDTH 2 0
BBX 2 9 0 -2
BITMAP
40
40
40
40
40
40
40
80
C0
ENDCHAR
STARTCHAR Idotaccent
ENCODING 304
SWIDTH 267 0
DWIDTH 2 0
BBX 1 9 1 0
BITMAP
80
00
80
80
80
80
80
80
80
ENDCHAR
STARTCHAR dotlessi
ENCODING 305
SWIDTH 267 0
DWIDTH 2 0
BBX 1 7 1 0
BITMAP
80
80
80
80
80
80
80
ENDCHAR
STARTCHAR IJ
ENCODING 306
SWIDTH 975 0
DWIDTH 9 0
BBX 7 7 1 0
BITMAP
82
82
82
82
82
86
BC
ENDCHAR
STARTCHAR ij
ENCODING 307
SWIDTH 975 0
DWIDTH 9 0
BBX 7 7 1 0
BITMAP
82
82
82
82
82
86
BC
ENDCHAR
STARTCHAR Kcommaaccent
ENCODING 310
SWIDTH 875 0
DWIDTH 8 0
BBX 7 9 1 -2
BITMAP
8E
98
A0
C0
B0
98
8E
30
20
ENDCHAR
STARTCHAR kcommaaccent
ENCODING 311
SWIDTH 875 0
DWIDTH 8 0
BBX 7 9 1 -2
BITMAP
8E
98
A0
C0
B0
98
8E
30
20
ENDCHAR
STARTCHAR Lacute
ENCODING 313
SWIDTH 707 0
DWIDTH 6 0
BBX 6 9 0 0
BITMAP
60
80
40
40
40
40
40
40
7C
ENDCHAR
STARTCHAR lacute
ENCODING 314
SWIDTH 707 0
DWIDTH 6 0
BBX 6 9 0 0
BITMAP
60
80
40
40
40
40
40
40
7C
ENDCHAR
STARTCHAR Lcommaaccent
ENCODING 315
SWIDTH 707 0
DWIDTH 6 0
BBX 5 9 1 -2
BITMAP
80
80
80
80
80
80
F8
20
20
ENDCHAR
STARTCHAR lcommaaccent
ENCODING 316
SWIDTH 707 0
DWIDTH 6 0
BBX 5 9 1 -2
BITMAP
80
80
80
80
80
80
F8
20
20
ENDCHAR
STARTCHAR Lcaron
ENCODING 317
SWIDTH 707 0
DWIDTH 6 0
BBX 5 7 1 0
BITMAP
A0
A0
A0
80
80
80
F8
ENDCHAR
STARTCHAR lcaron
ENCODING 318
SWIDTH 707 0
DWIDTH 6 0
BBX 5 7 1 0
BITMAP
A0
A0
A0
80
80
80
F8
ENDCHAR
STARTCHAR Ldot
ENCODING 319
SWIDTH 707 0
DWIDTH 6 0
BBX 5 7 1 0
BITMAP
80
80
C0
80
80
80
F8
ENDCHAR
STARTCHAR ldot
ENCODING 320
SWIDTH 707 0
DWIDTH 6 0
BBX 5 7 1 0
BITMAP
80
80
C0
80
80
80
F8
ENDCHAR
STARTCHAR Lslash
ENCODING 321
SWIDTH 707 0
DWIDTH 6 0
BBX 5 7 1 0
BITMAP
80
80
A0
C0
80
80
F8
ENDCHAR
STARTCHAR lslash
ENCODING 322
SWIDTH 707 0
DWIDTH 6 0
BBX 5 7 1 0
BITMAP
80
80
A0
C0
80
80
F8
ENDCHAR
STARTCHAR Nacute
ENCODING 323
SWIDTH 873 0
DWIDTH 8 0
BBX 6 9 1 0
BITMAP
10
20
84
C4
E4
B4
9C
8C
84
ENDCHAR
STARTCHAR nacute
ENCODING 324
SWIDTH 873 0
DWIDTH 8 0
BBX 6 9 1 0
BITMAP
10
20
84
C4
E4
B4
9C
8C
84
ENDCHAR
STARTCHAR Ncommaaccent
ENCODING 325
SWIDTH 873 0
DWIDTH 8 0
BBX 6 9 1 -2
BITMAP
84
C4
E4
B4
9C
8C
84
30
20
ENDCHAR
STARTCHAR ncommaaccent
ENCODING 326
SWIDTH 873 0
DWIDTH 8 0
BBX 6 9 1 -2
BITMAP
84
C4
E4
B4
9C
8C
84
30
20
ENDCHAR
STARTCHAR Ncaron
ENCODING 327
SWIDTH 873 0
DWIDTH 8 0
BBX 6 8 1 0
BITMAP
30
84
C4
E4
B4
9C
8C
84
ENDCHAR
STARTCHAR ncaron
ENCODING 328
SWIDTH 873 0
DWIDTH 8 0
BBX 6 8 1 0
BITMAP
30
84
C4
E4
B4
9C
8C
84
ENDCHAR
STARTCHAR Eng
ENCODING 330
SWIDTH 873 0
DWIDTH 8 0
BBX 6 9 1 -2
BITMAP
84
C4
E4
B4
9C
8C
84
04
38
ENDCHAR
STARTCHAR eng
ENCODING 331
SWIDTH 873 0
DWIDTH 8 0
BBX 6 9 1 -2
BITMAP
84
C4
E4
B4
9C
8C
84
04
38
ENDCHAR
STARTCHAR Omacron
ENCODING 332
SWIDTH 968 0
DWIDTH 9 0
BBX 8 9 0 0
BITMAP
1C
00
3E
63
C1
C1
41
63
3E
ENDCHAR
STARTCHAR omacron
ENCODING 333
SWIDTH 968 0
DWIDTH 9 0
BBX 8 9 0 0
BITMAP
1C
00
3E
63
C1
C1
41
63
3E
ENDCHAR
STARTCHAR Obreve
ENCODING 334
SWIDTH 968 0
DWIDTH 9 0
BBX 8 8 0 0
BITMAP
1C
3E
63
C1
C1
41
63
3E
ENDCHAR
STARTCHAR obreve
ENCODING 335
SWIDTH 968 0
DWIDTH 9 0
BBX 8 8 0 0
BITMAP
1C
3E
63
C1
C1
41
63
3E
ENDCHAR
STARTCHAR Ohungarumlaut
ENCODING 336
SWIDTH 968 0
DWIDTH 9 0
BBX 8 9 0 0
BITMAP
1C
00
3E
63
C1
C1
41
63
3E
ENDCHAR
STARTCHAR ohungarumlaut
ENCODING 337
SWIDTH 968 0
DWIDTH 9 0
BBX 8 9 0 0
BITMAP
1C
00
3E
63
C1
C1
41
63
3E
ENDCHAR
STARTCHAR OE
ENCODING 338
SWIDTH 1304 0
DWIDTH 12 0
BBX 11 7 0 0
BITMAP
3FE0
6200
C200
C2E0
4200
6200
3FE0
ENDCHAR
STARTCHAR oe
ENCODING 339
SWIDTH 1304 0
DWIDTH 12 0
BBX 11 7 0 0
BITMAP
3FE0
6200
C200
C2E0
4200
6200
3FE0
ENDCHAR
STARTCHAR Racute
ENCODING 340
SWIDTH 921 0
DWIDTH 8 0
BBX 7 9 1 0
BITMAP
10
20
FC
84
82
86
BC
8C
86
ENDCHAR
STARTCHAR racute
ENCODING 341
SWIDTH 921 0
DWIDTH 8 0
BBX 7 9 1 0
BITMAP
10
20
FC
84
82
86
BC
8C
86
ENDCHAR
STARTCHAR Rcommaaccent
ENCODING 342
SWIDTH 921 0
DWIDTH 8 0
BBX 7 9 1 -2
BITMAP
FC
84
82
86
BC
8C
86
10
10
ENDCHAR
STARTCHAR rcommaaccent
ENCODING 343
SWIDTH 921 0
DWIDTH 8 0
BBX 7 9 1 -2
BITMAP
FC
84
82
86
BC
8C
86
10
10
ENDCHAR
STARTCHAR Rcaron
ENCODING 344
SWIDTH 921 0
DWIDTH 8 0
BBX 7 8 1 0
BITMAP
30
FC
84
82
86
BC
8C
86
ENDCHAR
STARTCHAR rcaron
ENCODING 345
SWIDTH 921 0
DWIDTH 8 0
BBX 7 8 1 0
BITMAP
30
FC
84
82
86
BC
8C
86
ENDCHAR
STARTCHAR Sacute
ENCODING 346
SWIDTH 880 0
DWIDTH 8 0
BBX 8 9 0 0
BITMAP
0C
10
7E
40
C0
7E
03
02
7E
ENDCHAR
STARTCHAR sacute
ENCODING 347
SWIDTH 880 0
DWIDTH 8 0
BBX 8 9 0 0
BITMAP
0C
10
7E
40
C0
7E
03
02
7E
ENDCHAR
STARTCHAR Scedilla
ENCODING 350
SWIDTH 880 0
DWIDTH 8 0
BBX 8 9 0 -2
BITMAP
7E
40
C0
7E
03
02
7E
10
10
ENDCHAR
STARTCHAR scedilla
ENCODING 351
SWIDTH 880 0
DWIDTH 8 0
BBX 8 9 0 -2
BITMAP
7E
40
C0
7E
03
02
7E
10
10
ENDCHAR
STARTCHAR Scaron
ENCODING 352
SWIDTH 880 0
DWIDTH 8 0
BBX 8 8 0 0
BITMAP
18
7E
40
C0
7E
03
02
7E
ENDCHAR
STARTCHAR scaron
ENCODING 353
SWIDTH 880 0
DWIDTH 8 0
BBX 8 8 0 0
BITMAP
18
7E
40
C0
7E
03
02
7E
ENDCHAR
STARTCHAR Tcommaaccent
ENCODING 354
SWIDTH 720 0
DWIDTH 6 0
BBX 6 9 0 -2
BITMAP
FC
10
10
10
10
10
10
10
10
ENDCHAR
STARTCHAR tcommaaccent
ENCODING 355
SWIDTH 720 0
DWIDTH 6 0
BBX 6 9 0 -2
BITMAP
FC
10
10
10
10
10
10
10
10
ENDCHAR
STARTCHAR Tcaron
ENCODING 356
SWIDTH 720 0
DWIDTH 6 0
BBX 6 8 0 0
BITMAP
30
FC
10
10
10
10
10
10
ENDCHAR
STARTCHAR tcaron
ENCODING 357
SWIDTH 720 0
DWIDTH 6 0
BBX 6 8 0 0
BITMAP
30
FC
10
10
10
10
10
10
ENDCHAR
STARTCHAR Tbar
ENCODING 358
SWIDTH 720 0
DWIDTH 6 0
BBX 6 7 0 0
BITMAP
FC
10
10
10
38
10
10
ENDCHAR
STARTCHAR tbar
ENCODING 359
SWIDTH 720 0
DWIDTH 6 0
BBX 6 7 0 0
BITMAP
FC
10
10
10
38
10
10
ENDCHAR
STARTCHAR Utilde
ENCODING 360
SWIDTH 889 0
DWIDTH 8 0
BBX 8 9 0 0
BITMAP
18
00
C3
C3
C3
C3
42
42
3C
ENDCHAR
STARTCHAR utilde
ENCODING 361
SWIDTH 889 0
DWIDTH 8 0
BBX 8 9 0 0
BITMAP
18
00
C3
C3
C3
C3
42
42
3C
ENDCHAR
STARTCHAR Umacron
ENCODING 362
SWIDTH 889 0
DWIDTH 8 0
BBX 8 9 0 0
BITMAP
18
00
C3
C3
C3
C3
42
42
3C
ENDCHAR
STARTCHAR umacron
ENCODING 363
SWIDTH 889 0
DWIDTH 8 0
BBX 8 9 0 0
BITMAP
18
00
C3
C3
C3
C3
42
42
3C
ENDCHAR
STARTCHAR Ubreve
ENCODING 364
SWIDTH 889 0
DWIDTH 8 0
BBX 8 8 0 0
BITMAP
18
C3
C3
C3
C3
42
42
3C
ENDCHAR
STARTCHAR ubreve
ENCODING 365
SWIDTH 889 0
DWIDTH 8 0
BBX 8 8 0 0
BITMAP
18
C3
C3
C3
C3
42
42
3C
ENDCHAR
STARTCHAR Uring
ENCODING 366
SWIDTH 889 0
DWIDTH 8 0
BBX 8 9 0 0
BITMAP
18
18
C3
C3
C3
C3
42
42
3C
ENDCHAR
STARTCHAR uring
ENCODING 367
SWIDTH 889 0
DWIDTH 8 0
BBX 8 9 0 0
BITMAP
18
18
C3
C3
C3
C3
42
42
3C
ENDCHAR
STARTCHAR Uhungarumlaut
ENCODING 368
SWIDTH 889 0
DWIDTH 8 0
BBX 8 9 0 0
BITMAP
1C
00
C3
C3
C3
C3
42
42
3C
ENDCHAR
STARTCHAR uhungarumlaut
ENCODING 369
SWIDTH 889 0
DWIDTH 8 0
BBX 8 9 0 0
BITMAP
1C
00
C3
C3
C3
C3
42
42
3C
ENDCHAR
STARTCHAR Uogonek
ENCODING 370
SWIDTH 889 0
DWIDTH 8 0
BBX 8 9 0 -2
BITMAP
C3
C3
C3
C3
42
42
3C
10
18
ENDCHAR
STARTCHAR uogonek
ENCODING 371
SWIDTH 889 0
DWIDTH 8 0
BBX 8 9 0 -2
BITMAP
C3
C3
C3
C3
42
42
3C
10
18
ENDCHAR
STARTCHAR Wcircumflex
ENCODING 372
SWIDTH 1268 0
DWIDTH 11 0
BBX 11 9 0 0
BITMAP
0400
0600
D820
4C60
6440
2480
3680
1B00
1900
ENDCHAR
STARTCHAR wcircumflex
ENCODING 373
SWIDTH 1268 0
DWIDTH 11 0
BBX 11 9 0 0
BITMAP
0400
0600
D820
4C60
6440
2480
3680
1B00
1900
ENDCHAR
STARTCHAR Ycircumflex
ENCODING 374
SWIDTH 926 0
DWIDTH 8 0
BBX 8 9 0 0
BITMAP
08
18
C3
62
34
18
08
08
08
ENDCHAR
STARTCHAR ycircumflex
ENCODING 375
SWIDTH 926 0
DWIDTH 8 0
BBX 8 9 0 0
BITMAP
08
18
C3
62
34
18
08
08
08
ENDCHAR
STARTCHAR Ydieresis
ENCODING 376
SWIDTH 926 0
DWIDTH 8 0
BBX 8 9 0 0
BITMAP
14
00
C3
62
34
18
08
08
08
ENDCHAR
STARTCHAR Zacute
ENCODING 377
SWIDTH 802 0
DWIDTH 7 0
BBX 7 9 0 0
BITMAP
08
30
FE
04
08
10
20
40
FE
ENDCHAR
STARTCHAR zacute
ENCODING 378
SWIDTH 802 0
DWIDTH 7 0
BBX 7 9 0 0
BITMAP
08
30
FE
04
08
10
20
40
FE
ENDCHAR
STARTCHAR Zdotaccent
ENCODING 379
SWIDTH 802 0
DWIDTH 7 0
BBX 7 9 0 0
BITMAP
10
00
FE
04
08
10
20
40
FE
ENDCHAR
STARTCHAR zdotaccent
ENCODING 380
SWIDTH 802 0
DWIDTH 7 0
BBX 7 9 0 0
BITMAP
10
00
FE
04
08
10
20
40
FE
ENDCHAR
STARTCHAR Zcaron
ENCODING 381
SWIDTH 802 0
DWIDTH 7 0
BBX 7 8 0 0
BITMAP
38
FE
04
08
10
20
40
FE
ENDCHAR
STARTCHAR zcaron
ENCODING 382
SWIDTH 802 0
DWIDTH 7 0
BBX 7 8 0 0
BITMAP
38
FE
04
08
10
20
40
FE
ENDCHAR
STARTCHAR Scommaaccent
ENCODING 536
SWIDTH 880 0
DWIDTH 8 0
BBX 8 9 0 -2
BITMAP
7E
40
C0
7E
03
02
7E
10
10
ENDCHAR
STARTCHAR scommaaccent
ENCODING 537
SWIDTH 880 0
DWIDTH 8 0
BBX 8 9 0 -2
BITMAP
7E
40
C0
7E
03
02
7E
10
10
ENDCHAR
STARTCHAR uni021A
ENCODING 538
SWIDTH 720 0
DWIDTH 6 0
BBX 6 9 0 -2
BITMAP
FC
10
10
10
10
10
10
10
10
ENDCHAR
STARTCHAR uni021B
ENCODING 539
SWIDTH 720 0
DWIDTH 6 0
BBX 6 9 0 -2
BITMAP
FC
10
10
10
10
10
10
10
10
ENDCHAR
STARTCHAR circumflex
ENCODING 710
SWIDTH 379 0
DWIDTH 3 0
BBX 3 2 0 7
BITMAP
40
E0
ENDCHAR
STARTCHAR caron
ENCODING 711
SWIDTH 379 0
DWIDTH 3 0
BBX 3 1 0 7
BITMAP
E0
ENDCHAR
STARTCHAR breve
ENCODING 728
SWIDTH 382 0
DWIDTH 3 0
BBX 3 1 0 7
BITMAP
E0
ENDCHAR
STARTCHAR dotaccent
ENCODING 729
SWIDTH 208 0
DWIDTH 2 0
BBX 1 1 0 8
BITMAP
80
ENDCHAR
STARTCHAR ring
ENCODING 730
SWIDTH 362 0
DWIDTH 3 0
BBX 3 2 0 7
BITMAP
60
E0
ENDCHAR
STARTCHAR ogonek
ENCODING 731
SWIDTH 234 0
DWIDTH 2 0
BBX 2 2 0 -2
BITMAP
C0
C0
ENDCHAR
STARTCHAR tilde
ENCODING 732
SWIDTH 362 0
DWIDTH 3 0
BBX 3 1 0 8
BITMAP
E0
ENDCHAR
STARTCHAR hungarumlaut
ENCODING 733
SWIDTH 399 0
DWIDTH 4 0
BBX 3 1 0 8
BITMAP
E0
ENDCHAR
STARTCHAR commaaccent
ENCODING 806
SWIDTH 219 0
DWIDTH 2 0
BBX 2 2 0 -2
BITMAP
C0
80
ENDCHAR
STARTCHAR Wgrave
ENCODING 7808
SWIDTH 1268 0
DWIDTH 11 0
BBX 11 9 0 0
BITMAP
0C00
0200
D820
4C60
6440
2480
3680
1B00
1900
ENDCHAR
STARTCHAR wgrave
ENCODING 7809
SWIDTH 1268 0
DWIDTH 11 0
BBX 11 9 0 0
BITMAP
0C00
0200
D820
4C60
6440
2480
3680
1B00
1900
ENDCHAR
STARTCHAR Wacute
ENCODING 7810
SWIDTH 1268 0
DWIDTH 11 0
BBX 11 9 0 0
BITMAP
0200
0C00
D820
4C60
6440
2480
3680
1B00
1900
ENDCHAR
STARTCHAR wacute
ENCODING 7811
SWIDTH 1268 0
DWIDTH 11 0
BBX 11 9 0 0
BITMAP
0200
0C00
D820
4C60
6440
2480
3680
1B00
1900
ENDCHAR
STARTCHAR Wdieresis
ENCODING 7812
SWIDTH 1268 0
DWIDTH 11 0
BBX 11 9 0 0
BITMAP
0A00
0000
D820
4C60
6440
2480
3680
1B00
1900
ENDCHAR
STARTCHAR wdieresis
ENCODING 7813
SWIDTH 1268 0
DWIDTH 11 0
BBX 11 9 0 0
BITMAP
0A00
0000
D820
4C60
6440
2480
3680
1B00
1900
ENDCHAR
STARTCHAR Ygrave
ENCODING 7922
SWIDTH 926 0
DWIDTH 8 0
BBX 8 9 0 0
BITMAP
10
08
C3
62
34
18
08
08
08
ENDCHAR
STARTCHAR ygrave
ENCODING 7923
SWIDTH 926 0
DWIDTH 8 0
BBX 8 9 0 0
BITMAP
10
08
C3
62
34
18
08
08
08
ENDCHAR
STARTCHAR endash
ENCODING 8211
SWIDTH 590 0
DWIDTH 5 0
BBX 5 1 0 3
BITMAP
F8
ENDCHAR
STARTCHAR emdash
ENCODING 8212
SWIDTH 866 0
DWIDTH 8 0
BBX 8 1 0 3
BITMAP
FF
ENDCHAR
STARTCHAR quoteleft
ENCODING 8216
SWIDTH 259 0
DWIDTH 2 0
BBX 1 3 1 4
BITMAP
80
80
80
ENDCHAR
STARTCHAR quoteright
ENCODING 8217
SWIDTH 259 0
DWIDTH 2 0
BBX 1 3 1 4
BITMAP
80
80
80
ENDCHAR
STARTCHAR quotesinglbase
ENCODING 8218
SWIDTH 259 0
DWIDTH 2 0
BBX 1 2 1 -1
BITMAP
80
80
ENDCHAR
STARTCHAR quotedblleft
ENCODING 8220
SWIDTH 462 0
DWIDTH 4 0
BBX 3 3 1 4
BITMAP
E0
A0
A0
ENDCHAR
STARTCHAR quotedblright
ENCODING 8221
SWIDTH 462 0
DWIDTH 4 0
BBX 3 3 1 4
BITMAP
A0
C0
C0
ENDCHAR
STARTCHAR quotedblbase
ENCODING 8222
SWIDTH 462 0
DWIDTH 4 0
BBX 3 2 1 -1
BITMAP
A0
C0
ENDCHAR
STARTCHAR dagger
ENCODING 8224
SWIDTH 466 0
DWIDTH 4 0
BBX 3 7 1 0
BITMAP
40
E0
40
40
40
40
40
ENDCHAR
STARTCHAR daggerdbl
ENCODING 8225
SWIDTH 466 0
DWIDTH 4 0
BBX 3 7 1 0
BITMAP
40
E0
40
40
40
E0
40
ENDCHAR
STARTCHAR bullet
ENCODING 8226
SWIDTH 413 0
DWIDTH 4 0
BBX 2 3 1 2
BITMAP
C0
C0
C0
ENDCHAR
STARTCHAR ellipsis
ENCODING 8230
SWIDTH 1310 0
DWIDTH 12 0
BBX 10 1 1 0
BITMAP
8C40
ENDCHAR
STARTCHAR perthousand
ENCODING 8240
SWIDTH 1314 0
DWIDTH 12 0
BBX 11 8 0 -1
BITMAP
6200
9400
9400
6E60
19A0
29A0
2660
4000
ENDCHAR
STARTCHAR guilsinglleft
ENCODING 8249
SWIDTH 367 0
DWIDTH 3 0
BBX 3 3 0 2
BITMAP
60
80
60
ENDCHAR
STARTCHAR guilsinglright
ENCODING 8250
SWIDTH 368 0
DWIDTH 3 0
BBX 3 3 0 2
BITMAP
C0
20
C0
ENDCHAR
STARTCHAR fraction
ENCODING 8260
SWIDTH 185 0
DWIDTH 2 0
BBX 7 8 -3 -1
BITMAP
02
04
08
08
10
20
40
C0
ENDCHAR
STARTCHAR zerosuperior
ENCODING 8304
SWIDTH 449 0
DWIDTH 4 0
BBX 4 4 0 3
BITMAP
60
90
90
60
ENDCHAR
STARTCHAR foursuperior
ENCODING 8308
SWIDTH 452 0
DWIDTH 4 0
BBX 4 3 0 3
BITMAP
90
F0
10
ENDCHAR
STARTCHAR fivesuperior
ENCODING 8309
SWIDTH 472 0
DWIDTH 4 0
BBX 4 4 0 3
BITMAP
F0
80
F0
F0
ENDCHAR
STARTCHAR sixsuperior
ENCODING 8310
SWIDTH 466 0
DWIDTH 4 0
BBX 4 4 0 3
BITMAP
70
80
F0
70
ENDCHAR
STARTCHAR sevensuperior
ENCODING 8311
SWIDTH 408 0
DWIDTH 4 0
BBX 3 4 0 3
BITMAP
E0
20
40
C0
ENDCHAR
STARTCHAR eightsuperior
ENCODING 8312
SWIDTH 479 0
DWIDTH 4 0
BBX 4 4 0 3
BITMAP
70
90
70
F0
ENDCHAR
STARTCHAR ninesuperior
ENCODING 8313
SWIDTH 460 0
DWIDTH 4 0
BBX 4 4 0 3
BITMAP
60
90
70
60
ENDCHAR
STARTCHAR zeroinferior
ENCODING 8320
SWIDTH 449 0
DWIDTH 4 0
BBX 4 4 0 0
BITMAP
60
90
90
60
ENDCHAR
STARTCHAR oneinferior
ENCODING 8321
SWIDTH 222 0
DWIDTH 2 0
BBX 2 4 0 0
BITMAP
80
40
40
40
ENDCHAR
STARTCHAR twoinferior
ENCODING 8322
SWIDTH 442 0
DWIDTH 4 0
BBX 4 4 0 0
BITMAP
E0
10
E0
F0
ENDCHAR
STARTCHAR threeinferior
ENCODING 8323
SWIDTH 443 0
DWIDTH 4 0
BBX 4 4 0 0
BITMAP
E0
10
60
F0
ENDCHAR
STARTCHAR fourinferior
ENCODING 8324
SWIDTH 452 0
DWIDTH 4 0
BBX 4 3 0 0
BITMAP
90
F0
10
ENDCHAR
STARTCHAR fiveinferior
ENCODING 8325
SWIDTH 472 0
DWIDTH 4 0
BBX 4 4 0 0
BITMAP
F0
80
F0
F0
ENDCHAR
STARTCHAR sixinferior
ENCODING 8326
SWIDTH 466 0
DWIDTH 4 0
BBX 4 4 0 0
BITMAP
70
80
F0
70
ENDCHAR
STARTCHAR seveninferior
ENCODING 8327
SWIDTH 408 0
DWIDTH 4 0
BBX 3 4 0 0
BITMAP
E0
20
40
C0
ENDCHAR
STARTCHAR eightinferior
ENCODING 8328
SWIDTH 479 0
DWIDTH 4 0
BBX 4 4 0 0
BITMAP
70
90
70
F0
ENDCHAR
STARTCHAR nineinferior
ENCODING 8329
SWIDTH 460 0
DWIDTH 4 0
BBX 4 4 0 0
BITMAP
60
90
70
60
ENDCHAR
STARTCHAR Euro
ENCODING 8364
SWIDTH 884 0
DWIDTH 8 0
BBX 8 7 0 0
BITMAP
3F
60
FC
40
F8
60
3E
ENDCHAR
STARTCHAR uni2117
ENCODING 8471
SWIDTH 829 0
DWIDTH 7 0
BBX 7 7 0 0
BITMAP
38
7C
A6
BA
A2
44
38
ENDCHAR
STARTCHAR trademark
ENCODING 8482
SWIDTH 536 0
DWIDTH 5 0
BBX 4 2 0 5
BITMAP
F0
70
ENDCHAR
STARTCHAR onethird
ENCODING 8531
SWIDTH 951 0
DWIDTH 9 0
BBX 8 8 0 -1
BITMAP
42
24
28
2F
11
23
47
C0
ENDCHAR
STARTCHAR twothirds
ENCODING 8532
SWIDTH 979 0
DWIDTH 9 0
BBX 8 8 0 -1
BITMAP
E3
12
E4
FF
11
13
27
40
ENDCHAR
STARTCHAR oneeighth
ENCODING 8539
SWIDTH 985 0
DWIDTH 9 0
BBX 8 8 0 -1
BITMAP
42
24
28
2F
15
27
47
C0
ENDCHAR
STARTCHAR threeeighths
ENCODING 8540
SWIDTH 972 0
DWIDTH 9 0
BBX 8 8 0 -1
BITMAP
E2
14
64
FF
15
17
27
40
ENDCHAR
STARTCHAR fiveeighths
ENCODING 8541
SWIDTH 973 0
DWIDTH 9 0
BBX 8 8 0 -1
BITMAP
F3
82
F4
FF
15
17
27
40
ENDCHAR
STARTCHAR seveneighths
ENCODING 8542
SWIDTH 965 0
DWIDTH 9 0
BBX 8 8 0 -1
BITMAP
72
24
28
4F
15
27
47
C0
ENDCHAR
STARTCHAR minus
ENCODING 8722
SWIDTH 690 0
DWIDTH 6 0
BBX 5 1 1 3
BITMAP
F8
ENDCHAR
STARTCHAR approxequal
ENCODING 8776
SWIDTH 691 0
DWIDTH 6 0
BBX 5 3 1 2
BITMAP
F8
00
F8
ENDCHAR
STARTCHAR notequal
ENCODING 8800
SWIDTH 690 0
DWIDTH 6 0
BBX 6 8 0 -1
BITMAP
04
08
7C
10
7C
40
40
80
ENDCHAR
STARTCHAR lessequal
ENCODING 8804
SWIDTH 690 0
DWIDTH 6 0
BBX 5 7 1 -1
BITMAP
08
70
80
60
18
00
F8
ENDCHAR
STARTCHAR greaterequal
ENCODING 8805
SWIDTH 690 0
DWIDTH 6 0
BBX 5 7 1 -1
BITMAP
80
60
18
30
C0
00
F8
ENDCHAR
STARTCHAR .notdef
ENCODING -1
SWIDTH 430 0
DWIDTH 4 0
BBX 3 7 0 0
BITMAP
E0
A0
A0
A0
A0
A0
E0
ENDCHAR
STARTCHAR nonmarkingreturn
ENCODING -1
SWIDTH 104 0
DWIDTH 1 0
BBX 1 1 0 0
BITMAP
00
ENDCHAR
STARTCHAR .null
ENCODING -1
SWIDTH 104 0
DWIDTH 1 0
BBX 1 1 0 0
BITMAP
00
ENDCHAR
STARTCHAR .ttfautohint
ENCODING -1
SWIDTH 104 0
DWIDTH 1 0
BBX 1 1 0 0
BITMAP
00
ENDCHAR
ENDFONT
