STARTFONT 2.1
FONT -FontForge-Good Times Rg-Book-R-Normal--7-70-75-75-P-51-ISO10646-1
SIZE 7 75 75
FONTBOUNDINGBOX 14 9 -2 -2
COMMENT "Generated by fontforge, http://fontforge.sourceforge.net"
COMMENT "(c) 1998-2012 Typodermic Fonts Inc. See attached license agreement. If agreement is missing visit typodermicfonts.com for more info. Languages by Chikako Larabie"
STARTPROPERTIES 39
FOUNDRY "FontForge"
FAMILY_NAME "Good Times Rg"
WEIGHT_NAME "Book"
SLANT "R"
SETWIDTH_NAME "Normal"
ADD_STYLE_NAME ""
PIXEL_SIZE 7
POINT_SIZE 70
RESOLUTION_X 75
RESOLUTION_Y 75
SPACING "P"
AVERAGE_WIDTH 51
CHARSET_REGISTRY "ISO10646"
CHARSET_ENCODING "1"
FONTNAME_REGISTRY ""
CHARSET_COLLECTIONS "ISO8859-2 ISO8859-9 ISO8859-4 ISO10646-1"
FONT_NAME "GoodTimesRg-Regular"
FACE_NAME "GoodTimesRg-Regular"
COPYRIGHT "(c) 1998-2012 Typodermic Fonts Inc. See attached license agreement. If agreement is missing visit typodermicfonts.com for more info. Languages by Chikako Larabie"
FONT_VERSION "4.001"
FONT_ASCENT 6
FONT_DESCENT 1
UNDERLINE_POSITION -1
UNDERLINE_THICKNESS 1
X_HEIGHT 4
CAP_HEIGHT 4
RAW_ASCENT 799
RAW_DESCENT 201
NORM_SPACE 2
RELATIVE_WEIGHT 40
RELATIVE_SETWIDTH 50
SUPERSCRIPT_X 0
SUPERSCRIPT_Y 2
SUPERSCRIPT_SIZE 2
SUBSCRIPT_X 0
SUBSCRIPT_Y 0
SUBSCRIPT_SIZE 2
AVG_LOWERCASE_WIDTH 59
AVG_UPPERCASE_WIDTH 58
ENDPROPERTIES
CHARS 372
STARTCHAR space
ENCODING 32
SWIDTH 294 0
DWIDTH 2 0
BBX 1 1 0 0
BITMAP
00
ENDCHAR
STARTCHAR exclam
ENCODING 33
SWIDTH 298 0
DWIDTH 2 0
BBX 1 5 1 0
BITMAP
80
80
80
00
80
ENDCHAR
STARTCHAR quotedbl
ENCODING 34
SWIDTH 452 0
DWIDTH 3 0
BBX 3 2 0 3
BITMAP
A0
A0
ENDCHAR
STARTCHAR numbersign
ENCODING 35
SWIDTH 697 0
DWIDTH 5 0
BBX 5 5 0 0
BITMAP
30
78
50
F0
60
ENDCHAR
STARTCHAR dollar
ENCODING 36
SWIDTH 744 0
DWIDTH 5 0
BBX 5 5 0 0
BITMAP
78
A0
78
28
F8
ENDCHAR
STARTCHAR percent
ENCODING 37
SWIDTH 965 0
DWIDTH 7 0
BBX 6 6 0 0
BITMAP
64
A8
70
2C
2C
4C
ENDCHAR
STARTCHAR ampersand
ENCODING 38
SWIDTH 759 0
DWIDTH 5 0
BBX 5 5 0 0
BITMAP
60
80
78
90
78
ENDCHAR
STARTCHAR quotesingle
ENCODING 39
SWIDTH 255 0
DWIDTH 2 0
BBX 1 2 0 3
BITMAP
80
80
ENDCHAR
STARTCHAR parenleft
ENCODING 40
SWIDTH 356 0
DWIDTH 2 0
BBX 1 6 1 -1
BITMAP
80
80
80
80
80
80
ENDCHAR
STARTCHAR parenright
ENCODING 41
SWIDTH 355 0
DWIDTH 2 0
BBX 2 6 0 -1
BITMAP
80
40
40
40
40
80
ENDCHAR
STARTCHAR asterisk
ENCODING 42
SWIDTH 469 0
DWIDTH 3 0
BBX 3 2 0 3
BITMAP
C0
60
ENDCHAR
STARTCHAR plus
ENCODING 43
SWIDTH 690 0
DWIDTH 5 0
BBX 4 4 0 1
BITMAP
20
20
F0
20
ENDCHAR
STARTCHAR comma
ENCODING 44
SWIDTH 259 0
DWIDTH 2 0
BBX 1 2 0 -1
BITMAP
80
80
ENDCHAR
STARTCHAR hyphen
ENCODING 45
SWIDTH 296 0
DWIDTH 2 0
BBX 2 1 0 2
BITMAP
C0
ENDCHAR
STARTCHAR period
ENCODING 46
SWIDTH 262 0
DWIDTH 2 0
BBX 1 1 0 0
BITMAP
80
ENDCHAR
STARTCHAR slash
ENCODING 47
SWIDTH 444 0
DWIDTH 3 0
BBX 3 5 0 0
BITMAP
20
20
40
40
80
ENDCHAR
STARTCHAR zero
ENCODING 48
SWIDTH 838 0
DWIDTH 6 0
BBX 6 5 0 0
BITMAP
78
88
84
48
78
ENDCHAR
STARTCHAR one
ENCODING 49
SWIDTH 385 0
DWIDTH 3 0
BBX 2 5 0 0
BITMAP
C0
40
40
40
40
ENDCHAR
STARTCHAR two
ENCODING 50
SWIDTH 825 0
DWIDTH 6 0
BBX 5 5 0 0
BITMAP
F8
08
78
80
F8
ENDCHAR
STARTCHAR three
ENCODING 51
SWIDTH 827 0
DWIDTH 6 0
BBX 5 5 0 0
BITMAP
F8
08
38
08
F8
ENDCHAR
STARTCHAR four
ENCODING 52
SWIDTH 845 0
DWIDTH 6 0
BBX 6 5 0 0
BITMAP
88
88
88
7C
08
ENDCHAR
STARTCHAR five
ENCODING 53
SWIDTH 885 0
DWIDTH 6 0
BBX 6 5 0 0
BITMAP
FC
80
FC
04
FC
ENDCHAR
STARTCHAR six
ENCODING 54
SWIDTH 872 0
DWIDTH 6 0
BBX 6 5 0 0
BITMAP
7C
80
F8
84
78
ENDCHAR
STARTCHAR seven
ENCODING 55
SWIDTH 756 0
DWIDTH 5 0
BBX 5 5 0 0
BITMAP
F8
10
30
20
C0
ENDCHAR
STARTCHAR eight
ENCODING 56
SWIDTH 898 0
DWIDTH 6 0
BBX 6 5 0 0
BITMAP
7C
84
78
84
7C
ENDCHAR
STARTCHAR nine
ENCODING 57
SWIDTH 861 0
DWIDTH 6 0
BBX 6 5 0 0
BITMAP
78
84
7C
04
78
ENDCHAR
STARTCHAR colon
ENCODING 58
SWIDTH 262 0
DWIDTH 2 0
BBX 1 3 0 0
BITMAP
80
00
80
ENDCHAR
STARTCHAR semicolon
ENCODING 59
SWIDTH 262 0
DWIDTH 2 0
BBX 1 4 0 -1
BITMAP
80
00
80
80
ENDCHAR
STARTCHAR less
ENCODING 60
SWIDTH 690 0
DWIDTH 5 0
BBX 4 3 0 1
BITMAP
30
C0
30
ENDCHAR
STARTCHAR equal
ENCODING 61
SWIDTH 690 0
DWIDTH 5 0
BBX 4 3 0 1
BITMAP
F0
00
F0
ENDCHAR
STARTCHAR greater
ENCODING 62
SWIDTH 690 0
DWIDTH 5 0
BBX 4 3 0 1
BITMAP
E0
10
E0
ENDCHAR
STARTCHAR question
ENCODING 63
SWIDTH 776 0
DWIDTH 5 0
BBX 5 5 0 0
BITMAP
F8
08
78
40
40
ENDCHAR
STARTCHAR at
ENCODING 64
SWIDTH 833 0
DWIDTH 6 0
BBX 5 5 0 0
BITMAP
78
B8
B8
B8
78
ENDCHAR
STARTCHAR A
ENCODING 65
SWIDTH 989 0
DWIDTH 7 0
BBX 7 5 0 0
BITMAP
10
28
28
5C
86
ENDCHAR
STARTCHAR B
ENCODING 66
SWIDTH 891 0
DWIDTH 6 0
BBX 6 5 0 0
BITMAP
FC
84
B8
84
FC
ENDCHAR
STARTCHAR C
ENCODING 67
SWIDTH 829 0
DWIDTH 6 0
BBX 6 5 0 0
BITMAP
7C
80
80
40
7C
ENDCHAR
STARTCHAR D
ENCODING 68
SWIDTH 879 0
DWIDTH 6 0
BBX 6 5 0 0
BITMAP
F8
84
84
84
F8
ENDCHAR
STARTCHAR E
ENCODING 69
SWIDTH 759 0
DWIDTH 5 0
BBX 5 5 0 0
BITMAP
F8
80
B8
80
F8
ENDCHAR
STARTCHAR F
ENCODING 70
SWIDTH 705 0
DWIDTH 5 0
BBX 5 5 0 0
BITMAP
F8
80
B8
80
80
ENDCHAR
STARTCHAR G
ENCODING 71
SWIDTH 888 0
DWIDTH 6 0
BBX 6 5 0 0
BITMAP
7C
80
9C
44
7C
ENDCHAR
STARTCHAR H
ENCODING 72
SWIDTH 838 0
DWIDTH 6 0
BBX 5 5 0 0
BITMAP
88
88
B8
88
88
ENDCHAR
STARTCHAR I
ENCODING 73
SWIDTH 267 0
DWIDTH 2 0
BBX 1 5 0 0
BITMAP
80
80
80
80
80
ENDCHAR
STARTCHAR J
ENCODING 74
SWIDTH 708 0
DWIDTH 5 0
BBX 5 5 0 0
BITMAP
08
08
08
08
F0
ENDCHAR
STARTCHAR K
ENCODING 75
SWIDTH 875 0
DWIDTH 6 0
BBX 6 5 0 0
BITMAP
8C
90
A0
90
8C
ENDCHAR
STARTCHAR L
ENCODING 76
SWIDTH 707 0
DWIDTH 5 0
BBX 5 5 0 0
BITMAP
80
80
80
80
F8
ENDCHAR
STARTCHAR M
ENCODING 77
SWIDTH 1115 0
DWIDTH 8 0
BBX 8 5 0 0
BITMAP
44
66
6A
5A
91
ENDCHAR
STARTCHAR N
ENCODING 78
SWIDTH 873 0
DWIDTH 6 0
BBX 6 5 0 0
BITMAP
C4
E4
B4
9C
84
ENDCHAR
STARTCHAR O
ENCODING 79
SWIDTH 968 0
DWIDTH 7 0
BBX 7 5 0 0
BITMAP
7C
84
82
44
7C
ENDCHAR
STARTCHAR P
ENCODING 80
SWIDTH 867 0
DWIDTH 6 0
BBX 6 5 0 0
BITMAP
F8
84
84
B8
80
ENDCHAR
STARTCHAR Q
ENCODING 81
SWIDTH 968 0
DWIDTH 7 0
BBX 7 5 0 0
BITMAP
7C
84
82
5C
7E
ENDCHAR
STARTCHAR R
ENCODING 82
SWIDTH 921 0
DWIDTH 6 0
BBX 6 5 0 0
BITMAP
F8
84
84
B8
84
ENDCHAR
STARTCHAR S
ENCODING 83
SWIDTH 880 0
DWIDTH 6 0
BBX 6 5 0 0
BITMAP
7C
80
7C
04
FC
ENDCHAR
STARTCHAR T
ENCODING 84
SWIDTH 720 0
DWIDTH 5 0
BBX 5 5 0 0
BITMAP
F8
20
20
20
20
ENDCHAR
STARTCHAR U
ENCODING 85
SWIDTH 889 0
DWIDTH 6 0
BBX 6 5 0 0
BITMAP
84
84
84
84
78
ENDCHAR
STARTCHAR V
ENCODING 86
SWIDTH 989 0
DWIDTH 7 0
BBX 7 5 0 0
BITMAP
86
44
28
28
10
ENDCHAR
STARTCHAR W
ENCODING 87
SWIDTH 1268 0
DWIDTH 9 0
BBX 9 5 0 0
BITMAP
9180
5900
6A00
3600
1400
ENDCHAR
STARTCHAR X
ENCODING 88
SWIDTH 1000 0
DWIDTH 7 0
BBX 7 5 0 0
BITMAP
C6
28
10
28
C6
ENDCHAR
STARTCHAR Y
ENCODING 89
SWIDTH 926 0
DWIDTH 6 0
BBX 6 5 0 0
BITMAP
C4
68
30
10
10
ENDCHAR
STARTCHAR Z
ENCODING 90
SWIDTH 802 0
DWIDTH 6 0
BBX 5 5 0 0
BITMAP
F8
10
20
40
F8
ENDCHAR
STARTCHAR bracketleft
ENCODING 91
SWIDTH 333 0
DWIDTH 2 0
BBX 1 7 1 -1
BITMAP
80
80
80
80
80
80
80
ENDCHAR
STARTCHAR backslash
ENCODING 92
SWIDTH 445 0
DWIDTH 3 0
BBX 3 5 0 0
BITMAP
80
40
40
20
20
ENDCHAR
STARTCHAR bracketright
ENCODING 93
SWIDTH 333 0
DWIDTH 2 0
BBX 2 7 0 -1
BITMAP
C0
40
40
40
40
40
C0
ENDCHAR
STARTCHAR asciicircum
ENCODING 94
SWIDTH 559 0
DWIDTH 4 0
BBX 3 3 0 2
BITMAP
40
60
A0
ENDCHAR
STARTCHAR underscore
ENCODING 95
SWIDTH 668 0
DWIDTH 5 0
BBX 5 1 0 -1
BITMAP
F8
ENDCHAR
STARTCHAR grave
ENCODING 96
SWIDTH 362 0
DWIDTH 3 0
BBX 2 1 0 5
BITMAP
C0
ENDCHAR
STARTCHAR a
ENCODING 97
SWIDTH 989 0
DWIDTH 7 0
BBX 7 5 0 0
BITMAP
10
28
28
5C
86
ENDCHAR
STARTCHAR b
ENCODING 98
SWIDTH 891 0
DWIDTH 6 0
BBX 6 5 0 0
BITMAP
FC
84
B8
84
FC
ENDCHAR
STARTCHAR c
ENCODING 99
SWIDTH 829 0
DWIDTH 6 0
BBX 6 5 0 0
BITMAP
7C
80
80
40
7C
ENDCHAR
STARTCHAR d
ENCODING 100
SWIDTH 879 0
DWIDTH 6 0
BBX 6 5 0 0
BITMAP
F8
84
84
84
F8
ENDCHAR
STARTCHAR e
ENCODING 101
SWIDTH 759 0
DWIDTH 5 0
BBX 5 5 0 0
BITMAP
F8
80
B8
80
F8
ENDCHAR
STARTCHAR f
ENCODING 102
SWIDTH 705 0
DWIDTH 5 0
BBX 5 5 0 0
BITMAP
F8
80
B8
80
80
ENDCHAR
STARTCHAR g
ENCODING 103
SWIDTH 888 0
DWIDTH 6 0
BBX 6 5 0 0
BITMAP
7C
80
9C
44
7C
ENDCHAR
STARTCHAR h
ENCODING 104
SWIDTH 838 0
DWIDTH 6 0
BBX 5 5 0 0
BITMAP
88
88
B8
88
88
ENDCHAR
STARTCHAR i
ENCODING 105
SWIDTH 267 0
DWIDTH 2 0
BBX 1 5 0 0
BITMAP
80
80
80
80
80
ENDCHAR
STARTCHAR j
ENCODING 106
SWIDTH 708 0
DWIDTH 5 0
BBX 5 5 0 0
BITMAP
08
08
08
08
F0
ENDCHAR
STARTCHAR k
ENCODING 107
SWIDTH 875 0
DWIDTH 6 0
BBX 6 5 0 0
BITMAP
8C
90
A0
90
8C
ENDCHAR
STARTCHAR l
ENCODING 108
SWIDTH 707 0
DWIDTH 5 0
BBX 5 5 0 0
BITMAP
80
80
80
80
F8
ENDCHAR
STARTCHAR m
ENCODING 109
SWIDTH 1115 0
DWIDTH 8 0
BBX 8 5 0 0
BITMAP
44
66
6A
5A
91
ENDCHAR
STARTCHAR n
ENCODING 110
SWIDTH 873 0
DWIDTH 6 0
BBX 6 5 0 0
BITMAP
C4
E4
B4
9C
84
ENDCHAR
STARTCHAR o
ENCODING 111
SWIDTH 968 0
DWIDTH 7 0
BBX 7 5 0 0
BITMAP
7C
84
82
44
7C
ENDCHAR
STARTCHAR p
ENCODING 112
SWIDTH 867 0
DWIDTH 6 0
BBX 6 5 0 0
BITMAP
F8
84
84
B8
80
ENDCHAR
STARTCHAR q
ENCODING 113
SWIDTH 968 0
DWIDTH 7 0
BBX 7 5 0 0
BITMAP
7C
84
82
5C
7E
ENDCHAR
STARTCHAR r
ENCODING 114
SWIDTH 921 0
DWIDTH 6 0
BBX 6 5 0 0
BITMAP
F8
84
84
B8
84
ENDCHAR
STARTCHAR s
ENCODING 115
SWIDTH 880 0
DWIDTH 6 0
BBX 6 5 0 0
BITMAP
7C
80
7C
04
FC
ENDCHAR
STARTCHAR t
ENCODING 116
SWIDTH 720 0
DWIDTH 5 0
BBX 5 5 0 0
BITMAP
F8
20
20
20
20
ENDCHAR
STARTCHAR u
ENCODING 117
SWIDTH 889 0
DWIDTH 6 0
BBX 6 5 0 0
BITMAP
84
84
84
84
78
ENDCHAR
STARTCHAR v
ENCODING 118
SWIDTH 989 0
DWIDTH 7 0
BBX 7 5 0 0
BITMAP
86
44
28
28
10
ENDCHAR
STARTCHAR w
ENCODING 119
SWIDTH 1268 0
DWIDTH 9 0
BBX 9 5 0 0
BITMAP
9180
5900
6A00
3600
1400
ENDCHAR
STARTCHAR x
ENCODING 120
SWIDTH 1000 0
DWIDTH 7 0
BBX 7 5 0 0
BITMAP
C6
28
10
28
C6
ENDCHAR
STARTCHAR y
ENCODING 121
SWIDTH 926 0
DWIDTH 6 0
BBX 6 5 0 0
BITMAP
C4
68
30
10
10
ENDCHAR
STARTCHAR z
ENCODING 122
SWIDTH 802 0
DWIDTH 6 0
BBX 5 5 0 0
BITMAP
F8
10
20
40
F8
ENDCHAR
STARTCHAR braceleft
ENCODING 123
SWIDTH 337 0
DWIDTH 2 0
BBX 2 7 0 -1
BITMAP
40
40
40
80
40
40
40
ENDCHAR
STARTCHAR bar
ENCODING 124
SWIDTH 297 0
DWIDTH 2 0
BBX 1 6 1 -1
BITMAP
80
80
80
80
80
80
ENDCHAR
STARTCHAR braceright
ENCODING 125
SWIDTH 337 0
DWIDTH 2 0
BBX 2 7 0 -1
BITMAP
80
40
40
40
40
40
80
ENDCHAR
STARTCHAR asciitilde
ENCODING 126
SWIDTH 691 0
DWIDTH 5 0
BBX 4 1 0 2
BITMAP
F0
ENDCHAR
STARTCHAR nonbreakingspace
ENCODING 160
SWIDTH 294 0
DWIDTH 2 0
BBX 1 1 0 0
BITMAP
00
ENDCHAR
STARTCHAR exclamdown
ENCODING 161
SWIDTH 298 0
DWIDTH 2 0
BBX 1 5 1 0
BITMAP
80
00
80
80
80
ENDCHAR
STARTCHAR cent
ENCODING 162
SWIDTH 692 0
DWIDTH 5 0
BBX 5 5 0 0
BITMAP
78
A0
A0
A0
78
ENDCHAR
STARTCHAR sterling
ENCODING 163
SWIDTH 709 0
DWIDTH 5 0
BBX 5 5 0 0
BITMAP
70
40
E0
40
F8
ENDCHAR
STARTCHAR yen
ENCODING 165
SWIDTH 787 0
DWIDTH 6 0
BBX 5 5 0 0
BITMAP
C8
50
78
20
78
ENDCHAR
STARTCHAR brokenbar
ENCODING 166
SWIDTH 297 0
DWIDTH 2 0
BBX 1 6 1 -1
BITMAP
80
80
80
80
80
80
ENDCHAR
STARTCHAR section
ENCODING 167
SWIDTH 773 0
DWIDTH 5 0
BBX 5 7 0 -2
BITMAP
70
80
78
88
78
08
78
ENDCHAR
STARTCHAR dieresis
ENCODING 168
SWIDTH 393 0
DWIDTH 3 0
BBX 2 1 0 5
BITMAP
C0
ENDCHAR
STARTCHAR copyright
ENCODING 169
SWIDTH 829 0
DWIDTH 6 0
BBX 6 5 0 0
BITMAP
78
B4
C4
B4
78
ENDCHAR
STARTCHAR ordfeminine
ENCODING 170
SWIDTH 604 0
DWIDTH 4 0
BBX 4 3 0 2
BITMAP
20
60
90
ENDCHAR
STARTCHAR guillemotleft
ENCODING 171
SWIDTH 629 0
DWIDTH 4 0
BBX 4 3 0 1
BITMAP
50
A0
70
ENDCHAR
STARTCHAR registered
ENCODING 174
SWIDTH 585 0
DWIDTH 4 0
BBX 4 4 0 1
BITMAP
60
F0
90
60
ENDCHAR
STARTCHAR macron
ENCODING 175
SWIDTH 362 0
DWIDTH 3 0
BBX 2 1 0 5
BITMAP
C0
ENDCHAR
STARTCHAR degree
ENCODING 176
SWIDTH 361 0
DWIDTH 3 0
BBX 2 3 0 2
BITMAP
C0
C0
C0
ENDCHAR
STARTCHAR plusminus
ENCODING 177
SWIDTH 690 0
DWIDTH 5 0
BBX 4 6 0 -1
BITMAP
20
20
F0
20
00
F0
ENDCHAR
STARTCHAR twosuperior
ENCODING 178
SWIDTH 442 0
DWIDTH 3 0
BBX 3 3 0 3
BITMAP
E0
E0
E0
ENDCHAR
STARTCHAR threesuperior
ENCODING 179
SWIDTH 443 0
DWIDTH 3 0
BBX 3 3 0 3
BITMAP
E0
60
E0
ENDCHAR
STARTCHAR acute
ENCODING 180
SWIDTH 362 0
DWIDTH 3 0
BBX 2 1 0 5
BITMAP
C0
ENDCHAR
STARTCHAR paragraph
ENCODING 182
SWIDTH 629 0
DWIDTH 4 0
BBX 4 6 0 -1
BITMAP
70
F0
70
30
30
30
ENDCHAR
STARTCHAR periodcentered
ENCODING 183
SWIDTH 262 0
DWIDTH 2 0
BBX 1 1 0 2
BITMAP
80
ENDCHAR
STARTCHAR cedilla
ENCODING 184
SWIDTH 219 0
DWIDTH 2 0
BBX 1 1 0 -1
BITMAP
80
ENDCHAR
STARTCHAR onesuperior
ENCODING 185
SWIDTH 222 0
DWIDTH 2 0
BBX 1 3 0 3
BITMAP
80
80
80
ENDCHAR
STARTCHAR ordmasculine
ENCODING 186
SWIDTH 592 0
DWIDTH 4 0
BBX 4 3 0 2
BITMAP
60
90
60
ENDCHAR
STARTCHAR guillemotright
ENCODING 187
SWIDTH 629 0
DWIDTH 4 0
BBX 4 3 0 1
BITMAP
A0
50
A0
ENDCHAR
STARTCHAR onequarter
ENCODING 188
SWIDTH 972 0
DWIDTH 7 0
BBX 7 6 0 0
BITMAP
48
48
50
2C
4C
8E
ENDCHAR
STARTCHAR onehalf
ENCODING 189
SWIDTH 948 0
DWIDTH 7 0
BBX 6 6 0 0
BITMAP
48
48
50
2C
4C
8C
ENDCHAR
STARTCHAR threequarters
ENCODING 190
SWIDTH 1029 0
DWIDTH 7 0
BBX 7 6 0 0
BITMAP
E4
68
F0
2A
2A
4E
ENDCHAR
STARTCHAR questiondown
ENCODING 191
SWIDTH 776 0
DWIDTH 5 0
BBX 5 5 0 0
BITMAP
08
08
70
80
78
ENDCHAR
STARTCHAR Agrave
ENCODING 192
SWIDTH 989 0
DWIDTH 7 0
BBX 7 6 0 0
BITMAP
30
10
28
28
5C
86
ENDCHAR
STARTCHAR Aacute
ENCODING 193
SWIDTH 989 0
DWIDTH 7 0
BBX 7 6 0 0
BITMAP
18
10
28
28
5C
86
ENDCHAR
STARTCHAR Acircumflex
ENCODING 194
SWIDTH 989 0
DWIDTH 7 0
BBX 7 7 0 0
BITMAP
10
00
10
28
28
5C
86
ENDCHAR
STARTCHAR Atilde
ENCODING 195
SWIDTH 989 0
DWIDTH 7 0
BBX 7 6 0 0
BITMAP
10
10
28
28
5C
86
ENDCHAR
STARTCHAR Adieresis
ENCODING 196
SWIDTH 989 0
DWIDTH 7 0
BBX 7 6 0 0
BITMAP
28
10
28
28
5C
86
ENDCHAR
STARTCHAR Aring
ENCODING 197
SWIDTH 989 0
DWIDTH 7 0
BBX 7 7 0 0
BITMAP
10
10
10
28
28
5C
86
ENDCHAR
STARTCHAR AE
ENCODING 198
SWIDTH 1345 0
DWIDTH 9 0
BBX 9 5 0 0
BITMAP
1F80
2400
2780
5C00
8780
ENDCHAR
STARTCHAR Ccedilla
ENCODING 199
SWIDTH 829 0
DWIDTH 6 0
BBX 6 6 0 -1
BITMAP
7C
80
80
40
7C
10
ENDCHAR
STARTCHAR Egrave
ENCODING 200
SWIDTH 759 0
DWIDTH 5 0
BBX 5 6 0 0
BITMAP
20
F8
80
B8
80
F8
ENDCHAR
STARTCHAR Eacute
ENCODING 201
SWIDTH 759 0
DWIDTH 5 0
BBX 5 6 0 0
BITMAP
30
F8
80
B8
80
F8
ENDCHAR
STARTCHAR Ecircumflex
ENCODING 202
SWIDTH 759 0
DWIDTH 5 0
BBX 5 7 0 0
BITMAP
20
10
F8
80
B8
80
F8
ENDCHAR
STARTCHAR Edieresis
ENCODING 203
SWIDTH 759 0
DWIDTH 5 0
BBX 5 6 0 0
BITMAP
30
F8
80
B8
80
F8
ENDCHAR
STARTCHAR Igrave
ENCODING 204
SWIDTH 267 0
DWIDTH 2 0
BBX 2 6 0 0
BITMAP
C0
80
80
80
80
80
ENDCHAR
STARTCHAR Iacute
ENCODING 205
SWIDTH 267 0
DWIDTH 2 0
BBX 2 6 0 0
BITMAP
C0
80
80
80
80
80
ENDCHAR
STARTCHAR Icircumflex
ENCODING 206
SWIDTH 267 0
DWIDTH 2 0
BBX 2 7 0 0
BITMAP
80
40
80
80
80
80
80
ENDCHAR
STARTCHAR Idieresis
ENCODING 207
SWIDTH 267 0
DWIDTH 2 0
BBX 2 6 0 0
BITMAP
C0
80
80
80
80
80
ENDCHAR
STARTCHAR Eth
ENCODING 208
SWIDTH 877 0
DWIDTH 6 0
BBX 6 5 0 0
BITMAP
F8
84
E4
84
F8
ENDCHAR
STARTCHAR Ntilde
ENCODING 209
SWIDTH 873 0
DWIDTH 6 0
BBX 6 6 0 0
BITMAP
30
C4
E4
B4
9C
84
ENDCHAR
STARTCHAR Ograve
ENCODING 210
SWIDTH 968 0
DWIDTH 7 0
BBX 7 6 0 0
BITMAP
30
7C
84
82
44
7C
ENDCHAR
STARTCHAR Oacute
ENCODING 211
SWIDTH 968 0
DWIDTH 7 0
BBX 7 6 0 0
BITMAP
10
7C
84
82
44
7C
ENDCHAR
STARTCHAR Ocircumflex
ENCODING 212
SWIDTH 968 0
DWIDTH 7 0
BBX 7 7 0 0
BITMAP
10
20
7C
84
82
44
7C
ENDCHAR
STARTCHAR Otilde
ENCODING 213
SWIDTH 968 0
DWIDTH 7 0
BBX 7 6 0 0
BITMAP
30
7C
84
82
44
7C
ENDCHAR
STARTCHAR Odieresis
ENCODING 214
SWIDTH 968 0
DWIDTH 7 0
BBX 7 6 0 0
BITMAP
28
7C
84
82
44
7C
ENDCHAR
STARTCHAR multiply
ENCODING 215
SWIDTH 690 0
DWIDTH 5 0
BBX 3 3 1 1
BITMAP
A0
40
A0
ENDCHAR
STARTCHAR Oslash
ENCODING 216
SWIDTH 968 0
DWIDTH 7 0
BBX 7 5 0 0
BITMAP
7C
8C
92
A4
7C
ENDCHAR
STARTCHAR Ugrave
ENCODING 217
SWIDTH 889 0
DWIDTH 6 0
BBX 6 6 0 0
BITMAP
30
84
84
84
84
78
ENDCHAR
STARTCHAR Uacute
ENCODING 218
SWIDTH 889 0
DWIDTH 6 0
BBX 6 6 0 0
BITMAP
30
84
84
84
84
78
ENDCHAR
STARTCHAR Ucircumflex
ENCODING 219
SWIDTH 889 0
DWIDTH 6 0
BBX 6 7 0 0
BITMAP
10
20
84
84
84
84
78
ENDCHAR
STARTCHAR Udieresis
ENCODING 220
SWIDTH 889 0
DWIDTH 6 0
BBX 6 6 0 0
BITMAP
30
84
84
84
84
78
ENDCHAR
STARTCHAR Yacute
ENCODING 221
SWIDTH 926 0
DWIDTH 6 0
BBX 6 6 0 0
BITMAP
30
C4
68
30
10
10
ENDCHAR
STARTCHAR Thorn
ENCODING 222
SWIDTH 843 0
DWIDTH 6 0
BBX 6 5 0 0
BITMAP
80
F8
84
B8
80
ENDCHAR
STARTCHAR germandbls
ENCODING 223
SWIDTH 1760 0
DWIDTH 12 0
BBX 12 5 0 0
BITMAP
7DF0
8200
7DF0
0410
FDF0
ENDCHAR
STARTCHAR agrave
ENCODING 224
SWIDTH 989 0
DWIDTH 7 0
BBX 7 6 0 0
BITMAP
30
10
28
28
5C
86
ENDCHAR
STARTCHAR aacute
ENCODING 225
SWIDTH 989 0
DWIDTH 7 0
BBX 7 6 0 0
BITMAP
18
10
28
28
5C
86
ENDCHAR
STARTCHAR acircumflex
ENCODING 226
SWIDTH 989 0
DWIDTH 7 0
BBX 7 7 0 0
BITMAP
10
00
10
28
28
5C
86
ENDCHAR
STARTCHAR atilde
ENCODING 227
SWIDTH 989 0
DWIDTH 7 0
BBX 7 6 0 0
BITMAP
10
10
28
28
5C
86
ENDCHAR
STARTCHAR adieresis
ENCODING 228
SWIDTH 989 0
DWIDTH 7 0
BBX 7 6 0 0
BITMAP
28
10
28
28
5C
86
ENDCHAR
STARTCHAR aring
ENCODING 229
SWIDTH 989 0
DWIDTH 7 0
BBX 7 7 0 0
BITMAP
10
10
10
28
28
5C
86
ENDCHAR
STARTCHAR ae
ENCODING 230
SWIDTH 1345 0
DWIDTH 9 0
BBX 9 5 0 0
BITMAP
1F80
2400
2780
5C00
8780
ENDCHAR
STARTCHAR ccedilla
ENCODING 231
SWIDTH 829 0
DWIDTH 6 0
BBX 6 6 0 -1
BITMAP
7C
80
80
40
7C
10
ENDCHAR
STARTCHAR egrave
ENCODING 232
SWIDTH 759 0
DWIDTH 5 0
BBX 5 6 0 0
BITMAP
20
F8
80
B8
80
F8
ENDCHAR
STARTCHAR eacute
ENCODING 233
SWIDTH 759 0
DWIDTH 5 0
BBX 5 6 0 0
BITMAP
30
F8
80
B8
80
F8
ENDCHAR
STARTCHAR ecircumflex
ENCODING 234
SWIDTH 759 0
DWIDTH 5 0
BBX 5 7 0 0
BITMAP
20
10
F8
80
B8
80
F8
ENDCHAR
STARTCHAR edieresis
ENCODING 235
SWIDTH 759 0
DWIDTH 5 0
BBX 5 6 0 0
BITMAP
30
F8
80
B8
80
F8
ENDCHAR
STARTCHAR igrave
ENCODING 236
SWIDTH 267 0
DWIDTH 2 0
BBX 2 6 0 0
BITMAP
C0
80
80
80
80
80
ENDCHAR
STARTCHAR iacute
ENCODING 237
SWIDTH 267 0
DWIDTH 2 0
BBX 2 6 0 0
BITMAP
C0
80
80
80
80
80
ENDCHAR
STARTCHAR icircumflex
ENCODING 238
SWIDTH 267 0
DWIDTH 2 0
BBX 2 7 0 0
BITMAP
80
40
80
80
80
80
80
ENDCHAR
STARTCHAR idieresis
ENCODING 239
SWIDTH 267 0
DWIDTH 2 0
BBX 2 6 0 0
BITMAP
C0
80
80
80
80
80
ENDCHAR
STARTCHAR eth
ENCODING 240
SWIDTH 877 0
DWIDTH 6 0
BBX 6 5 0 0
BITMAP
F8
84
E4
84
F8
ENDCHAR
STARTCHAR ntilde
ENCODING 241
SWIDTH 873 0
DWIDTH 6 0
BBX 6 6 0 0
BITMAP
30
C4
E4
B4
9C
84
ENDCHAR
STARTCHAR ograve
ENCODING 242
SWIDTH 968 0
DWIDTH 7 0
BBX 7 6 0 0
BITMAP
30
7C
84
82
44
7C
ENDCHAR
STARTCHAR oacute
ENCODING 243
SWIDTH 968 0
DWIDTH 7 0
BBX 7 6 0 0
BITMAP
10
7C
84
82
44
7C
ENDCHAR
STARTCHAR ocircumflex
ENCODING 244
SWIDTH 968 0
DWIDTH 7 0
BBX 7 7 0 0
BITMAP
10
20
7C
84
82
44
7C
ENDCHAR
STARTCHAR otilde
ENCODING 245
SWIDTH 968 0
DWIDTH 7 0
BBX 7 6 0 0
BITMAP
30
7C
84
82
44
7C
ENDCHAR
STARTCHAR odieresis
ENCODING 246
SWIDTH 968 0
DWIDTH 7 0
BBX 7 6 0 0
BITMAP
28
7C
84
82
44
7C
ENDCHAR
STARTCHAR divide
ENCODING 247
SWIDTH 690 0
DWIDTH 5 0
BBX 4 5 0 0
BITMAP
20
00
F0
00
20
ENDCHAR
STARTCHAR oslash
ENCODING 248
SWIDTH 968 0
DWIDTH 7 0
BBX 7 5 0 0
BITMAP
7C
8C
92
A4
7C
ENDCHAR
STARTCHAR ugrave
ENCODING 249
SWIDTH 889 0
DWIDTH 6 0
BBX 6 6 0 0
BITMAP
30
84
84
84
84
78
ENDCHAR
STARTCHAR uacute
ENCODING 250
SWIDTH 889 0
DWIDTH 6 0
BBX 6 6 0 0
BITMAP
30
84
84
84
84
78
ENDCHAR
STARTCHAR ucircumflex
ENCODING 251
SWIDTH 889 0
DWIDTH 6 0
BBX 6 7 0 0
BITMAP
10
20
84
84
84
84
78
ENDCHAR
STARTCHAR udieresis
ENCODING 252
SWIDTH 889 0
DWIDTH 6 0
BBX 6 6 0 0
BITMAP
30
84
84
84
84
78
ENDCHAR
STARTCHAR yacute
ENCODING 253
SWIDTH 926 0
DWIDTH 6 0
BBX 6 6 0 0
BITMAP
30
C4
68
30
10
10
ENDCHAR
STARTCHAR thorn
ENCODING 254
SWIDTH 843 0
DWIDTH 6 0
BBX 6 5 0 0
BITMAP
80
F8
84
B8
80
ENDCHAR
STARTCHAR ydieresis
ENCODING 255
SWIDTH 926 0
DWIDTH 6 0
BBX 6 6 0 0
BITMAP
30
C4
68
30
10
10
ENDCHAR
STARTCHAR Amacron
ENCODING 256
SWIDTH 989 0
DWIDTH 7 0
BBX 7 6 0 0
BITMAP
10
10
28
28
5C
86
ENDCHAR
STARTCHAR amacron
ENCODING 257
SWIDTH 989 0
DWIDTH 7 0
BBX 7 6 0 0
BITMAP
10
10
28
28
5C
86
ENDCHAR
STARTCHAR Abreve
ENCODING 258
SWIDTH 989 0
DWIDTH 7 0
BBX 7 6 0 0
BITMAP
30
10
28
28
5C
86
ENDCHAR
STARTCHAR abreve
ENCODING 259
SWIDTH 989 0
DWIDTH 7 0
BBX 7 6 0 0
BITMAP
30
10
28
28
5C
86
ENDCHAR
STARTCHAR Aogonek
ENCODING 260
SWIDTH 989 0
DWIDTH 7 0
BBX 7 7 0 -2
BITMAP
10
28
28
5C
86
02
06
ENDCHAR
STARTCHAR aogonek
ENCODING 261
SWIDTH 989 0
DWIDTH 7 0
BBX 7 7 0 -2
BITMAP
10
28
28
5C
86
02
06
ENDCHAR
STARTCHAR Cacute
ENCODING 262
SWIDTH 829 0
DWIDTH 6 0
BBX 6 6 0 0
BITMAP
30
7C
80
80
40
7C
ENDCHAR
STARTCHAR cacute
ENCODING 263
SWIDTH 829 0
DWIDTH 6 0
BBX 6 6 0 0
BITMAP
30
7C
80
80
40
7C
ENDCHAR
STARTCHAR Cdotaccent
ENCODING 266
SWIDTH 829 0
DWIDTH 6 0
BBX 6 6 0 0
BITMAP
10
7C
80
80
40
7C
ENDCHAR
STARTCHAR cdotaccent
ENCODING 267
SWIDTH 829 0
DWIDTH 6 0
BBX 6 6 0 0
BITMAP
10
7C
80
80
40
7C
ENDCHAR
STARTCHAR Ccaron
ENCODING 268
SWIDTH 829 0
DWIDTH 6 0
BBX 6 6 0 0
BITMAP
30
7C
80
80
40
7C
ENDCHAR
STARTCHAR ccaron
ENCODING 269
SWIDTH 829 0
DWIDTH 6 0
BBX 6 6 0 0
BITMAP
30
7C
80
80
40
7C
ENDCHAR
STARTCHAR Dcaron
ENCODING 270
SWIDTH 879 0
DWIDTH 6 0
BBX 6 6 0 0
BITMAP
30
F8
84
84
84
F8
ENDCHAR
STARTCHAR dcaron
ENCODING 271
SWIDTH 879 0
DWIDTH 6 0
BBX 6 6 0 0
BITMAP
30
F8
84
84
84
F8
ENDCHAR
STARTCHAR Dcroat
ENCODING 272
SWIDTH 877 0
DWIDTH 6 0
BBX 6 5 0 0
BITMAP
F8
84
E4
84
F8
ENDCHAR
STARTCHAR dcroat
ENCODING 273
SWIDTH 877 0
DWIDTH 6 0
BBX 6 5 0 0
BITMAP
F8
84
E4
84
F8
ENDCHAR
STARTCHAR Emacron
ENCODING 274
SWIDTH 759 0
DWIDTH 5 0
BBX 5 6 0 0
BITMAP
30
F8
80
B8
80
F8
ENDCHAR
STARTCHAR emacron
ENCODING 275
SWIDTH 759 0
DWIDTH 5 0
BBX 5 6 0 0
BITMAP
30
F8
80
B8
80
F8
ENDCHAR
STARTCHAR Ebreve
ENCODING 276
SWIDTH 759 0
DWIDTH 5 0
BBX 5 6 0 0
BITMAP
30
F8
80
B8
80
F8
ENDCHAR
STARTCHAR ebreve
ENCODING 277
SWIDTH 759 0
DWIDTH 5 0
BBX 5 6 0 0
BITMAP
30
F8
80
B8
80
F8
ENDCHAR
STARTCHAR Edotaccent
ENCODING 278
SWIDTH 759 0
DWIDTH 5 0
BBX 5 6 0 0
BITMAP
20
F8
80
B8
80
F8
ENDCHAR
STARTCHAR edotaccent
ENCODING 279
SWIDTH 759 0
DWIDTH 5 0
BBX 5 6 0 0
BITMAP
20
F8
80
B8
80
F8
ENDCHAR
STARTCHAR Eogonek
ENCODING 280
SWIDTH 759 0
DWIDTH 5 0
BBX 5 7 0 -2
BITMAP
F8
80
B8
80
F8
08
08
ENDCHAR
STARTCHAR eogonek
ENCODING 281
SWIDTH 759 0
DWIDTH 5 0
BBX 5 7 0 -2
BITMAP
F8
80
B8
80
F8
08
08
ENDCHAR
STARTCHAR Ecaron
ENCODING 282
SWIDTH 759 0
DWIDTH 5 0
BBX 5 6 0 0
BITMAP
30
F8
80
B8
80
F8
ENDCHAR
STARTCHAR ecaron
ENCODING 283
SWIDTH 759 0
DWIDTH 5 0
BBX 5 6 0 0
BITMAP
30
F8
80
B8
80
F8
ENDCHAR
STARTCHAR Gbreve
ENCODING 286
SWIDTH 888 0
DWIDTH 6 0
BBX 6 6 0 0
BITMAP
30
7C
80
9C
44
7C
ENDCHAR
STARTCHAR gbreve
ENCODING 287
SWIDTH 888 0
DWIDTH 6 0
BBX 6 6 0 0
BITMAP
30
7C
80
9C
44
7C
ENDCHAR
STARTCHAR Gdotaccent
ENCODING 288
SWIDTH 888 0
DWIDTH 6 0
BBX 6 6 0 0
BITMAP
10
7C
80
9C
44
7C
ENDCHAR
STARTCHAR gdotaccent
ENCODING 289
SWIDTH 888 0
DWIDTH 6 0
BBX 6 6 0 0
BITMAP
10
7C
80
9C
44
7C
ENDCHAR
STARTCHAR Gcommaaccent
ENCODING 290
SWIDTH 888 0
DWIDTH 6 0
BBX 6 6 0 -1
BITMAP
7C
80
9C
44
7C
10
ENDCHAR
STARTCHAR gcommaaccent
ENCODING 291
SWIDTH 888 0
DWIDTH 6 0
BBX 6 6 0 -1
BITMAP
7C
80
9C
44
7C
10
ENDCHAR
STARTCHAR Hbar
ENCODING 294
SWIDTH 838 0
DWIDTH 6 0
BBX 5 5 0 0
BITMAP
B8
88
B8
88
88
ENDCHAR
STARTCHAR hbar
ENCODING 295
SWIDTH 838 0
DWIDTH 6 0
BBX 5 5 0 0
BITMAP
B8
88
B8
88
88
ENDCHAR
STARTCHAR uni012A
ENCODING 298
SWIDTH 267 0
DWIDTH 2 0
BBX 2 6 0 0
BITMAP
C0
80
80
80
80
80
ENDCHAR
STARTCHAR imacron
ENCODING 299
SWIDTH 267 0
DWIDTH 2 0
BBX 2 6 0 0
BITMAP
C0
80
80
80
80
80
ENDCHAR
STARTCHAR Ibreve
ENCODING 300
SWIDTH 267 0
DWIDTH 2 0
BBX 2 6 0 0
BITMAP
C0
80
80
80
80
80
ENDCHAR
STARTCHAR ibreve
ENCODING 301
SWIDTH 267 0
DWIDTH 2 0
BBX 2 6 0 0
BITMAP
C0
80
80
80
80
80
ENDCHAR
STARTCHAR Iogonek
ENCODING 302
SWIDTH 267 0
DWIDTH 2 0
BBX 1 7 0 -2
BITMAP
80
80
80
80
80
80
80
ENDCHAR
STARTCHAR iogonek
ENCODING 303
SWIDTH 267 0
DWIDTH 2 0
BBX 1 7 0 -2
BITMAP
80
80
80
80
80
80
80
ENDCHAR
STARTCHAR Idotaccent
ENCODING 304
SWIDTH 267 0
DWIDTH 2 0
BBX 1 6 0 0
BITMAP
80
80
80
80
80
80
ENDCHAR
STARTCHAR dotlessi
ENCODING 305
SWIDTH 267 0
DWIDTH 2 0
BBX 1 5 0 0
BITMAP
80
80
80
80
80
ENDCHAR
STARTCHAR IJ
ENCODING 306
SWIDTH 975 0
DWIDTH 7 0
BBX 6 5 0 0
BITMAP
84
84
84
84
BC
ENDCHAR
STARTCHAR ij
ENCODING 307
SWIDTH 975 0
DWIDTH 7 0
BBX 6 5 0 0
BITMAP
84
84
84
84
BC
ENDCHAR
STARTCHAR Kcommaaccent
ENCODING 310
SWIDTH 875 0
DWIDTH 6 0
BBX 6 6 0 -1
BITMAP
8C
90
A0
90
8C
10
ENDCHAR
STARTCHAR kcommaaccent
ENCODING 311
SWIDTH 875 0
DWIDTH 6 0
BBX 6 6 0 -1
BITMAP
8C
90
A0
90
8C
10
ENDCHAR
STARTCHAR Lacute
ENCODING 313
SWIDTH 707 0
DWIDTH 5 0
BBX 5 6 0 0
BITMAP
C0
80
80
80
80
F8
ENDCHAR
STARTCHAR lacute
ENCODING 314
SWIDTH 707 0
DWIDTH 5 0
BBX 5 6 0 0
BITMAP
C0
80
80
80
80
F8
ENDCHAR
STARTCHAR Lcommaaccent
ENCODING 315
SWIDTH 707 0
DWIDTH 5 0
BBX 5 6 0 -1
BITMAP
80
80
80
80
F8
20
ENDCHAR
STARTCHAR lcommaaccent
ENCODING 316
SWIDTH 707 0
DWIDTH 5 0
BBX 5 6 0 -1
BITMAP
80
80
80
80
F8
20
ENDCHAR
STARTCHAR Lcaron
ENCODING 317
SWIDTH 707 0
DWIDTH 5 0
BBX 5 5 0 0
BITMAP
A0
A0
80
80
F8
ENDCHAR
STARTCHAR lcaron
ENCODING 318
SWIDTH 707 0
DWIDTH 5 0
BBX 5 5 0 0
BITMAP
A0
A0
80
80
F8
ENDCHAR
STARTCHAR Ldot
ENCODING 319
SWIDTH 707 0
DWIDTH 5 0
BBX 5 5 0 0
BITMAP
80
80
A0
80
F8
ENDCHAR
STARTCHAR ldot
ENCODING 320
SWIDTH 707 0
DWIDTH 5 0
BBX 5 5 0 0
BITMAP
80
80
A0
80
F8
ENDCHAR
STARTCHAR Lslash
ENCODING 321
SWIDTH 707 0
DWIDTH 5 0
BBX 5 5 0 0
BITMAP
80
90
E0
80
F8
ENDCHAR
STARTCHAR lslash
ENCODING 322
SWIDTH 707 0
DWIDTH 5 0
BBX 5 5 0 0
BITMAP
80
90
E0
80
F8
ENDCHAR
STARTCHAR Nacute
ENCODING 323
SWIDTH 873 0
DWIDTH 6 0
BBX 6 6 0 0
BITMAP
30
C4
E4
B4
9C
84
ENDCHAR
STARTCHAR nacute
ENCODING 324
SWIDTH 873 0
DWIDTH 6 0
BBX 6 6 0 0
BITMAP
30
C4
E4
B4
9C
84
ENDCHAR
STARTCHAR Ncommaaccent
ENCODING 325
SWIDTH 873 0
DWIDTH 6 0
BBX 6 6 0 -1
BITMAP
C4
E4
B4
9C
84
10
ENDCHAR
STARTCHAR ncommaaccent
ENCODING 326
SWIDTH 873 0
DWIDTH 6 0
BBX 6 6 0 -1
BITMAP
C4
E4
B4
9C
84
10
ENDCHAR
STARTCHAR Ncaron
ENCODING 327
SWIDTH 873 0
DWIDTH 6 0
BBX 6 6 0 0
BITMAP
30
C4
E4
B4
9C
84
ENDCHAR
STARTCHAR ncaron
ENCODING 328
SWIDTH 873 0
DWIDTH 6 0
BBX 6 6 0 0
BITMAP
30
C4
E4
B4
9C
84
ENDCHAR
STARTCHAR Eng
ENCODING 330
SWIDTH 873 0
DWIDTH 6 0
BBX 6 6 0 -1
BITMAP
C4
E4
94
8C
84
38
ENDCHAR
STARTCHAR eng
ENCODING 331
SWIDTH 873 0
DWIDTH 6 0
BBX 6 6 0 -1
BITMAP
C4
E4
94
8C
84
38
ENDCHAR
STARTCHAR Omacron
ENCODING 332
SWIDTH 968 0
DWIDTH 7 0
BBX 7 6 0 0
BITMAP
30
7C
84
82
44
7C
ENDCHAR
STARTCHAR omacron
ENCODING 333
SWIDTH 968 0
DWIDTH 7 0
BBX 7 6 0 0
BITMAP
30
7C
84
82
44
7C
ENDCHAR
STARTCHAR Obreve
ENCODING 334
SWIDTH 968 0
DWIDTH 7 0
BBX 7 6 0 0
BITMAP
30
7C
84
82
44
7C
ENDCHAR
STARTCHAR obreve
ENCODING 335
SWIDTH 968 0
DWIDTH 7 0
BBX 7 6 0 0
BITMAP
30
7C
84
82
44
7C
ENDCHAR
STARTCHAR Ohungarumlaut
ENCODING 336
SWIDTH 968 0
DWIDTH 7 0
BBX 7 6 0 0
BITMAP
18
7C
84
82
44
7C
ENDCHAR
STARTCHAR ohungarumlaut
ENCODING 337
SWIDTH 968 0
DWIDTH 7 0
BBX 7 6 0 0
BITMAP
18
7C
84
82
44
7C
ENDCHAR
STARTCHAR OE
ENCODING 338
SWIDTH 1304 0
DWIDTH 9 0
BBX 9 5 0 0
BITMAP
7F80
8800
8B80
4800
7F80
ENDCHAR
STARTCHAR oe
ENCODING 339
SWIDTH 1304 0
DWIDTH 9 0
BBX 9 5 0 0
BITMAP
7F80
8800
8B80
4800
7F80
ENDCHAR
STARTCHAR Racute
ENCODING 340
SWIDTH 921 0
DWIDTH 6 0
BBX 6 6 0 0
BITMAP
30
F8
84
84
B8
84
ENDCHAR
STARTCHAR racute
ENCODING 341
SWIDTH 921 0
DWIDTH 6 0
BBX 6 6 0 0
BITMAP
30
F8
84
84
B8
84
ENDCHAR
STARTCHAR Rcommaaccent
ENCODING 342
SWIDTH 921 0
DWIDTH 6 0
BBX 6 6 0 -1
BITMAP
F8
84
84
B8
84
10
ENDCHAR
STARTCHAR rcommaaccent
ENCODING 343
SWIDTH 921 0
DWIDTH 6 0
BBX 6 6 0 -1
BITMAP
F8
84
84
B8
84
10
ENDCHAR
STARTCHAR Rcaron
ENCODING 344
SWIDTH 921 0
DWIDTH 6 0
BBX 6 6 0 0
BITMAP
30
F8
84
84
B8
84
ENDCHAR
STARTCHAR rcaron
ENCODING 345
SWIDTH 921 0
DWIDTH 6 0
BBX 6 6 0 0
BITMAP
30
F8
84
84
B8
84
ENDCHAR
STARTCHAR Sacute
ENCODING 346
SWIDTH 880 0
DWIDTH 6 0
BBX 6 6 0 0
BITMAP
30
7C
80
7C
04
FC
ENDCHAR
STARTCHAR sacute
ENCODING 347
SWIDTH 880 0
DWIDTH 6 0
BBX 6 6 0 0
BITMAP
30
7C
80
7C
04
FC
ENDCHAR
STARTCHAR Scedilla
ENCODING 350
SWIDTH 880 0
DWIDTH 6 0
BBX 6 6 0 -1
BITMAP
7C
80
7C
04
FC
10
ENDCHAR
STARTCHAR scedilla
ENCODING 351
SWIDTH 880 0
DWIDTH 6 0
BBX 6 6 0 -1
BITMAP
7C
80
7C
04
FC
10
ENDCHAR
STARTCHAR Scaron
ENCODING 352
SWIDTH 880 0
DWIDTH 6 0
BBX 6 6 0 0
BITMAP
30
7C
80
7C
04
FC
ENDCHAR
STARTCHAR scaron
ENCODING 353
SWIDTH 880 0
DWIDTH 6 0
BBX 6 6 0 0
BITMAP
30
7C
80
7C
04
FC
ENDCHAR
STARTCHAR Tcommaaccent
ENCODING 354
SWIDTH 720 0
DWIDTH 5 0
BBX 5 6 0 -1
BITMAP
F8
20
20
20
20
20
ENDCHAR
STARTCHAR tcommaaccent
ENCODING 355
SWIDTH 720 0
DWIDTH 5 0
BBX 5 6 0 -1
BITMAP
F8
20
20
20
20
20
ENDCHAR
STARTCHAR Tcaron
ENCODING 356
SWIDTH 720 0
DWIDTH 5 0
BBX 5 6 0 0
BITMAP
20
F8
20
20
20
20
ENDCHAR
STARTCHAR tcaron
ENCODING 357
SWIDTH 720 0
DWIDTH 5 0
BBX 5 6 0 0
BITMAP
20
F8
20
20
20
20
ENDCHAR
STARTCHAR Tbar
ENCODING 358
SWIDTH 720 0
DWIDTH 5 0
BBX 5 5 0 0
BITMAP
F8
20
70
20
20
ENDCHAR
STARTCHAR tbar
ENCODING 359
SWIDTH 720 0
DWIDTH 5 0
BBX 5 5 0 0
BITMAP
F8
20
70
20
20
ENDCHAR
STARTCHAR Utilde
ENCODING 360
SWIDTH 889 0
DWIDTH 6 0
BBX 6 6 0 0
BITMAP
30
84
84
84
84
78
ENDCHAR
STARTCHAR utilde
ENCODING 361
SWIDTH 889 0
DWIDTH 6 0
BBX 6 6 0 0
BITMAP
30
84
84
84
84
78
ENDCHAR
STARTCHAR Umacron
ENCODING 362
SWIDTH 889 0
DWIDTH 6 0
BBX 6 6 0 0
BITMAP
30
84
84
84
84
78
ENDCHAR
STARTCHAR umacron
ENCODING 363
SWIDTH 889 0
DWIDTH 6 0
BBX 6 6 0 0
BITMAP
30
84
84
84
84
78
ENDCHAR
STARTCHAR Ubreve
ENCODING 364
SWIDTH 889 0
DWIDTH 6 0
BBX 6 6 0 0
BITMAP
30
84
84
84
84
78
ENDCHAR
STARTCHAR ubreve
ENCODING 365
SWIDTH 889 0
DWIDTH 6 0
BBX 6 6 0 0
BITMAP
30
84
84
84
84
78
ENDCHAR
STARTCHAR Uring
ENCODING 366
SWIDTH 889 0
DWIDTH 6 0
BBX 6 7 0 0
BITMAP
30
30
84
84
84
84
78
ENDCHAR
STARTCHAR uring
ENCODING 367
SWIDTH 889 0
DWIDTH 6 0
BBX 6 7 0 0
BITMAP
30
30
84
84
84
84
78
ENDCHAR
STARTCHAR Uhungarumlaut
ENCODING 368
SWIDTH 889 0
DWIDTH 6 0
BBX 6 6 0 0
BITMAP
30
84
84
84
84
78
ENDCHAR
STARTCHAR uhungarumlaut
ENCODING 369
SWIDTH 889 0
DWIDTH 6 0
BBX 6 6 0 0
BITMAP
30
84
84
84
84
78
ENDCHAR
STARTCHAR Uogonek
ENCODING 370
SWIDTH 889 0
DWIDTH 6 0
BBX 6 7 0 -2
BITMAP
84
84
84
84
78
10
30
ENDCHAR
STARTCHAR uogonek
ENCODING 371
SWIDTH 889 0
DWIDTH 6 0
BBX 6 7 0 -2
BITMAP
84
84
84
84
78
10
30
ENDCHAR
STARTCHAR Wcircumflex
ENCODING 372
SWIDTH 1268 0
DWIDTH 9 0
BBX 9 7 0 0
BITMAP
0800
1000
9180
5900
6A00
3600
1400
ENDCHAR
STARTCHAR wcircumflex
ENCODING 373
SWIDTH 1268 0
DWIDTH 9 0
BBX 9 7 0 0
BITMAP
0800
1000
9180
5900
6A00
3600
1400
ENDCHAR
STARTCHAR Ycircumflex
ENCODING 374
SWIDTH 926 0
DWIDTH 6 0
BBX 6 7 0 0
BITMAP
10
20
C4
68
30
10
10
ENDCHAR
STARTCHAR ycircumflex
ENCODING 375
SWIDTH 926 0
DWIDTH 6 0
BBX 6 7 0 0
BITMAP
10
20
C4
68
30
10
10
ENDCHAR
STARTCHAR Ydieresis
ENCODING 376
SWIDTH 926 0
DWIDTH 6 0
BBX 6 6 0 0
BITMAP
30
C4
68
30
10
10
ENDCHAR
STARTCHAR Zacute
ENCODING 377
SWIDTH 802 0
DWIDTH 6 0
BBX 5 6 0 0
BITMAP
30
F8
10
20
40
F8
ENDCHAR
STARTCHAR zacute
ENCODING 378
SWIDTH 802 0
DWIDTH 6 0
BBX 5 6 0 0
BITMAP
30
F8
10
20
40
F8
ENDCHAR
STARTCHAR Zdotaccent
ENCODING 379
SWIDTH 802 0
DWIDTH 6 0
BBX 5 6 0 0
BITMAP
20
F8
10
20
40
F8
ENDCHAR
STARTCHAR zdotaccent
ENCODING 380
SWIDTH 802 0
DWIDTH 6 0
BBX 5 6 0 0
BITMAP
20
F8
10
20
40
F8
ENDCHAR
STARTCHAR Zcaron
ENCODING 381
SWIDTH 802 0
DWIDTH 6 0
BBX 5 6 0 0
BITMAP
30
F8
10
20
40
F8
ENDCHAR
STARTCHAR zcaron
ENCODING 382
SWIDTH 802 0
DWIDTH 6 0
BBX 5 6 0 0
BITMAP
30
F8
10
20
40
F8
ENDCHAR
STARTCHAR Scommaaccent
ENCODING 536
SWIDTH 880 0
DWIDTH 6 0
BBX 6 6 0 -1
BITMAP
7C
80
7C
04
FC
10
ENDCHAR
STARTCHAR scommaaccent
ENCODING 537
SWIDTH 880 0
DWIDTH 6 0
BBX 6 6 0 -1
BITMAP
7C
80
7C
04
FC
10
ENDCHAR
STARTCHAR uni021A
ENCODING 538
SWIDTH 720 0
DWIDTH 5 0
BBX 5 6 0 -1
BITMAP
F8
20
20
20
20
20
ENDCHAR
STARTCHAR uni021B
ENCODING 539
SWIDTH 720 0
DWIDTH 5 0
BBX 5 6 0 -1
BITMAP
F8
20
20
20
20
20
ENDCHAR
STARTCHAR circumflex
ENCODING 710
SWIDTH 379 0
DWIDTH 3 0
BBX 2 1 0 6
BITMAP
C0
ENDCHAR
STARTCHAR caron
ENCODING 711
SWIDTH 379 0
DWIDTH 3 0
BBX 2 1 0 5
BITMAP
C0
ENDCHAR
STARTCHAR breve
ENCODING 728
SWIDTH 382 0
DWIDTH 3 0
BBX 2 1 0 5
BITMAP
C0
ENDCHAR
STARTCHAR dotaccent
ENCODING 729
SWIDTH 208 0
DWIDTH 1 0
BBX 1 1 0 5
BITMAP
80
ENDCHAR
STARTCHAR ring
ENCODING 730
SWIDTH 362 0
DWIDTH 3 0
BBX 2 2 0 5
BITMAP
C0
C0
ENDCHAR
STARTCHAR ogonek
ENCODING 731
SWIDTH 234 0
DWIDTH 2 0
BBX 1 2 0 -2
BITMAP
80
80
ENDCHAR
STARTCHAR tilde
ENCODING 732
SWIDTH 362 0
DWIDTH 3 0
BBX 2 1 0 5
BITMAP
C0
ENDCHAR
STARTCHAR hungarumlaut
ENCODING 733
SWIDTH 399 0
DWIDTH 3 0
BBX 2 1 0 5
BITMAP
C0
ENDCHAR
STARTCHAR commaaccent
ENCODING 806
SWIDTH 219 0
DWIDTH 2 0
BBX 1 1 0 -1
BITMAP
80
ENDCHAR
STARTCHAR Wgrave
ENCODING 7808
SWIDTH 1268 0
DWIDTH 9 0
BBX 9 6 0 0
BITMAP
1800
9180
5900
6A00
3600
1400
ENDCHAR
STARTCHAR wgrave
ENCODING 7809
SWIDTH 1268 0
DWIDTH 9 0
BBX 9 6 0 0
BITMAP
1800
9180
5900
6A00
3600
1400
ENDCHAR
STARTCHAR Wacute
ENCODING 7810
SWIDTH 1268 0
DWIDTH 9 0
BBX 9 6 0 0
BITMAP
0C00
9180
5900
6A00
3600
1400
ENDCHAR
STARTCHAR wacute
ENCODING 7811
SWIDTH 1268 0
DWIDTH 9 0
BBX 9 6 0 0
BITMAP
0C00
9180
5900
6A00
3600
1400
ENDCHAR
STARTCHAR Wdieresis
ENCODING 7812
SWIDTH 1268 0
DWIDTH 9 0
BBX 9 6 0 0
BITMAP
1400
9180
5900
6A00
3600
1400
ENDCHAR
STARTCHAR wdieresis
ENCODING 7813
SWIDTH 1268 0
DWIDTH 9 0
BBX 9 6 0 0
BITMAP
1400
9180
5900
6A00
3600
1400
ENDCHAR
STARTCHAR Ygrave
ENCODING 7922
SWIDTH 926 0
DWIDTH 6 0
BBX 6 6 0 0
BITMAP
30
C4
68
30
10
10
ENDCHAR
STARTCHAR ygrave
ENCODING 7923
SWIDTH 926 0
DWIDTH 6 0
BBX 6 6 0 0
BITMAP
30
C4
68
30
10
10
ENDCHAR
STARTCHAR endash
ENCODING 8211
SWIDTH 590 0
DWIDTH 4 0
BBX 4 1 0 2
BITMAP
F0
ENDCHAR
STARTCHAR emdash
ENCODING 8212
SWIDTH 866 0
DWIDTH 6 0
BBX 6 1 0 2
BITMAP
FC
ENDCHAR
STARTCHAR quoteleft
ENCODING 8216
SWIDTH 259 0
DWIDTH 2 0
BBX 1 2 0 3
BITMAP
80
80
ENDCHAR
STARTCHAR quoteright
ENCODING 8217
SWIDTH 259 0
DWIDTH 2 0
BBX 1 2 0 3
BITMAP
80
80
ENDCHAR
STARTCHAR quotesinglbase
ENCODING 8218
SWIDTH 259 0
DWIDTH 2 0
BBX 1 2 0 -1
BITMAP
80
80
ENDCHAR
STARTCHAR quotedblleft
ENCODING 8220
SWIDTH 462 0
DWIDTH 3 0
BBX 3 2 0 3
BITMAP
A0
60
ENDCHAR
STARTCHAR quotedblright
ENCODING 8221
SWIDTH 462 0
DWIDTH 3 0
BBX 3 2 0 3
BITMAP
A0
A0
ENDCHAR
STARTCHAR quotedblbase
ENCODING 8222
SWIDTH 462 0
DWIDTH 3 0
BBX 3 2 0 -1
BITMAP
A0
A0
ENDCHAR
STARTCHAR dagger
ENCODING 8224
SWIDTH 466 0
DWIDTH 3 0
BBX 3 5 0 0
BITMAP
40
E0
40
40
40
ENDCHAR
STARTCHAR daggerdbl
ENCODING 8225
SWIDTH 466 0
DWIDTH 3 0
BBX 3 5 0 0
BITMAP
40
E0
40
E0
40
ENDCHAR
STARTCHAR bullet
ENCODING 8226
SWIDTH 413 0
DWIDTH 3 0
BBX 2 2 0 2
BITMAP
40
C0
ENDCHAR
STARTCHAR ellipsis
ENCODING 8230
SWIDTH 1310 0
DWIDTH 9 0
BBX 9 1 0 0
BITMAP
8880
ENDCHAR
STARTCHAR perthousand
ENCODING 8240
SWIDTH 1314 0
DWIDTH 9 0
BBX 9 6 0 0
BITMAP
6C00
A800
7000
2D80
5680
CD80
ENDCHAR
STARTCHAR guilsinglleft
ENCODING 8249
SWIDTH 367 0
DWIDTH 3 0
BBX 2 3 0 1
BITMAP
40
80
40
ENDCHAR
STARTCHAR guilsinglright
ENCODING 8250
SWIDTH 368 0
DWIDTH 3 0
BBX 2 3 0 1
BITMAP
80
40
80
ENDCHAR
STARTCHAR fraction
ENCODING 8260
SWIDTH 185 0
DWIDTH 1 0
BBX 5 6 -2 0
BITMAP
08
10
10
20
40
80
ENDCHAR
STARTCHAR zerosuperior
ENCODING 8304
SWIDTH 449 0
DWIDTH 3 0
BBX 3 3 0 3
BITMAP
60
A0
60
ENDCHAR
STARTCHAR foursuperior
ENCODING 8308
SWIDTH 452 0
DWIDTH 3 0
BBX 3 3 0 3
BITMAP
A0
A0
E0
ENDCHAR
STARTCHAR fivesuperior
ENCODING 8309
SWIDTH 472 0
DWIDTH 3 0
BBX 3 3 0 3
BITMAP
E0
E0
E0
ENDCHAR
STARTCHAR sixsuperior
ENCODING 8310
SWIDTH 466 0
DWIDTH 3 0
BBX 3 3 0 3
BITMAP
E0
E0
E0
ENDCHAR
STARTCHAR sevensuperior
ENCODING 8311
SWIDTH 408 0
DWIDTH 3 0
BBX 3 3 0 3
BITMAP
E0
40
80
ENDCHAR
STARTCHAR eightsuperior
ENCODING 8312
SWIDTH 479 0
DWIDTH 3 0
BBX 3 3 0 3
BITMAP
E0
E0
E0
ENDCHAR
STARTCHAR ninesuperior
ENCODING 8313
SWIDTH 460 0
DWIDTH 3 0
BBX 3 3 0 3
BITMAP
E0
E0
60
ENDCHAR
STARTCHAR zeroinferior
ENCODING 8320
SWIDTH 449 0
DWIDTH 3 0
BBX 3 3 0 0
BITMAP
60
A0
60
ENDCHAR
STARTCHAR oneinferior
ENCODING 8321
SWIDTH 222 0
DWIDTH 2 0
BBX 1 3 0 0
BITMAP
80
80
80
ENDCHAR
STARTCHAR twoinferior
ENCODING 8322
SWIDTH 442 0
DWIDTH 3 0
BBX 3 3 0 0
BITMAP
E0
E0
E0
ENDCHAR
STARTCHAR threeinferior
ENCODING 8323
SWIDTH 443 0
DWIDTH 3 0
BBX 3 3 0 0
BITMAP
E0
60
E0
ENDCHAR
STARTCHAR fourinferior
ENCODING 8324
SWIDTH 452 0
DWIDTH 3 0
BBX 3 3 0 0
BITMAP
A0
A0
E0
ENDCHAR
STARTCHAR fiveinferior
ENCODING 8325
SWIDTH 472 0
DWIDTH 3 0
BBX 3 3 0 0
BITMAP
E0
E0
E0
ENDCHAR
STARTCHAR sixinferior
ENCODING 8326
SWIDTH 466 0
DWIDTH 3 0
BBX 3 3 0 0
BITMAP
E0
E0
E0
ENDCHAR
STARTCHAR seveninferior
ENCODING 8327
SWIDTH 408 0
DWIDTH 3 0
BBX 3 3 0 0
BITMAP
E0
40
80
ENDCHAR
STARTCHAR eightinferior
ENCODING 8328
SWIDTH 479 0
DWIDTH 3 0
BBX 3 3 0 0
BITMAP
E0
E0
E0
ENDCHAR
STARTCHAR nineinferior
ENCODING 8329
SWIDTH 460 0
DWIDTH 3 0
BBX 3 3 0 0
BITMAP
E0
E0
60
ENDCHAR
STARTCHAR Euro
ENCODING 8364
SWIDTH 884 0
DWIDTH 6 0
BBX 6 5 0 0
BITMAP
7C
F8
F0
40
3C
ENDCHAR
STARTCHAR uni2117
ENCODING 8471
SWIDTH 829 0
DWIDTH 6 0
BBX 6 5 0 0
BITMAP
78
B4
B4
84
78
ENDCHAR
STARTCHAR trademark
ENCODING 8482
SWIDTH 536 0
DWIDTH 4 0
BBX 3 2 0 3
BITMAP
E0
A0
ENDCHAR
STARTCHAR onethird
ENCODING 8531
SWIDTH 951 0
DWIDTH 7 0
BBX 6 6 0 0
BITMAP
48
48
50
2C
4C
8C
ENDCHAR
STARTCHAR twothirds
ENCODING 8532
SWIDTH 979 0
DWIDTH 7 0
BBX 7 6 0 0
BITMAP
E4
E8
F0
2E
24
4E
ENDCHAR
STARTCHAR oneeighth
ENCODING 8539
SWIDTH 985 0
DWIDTH 7 0
BBX 7 6 0 0
BITMAP
48
48
50
2E
4C
8E
ENDCHAR
STARTCHAR threeeighths
ENCODING 8540
SWIDTH 972 0
DWIDTH 7 0
BBX 7 6 0 0
BITMAP
E4
68
F0
2C
2C
4E
ENDCHAR
STARTCHAR fiveeighths
ENCODING 8541
SWIDTH 973 0
DWIDTH 7 0
BBX 7 6 0 0
BITMAP
E4
E8
F0
2C
2C
4E
ENDCHAR
STARTCHAR seveneighths
ENCODING 8542
SWIDTH 965 0
DWIDTH 7 0
BBX 6 6 0 0
BITMAP
68
28
50
2C
4C
8C
ENDCHAR
STARTCHAR minus
ENCODING 8722
SWIDTH 690 0
DWIDTH 5 0
BBX 4 1 0 2
BITMAP
F0
ENDCHAR
STARTCHAR approxequal
ENCODING 8776
SWIDTH 691 0
DWIDTH 5 0
BBX 4 3 0 1
BITMAP
F0
00
F0
ENDCHAR
STARTCHAR notequal
ENCODING 8800
SWIDTH 690 0
DWIDTH 5 0
BBX 5 6 0 -1
BITMAP
08
F0
20
F0
40
80
ENDCHAR
STARTCHAR lessequal
ENCODING 8804
SWIDTH 690 0
DWIDTH 5 0
BBX 4 5 0 -1
BITMAP
30
C0
20
10
F0
ENDCHAR
STARTCHAR greaterequal
ENCODING 8805
SWIDTH 690 0
DWIDTH 5 0
BBX 4 5 0 -1
BITMAP
E0
10
60
80
F0
ENDCHAR
STARTCHAR .notdef
ENCODING -1
SWIDTH 430 0
DWIDTH 3 0
BBX 3 5 0 0
BITMAP
E0
A0
A0
A0
E0
ENDCHAR
STARTCHAR nonmarkingreturn
ENCODING -1
SWIDTH 104 0
DWIDTH 1 0
BBX 1 1 0 0
BITMAP
00
ENDCHAR
STARTCHAR .null
ENCODING -1
SWIDTH 104 0
DWIDTH 1 0
BBX 1 1 0 0
BITMAP
00
ENDCHAR
STARTCHAR .ttfautohint
ENCODING -1
SWIDTH 104 0
DWIDTH 1 0
BBX 1 1 0 0
BITMAP
00
ENDCHAR
ENDFONT
