STARTFONT 2.1
FONT -FontForge-Good Times Rg-Book-R-Normal--15-140-75-75-P-104-ISO10646-1
SIZE 14 75 75
FONTBOUNDINGBOX 19 17 0 -3
COMMENT "Generated by fontforge, http://fontforge.sourceforge.net"
COMMENT "(c) 1998-2012 Typodermic Fonts Inc. See attached license agreement. If agreement is missing visit typodermicfonts.com for more info. Languages by Chikako Larabie"
STARTPROPERTIES 38
FOUNDRY "FontForge"
FAMILY_NAME "Good Times Rg"
WEIGHT_NAME "Book"
SLANT "R"
SETWIDTH_NAME "Normal"
ADD_STYLE_NAME ""
PIXEL_SIZE 15
POINT_SIZE 140
RESOLUTION_X 75
RESOLUTION_Y 75
SPACING "P"
AVERAGE_WIDTH 104
CHARSET_REGISTRY "ISO10646"
CHARSET_ENCODING "1"
FONTNAME_REGISTRY ""
CHARSET_COLLECTIONS "ISO10646-1"
FONT_NAME "GoodTimesRg-Regular"
FACE_NAME "GoodTimesRg-Regular"
COPYRIGHT "(c) 1998-2012 Typodermic Fonts Inc. See attached license agreement. If agreement is missing visit typodermicfonts.com for more info. Languages by Chikako Larabie"
FONT_VERSION "4.001"
FONT_ASCENT 12
FONT_DESCENT 3
UNDERLINE_POSITION -2
UNDERLINE_THICKNESS 1
X_HEIGHT 10
CAP_HEIGHT 10
RAW_ASCENT 799
RAW_DESCENT 201
RELATIVE_WEIGHT 40
RELATIVE_SETWIDTH 50
SUPERSCRIPT_X 0
SUPERSCRIPT_Y 4
SUPERSCRIPT_SIZE 4
SUBSCRIPT_X 0
SUBSCRIPT_Y 0
SUBSCRIPT_SIZE 4
AVG_LOWERCASE_WIDTH 127
AVG_UPPERCASE_WIDTH 130
ENDPROPERTIES
CHARS 120
STARTCHAR exclam
ENCODING 33
SWIDTH 298 0
DWIDTH 4 0
BBX 2 11 1 0
BITMAP
C0
C0
C0
C0
C0
C0
C0
00
00
C0
C0
ENDCHAR
STARTCHAR quotedbl
ENCODING 34
SWIDTH 452 0
DWIDTH 7 0
BBX 5 4 1 7
BITMAP
D8
D8
D8
D0
ENDCHAR
STARTCHAR numbersign
ENCODING 35
SWIDTH 697 0
DWIDTH 10 0
BBX 9 11 1 0
BITMAP
1900
1100
1300
7F80
2200
2600
2400
FF00
4C00
4C00
C800
ENDCHAR
STARTCHAR dollar
ENCODING 36
SWIDTH 744 0
DWIDTH 11 0
BBX 9 11 1 0
BITMAP
0800
7F80
FF80
C800
C800
7F00
0880
0880
FF80
FF00
0800
ENDCHAR
STARTCHAR percent
ENCODING 37
SWIDTH 965 0
DWIDTH 14 0
BBX 13 13 1 -1
BITMAP
0030
7060
8840
8880
8900
FB00
0200
04F0
0908
1108
3108
20F0
C000
ENDCHAR
STARTCHAR ampersand
ENCODING 38
SWIDTH 759 0
DWIDTH 11 0
BBX 10 11 1 0
BITMAP
7C00
FC00
C000
C000
7F80
FF80
C300
C300
C300
FFC0
7FC0
ENDCHAR
STARTCHAR quotesingle
ENCODING 39
SWIDTH 255 0
DWIDTH 4 0
BBX 2 4 1 7
BITMAP
C0
C0
C0
C0
ENDCHAR
STARTCHAR parenleft
ENCODING 40
SWIDTH 356 0
DWIDTH 5 0
BBX 3 14 1 -1
BITMAP
20
60
40
40
40
C0
C0
C0
C0
40
40
40
60
20
ENDCHAR
STARTCHAR parenright
ENCODING 41
SWIDTH 355 0
DWIDTH 5 0
BBX 3 14 1 -1
BITMAP
C0
40
40
60
60
20
20
20
20
60
60
40
40
C0
ENDCHAR
STARTCHAR asterisk
ENCODING 42
SWIDTH 469 0
DWIDTH 7 0
BBX 5 5 1 6
BITMAP
20
A8
70
50
50
ENDCHAR
STARTCHAR plus
ENCODING 43
SWIDTH 690 0
DWIDTH 10 0
BBX 8 9 1 1
BITMAP
08
08
08
08
FF
08
08
08
08
ENDCHAR
STARTCHAR comma
ENCODING 44
SWIDTH 259 0
DWIDTH 4 0
BBX 2 4 1 -2
BITMAP
C0
C0
80
80
ENDCHAR
STARTCHAR hyphen
ENCODING 45
SWIDTH 296 0
DWIDTH 4 0
BBX 4 1 0 5
BITMAP
F0
ENDCHAR
STARTCHAR period
ENCODING 46
SWIDTH 262 0
DWIDTH 4 0
BBX 2 2 1 0
BITMAP
C0
C0
ENDCHAR
STARTCHAR slash
ENCODING 47
SWIDTH 444 0
DWIDTH 7 0
BBX 7 11 0 0
BITMAP
06
04
08
08
10
10
30
20
60
40
C0
ENDCHAR
STARTCHAR zero
ENCODING 48
SWIDTH 838 0
DWIDTH 13 0
BBX 11 11 1 0
BITMAP
1F00
7F80
E1C0
C060
C060
C060
C060
C0E0
61C0
7F80
1F00
ENDCHAR
STARTCHAR one
ENCODING 49
SWIDTH 385 0
DWIDTH 6 0
BBX 5 11 0 0
BITMAP
E0
F0
18
18
18
18
18
18
18
18
18
ENDCHAR
STARTCHAR two
ENCODING 50
SWIDTH 825 0
DWIDTH 12 0
BBX 11 11 1 0
BITMAP
FF80
FFC0
0060
0060
7FC0
FF80
C000
C000
C000
FFC0
FFC0
ENDCHAR
STARTCHAR three
ENCODING 51
SWIDTH 827 0
DWIDTH 12 0
BBX 11 11 1 0
BITMAP
FF80
FFC0
00C0
00C0
3FC0
3FC0
00E0
0060
00E0
FFC0
FF80
ENDCHAR
STARTCHAR four
ENCODING 52
SWIDTH 845 0
DWIDTH 13 0
BBX 11 11 1 0
BITMAP
C0C0
C0C0
C0C0
C0C0
C0C0
C0C0
FFE0
7FE0
00C0
00C0
00C0
ENDCHAR
STARTCHAR five
ENCODING 53
SWIDTH 885 0
DWIDTH 13 0
BBX 12 11 1 0
BITMAP
FFE0
FFE0
C000
C000
FFC0
FFE0
0060
0030
0060
FFE0
FFC0
ENDCHAR
STARTCHAR six
ENCODING 54
SWIDTH 872 0
DWIDTH 13 0
BBX 11 11 1 0
BITMAP
3FE0
7FE0
C000
C000
FFC0
FFE0
C060
C060
E060
7FE0
3FC0
ENDCHAR
STARTCHAR seven
ENCODING 55
SWIDTH 756 0
DWIDTH 11 0
BBX 10 11 1 0
BITMAP
FFC0
FFC0
0180
0300
0600
0E00
1C00
1800
3000
6000
E000
ENDCHAR
STARTCHAR eight
ENCODING 56
SWIDTH 898 0
DWIDTH 13 0
BBX 12 11 1 0
BITMAP
7FC0
FFE0
C070
C060
7FE0
FFE0
C070
C030
C070
FFE0
7FC0
ENDCHAR
STARTCHAR nine
ENCODING 57
SWIDTH 861 0
DWIDTH 13 0
BBX 11 11 1 0
BITMAP
7F80
FFC0
C0E0
C060
C060
FFE0
7FE0
0060
00E0
7FC0
7F80
ENDCHAR
STARTCHAR colon
ENCODING 58
SWIDTH 262 0
DWIDTH 4 0
BBX 2 7 1 0
BITMAP
C0
C0
00
00
00
C0
C0
ENDCHAR
STARTCHAR semicolon
ENCODING 59
SWIDTH 262 0
DWIDTH 4 0
BBX 2 9 1 -2
BITMAP
C0
C0
00
00
00
C0
C0
80
80
ENDCHAR
STARTCHAR less
ENCODING 60
SWIDTH 690 0
DWIDTH 10 0
BBX 8 9 1 1
BITMAP
01
03
1C
70
C0
70
0E
03
01
ENDCHAR
STARTCHAR equal
ENCODING 61
SWIDTH 690 0
DWIDTH 10 0
BBX 8 5 1 3
BITMAP
FF
00
00
00
FF
ENDCHAR
STARTCHAR greater
ENCODING 62
SWIDTH 690 0
DWIDTH 10 0
BBX 8 9 1 1
BITMAP
80
E0
38
0E
01
0E
38
C0
80
ENDCHAR
STARTCHAR question
ENCODING 63
SWIDTH 776 0
DWIDTH 12 0
BBX 10 11 1 0
BITMAP
FF80
FFC0
00C0
00C0
3FC0
7F80
4000
0000
0000
4000
6000
ENDCHAR
STARTCHAR at
ENCODING 64
SWIDTH 833 0
DWIDTH 13 0
BBX 11 11 1 0
BITMAP
1FE0
7FE0
6060
CF60
9160
9160
9160
CFE0
E000
7FE0
1FE0
ENDCHAR
STARTCHAR A
ENCODING 65
SWIDTH 989 0
DWIDTH 15 0
BBX 15 11 0 0
BITMAP
0100
0380
0780
06C0
0C60
0C60
1BF0
33F0
3018
601C
E00E
ENDCHAR
STARTCHAR B
ENCODING 66
SWIDTH 891 0
DWIDTH 13 0
BBX 12 11 1 0
BITMAP
FFC0
FFE0
C060
C060
DFE0
DFE0
C070
C030
C070
FFE0
FFC0
ENDCHAR
STARTCHAR C
ENCODING 67
SWIDTH 829 0
DWIDTH 12 0
BBX 11 11 1 0
BITMAP
1FE0
7FE0
E000
C000
C000
C000
C000
C000
E000
7FE0
1FE0
ENDCHAR
STARTCHAR D
ENCODING 68
SWIDTH 879 0
DWIDTH 13 0
BBX 12 11 1 0
BITMAP
FF80
FFC0
C0E0
C060
C030
C030
C020
C060
C0E0
FFC0
FF80
ENDCHAR
STARTCHAR E
ENCODING 69
SWIDTH 759 0
DWIDTH 11 0
BBX 10 11 1 0
BITMAP
FFC0
FFC0
C000
C000
DF80
DF80
C000
C000
C000
FFC0
FFC0
ENDCHAR
STARTCHAR F
ENCODING 70
SWIDTH 705 0
DWIDTH 11 0
BBX 9 11 1 0
BITMAP
FF80
FF80
C000
C000
C000
DF80
DF80
C000
C000
C000
C000
ENDCHAR
STARTCHAR G
ENCODING 71
SWIDTH 888 0
DWIDTH 13 0
BBX 12 11 1 0
BITMAP
1FE0
7FE0
E000
C000
C7F0
C7F0
C030
C030
E030
7FF0
1FF0
ENDCHAR
STARTCHAR H
ENCODING 72
SWIDTH 838 0
DWIDTH 13 0
BBX 11 11 1 0
BITMAP
C060
C060
C060
C060
DFE0
DFE0
C060
C060
C060
C060
C060
ENDCHAR
STARTCHAR I
ENCODING 73
SWIDTH 267 0
DWIDTH 4 0
BBX 2 11 1 0
BITMAP
C0
C0
C0
C0
C0
C0
C0
C0
C0
C0
C0
ENDCHAR
STARTCHAR J
ENCODING 74
SWIDTH 708 0
DWIDTH 11 0
BBX 10 11 0 0
BITMAP
00C0
00C0
00C0
00C0
00C0
00C0
00C0
00C0
0180
FF80
FE00
ENDCHAR
STARTCHAR K
ENCODING 75
SWIDTH 875 0
DWIDTH 13 0
BBX 12 11 1 0
BITMAP
C0F0
C1C0
C700
CE00
DC00
F800
DC00
C600
C380
C1C0
C0F0
ENDCHAR
STARTCHAR L
ENCODING 76
SWIDTH 707 0
DWIDTH 11 0
BBX 9 11 1 0
BITMAP
C000
C000
C000
C000
C000
C000
C000
C000
C000
FF80
FF80
ENDCHAR
STARTCHAR M
ENCODING 77
SWIDTH 1115 0
DWIDTH 17 0
BBX 16 11 0 0
BITMAP
180C
181C
1C1C
3C1C
3636
3626
2366
6362
61C3
61C3
C183
ENDCHAR
STARTCHAR N
ENCODING 78
SWIDTH 873 0
DWIDTH 13 0
BBX 11 11 1 0
BITMAP
C060
E060
F060
F860
DC60
CE60
C760
C3E0
C1E0
C0E0
C060
ENDCHAR
STARTCHAR O
ENCODING 79
SWIDTH 968 0
DWIDTH 15 0
BBX 13 11 1 0
BITMAP
1FC0
7FE0
E030
C038
C018
C018
C018
C038
E030
7FE0
1FC0
ENDCHAR
STARTCHAR P
ENCODING 80
SWIDTH 867 0
DWIDTH 13 0
BBX 12 11 1 0
BITMAP
FFC0
FFE0
C060
C030
C030
C060
DFE0
DFC0
C000
C000
C000
ENDCHAR
STARTCHAR Q
ENCODING 81
SWIDTH 968 0
DWIDTH 15 0
BBX 13 11 1 0
BITMAP
1FC0
7FE0
E030
C038
C018
C018
C718
C1B8
E0F0
7FF0
1FF8
ENDCHAR
STARTCHAR R
ENCODING 82
SWIDTH 921 0
DWIDTH 14 0
BBX 13 11 1 0
BITMAP
FFC0
FFE0
C070
C030
C030
C070
DFE0
DFC0
C0C0
C060
C038
ENDCHAR
STARTCHAR S
ENCODING 83
SWIDTH 880 0
DWIDTH 13 0
BBX 12 11 1 0
BITMAP
7FE0
FFE0
C000
C000
FFC0
7FE0
0060
0030
0060
FFE0
FFC0
ENDCHAR
STARTCHAR T
ENCODING 84
SWIDTH 720 0
DWIDTH 11 0
BBX 10 11 0 0
BITMAP
FFC0
FFC0
0C00
0C00
0C00
0C00
0C00
0C00
0C00
0C00
0C00
ENDCHAR
STARTCHAR U
ENCODING 85
SWIDTH 889 0
DWIDTH 13 0
BBX 12 11 1 0
BITMAP
C030
C030
C030
C030
C030
C030
C030
C060
E060
7FC0
3F80
ENDCHAR
STARTCHAR V
ENCODING 86
SWIDTH 989 0
DWIDTH 15 0
BBX 15 11 0 0
BITMAP
E00E
600C
3018
3830
1830
0C60
0C60
06C0
0780
0380
0100
ENDCHAR
STARTCHAR W
ENCODING 87
SWIDTH 1268 0
DWIDTH 19 0
BBX 19 11 0 0
BITMAP
E300E0
6180C0
318180
30C180
18C300
18E300
0CE600
0DB600
07BC00
071C00
031800
ENDCHAR
STARTCHAR X
ENCODING 88
SWIDTH 1000 0
DWIDTH 15 0
BBX 15 11 0 0
BITMAP
701C
3838
1C70
0EE0
0780
0380
07C0
0CE0
1870
3038
E01E
ENDCHAR
STARTCHAR Y
ENCODING 89
SWIDTH 926 0
DWIDTH 14 0
BBX 14 11 0 0
BITMAP
E01C
7030
3870
1CE0
0FC0
0780
0300
0300
0300
0300
0300
ENDCHAR
STARTCHAR Z
ENCODING 90
SWIDTH 802 0
DWIDTH 12 0
BBX 10 11 1 0
BITMAP
FFC0
FFC0
0180
0300
0600
0C00
1800
3000
6000
FFC0
FFC0
ENDCHAR
STARTCHAR bracketleft
ENCODING 91
SWIDTH 333 0
DWIDTH 5 0
BBX 3 14 1 -1
BITMAP
E0
C0
C0
C0
C0
C0
C0
C0
C0
C0
C0
C0
C0
E0
ENDCHAR
STARTCHAR backslash
ENCODING 92
SWIDTH 445 0
DWIDTH 7 0
BBX 7 11 0 0
BITMAP
C0
40
60
20
30
10
10
08
08
04
06
ENDCHAR
STARTCHAR bracketright
ENCODING 93
SWIDTH 333 0
DWIDTH 5 0
BBX 3 14 1 -1
BITMAP
E0
60
60
60
60
60
60
60
60
60
60
60
60
E0
ENDCHAR
STARTCHAR asciicircum
ENCODING 94
SWIDTH 559 0
DWIDTH 8 0
BBX 6 7 1 4
BITMAP
10
30
28
48
4C
C4
84
ENDCHAR
STARTCHAR underscore
ENCODING 95
SWIDTH 668 0
DWIDTH 10 0
BBX 10 1 0 -2
BITMAP
FFC0
ENDCHAR
STARTCHAR grave
ENCODING 96
SWIDTH 362 0
DWIDTH 5 0
BBX 4 2 1 12
BITMAP
80
F0
ENDCHAR
STARTCHAR a
ENCODING 97
SWIDTH 989 0
DWIDTH 15 0
BBX 15 11 0 0
BITMAP
0100
0380
0780
06C0
0CE0
0C60
1830
33F8
3018
601C
E00E
ENDCHAR
STARTCHAR b
ENCODING 98
SWIDTH 891 0
DWIDTH 13 0
BBX 12 11 1 0
BITMAP
FFC0
FFE0
C060
C020
C060
DFE0
C060
C030
C070
FFE0
FFC0
ENDCHAR
STARTCHAR c
ENCODING 99
SWIDTH 829 0
DWIDTH 12 0
BBX 11 11 1 0
BITMAP
1FE0
7FE0
E000
C000
C000
C000
C000
C000
E000
7FE0
1FE0
ENDCHAR
STARTCHAR d
ENCODING 100
SWIDTH 879 0
DWIDTH 13 0
BBX 12 11 1 0
BITMAP
FF00
FFC0
C0E0
C060
C020
C030
C020
C060
C0E0
FFC0
FF80
ENDCHAR
STARTCHAR e
ENCODING 101
SWIDTH 759 0
DWIDTH 11 0
BBX 10 11 1 0
BITMAP
FFC0
FFC0
C000
C000
C000
DF80
C000
C000
C000
FFC0
FFC0
ENDCHAR
STARTCHAR f
ENCODING 102
SWIDTH 705 0
DWIDTH 11 0
BBX 9 11 1 0
BITMAP
FF80
FF80
C000
C000
C000
DF80
C000
C000
C000
C000
C000
ENDCHAR
STARTCHAR g
ENCODING 103
SWIDTH 888 0
DWIDTH 13 0
BBX 12 11 1 0
BITMAP
1FE0
7FE0
E000
C000
C000
C7F0
C030
C030
E030
7FF0
1FF0
ENDCHAR
STARTCHAR h
ENCODING 104
SWIDTH 838 0
DWIDTH 13 0
BBX 11 11 1 0
BITMAP
C060
C060
C060
C060
C060
DFE0
C060
C060
C060
C060
C060
ENDCHAR
STARTCHAR i
ENCODING 105
SWIDTH 267 0
DWIDTH 4 0
BBX 2 11 1 0
BITMAP
C0
C0
C0
C0
C0
C0
C0
C0
C0
C0
C0
ENDCHAR
STARTCHAR j
ENCODING 106
SWIDTH 708 0
DWIDTH 11 0
BBX 10 11 0 0
BITMAP
00C0
00C0
00C0
00C0
00C0
00C0
00C0
00C0
0180
FF80
FE00
ENDCHAR
STARTCHAR k
ENCODING 107
SWIDTH 875 0
DWIDTH 13 0
BBX 12 11 1 0
BITMAP
C0F0
C1C0
C300
CE00
DC00
F800
DC00
CE00
C380
C1C0
C0F0
ENDCHAR
STARTCHAR l
ENCODING 108
SWIDTH 707 0
DWIDTH 11 0
BBX 9 11 1 0
BITMAP
C000
C000
C000
C000
C000
C000
C000
C000
C000
FF80
FF80
ENDCHAR
STARTCHAR m
ENCODING 109
SWIDTH 1115 0
DWIDTH 17 0
BBX 16 11 0 0
BITMAP
180C
181C
1C1C
3C1C
3636
3626
2366
6362
61C3
61C3
C183
ENDCHAR
STARTCHAR n
ENCODING 110
SWIDTH 873 0
DWIDTH 13 0
BBX 11 11 1 0
BITMAP
C060
E060
F060
F860
DC60
CE60
C760
C3E0
C1E0
C0E0
C060
ENDCHAR
STARTCHAR o
ENCODING 111
SWIDTH 968 0
DWIDTH 15 0
BBX 13 11 1 0
BITMAP
1FC0
7FE0
E070
C038
C018
C018
C018
C038
E030
7FE0
1FC0
ENDCHAR
STARTCHAR p
ENCODING 112
SWIDTH 867 0
DWIDTH 13 0
BBX 12 11 1 0
BITMAP
FFC0
FFE0
C060
C030
C030
C060
DFE0
DFC0
C000
C000
C000
ENDCHAR
STARTCHAR q
ENCODING 113
SWIDTH 968 0
DWIDTH 15 0
BBX 13 11 1 0
BITMAP
1FC0
7FE0
E070
C038
C018
C018
C718
C1B8
E0F0
7FF0
1FF8
ENDCHAR
STARTCHAR r
ENCODING 114
SWIDTH 921 0
DWIDTH 14 0
BBX 13 11 1 0
BITMAP
FFC0
FFE0
C060
C030
C030
C030
DFE0
DFC0
C0C0
C060
C038
ENDCHAR
STARTCHAR s
ENCODING 115
SWIDTH 880 0
DWIDTH 13 0
BBX 12 11 1 0
BITMAP
7FE0
FFE0
C000
C000
C000
7FE0
0060
0030
0060
FFE0
FFC0
ENDCHAR
STARTCHAR t
ENCODING 116
SWIDTH 720 0
DWIDTH 11 0
BBX 10 11 0 0
BITMAP
FFC0
FFC0
0C00
0C00
0C00
0C00
0C00
0C00
0C00
0C00
0C00
ENDCHAR
STARTCHAR u
ENCODING 117
SWIDTH 889 0
DWIDTH 13 0
BBX 12 11 1 0
BITMAP
C030
C030
C030
C030
C030
C030
C030
C020
E060
7FE0
3F80
ENDCHAR
STARTCHAR v
ENCODING 118
SWIDTH 989 0
DWIDTH 15 0
BBX 15 11 0 0
BITMAP
E00E
600C
3018
3838
1830
1C60
0C60
06C0
07C0
0380
0300
ENDCHAR
STARTCHAR w
ENCODING 119
SWIDTH 1268 0
DWIDTH 19 0
BBX 19 11 0 0
BITMAP
E300E0
6380C0
318180
31C180
18C300
186300
0CE600
0DB600
07BC00
071C00
031800
ENDCHAR
STARTCHAR x
ENCODING 120
SWIDTH 1000 0
DWIDTH 15 0
BBX 15 11 0 0
BITMAP
701C
3838
1C70
0EE0
07C0
0380
07C0
0CE0
1870
3038
E01E
ENDCHAR
STARTCHAR y
ENCODING 121
SWIDTH 926 0
DWIDTH 14 0
BBX 14 11 0 0
BITMAP
E01C
7030
3870
1CE0
0CC0
0780
0300
0300
0300
0300
0300
ENDCHAR
STARTCHAR z
ENCODING 122
SWIDTH 802 0
DWIDTH 12 0
BBX 10 11 1 0
BITMAP
FFC0
FFC0
0180
0300
0600
0C00
1800
3000
6000
FFC0
FFC0
ENDCHAR
STARTCHAR braceleft
ENCODING 123
SWIDTH 337 0
DWIDTH 5 0
BBX 3 14 1 -1
BITMAP
60
40
40
40
40
40
40
80
40
40
40
40
40
60
ENDCHAR
STARTCHAR bar
ENCODING 124
SWIDTH 297 0
DWIDTH 4 0
BBX 1 14 2 -1
BITMAP
80
80
80
80
80
80
80
80
80
80
80
80
80
80
ENDCHAR
STARTCHAR braceright
ENCODING 125
SWIDTH 337 0
DWIDTH 5 0
BBX 3 14 1 -1
BITMAP
C0
40
40
40
40
40
40
20
40
40
40
40
40
C0
ENDCHAR
STARTCHAR asciitilde
ENCODING 126
SWIDTH 691 0
DWIDTH 10 0
BBX 8 2 1 5
BITMAP
F1
8F
ENDCHAR
STARTCHAR exclamdown
ENCODING 161
SWIDTH 298 0
DWIDTH 4 0
BBX 2 11 1 0
BITMAP
C0
C0
00
00
C0
C0
C0
C0
C0
C0
C0
ENDCHAR
STARTCHAR cent
ENCODING 162
SWIDTH 692 0
DWIDTH 10 0
BBX 9 11 1 0
BITMAP
0400
3F80
7F80
C400
8400
8400
8400
C400
7F80
3F80
0400
ENDCHAR
STARTCHAR sterling
ENCODING 163
SWIDTH 709 0
DWIDTH 11 0
BBX 10 11 0 0
BITMAP
1F00
3F00
3000
3000
7E00
7E00
3000
3000
3000
FFC0
FFC0
ENDCHAR
STARTCHAR yen
ENCODING 165
SWIDTH 787 0
DWIDTH 12 0
BBX 11 11 0 0
BITMAP
E060
70C0
30C0
1980
1B00
0F00
3FC0
0600
3FC0
3FC0
0600
ENDCHAR
STARTCHAR brokenbar
ENCODING 166
SWIDTH 297 0
DWIDTH 4 0
BBX 1 14 2 -1
BITMAP
80
80
80
80
80
80
00
00
80
80
80
80
80
80
ENDCHAR
STARTCHAR section
ENCODING 167
SWIDTH 773 0
DWIDTH 12 0
BBX 10 14 1 -3
BITMAP
7F80
FF80
C000
C000
FF00
7F80
C180
C180
FF00
7F80
00C0
00C0
7F80
7F00
ENDCHAR
STARTCHAR dieresis
ENCODING 168
SWIDTH 393 0
DWIDTH 6 0
BBX 4 2 1 12
BITMAP
90
90
ENDCHAR
STARTCHAR copyright
ENCODING 169
SWIDTH 829 0
DWIDTH 12 0
BBX 11 11 1 0
BITMAP
1F00
6080
8040
9E20
9020
A020
9020
9E20
8040
6080
1F00
ENDCHAR
STARTCHAR ordfeminine
ENCODING 170
SWIDTH 604 0
DWIDTH 9 0
BBX 7 6 1 5
BITMAP
10
38
28
4C
FE
82
ENDCHAR
STARTCHAR guillemotleft
ENCODING 171
SWIDTH 629 0
DWIDTH 9 0
BBX 8 5 1 3
BITMAP
33
44
88
66
11
ENDCHAR
STARTCHAR registered
ENCODING 174
SWIDTH 585 0
DWIDTH 9 0
BBX 7 8 1 3
BITMAP
38
44
BA
AA
BA
82
44
38
ENDCHAR
STARTCHAR macron
ENCODING 175
SWIDTH 362 0
DWIDTH 5 0
BBX 4 1 1 12
BITMAP
F0
ENDCHAR
STARTCHAR degree
ENCODING 176
SWIDTH 361 0
DWIDTH 5 0
BBX 4 4 1 7
BITMAP
E0
90
90
E0
ENDCHAR
STARTCHAR plusminus
ENCODING 177
SWIDTH 690 0
DWIDTH 10 0
BBX 8 11 1 -1
BITMAP
08
08
08
08
FF
08
08
08
08
FF
FF
ENDCHAR
STARTCHAR twosuperior
ENCODING 178
SWIDTH 442 0
DWIDTH 7 0
BBX 5 5 1 6
BITMAP
F8
08
F8
80
F8
ENDCHAR
STARTCHAR threesuperior
ENCODING 179
SWIDTH 443 0
DWIDTH 7 0
BBX 5 5 1 6
BITMAP
F8
08
70
08
F8
ENDCHAR
STARTCHAR acute
ENCODING 180
SWIDTH 362 0
DWIDTH 5 0
BBX 4 2 1 12
BITMAP
10
F0
ENDCHAR
STARTCHAR paragraph
ENCODING 182
SWIDTH 629 0
DWIDTH 9 0
BBX 7 13 1 -2
BITMAP
7E
F2
F2
F2
72
12
12
12
12
12
12
12
12
ENDCHAR
STARTCHAR periodcentered
ENCODING 183
SWIDTH 262 0
DWIDTH 4 0
BBX 2 2 1 4
BITMAP
C0
C0
ENDCHAR
STARTCHAR cedilla
ENCODING 184
SWIDTH 219 0
DWIDTH 3 0
BBX 2 2 1 -3
BITMAP
C0
80
ENDCHAR
STARTCHAR onesuperior
ENCODING 185
SWIDTH 222 0
DWIDTH 3 0
BBX 3 5 0 6
BITMAP
C0
20
20
20
20
ENDCHAR
STARTCHAR ordmasculine
ENCODING 186
SWIDTH 592 0
DWIDTH 9 0
BBX 7 6 1 5
BITMAP
7C
86
82
82
86
7C
ENDCHAR
STARTCHAR guillemotright
ENCODING 187
SWIDTH 629 0
DWIDTH 9 0
BBX 8 5 1 3
BITMAP
88
66
11
66
88
ENDCHAR
STARTCHAR onequarter
ENCODING 188
SWIDTH 972 0
DWIDTH 15 0
BBX 13 13 1 -1
BITMAP
0060
6040
2080
2100
2300
2200
0400
0910
1110
3110
20F8
4010
8000
ENDCHAR
STARTCHAR onehalf
ENCODING 189
SWIDTH 948 0
DWIDTH 14 0
BBX 13 13 1 -1
BITMAP
0060
6040
2080
2100
2300
2200
0400
09F0
1008
30F0
2100
41F8
8000
ENDCHAR
STARTCHAR threequarters
ENCODING 190
SWIDTH 1029 0
DWIDTH 15 0
BBX 14 13 1 -1
BITMAP
0030
F820
0840
7080
0900
FB00
0200
0488
0888
1888
307C
2008
C000
ENDCHAR
ENDFONT
