STARTFONT 2.1
FONT -FontForge-Good Times Rg-Book-R-Normal--50-480-75-75-P-348-ISO10646-1
SIZE 48 75 75
FONTBOUNDINGBOX 63 55 0 -10
COMMENT "Generated by fontforge, http://fontforge.sourceforge.net"
COMMENT "(c) 1998-2012 Typodermic Fonts Inc. See attached license agreement. If agreement is missing visit typodermicfonts.com for more info. Languages by Chikako Larabie"
STARTPROPERTIES 38
FOUNDRY "FontForge"
FAMILY_NAME "Good Times Rg"
WEIGHT_NAME "Book"
SLANT "R"
SETWIDTH_NAME "Normal"
ADD_STYLE_NAME ""
PIXEL_SIZE 50
POINT_SIZE 480
RESOLUTION_X 75
RESOLUTION_Y 75
SPACING "P"
AVERAGE_WIDTH 348
CHARSET_REGISTRY "ISO10646"
CHARSET_ENCODING "1"
FONTNAME_REGISTRY ""
CHARSET_COLLECTIONS "ISO10646-1"
FONT_NAME "GoodTimesRg-Regular"
FACE_NAME "GoodTimesRg-Regular"
COPYRIGHT "(c) 1998-2012 Typodermic Fonts Inc. See attached license agreement. If agreement is missing visit typodermicfonts.com for more info. Languages by Chikako Larabie"
FONT_VERSION "4.001"
FONT_ASCENT 40
FONT_DESCENT 10
UNDERLINE_POSITION -7
UNDERLINE_THICKNESS 1
X_HEIGHT 35
CAP_HEIGHT 35
RAW_ASCENT 799
RAW_DESCENT 201
RELATIVE_WEIGHT 40
RELATIVE_SETWIDTH 50
SUPERSCRIPT_X 0
SUPERSCRIPT_Y 15
SUPERSCRIPT_SIZE 15
SUBSCRIPT_X 0
SUBSCRIPT_Y 0
SUBSCRIPT_SIZE 15
AVG_LOWERCASE_WIDTH 422
AVG_UPPERCASE_WIDTH 431
ENDPROPERTIES
CHARS 120
STARTCHAR exclam
ENCODING 33
SWIDTH 298 0
DWIDTH 15 0
BBX 7 36 4 0
BITMAP
FC
FC
FC
FC
FC
FC
FC
FC
FC
FC
FC
FC
FC
FC
FC
FC
FC
FC
FC
FC
FC
FC
FC
FC
00
00
00
00
00
00
7C
FE
FE
FE
7E
38
ENDCHAR
STARTCHAR quotedbl
ENCODING 34
SWIDTH 452 0
DWIDTH 23 0
BBX 16 13 3 23
BITMAP
FE3F
7E3F
7E3F
7E3F
7C3F
7C3F
7C3F
7C3F
7C1E
7C1E
7C1E
7C1E
7C1E
ENDCHAR
STARTCHAR numbersign
ENCODING 35
SWIDTH 697 0
DWIDTH 35 0
BBX 31 36 2 0
BITMAP
000780F8
000F80F8
000F00F0
000F00F0
001F01F0
001F01E0
001E01E0
003E03E0
003E03E0
0FFFFFFE
0FFFFFFE
0FFFFFFE
0FFFFFFE
00F80F80
00F80F80
00F00F00
00F00F00
01F01F00
01F01E00
01E01E00
03E03E00
03E03E00
FFFFFFE0
FFFFFFE0
FFFFFFE0
FFFFFFE0
0780F800
0F80F800
0F00F000
0F00F000
1F01F000
1F01F000
1E01E000
1E03E000
3E03E000
3C03C000
ENDCHAR
STARTCHAR dollar
ENCODING 36
SWIDTH 744 0
DWIDTH 37 0
BBX 31 36 3 0
BITMAP
00038000
00038000
00038000
00038000
07FFFFFC
1FFFFFFC
3FFFFFFC
7FFFFFFC
7FFFFFFC
FE038000
FC038000
F8038000
F8038000
F8038000
FC038000
7E038000
7FFFFFC0
3FFFFFF0
1FFFFFFC
07FFFFFC
0003807E
0003803E
0003803E
0003803E
0003803E
0003803E
0003807E
FFFFFFFE
FFFFFFFC
FFFFFFF8
FFFFFFF0
FFFFFFC0
00038000
00038000
00038000
00038000
ENDCHAR
STARTCHAR percent
ENCODING 37
SWIDTH 965 0
DWIDTH 48 0
BBX 44 42 2 -3
BITMAP
000000000F00
000000001E00
03F800003C00
0FFE00007C00
1FFF00007800
3E0F8000F000
7803C001E000
7001C003C000
F001E007C000
E000E0078000
E000E00F0000
E000E01E0000
E000E03E0000
F001E07C0000
7001C0780000
7803C0F00000
3C0781E00000
1FFF03E00000
0FFE03C00000
07FC07800000
00400F000000
00001F00FC00
00003E03FF00
00003C0FFF80
0000781F8FC0
0000F01E01E0
0001F03C00E0
0003E03800F0
0003C0780070
000780780070
000F00700070
001F00780070
001E00380070
003C003800F0
0078003C00E0
00F8001E03E0
01F0000FDFC0
01E00007FF80
03C00003FE00
078000007800
0F8000000000
1F0000000000
ENDCHAR
STARTCHAR ampersand
ENCODING 38
SWIDTH 759 0
DWIDTH 38 0
BBX 35 36 2 0
BITMAP
00FFF00000
03FFF00000
0FFFF00000
1FFFF00000
3FFFF00000
3FFFF00000
7FE0000000
7F80000000
7F00000000
7F00000000
7F00000000
7F00000000
3F00000000
3F00000000
1FC0000000
0FFFFFFF00
07FFFFFF00
07FFFFFF00
1FFFFFFF00
3FFFFFFF00
3FC003F000
7F0003F000
7E0003F000
7E0003F000
FE0003F000
FE0003F000
7E0003F000
7F0003F000
7F8003F000
7FF003F000
3FFFFFFFE0
3FFFFFFFE0
1FFFFFFFE0
0FFFFFFFE0
03FFFFFFE0
00FFFFFFE0
ENDCHAR
STARTCHAR quotesingle
ENCODING 39
SWIDTH 255 0
DWIDTH 13 0
BBX 7 13 3 23
BITMAP
FE
FC
FC
FC
7C
7C
7C
7C
7C
7C
7C
7C
78
ENDCHAR
STARTCHAR parenleft
ENCODING 40
SWIDTH 356 0
DWIDTH 18 0
BBX 10 45 5 -4
BITMAP
07C0
0F80
0F80
0F00
1F00
1E00
3E00
3E00
3C00
3C00
7C00
7800
7800
7800
F800
F000
F000
F000
F000
F000
F000
F000
F000
F000
F000
F000
F000
F000
F000
F000
F800
7800
7800
7800
7C00
3C00
3C00
3C00
3E00
1E00
1F00
0F00
0F00
0F80
07C0
ENDCHAR
STARTCHAR parenright
ENCODING 41
SWIDTH 355 0
DWIDTH 18 0
BBX 10 45 3 -4
BITMAP
F800
7800
7C00
3C00
3E00
3E00
1E00
1F00
0F00
0F00
0F00
0F80
0780
0780
0780
07C0
03C0
03C0
03C0
03C0
03C0
03C0
03C0
03C0
03C0
03C0
03C0
03C0
07C0
07C0
0780
0780
0780
0F80
0F80
0F00
0F00
1F00
1E00
1E00
3E00
3C00
7C00
7800
F800
ENDCHAR
STARTCHAR asterisk
ENCODING 42
SWIDTH 469 0
DWIDTH 23 0
BBX 17 16 3 20
BITMAP
01C000
01C000
01C000
01C000
41C080
71C780
FFFF80
7FFF00
0FF800
03E000
07F000
077800
0F3C00
1E1C00
3C1E00
080C00
ENDCHAR
STARTCHAR plus
ENCODING 43
SWIDTH 690 0
DWIDTH 35 0
BBX 28 28 3 4
BITMAP
000F0000
000F0000
000F0000
000F0000
000F0000
000F0000
000F0000
000F0000
000F0000
000F0000
000F0000
000F0000
FFFFFFF0
FFFFFFF0
FFFFFFF0
FFFFFFF0
000F0000
000F0000
000F0000
000F0000
000F0000
000F0000
000F0000
000F0000
000F0000
000F0000
000F0000
000F0000
ENDCHAR
STARTCHAR comma
ENCODING 44
SWIDTH 259 0
DWIDTH 13 0
BBX 7 13 3 -6
BITMAP
FE
FE
FC
FC
FC
FC
FC
F8
F8
F8
F8
F8
F0
ENDCHAR
STARTCHAR hyphen
ENCODING 45
SWIDTH 296 0
DWIDTH 15 0
BBX 12 4 1 16
BITMAP
FFF0
FFF0
FFF0
FFF0
ENDCHAR
STARTCHAR period
ENCODING 46
SWIDTH 262 0
DWIDTH 13 0
BBX 7 6 3 0
BITMAP
7C
FE
FE
FE
7C
38
ENDCHAR
STARTCHAR slash
ENCODING 47
SWIDTH 444 0
DWIDTH 22 0
BBX 22 36 0 0
BITMAP
00007C
000078
0000F8
0000F0
0001F0
0001E0
0003E0
0003C0
0007C0
000780
000780
000F00
000F00
001E00
001E00
003C00
003C00
007C00
007800
00F800
00F000
01F000
01E000
03E000
03C000
07C000
078000
0F8000
0F0000
0F0000
1E0000
1E0000
3C0000
3C0000
7C0000
F80000
ENDCHAR
STARTCHAR zero
ENCODING 48
SWIDTH 838 0
DWIDTH 42 0
BBX 38 36 2 0
BITMAP
0003FF0000
001FFFE000
007FFFF800
01FFFFFE00
03FFFFFF00
07FFFFFF80
0FFF07FFC0
1FF8007FE0
1FE0001FE0
3FC0000FF0
3F800007F0
7F000003F8
7F000003F8
7E000001F8
FE000001FC
FE000001FC
FE000001FC
FC000001FC
FC000001FC
FE000001FC
FE000001FC
FE000001F8
7E000001F8
7F000003F8
7F000003F0
3F800007F0
3FC0000FF0
1FE0001FE0
0FF8007FC0
0FFF03FF80
07FFFFFF80
03FFFFFE00
00FFFFFC00
007FFFF800
001FFFE000
0003FE0000
ENDCHAR
STARTCHAR one
ENCODING 49
SWIDTH 385 0
DWIDTH 19 0
BBX 15 36 1 0
BITMAP
FF00
FFC0
FFF0
FFF8
FFF8
FFFC
07FC
01FE
00FE
00FE
007E
007E
007E
007E
007E
007E
007E
007E
007E
007E
007E
007E
007E
007E
007E
007E
007E
007E
007E
007E
007E
007E
007E
007E
007E
007E
ENDCHAR
STARTCHAR two
ENCODING 50
SWIDTH 825 0
DWIDTH 41 0
BBX 36 36 3 0
BITMAP
FFFFFFF000
FFFFFFFE00
FFFFFFFF00
FFFFFFFF80
FFFFFFFFC0
FFFFFFFFE0
0000003FE0
0000000FE0
00000007F0
00000007F0
00000007F0
00000007F0
00000007E0
0000000FE0
0000001FE0
01FFFFFFC0
07FFFFFF80
1FFFFFFF00
3FFFFFFE00
7FFFFFF000
7F80000000
7E00000000
FE00000000
FC00000000
FC00000000
FC00000000
FC00000000
FC00000000
FC00000000
FC00000000
FFFFFFFFE0
FFFFFFFFE0
FFFFFFFFE0
FFFFFFFFE0
FFFFFFFFE0
FFFFFFFFE0
ENDCHAR
STARTCHAR three
ENCODING 51
SWIDTH 827 0
DWIDTH 41 0
BBX 37 36 2 0
BITMAP
FFFFFFF800
FFFFFFFF00
FFFFFFFF80
FFFFFFFFC0
FFFFFFFFE0
FFFFFFFFE0
0000003FF0
0000000FF0
00000007F0
00000003F0
00000003F0
00000003F0
00000003F0
00000007E0
0000000FE0
007FFFFFC0
007FFFFF00
007FFFFF80
007FFFFFC0
007FFFFFE0
0000000FF0
00000007F0
00000003F8
00000003F8
00000003F8
00000003F8
00000003F8
00000003F8
0000000FF0
0000003FF0
FFFFFFFFF0
FFFFFFFFE0
FFFFFFFFC0
FFFFFFFF80
FFFFFFFF00
FFFFFFF800
ENDCHAR
STARTCHAR four
ENCODING 52
SWIDTH 845 0
DWIDTH 42 0
BBX 39 36 2 0
BITMAP
FE00001FC0
FE00001FC0
FE00001FC0
FE00001FC0
FE00001FC0
FE00001FC0
FE00001FC0
FE00001FC0
FE00001FC0
FE00001FC0
FE00001FC0
FE00001FC0
FE00001FC0
FE00001FC0
FE00001FC0
FE00001FC0
FE00001FC0
7E00001FC0
7F00001FC0
7F80001FC0
7FFFFFFFFE
3FFFFFFFFE
1FFFFFFFFE
1FFFFFFFFE
07FFFFFFFE
01FFFFFFFE
0000001FC0
0000001FC0
0000001FC0
0000001FC0
0000001FC0
0000001FC0
0000001FC0
0000001FC0
0000001FC0
0000001FC0
ENDCHAR
STARTCHAR five
ENCODING 53
SWIDTH 885 0
DWIDTH 44 0
BBX 39 36 3 0
BITMAP
FFFFFFFFF8
FFFFFFFFF8
FFFFFFFFF8
FFFFFFFFF8
FFFFFFFFF8
FFFFFFFFF8
FE00000000
FE00000000
FE00000000
FE00000000
FE00000000
FE00000000
FE00000000
FE00000000
FE00000000
FFFFFFFF00
FFFFFFFFC0
FFFFFFFFF0
FFFFFFFFF8
FFFFFFFFF8
00000003FC
00000000FC
00000000FC
000000007E
000000007E
000000007E
00000000FE
00000000FC
00000001FC
00000007FC
FFFFFFFFFC
FFFFFFFFF8
FFFFFFFFF0
FFFFFFFFE0
FFFFFFFFC0
FFFFFFFE00
ENDCHAR
STARTCHAR six
ENCODING 54
SWIDTH 872 0
DWIDTH 44 0
BBX 39 36 2 0
BITMAP
000FFFFFF8
007FFFFFF8
01FFFFFFF8
07FFFFFFF8
0FFFFFFFF8
1FFFFFFFF8
1FFC000000
3FE0000000
3FC0000000
7F80000000
7F00000000
7F00000000
FE00000000
FE00000000
FE00000000
FFFFFFFF00
FFFFFFFFE0
FFFFFFFFF0
FFFFFFFFF8
FFFFFFFFFC
FE000003FC
FE000000FE
FE000000FE
7E0000007E
7F0000007E
7F0000007E
7F8000007E
3FC00000FE
3FE00001FE
1FFC0007FC
0FFFFFFFFC
07FFFFFFF8
03FFFFFFF8
01FFFFFFF0
007FFFFFC0
000FFFFF00
ENDCHAR
STARTCHAR seven
ENCODING 55
SWIDTH 756 0
DWIDTH 38 0
BBX 35 36 2 0
BITMAP
FFFFFFFF80
FFFFFFFFC0
FFFFFFFFE0
FFFFFFFFE0
FFFFFFFFC0
FFFFFFFFC0
0000007F80
000000FF00
000001FE00
000001FE00
000003FC00
000007F800
00000FF000
00001FE000
00003FC000
00003FC000
00007F8000
0000FF0000
0001FE0000
0003FC0000
0007FC0000
0007F80000
000FF00000
001FE00000
003FC00000
007F800000
00FF800000
00FF000000
01FE000000
03FC000000
07F8000000
0FF0000000
1FF0000000
1FE0000000
3FC0000000
FF80000000
ENDCHAR
STARTCHAR eight
ENCODING 56
SWIDTH 898 0
DWIDTH 45 0
BBX 39 36 3 0
BITMAP
00FFFFFE00
07FFFFFFC0
1FFFFFFFF0
3FFFFFFFF8
7FFFFFFFF8
7FFFFFFFFC
7FE0000FFC
FF000001FE
FE000000FE
FE000000FE
FE000000FE
FE000000FC
7E000000FC
7E000001FC
3F800003F8
1FFFFFFFF0
0FFFFFFFE0
0FFFFFFFE0
3FFFFFFFF8
7FFFFFFFFC
7F800003FC
FE000000FE
FC000000FE
FC0000007E
FC0000007E
FC0000007E
FC0000007E
FE000000FE
FF000001FE
FFE0000FFE
7FFFFFFFFC
7FFFFFFFF8
3FFFFFFFF8
1FFFFFFFF0
07FFFFFFC0
01FFFFFF00
ENDCHAR
STARTCHAR nine
ENCODING 57
SWIDTH 861 0
DWIDTH 43 0
BBX 39 36 2 0
BITMAP
01FFFFE000
07FFFFFC00
0FFFFFFF00
1FFFFFFF80
3FFFFFFFC0
7FFFFFFFE0
7FC0007FF0
7F00000FF8
FE000007F8
FE000003FC
FE000001FC
FE000001FC
FE000000FC
FE000000FE
FE000000FE
7F000000FE
7F800000FE
7FFFFFFFFE
3FFFFFFFFE
1FFFFFFFFE
0FFFFFFFFE
01FFFFFFFE
00000000FE
00000000FE
00000000FC
00000001FC
00000003FC
00000003F8
0000000FF8
000000FFF0
0FFFFFFFF0
0FFFFFFFE0
0FFFFFFFC0
0FFFFFFF80
0FFFFFFE00
0FFFFFE000
ENDCHAR
STARTCHAR colon
ENCODING 58
SWIDTH 262 0
DWIDTH 13 0
BBX 7 23 3 0
BITMAP
38
7C
FE
FE
FE
7C
00
00
00
00
00
00
00
00
00
00
00
7C
FE
FE
FE
7C
38
ENDCHAR
STARTCHAR semicolon
ENCODING 59
SWIDTH 262 0
DWIDTH 13 0
BBX 7 28 3 -6
BITMAP
7C
FE
FE
FE
7C
3C
00
00
00
00
00
00
00
00
00
FE
FE
FC
FC
FC
FC
FC
F8
F8
F8
F8
F8
F0
ENDCHAR
STARTCHAR less
ENCODING 60
SWIDTH 690 0
DWIDTH 35 0
BBX 28 27 3 5
BITMAP
00000010
00000030
000001F0
000007F0
00003FF0
0000FFE0
0007FF00
001FFC00
007FE000
03FF0000
0FFC0000
3FE00000
FF800000
FC000000
FF000000
7FC00000
1FF80000
07FE0000
00FFC000
003FF000
0007FE00
0001FFC0
00007FF0
00000FF0
000003F0
00000070
00000010
ENDCHAR
STARTCHAR equal
ENCODING 61
SWIDTH 690 0
DWIDTH 35 0
BBX 28 17 3 10
BITMAP
FFFFFFF0
FFFFFFF0
FFFFFFF0
FFFFFFF0
00000000
00000000
00000000
00000000
00000000
00000000
00000000
00000000
00000000
FFFFFFF0
FFFFFFF0
FFFFFFF0
FFFFFFF0
ENDCHAR
STARTCHAR greater
ENCODING 62
SWIDTH 690 0
DWIDTH 35 0
BBX 28 27 3 5
BITMAP
80000000
E0000000
F8000000
FF000000
FFC00000
3FF80000
0FFE0000
01FF8000
003FF000
000FFC00
0001FF80
00007FE0
00000FF0
000003F0
000007F0
00003FF0
0000FF80
0007FE00
001FF800
00FFC000
07FF0000
1FF80000
FFE00000
FF800000
FC000000
F0000000
80000000
ENDCHAR
STARTCHAR question
ENCODING 63
SWIDTH 776 0
DWIDTH 39 0
BBX 35 36 2 0
BITMAP
FFFFFFF000
FFFFFFFE00
FFFFFFFF00
FFFFFFFF80
FFFFFFFFC0
FFFFFFFFC0
0000003FE0
0000000FE0
0000000FE0
00000007E0
00000007E0
00000007E0
0000000FE0
0000000FE0
0000001FC0
00FFFFFFC0
03FFFFFF80
07FFFFFF00
0FFFFFFE00
0FFFFFF000
0FC0000000
0FC0000000
0FC0000000
0FC0000000
0000000000
0000000000
0000000000
0000000000
0000000000
0000000000
0F80000000
0FC0000000
1FC0000000
1FC0000000
0FC0000000
0780000000
ENDCHAR
STARTCHAR at
ENCODING 64
SWIDTH 833 0
DWIDTH 42 0
BBX 37 36 2 0
BITMAP
0003FFFFF8
001FFFFFF8
007FFFFFF8
01FFFFFFF8
03FFFFFFF8
07FC0000F8
0FF00000F8
1FC00000F8
1F800000F8
3F000000F8
3E01FFE0F8
7C07FFE0F8
7C0FFFE0F8
780FFFE0F8
F81F81E0F8
F81E01E0F8
F81E01E0F8
F83E01E0F8
F83E01E0F8
F81E01E0F8
F81F01E0F8
F81F81E0F8
F80FFFFFF8
7C0FFFFFF8
7C07FFFFF8
7E01FFFFF8
3F00000000
3F80000000
1FC0000000
0FE0000000
07FC000000
03FFFFFFF8
01FFFFFFF8
00FFFFFFF8
003FFFFFF8
0003FFFFF8
ENDCHAR
STARTCHAR A
ENCODING 65
SWIDTH 989 0
DWIDTH 49 0
BBX 48 37 1 0
BITMAP
000001000000
000007C00000
000007E00000
00000FE00000
00001FF00000
00001FF80000
00003FF80000
00003FFC0000
00007FFC0000
0000FFFE0000
0000FEFF0000
0001FC7F0000
0001FC7F8000
0003F83F8000
0007F03FC000
0007F01FE000
000FE00FE000
001FE00FF000
001FC007F000
003F8007F800
003F8003FC00
007F0001FC00
00FF0001FE00
00FE0FFFFF00
01FC1FFFFF00
01FC1FFFFF80
03F83FFFFF80
07F87FFFFFC0
07F000001FE0
0FE000001FE0
0FE000000FF0
1FC0000007F0
3FC0000007F8
3F80000003FC
7F00000001FC
7F00000001FE
FE00000000FF
ENDCHAR
STARTCHAR B
ENCODING 66
SWIDTH 891 0
DWIDTH 45 0
BBX 39 36 3 0
BITMAP
FFFFFFFE00
FFFFFFFFC0
FFFFFFFFE0
FFFFFFFFF8
FFFFFFFFF8
FFFFFFFFFC
FC00000FFC
FC000001FC
FC000000FC
FC000000FE
FC000000FC
FC000000FC
FC000000FC
FC000001FC
FC000003F8
FC1FFFFFF0
FC1FFFFFC0
FC1FFFFFE0
FC1FFFFFF0
FC1FFFFFF8
FC000003FC
FC000000FE
FC000000FE
FC0000007E
FC0000007E
FC0000007E
FC000000FE
FC000000FE
FC000001FE
FC00001FFC
FFFFFFFFFC
FFFFFFFFF8
FFFFFFFFF0
FFFFFFFFE0
FFFFFFFFC0
FFFFFFFF00
ENDCHAR
STARTCHAR C
ENCODING 67
SWIDTH 829 0
DWIDTH 41 0
BBX 37 36 2 0
BITMAP
0007FFFFF8
003FFFFFF8
00FFFFFFF8
01FFFFFFF8
07FFFFFFF8
0FFFFFFFF8
0FFF000000
1FF8000000
3FE0000000
3FC0000000
7F80000000
7F00000000
7F00000000
FE00000000
FE00000000
FE00000000
FE00000000
FC00000000
FC00000000
FE00000000
FE00000000
FE00000000
7E00000000
7F00000000
7F00000000
3F80000000
3FC0000000
1FE0000000
1FF8000000
0FFF000000
07FFFFFFF8
03FFFFFFF8
01FFFFFFF8
007FFFFFF8
003FFFFFF8
0007FFFFF8
ENDCHAR
STARTCHAR D
ENCODING 68
SWIDTH 879 0
DWIDTH 44 0
BBX 39 36 3 0
BITMAP
FFFFFFC000
FFFFFFF800
FFFFFFFE00
FFFFFFFF00
FFFFFFFF80
FFFFFFFFC0
FC0001FFE0
FC00003FF0
FC00000FF8
FC000007F8
FC000003FC
FC000001FC
FC000001FC
FC000000FC
FC000000FE
FC000000FE
FC000000FE
FC0000007E
FC0000007E
FC000000FE
FC000000FE
FC000000FE
FC000000FC
FC000001FC
FC000001FC
FC000003F8
FC000007F8
FC00000FF0
FC00003FF0
FC0001FFE0
FFFFFFFFC0
FFFFFFFF80
FFFFFFFF00
FFFFFFFC00
FFFFFFF800
FFFFFF8000
ENDCHAR
STARTCHAR E
ENCODING 69
SWIDTH 759 0
DWIDTH 38 0
BBX 33 36 3 0
BITMAP
FFFFFFFF80
FFFFFFFF80
FFFFFFFF80
FFFFFFFF80
FFFFFFFF80
FFFFFFFF80
FC00000000
FC00000000
FC00000000
FC00000000
FC00000000
FC00000000
FC00000000
FC00000000
FC00000000
FC1FFFFE00
FC1FFFFE00
FC1FFFFE00
FC1FFFFE00
FC1FFFFE00
FC00000000
FC00000000
FC00000000
FC00000000
FC00000000
FC00000000
FC00000000
FC00000000
FC00000000
FC00000000
FFFFFFFF80
FFFFFFFF80
FFFFFFFF80
FFFFFFFF80
FFFFFFFF80
FFFFFFFF80
ENDCHAR
STARTCHAR F
ENCODING 70
SWIDTH 705 0
DWIDTH 35 0
BBX 31 36 3 0
BITMAP
FFFFFFFE
FFFFFFFE
FFFFFFFE
FFFFFFFE
FFFFFFFE
FFFFFFFE
FC000000
FC000000
FC000000
FC000000
FC000000
FC000000
FC000000
FC000000
FC000000
FC1FFFFC
FC1FFFFC
FC1FFFFC
FC1FFFFC
FC1FFFFC
FC1FFFFC
FC000000
FC000000
FC000000
FC000000
FC000000
FC000000
FC000000
FC000000
FC000000
FC000000
FC000000
FC000000
FC000000
FC000000
FC000000
ENDCHAR
STARTCHAR G
ENCODING 71
SWIDTH 888 0
DWIDTH 44 0
BBX 40 36 2 0
BITMAP
0007FFFFF8
003FFFFFF8
00FFFFFFF8
01FFFFFFF8
07FFFFFFF8
0FFFFFFFF8
0FFF000000
1FF8000000
3FE0000000
3FC0000000
7F80000000
7F00000000
7F00000000
FE00000000
FE00000000
FE007FFFFF
FE007FFFFF
FC007FFFFF
FC007FFFFF
FE007FFFFF
FE0000007F
FE0000007F
7E0000007F
7F0000007F
7F0000007F
3F8000007F
3FC000007F
1FE000007F
1FF800007F
0FFF00007F
07FFFFFFFF
03FFFFFFFF
01FFFFFFFF
007FFFFFFF
003FFFFFFF
0007FFFFFF
ENDCHAR
STARTCHAR H
ENCODING 72
SWIDTH 838 0
DWIDTH 42 0
BBX 36 36 3 0
BITMAP
FE000007F0
FE000007F0
FE000007F0
FE000007F0
FE000007F0
FE000007F0
FE000007F0
FE000007F0
FE000007F0
FE000007F0
FE000007F0
FE000007F0
FE000007F0
FE000007F0
FE000007F0
FE1FFFFFF0
FE1FFFFFF0
FE1FFFFFF0
FE1FFFFFF0
FE1FFFFFF0
FE1FFFFFF0
FE000007F0
FE000007F0
FE000007F0
FE000007F0
FE000007F0
FE000007F0
FE000007F0
FE000007F0
FE000007F0
FE000007F0
FE000007F0
FE000007F0
FE000007F0
FE000007F0
FE000007F0
ENDCHAR
STARTCHAR I
ENCODING 73
SWIDTH 267 0
DWIDTH 13 0
BBX 7 36 3 0
BITMAP
FE
FE
FE
FE
FE
FE
FE
FE
FE
FE
FE
FE
FE
FE
FE
FE
FE
FE
FE
FE
FE
FE
FE
FE
FE
FE
FE
FE
FE
FE
FE
FE
FE
FE
FE
FE
ENDCHAR
STARTCHAR J
ENCODING 74
SWIDTH 708 0
DWIDTH 35 0
BBX 32 36 1 0
BITMAP
0000007F
0000007F
0000007F
0000007F
0000007F
0000007F
0000007F
0000007F
0000007F
0000007F
0000007F
0000007F
0000007F
0000007F
0000007F
0000007F
0000007F
0000007F
0000007F
0000007F
0000007F
0000007F
0000007F
0000007F
0000007E
000000FE
000001FE
000003FC
000007FC
00007FF8
FFFFFFF8
FFFFFFF0
FFFFFFE0
FFFFFF80
FFFFFE00
FFFFF000
ENDCHAR
STARTCHAR K
ENCODING 75
SWIDTH 875 0
DWIDTH 44 0
BBX 40 36 3 0
BITMAP
FE000007FE
FE00001FF8
FE00003FF0
FE00007FC0
FE0001FF80
FE0003FF00
FE0007FC00
FE001FF800
FE003FF000
FE007FC000
FE01FF8000
FE03FF0000
FE07FC0000
FE0FF80000
FE3FF00000
FE7FC00000
FE7F800000
FEFF000000
FE7F000000
FE7F800000
FE3FE00000
FE1FF00000
FE07FC0000
FE03FE0000
FE01FF0000
FE007FC000
FE003FE000
FE001FF000
FE000FFC00
FE0003FE00
FE0001FF00
FE0000FFC0
FE00003FE0
FE00001FF0
FE00000FFC
FE000007FF
ENDCHAR
STARTCHAR L
ENCODING 76
SWIDTH 707 0
DWIDTH 35 0
BBX 31 36 3 0
BITMAP
FE000000
FE000000
FE000000
FE000000
FE000000
FE000000
FE000000
FE000000
FE000000
FE000000
FE000000
FE000000
FE000000
FE000000
FE000000
FE000000
FE000000
FE000000
FE000000
FE000000
FE000000
FE000000
FE000000
FE000000
FE000000
FE000000
FE000000
FE000000
FE000000
FE000000
FFFFFFFE
FFFFFFFE
FFFFFFFE
FFFFFFFE
FFFFFFFE
FFFFFFFE
ENDCHAR
STARTCHAR M
ENCODING 77
SWIDTH 1115 0
DWIDTH 56 0
BBX 54 37 1 -1
BITMAP
001E000000E000
003F000001F000
003F000003F000
007F800003F800
007F800007F800
007F800007F800
00FFC0000FFC00
00FFC0000FFC00
00FFE0001FFC00
00FFE0001FFC00
01FFF0001FFE00
01FBF0003F7E00
01FBF8003F7E00
03FBF8007E7E00
03F1F8007E7F00
03F1FC00FC3F00
03F0FC00FC3F00
07F0FE01FC3F80
07E07E01F81F80
07E07F01F81F80
07E03F03F01F80
0FE03F83F01FC0
0FC03F87E00FC0
0FC01F87E00FC0
1FC01FCFC00FE0
1F800FCFC00FE0
1F800FFFC007E0
1F8007FF8007E0
3F8007FF8007F0
3F0003FF0003F0
3F0003FF0003F0
7F0003FE0003F0
7E0001FE0003F8
7E0001FC0001F8
7E0000FC0001F8
FE0000F80001FC
00000020000000
ENDCHAR
STARTCHAR N
ENCODING 78
SWIDTH 873 0
DWIDTH 44 0
BBX 38 36 3 0
BITMAP
78000000FC
FC000000FC
FE000000FC
FF000000FC
FF800000FC
FFC00000FC
FFE00000FC
FFF00000FC
FFF80000FC
FFFC0000FC
FFFE0000FC
FCFF0000FC
FC7F8000FC
FC3FE000FC
FC1FF000FC
FC0FF800FC
FC07FC00FC
FC03FE00FC
FC01FF00FC
FC00FF80FC
FC007FC0FC
FC003FE0FC
FC001FF0FC
FC000FF8FC
FC0007FCFC
FC0003FEFC
FC0001FFFC
FC0000FFFC
FC00007FFC
FC00003FFC
FC00001FFC
FC00000FFC
FC000007FC
FC000003FC
FC000001F8
FC00000070
ENDCHAR
STARTCHAR O
ENCODING 79
SWIDTH 968 0
DWIDTH 48 0
BBX 44 36 2 0
BITMAP
0007FFFE0000
003FFFFFC000
00FFFFFFF000
01FFFFFFFC00
07FFFFFFFE00
0FFFFFFFFF00
0FFF0007FF80
1FF80000FFC0
3FE000003FC0
3FC000001FE0
7F8000000FE0
7F0000000FE0
7F00000007F0
FE00000007F0
FE00000003F0
FE00000003F0
FE00000003F0
FC00000003F0
FC00000003F0
FE00000003F0
FE00000003F0
FE00000003F0
7E00000007F0
7F00000007F0
7F0000000FE0
3F8000000FE0
3FC000001FC0
1FE000007FC0
1FF80000FF80
0FFF0007FF00
07FFFFFFFF00
03FFFFFFFE00
01FFFFFFF800
007FFFFFF000
003FFFFFC000
0007FFFE0000
ENDCHAR
STARTCHAR P
ENCODING 80
SWIDTH 867 0
DWIDTH 43 0
BBX 39 36 3 0
BITMAP
FFFFFFFC00
FFFFFFFF80
FFFFFFFFC0
FFFFFFFFF0
FFFFFFFFF0
FFFFFFFFF8
FC00001FFC
FC000003FC
FC000001FC
FC000000FE
FC000000FE
FC0000007E
FC0000007E
FC0000007E
FC0000007E
FC000000FE
FC000000FE
FC000001FC
FC000003FC
FC00001FFC
FC1FFFFFF8
FC1FFFFFF0
FC1FFFFFE0
FC1FFFFFC0
FC1FFFFF80
FC1FFFFC00
FC00000000
FC00000000
FC00000000
FC00000000
FC00000000
FC00000000
FC00000000
FC00000000
FC00000000
FC00000000
ENDCHAR
STARTCHAR Q
ENCODING 81
SWIDTH 968 0
DWIDTH 48 0
BBX 46 36 2 0
BITMAP
0007FFFE0000
003FFFFFC000
00FFFFFFF000
01FFFFFFFC00
07FFFFFFFE00
0FFFFFFFFF00
0FFF0007FF80
1FF80000FFC0
3FE000003FC0
3FC000001FE0
7F8000000FE0
7F0000000FE0
7F00000007F0
FE00000007F0
FE00000003F0
FE00000003F0
FE00000003F0
FC00000003F0
FC00000003F0
FE00000003F0
FE00000003F0
FE001FF003F0
7E0007F807F0
7F0003FE07F0
7F0000FF0FE0
3F80007F8FE0
3FC0003FDFC0
1FE0001FFFC0
1FF80007FF80
0FFF000FFF00
07FFFFFFFF00
03FFFFFFFF00
01FFFFFFFFC0
007FFFFFFFE0
003FFFFFCFF0
0007FFFE07FC
ENDCHAR
STARTCHAR R
ENCODING 82
SWIDTH 921 0
DWIDTH 46 0
BBX 43 36 3 0
BITMAP
FFFFFFFE0000
FFFFFFFF8000
FFFFFFFFE000
FFFFFFFFF000
FFFFFFFFF800
FFFFFFFFFC00
FC00000FFC00
FC000001FC00
FC000000FE00
FC000000FE00
FC0000007E00
FC0000007E00
FC0000007E00
FC0000007E00
FC0000007E00
FC0000007E00
FC0000007E00
FC000000FE00
FC000001FE00
FC000007FC00
FC1FFFFFFC00
FC1FFFFFF800
FC1FFFFFF000
FC1FFFFFE000
FC1FFFFF8000
FC1FFFFF0000
FC00007F8000
FC00003FC000
FC00001FE000
FC00000FF000
FC000007F800
FC000003FC00
FC000001FE00
FC000000FF00
FC0000007F80
FC0000007FE0
ENDCHAR
STARTCHAR S
ENCODING 83
SWIDTH 880 0
DWIDTH 44 0
BBX 39 36 3 0
BITMAP
01FFFFFFF8
0FFFFFFFF8
1FFFFFFFF8
3FFFFFFFF8
7FFFFFFFF8
7FFFFFFFF8
FF80000000
FE00000000
FE00000000
FC00000000
FC00000000
FC00000000
FE00000000
FE00000000
7F00000000
7FFFFFFF00
3FFFFFFFC0
1FFFFFFFF0
0FFFFFFFF8
01FFFFFFF8
00000003FC
00000000FC
00000000FC
000000007E
000000007E
000000007E
00000000FE
00000000FE
00000001FC
00000007FC
FFFFFFFFFC
FFFFFFFFF8
FFFFFFFFF0
FFFFFFFFE0
FFFFFFFFC0
FFFFFFFF00
ENDCHAR
STARTCHAR T
ENCODING 84
SWIDTH 720 0
DWIDTH 36 0
BBX 34 36 1 0
BITMAP
FFFFFFFFC0
FFFFFFFFC0
FFFFFFFFC0
FFFFFFFFC0
FFFFFFFFC0
FFFFFFFFC0
0003F00000
0003F00000
0003F00000
0003F00000
0003F00000
0003F00000
0003F00000
0003F00000
0003F00000
0003F00000
0003F00000
0003F00000
0003F00000
0003F00000
0003F00000
0003F00000
0003F00000
0003F00000
0003F00000
0003F00000
0003F00000
0003F00000
0003F00000
0003F00000
0003F00000
0003F00000
0003F00000
0003F00000
0003F00000
0003F00000
ENDCHAR
STARTCHAR U
ENCODING 85
SWIDTH 889 0
DWIDTH 44 0
BBX 39 36 3 0
BITMAP
FC0000007E
FC0000007E
FC0000007E
FC0000007E
FC0000007E
FC0000007E
FC0000007E
FC0000007E
FC0000007E
FC0000007E
FC0000007E
FC0000007E
FC0000007E
FC0000007E
FC0000007E
FC0000007E
FC0000007E
FC0000007E
FC0000007E
FC0000007E
FC0000007E
FC0000007E
FC000000FE
FE000000FE
FE000000FC
FE000000FC
FF000001FC
7F800003FC
7FC0000FF8
3FFC007FF8
3FFFFFFFF0
1FFFFFFFE0
0FFFFFFFC0
03FFFFFF80
00FFFFFE00
001FFFE000
ENDCHAR
STARTCHAR V
ENCODING 86
SWIDTH 989 0
DWIDTH 49 0
BBX 48 37 1 -1
BITMAP
FF00000000FF
7F00000000FE
7F80000001FC
3FC0000003FC
3FC0000003F8
1FE0000007F0
0FE0000007F0
0FF000000FE0
07F000001FE0
07F800001FC0
03FC00003F80
01FC00003F80
01FE00007F00
00FE0000FF00
00FF0000FE00
007F8001FC00
003F8001FC00
003FC003F800
001FC007F000
000FE007F000
000FF00FE000
0007F00FE000
0007F81FC000
0003F81F8000
0001FC3F8000
0001FE7F0000
0000FE7F0000
0000FFFE0000
00007FFC0000
00003FFC0000
00003FF80000
00001FF80000
00001FF00000
00000FE00000
000007E00000
000007C00000
000001000000
ENDCHAR
STARTCHAR W
ENCODING 87
SWIDTH 1268 0
DWIDTH 63 0
BBX 62 37 1 -1
BITMAP
FF003FC0000003FC
7F001FC0000003F8
7F801FE0000007F0
3F800FE0000007F0
3FC00FF000000FE0
1FC007F000000FE0
1FE007F800001FC0
0FE003F800001FC0
0FF003FC00003F80
07F001FC00003F80
07F801FE00007F00
03F800FE0000FE00
03FC00FF0000FE00
01FC007F0001FC00
01FE007F8001FC00
00FE003F8003F800
007F001FC003F800
007F001FC007F000
003F801FE007F000
003F801FE00FE000
001FC03FF00FE000
001FE03FF01FC000
000FE07FF81FC000
000FF07FF83F8000
0007F0FFFC3F8000
0007F9FDFC7F0000
0003F9FCFE7E0000
0003FFF8FEFE0000
0001FFF87FFC0000
0000FFF07FFC0000
0000FFE03FF80000
00007FE03FF80000
00007FC01FF00000
00003FC00FF00000
00003F800FE00000
00001F8007E00000
00000F0003800000
ENDCHAR
STARTCHAR X
ENCODING 88
SWIDTH 1000 0
DWIDTH 50 0
BBX 48 36 1 0
BITMAP
7FE0000007FC
1FF000000FF0
0FF800001FE0
07FC00003FC0
03FE00007F80
01FF0000FF00
00FF8001FE00
007FC003FC00
003FE007F800
001FF00FF000
000FF81FE000
0007FC3FC000
0003FE7F8000
0001FFFF0000
0000FFFE0000
00007FFC0000
00003FF80000
00000FF00000
00001FF80000
00003FFC0000
0000FFFE0000
0001FFFF0000
0003FCFF8000
0007F83FC000
000FF01FE000
001FE00FF000
003FC007F800
007F8003FE00
00FF0001FF00
01FE0000FF80
03FC00007FC0
07F800003FE0
0FF000001FF0
1FE000000FF8
3FC0000007FC
FF80000003FF
ENDCHAR
STARTCHAR Y
ENCODING 89
SWIDTH 926 0
DWIDTH 46 0
BBX 45 36 1 0
BITMAP
FF8000000FF8
7F8000001FE0
3FC000003FE0
1FE000003FC0
1FF000007F80
0FF80000FF00
07FC0001FE00
03FC0003FC00
01FE0007F800
00FF0007F800
007F800FF000
007FC01FE000
003FE03FC000
001FF07F8000
000FF0FF0000
0007F9FE0000
0003FDFE0000
0001FFFC0000
0001FFF80000
0000FFF00000
00007FE00000
00003FC00000
00001F800000
00001F800000
00001F800000
00001F800000
00001F800000
00001F800000
00001F800000
00001F800000
00001F800000
00001F800000
00001F800000
00001F800000
00001F800000
00001F800000
ENDCHAR
STARTCHAR Z
ENCODING 90
SWIDTH 802 0
DWIDTH 40 0
BBX 36 36 2 0
BITMAP
FFFFFFFFC0
FFFFFFFFE0
FFFFFFFFF0
FFFFFFFFF0
FFFFFFFFF0
FFFFFFFFE0
0000007FC0
000000FF80
000001FF00
000003FE00
000007FC00
00000FF800
00001FF000
00003FE000
00007FC000
0000FF8000
0001FF0000
0003FE0000
0007FC0000
000FF80000
001FF00000
003FE00000
007FC00000
00FF800000
01FF000000
03FE000000
07FC000000
0FF8000000
1FF0000000
3FE0000000
7FFFFFFFF0
FFFFFFFFF0
FFFFFFFFF0
FFFFFFFFF0
FFFFFFFFF0
3FFFFFFFF0
ENDCHAR
STARTCHAR bracketleft
ENCODING 91
SWIDTH 333 0
DWIDTH 17 0
BBX 9 45 5 -4
BITMAP
FF80
FF80
FF80
FF80
F000
F000
F000
F000
F000
F000
F000
F000
F000
F000
F000
F000
F000
F000
F000
F000
F000
F000
F000
F000
F000
F000
F000
F000
F000
F000
F000
F000
F000
F000
F000
F000
F000
F000
F000
F000
F000
FF80
FF80
FF80
FF80
ENDCHAR
STARTCHAR backslash
ENCODING 92
SWIDTH 445 0
DWIDTH 22 0
BBX 22 36 0 0
BITMAP
F80000
780000
3C0000
3C0000
1E0000
1E0000
0F0000
0F0000
0F8000
078000
07C000
03C000
03E000
01E000
01F000
00F000
00F800
007800
007800
003C00
003C00
001E00
001E00
001F00
000F00
000F80
000780
0007C0
0003C0
0003E0
0001E0
0001F0
0000F0
0000F8
000078
00007C
ENDCHAR
STARTCHAR bracketright
ENCODING 93
SWIDTH 333 0
DWIDTH 17 0
BBX 9 45 3 -4
BITMAP
FF80
FF80
FF80
FF80
0F80
0F80
0F80
0F80
0F80
0F80
0F80
0F80
0F80
0F80
0F80
0F80
0F80
0F80
0F80
0F80
0F80
0F80
0F80
0F80
0F80
0F80
0F80
0F80
0F80
0F80
0F80
0F80
0F80
0F80
0F80
0F80
0F80
0F80
0F80
0F80
0F80
FF80
FF80
FF80
FF80
ENDCHAR
STARTCHAR asciicircum
ENCODING 94
SWIDTH 559 0
DWIDTH 28 0
BBX 22 22 3 14
BITMAP
003000
007800
00FC00
00FC00
01FE00
01FE00
01FE00
03CF00
03CF00
078780
078780
0F87C0
0F03C0
0F03C0
1E01E0
1E01E0
3C01F0
3C00F0
7C00F8
780078
780078
F0007C
ENDCHAR
STARTCHAR underscore
ENCODING 95
SWIDTH 668 0
DWIDTH 33 0
BBX 34 3 0 -8
BITMAP
FFFFFFFFC0
FFFFFFFFC0
FFFFFFFFC0
ENDCHAR
STARTCHAR grave
ENCODING 96
SWIDTH 362 0
DWIDTH 18 0
BBX 12 7 3 38
BITMAP
8000
F000
FF00
FFE0
3FF0
03F0
0010
ENDCHAR
STARTCHAR a
ENCODING 97
SWIDTH 989 0
DWIDTH 49 0
BBX 48 37 1 0
BITMAP
000003800000
000007C00000
00000FE00000
00000FF00000
00001FF00000
00001FF80000
00003FF80000
00007FFC0000
00007FFE0000
0000FEFE0000
0000FEFF0000
0001FC7F0000
0003F87F8000
0003F83FC000
0007F01FC000
0007F01FE000
000FE00FE000
001FE00FF000
001FC007F800
003F8003F800
003F8003FC00
007F0001FC00
00FF0001FE00
00FE0FFFFF00
01FC1FFFFF00
01FC1FFFFF80
03F83FFFFF80
07F87FFFFFC0
07F000001FE0
0FE000000FE0
0FE000000FF0
1FC0000007F0
3FC0000007F8
3F80000003FC
7F00000001FC
7F00000001FE
FE00000000FF
ENDCHAR
STARTCHAR b
ENCODING 98
SWIDTH 891 0
DWIDTH 45 0
BBX 39 36 3 0
BITMAP
FFFFFFFF00
FFFFFFFFC0
FFFFFFFFF0
FFFFFFFFF8
FFFFFFFFF8
FFFFFFFFFC
FC000007FC
FC000001FC
FC000000FC
FC000000FE
FC000000FC
FC000000FC
FC000000FC
FC000001FC
FC000007F8
FC1FFFFFF0
FC1FFFFFC0
FC1FFFFFE0
FC1FFFFFF0
FC1FFFFFF8
FC000007FC
FC000001FE
FC000000FE
FC0000007E
FC0000007E
FC0000007E
FC000000FE
FC000000FE
FC000001FE
FC00001FFC
FFFFFFFFFC
FFFFFFFFF8
FFFFFFFFF0
FFFFFFFFE0
FFFFFFFFC0
FFFFFFFF00
ENDCHAR
STARTCHAR c
ENCODING 99
SWIDTH 829 0
DWIDTH 41 0
BBX 37 36 2 0
BITMAP
000FFFFFF8
007FFFFFF8
00FFFFFFF8
03FFFFFFF8
07FFFFFFF8
0FFFFFFFF8
1FFC000000
1FF0000000
3FE0000000
3F80000000
7F80000000
7F00000000
7E00000000
FE00000000
FE00000000
FE00000000
FE00000000
FC00000000
FC00000000
FE00000000
FE00000000
FE00000000
7E00000000
7F00000000
7F00000000
3F80000000
3FC0000000
1FE0000000
1FF8000000
0FFF000000
07FFFFFFF8
03FFFFFFF8
01FFFFFFF8
007FFFFFF8
001FFFFFF8
0007FFFFF8
ENDCHAR
STARTCHAR d
ENCODING 100
SWIDTH 879 0
DWIDTH 44 0
BBX 39 36 3 0
BITMAP
FFFFFFE000
FFFFFFFC00
FFFFFFFE00
FFFFFFFF80
FFFFFFFFC0
FFFFFFFFE0
FC00007FF0
FC00001FF0
FC00000FF8
FC000007F8
FC000003FC
FC000001FC
FC000001FC
FC000000FE
FC000000FE
FC000000FE
FC000000FE
FC0000007E
FC0000007E
FC000000FE
FC000000FE
FC000000FE
FC000000FC
FC000001FC
FC000001FC
FC000003F8
FC000007F8
FC00000FF0
FC00003FF0
FC0001FFE0
FFFFFFFFC0
FFFFFFFF80
FFFFFFFF00
FFFFFFFC00
FFFFFFF000
FFFFFF8000
ENDCHAR
STARTCHAR e
ENCODING 101
SWIDTH 759 0
DWIDTH 38 0
BBX 33 36 3 0
BITMAP
FFFFFFFF80
FFFFFFFF80
FFFFFFFF80
FFFFFFFF80
FFFFFFFF80
FFFFFFFF80
FC00000000
FC00000000
FC00000000
FC00000000
FC00000000
FC00000000
FC00000000
FC00000000
FC00000000
FC1FFFFE00
FC1FFFFE00
FC1FFFFE00
FC1FFFFE00
FC1FFFFE00
FC00000000
FC00000000
FC00000000
FC00000000
FC00000000
FC00000000
FC00000000
FC00000000
FC00000000
FC00000000
FFFFFFFF80
FFFFFFFF80
FFFFFFFF80
FFFFFFFF80
FFFFFFFF80
FFFFFFFF80
ENDCHAR
STARTCHAR f
ENCODING 102
SWIDTH 705 0
DWIDTH 35 0
BBX 31 36 3 0
BITMAP
FFFFFFFE
FFFFFFFE
FFFFFFFE
FFFFFFFE
FFFFFFFE
FFFFFFFE
FC000000
FC000000
FC000000
FC000000
FC000000
FC000000
FC000000
FC000000
FC000000
FC1FFFFC
FC1FFFFC
FC1FFFFC
FC1FFFFC
FC1FFFFC
FC1FFFFC
FC000000
FC000000
FC000000
FC000000
FC000000
FC000000
FC000000
FC000000
FC000000
FC000000
FC000000
FC000000
FC000000
FC000000
FC000000
ENDCHAR
STARTCHAR g
ENCODING 103
SWIDTH 888 0
DWIDTH 44 0
BBX 40 36 2 0
BITMAP
000FFFFFF8
007FFFFFF8
00FFFFFFF8
03FFFFFFF8
07FFFFFFF8
0FFFFFFFF8
1FFC000000
1FF0000000
3FE0000000
3F80000000
7F80000000
7F00000000
7E00000000
FE00000000
FE00000000
FE007FFFFF
FE007FFFFF
FC007FFFFF
FC007FFFFF
FE007FFFFF
FE0000007F
FE0000007F
7E0000007F
7F0000007F
7F0000007F
3F8000007F
3FC000007F
1FE000007F
1FF800007F
0FFF00007F
07FFFFFFFF
03FFFFFFFF
01FFFFFFFF
007FFFFFFF
001FFFFFFF
0007FFFFFF
ENDCHAR
STARTCHAR h
ENCODING 104
SWIDTH 838 0
DWIDTH 42 0
BBX 36 36 3 0
BITMAP
FE000007F0
FE000007F0
FE000007F0
FE000007F0
FE000007F0
FE000007F0
FE000007F0
FE000007F0
FE000007F0
FE000007F0
FE000007F0
FE000007F0
FE000007F0
FE000007F0
FE000007F0
FE1FFFFFF0
FE1FFFFFF0
FE1FFFFFF0
FE1FFFFFF0
FE1FFFFFF0
FE000007F0
FE000007F0
FE000007F0
FE000007F0
FE000007F0
FE000007F0
FE000007F0
FE000007F0
FE000007F0
FE000007F0
FE000007F0
FE000007F0
FE000007F0
FE000007F0
FE000007F0
FE000007F0
ENDCHAR
STARTCHAR i
ENCODING 105
SWIDTH 267 0
DWIDTH 13 0
BBX 7 36 3 0
BITMAP
FE
FE
FE
FE
FE
FE
FE
FE
FE
FE
FE
FE
FE
FE
FE
FE
FE
FE
FE
FE
FE
FE
FE
FE
FE
FE
FE
FE
FE
FE
FE
FE
FE
FE
FE
FE
ENDCHAR
STARTCHAR j
ENCODING 106
SWIDTH 708 0
DWIDTH 35 0
BBX 32 36 1 0
BITMAP
0000007F
0000007F
0000007F
0000007F
0000007F
0000007F
0000007F
0000007F
0000007F
0000007F
0000007F
0000007F
0000007F
0000007F
0000007F
0000007F
0000007F
0000007F
0000007F
0000007F
0000007F
0000007F
0000007F
0000007F
0000007E
000000FE
000001FE
000003FC
000007FC
00007FF8
FFFFFFF8
FFFFFFF0
FFFFFFE0
FFFFFF80
FFFFFE00
FFFFE000
ENDCHAR
STARTCHAR k
ENCODING 107
SWIDTH 875 0
DWIDTH 44 0
BBX 40 36 3 0
BITMAP
FE00000FFE
FE00001FF8
FE00003FE0
FE0000FFC0
FE0001FF80
FE0003FE00
FE000FFC00
FE001FF800
FE003FE000
FE00FFC000
FE01FF8000
FE03FE0000
FE07FC0000
FE1FF80000
FE3FE00000
FE7FC00000
FE7F000000
FEFE000000
FE7F800000
FE7FC00000
FE3FE00000
FE0FF80000
FE07FC0000
FE03FE0000
FE01FF8000
FE007FC000
FE003FE000
FE001FF800
FE0007FC00
FE0003FE00
FE0001FF80
FE0000FFC0
FE00003FE0
FE00001FF8
FE00000FFC
FE000007FF
ENDCHAR
STARTCHAR l
ENCODING 108
SWIDTH 707 0
DWIDTH 35 0
BBX 31 36 3 0
BITMAP
FE000000
FE000000
FE000000
FE000000
FE000000
FE000000
FE000000
FE000000
FE000000
FE000000
FE000000
FE000000
FE000000
FE000000
FE000000
FE000000
FE000000
FE000000
FE000000
FE000000
FE000000
FE000000
FE000000
FE000000
FE000000
FE000000
FE000000
FE000000
FE000000
FE000000
FFFFFFFE
FFFFFFFE
FFFFFFFE
FFFFFFFE
FFFFFFFE
FFFFFFFE
ENDCHAR
STARTCHAR m
ENCODING 109
SWIDTH 1115 0
DWIDTH 56 0
BBX 54 38 1 -1
BITMAP
001C000000E000
003E000001F000
003F000003F000
007F000003F800
007F800007F800
007F800007F800
007FC0000FF800
00FFC0000FFC00
00FFE0000FFC00
00FFE0001FFC00
01FFE0001FFC00
01FFF0003FFE00
01FBF0003F7E00
01FBF8007F7E00
03F9F8007E7F00
03F1FC007E3F00
03F0FC00FC3F00
03F0FC00FC3F00
07F0FE01F83F80
07E07E01F81F80
07E07F03F81F80
0FE03F03F01F80
0FC03F87F01FC0
0FC01F87E00FC0
0FC01FC7E00FC0
1FC00FCFC00FE0
1F800FCFC007E0
1F800FFF8007E0
1F8007FF8007E0
3F8007FF8007F0
3F0003FF0003F0
3F0003FF0003F0
7F0001FE0003F0
7E0001FE0003F8
7E0001FC0001F8
7E0000FC0001F8
FE0000780001FC
00000020000000
ENDCHAR
STARTCHAR n
ENCODING 110
SWIDTH 873 0
DWIDTH 44 0
BBX 38 37 3 0
BITMAP
38000000FC
7C000000FC
FE000000FC
FF000000FC
FF800000FC
FFC00000FC
FFE00000FC
FFF00000FC
FFF80000FC
FFFC0000FC
FFFE0000FC
FDFF0000FC
FCFF8000FC
FC7FC000FC
FC3FE000FC
FC1FF000FC
FC0FF800FC
FC07FC00FC
FC03FE00FC
FC01FF00FC
FC00FF80FC
FC007FC0FC
FC003FE0FC
FC001FF0FC
FC000FF8FC
FC0007FCFC
FC0003FEFC
FC0001FFFC
FC0000FFFC
FC00007FFC
FC00003FFC
FC00001FFC
FC00000FFC
FC000007FC
FC000003FC
FC000001F8
FC000000F8
ENDCHAR
STARTCHAR o
ENCODING 111
SWIDTH 968 0
DWIDTH 48 0
BBX 44 36 2 0
BITMAP
000FFFFF8000
007FFFFFE000
00FFFFFFF800
03FFFFFFFC00
07FFFFFFFE00
0FFFFFFFFF00
1FFC0003FF80
1FF00000FFC0
3FE000003FC0
3F8000001FE0
7F8000000FE0
7F0000000FF0
7E00000007F0
FE00000007F0
FE00000003F0
FE00000003F0
FE00000003F0
FC00000003F0
FC00000003F0
FE00000003F0
FE00000003F0
FE00000007F0
7E00000007F0
7F00000007F0
7F0000000FE0
3F8000001FE0
3FC000001FC0
1FE000007FC0
1FF80000FF80
0FFF000FFF00
07FFFFFFFF00
03FFFFFFFE00
01FFFFFFF800
007FFFFFF000
001FFFFFC000
0007FFFE0000
ENDCHAR
STARTCHAR p
ENCODING 112
SWIDTH 867 0
DWIDTH 43 0
BBX 39 36 3 0
BITMAP
FFFFFFFE00
FFFFFFFF80
FFFFFFFFE0
FFFFFFFFF0
FFFFFFFFF8
FFFFFFFFF8
FC000007FC
FC000003FC
FC000001FC
FC000000FE
FC000000FE
FC0000007E
FC0000007E
FC0000007E
FC0000007E
FC000000FE
FC000000FE
FC000001FC
FC000003FC
FC00001FF8
FC1FFFFFF8
FC1FFFFFF0
FC1FFFFFE0
FC1FFFFFC0
FC1FFFFF00
FC1FFFF800
FC00000000
FC00000000
FC00000000
FC00000000
FC00000000
FC00000000
FC00000000
FC00000000
FC00000000
FC00000000
ENDCHAR
STARTCHAR q
ENCODING 113
SWIDTH 968 0
DWIDTH 48 0
BBX 46 36 2 0
BITMAP
000FFFFF8000
007FFFFFE000
00FFFFFFF800
03FFFFFFFC00
07FFFFFFFE00
0FFFFFFFFF00
1FFC0003FF80
1FF00000FFC0
3FE000003FC0
3F8000001FE0
7F8000000FE0
7F0000000FF0
7E00000007F0
FE00000007F0
FE00000003F0
FE00000003F0
FE00000003F0
FC00000003F0
FC00000003F0
FE00000003F0
FE00000003F0
FE001FF003F0
7E0007F807F0
7F0003FE07F0
7F0000FF0FE0
3F80007F9FE0
3FC0003FDFC0
1FE0000FFFC0
1FF80007FF80
0FFF000FFF00
07FFFFFFFF00
03FFFFFFFF00
01FFFFFFFFC0
007FFFFFFFE0
001FFFFFCFF0
0007FFFE07FC
ENDCHAR
STARTCHAR r
ENCODING 114
SWIDTH 921 0
DWIDTH 46 0
BBX 43 36 3 0
BITMAP
FFFFFFFF0000
FFFFFFFFC000
FFFFFFFFE000
FFFFFFFFF000
FFFFFFFFF800
FFFFFFFFFC00
FC000007FC00
FC000001FE00
FC000000FE00
FC0000007E00
FC0000007E00
FC0000007E00
FC0000007E00
FC0000007E00
FC0000007E00
FC0000007E00
FC0000007E00
FC000000FE00
FC000001FE00
FC000003FC00
FC1FFFFFFC00
FC1FFFFFF800
FC1FFFFFF000
FC1FFFFFE000
FC1FFFFF8000
FC1FFFFF8000
FC00007FC000
FC00003FC000
FC00001FE000
FC00000FF000
FC000007F800
FC000003FC00
FC000001FE00
FC000000FF00
FC0000007F80
FC0000007FE0
ENDCHAR
STARTCHAR s
ENCODING 115
SWIDTH 880 0
DWIDTH 44 0
BBX 39 36 3 0
BITMAP
03FFFFFFF8
0FFFFFFFF8
1FFFFFFFF8
3FFFFFFFF8
7FFFFFFFF8
FFFFFFFFF8
FF00000000
FE00000000
FE00000000
FC00000000
FC00000000
FC00000000
FE00000000
FE00000000
7F80000000
7FFFFFFF00
3FFFFFFFE0
1FFFFFFFF0
0FFFFFFFF8
03FFFFFFF8
00000003FC
00000001FC
00000000FC
000000007E
000000007E
000000007E
00000000FE
00000000FE
00000001FC
00000007FC
FFFFFFFFFC
FFFFFFFFF8
FFFFFFFFF0
FFFFFFFFE0
FFFFFFFFC0
FFFFFFFF00
ENDCHAR
STARTCHAR t
ENCODING 116
SWIDTH 720 0
DWIDTH 36 0
BBX 34 36 1 0
BITMAP
FFFFFFFFC0
FFFFFFFFC0
FFFFFFFFC0
FFFFFFFFC0
FFFFFFFFC0
FFFFFFFFC0
0003F00000
0003F00000
0003F00000
0003F00000
0003F00000
0003F00000
0003F00000
0003F00000
0003F00000
0003F00000
0003F00000
0003F00000
0003F00000
0003F00000
0003F00000
0003F00000
0003F00000
0003F00000
0003F00000
0003F00000
0003F00000
0003F00000
0003F00000
0003F00000
0003F00000
0003F00000
0003F00000
0003F00000
0003F00000
0003F00000
ENDCHAR
STARTCHAR u
ENCODING 117
SWIDTH 889 0
DWIDTH 44 0
BBX 39 37 3 -1
BITMAP
FC0000007E
FC0000007E
FC0000007E
FC0000007E
FC0000007E
FC0000007E
FC0000007E
FC0000007E
FC0000007E
FC0000007E
FC0000007E
FC0000007E
FC0000007E
FC0000007E
FC0000007E
FC0000007E
FC0000007E
FC0000007E
FC0000007E
FC0000007E
FC0000007E
FC0000007E
FC000000FE
FC000000FE
FE000000FC
FE000000FC
FF000001FC
7F800003FC
7FC00007F8
3FF0003FF8
3FFFFFFFF0
1FFFFFFFE0
0FFFFFFFC0
03FFFFFF80
01FFFFFE00
003FFFF000
0000300000
ENDCHAR
STARTCHAR v
ENCODING 118
SWIDTH 989 0
DWIDTH 49 0
BBX 48 37 1 -1
BITMAP
FF00000000FF
7F80000001FE
7F80000001FC
3FC0000003F8
1FC0000003F8
1FE0000007F0
0FE000000FF0
0FF000000FE0
07F800001FC0
03F800001FC0
03FC00003F80
01FC00007F80
01FE00007F00
00FF0000FE00
007F0000FE00
007F8001FC00
003F8003FC00
003FC003F800
001FE007F000
000FE007F000
000FF00FE000
0007F00FE000
0007F81FC000
0003FC3F8000
0001FC3F8000
0001FE7F0000
0000FE7F0000
0000FFFE0000
00007FFC0000
00003FFC0000
00003FF80000
00001FF80000
00001FF00000
00000FE00000
000007E00000
000007C00000
000001000000
ENDCHAR
STARTCHAR w
ENCODING 119
SWIDTH 1268 0
DWIDTH 63 0
BBX 62 37 1 -1
BITMAP
FF003FC0000003FC
7F001FE0000003F8
7F800FE0000007F0
3F800FF000000FF0
3FC007F000000FE0
1FC007F800001FE0
1FE003F800001FC0
0FE003FC00003F80
0FF001FC00003F80
07F001FE00007F00
03F800FE00007F00
03FC00FF0000FE00
01FC007F0000FE00
01FE007F8001FC00
00FE003F8001FC00
00FF003FC003F800
007F001FC003F800
007F801FE007F000
003F801FE007F000
003FC03FF00FE000
001FC03FF01FC000
001FE07FF81FC000
000FE07FF83F8000
0007F0FFFC3F8000
0007F0FDFC7F0000
0003F9FCFE7F0000
0003F9F8FEFE0000
0001FFF87FFE0000
0001FFF07FFC0000
0000FFF03FFC0000
0000FFE03FF80000
00007FE01FF00000
00007FC01FF00000
00003FC00FE00000
00003F800FE00000
00001F0007C00000
0000040001000000
ENDCHAR
STARTCHAR x
ENCODING 120
SWIDTH 1000 0
DWIDTH 50 0
BBX 48 36 1 0
BITMAP
7FE0000007FC
1FF000000FF0
0FF800001FE0
07FC00003FC0
01FE00007F80
00FF0000FF00
007F8001FE00
003FC003FC00
001FE007F800
000FF00FF000
0007F81FE000
0003FC3FC000
0001FE7F8000
0000FFFF0000
00007FFE0000
00003FFC0000
00001FF80000
00001FF00000
00003FF80000
00007FFC0000
0000FFFE0000
0001FEFF0000
0003FC7FC000
0007F83FE000
000FF01FF000
001FE00FF800
003FC007FC00
007F8003FE00
00FF0001FF00
01FE0000FF80
03FC00007FC0
07F800003FE0
0FF000001FF0
1FE000000FF8
3FC0000007FC
FF80000003FF
ENDCHAR
STARTCHAR y
ENCODING 121
SWIDTH 926 0
DWIDTH 46 0
BBX 45 36 1 0
BITMAP
FF8000000FF8
7FC000001FE0
3FE000003FC0
1FE000007F80
0FF00000FF80
07F80000FF00
03FC0001FE00
03FE0003FC00
01FF0007F800
00FF800FF000
007F801FE000
003FC03FE000
001FE03FC000
001FF07F8000
000FF8FF0000
0007FDFE0000
0003FFFC0000
0001FFF80000
0000FFF00000
00007FF00000
00007FE00000
00003FC00000
00001F800000
00001F800000
00001F800000
00001F800000
00001F800000
00001F800000
00001F800000
00001F800000
00001F800000
00001F800000
00001F800000
00001F800000
00001F800000
00001F800000
ENDCHAR
STARTCHAR z
ENCODING 122
SWIDTH 802 0
DWIDTH 40 0
BBX 36 36 2 0
BITMAP
FFFFFFFFE0
FFFFFFFFF0
FFFFFFFFF0
FFFFFFFFF0
FFFFFFFFE0
FFFFFFFFE0
0000007FC0
000000FF80
000001FF00
000003FE00
000007FC00
00000FF800
00001FF000
00003FE000
00007FC000
0000FF8000
0001FF0000
0003FE0000
0007FC0000
000FF80000
001FF00000
003FE00000
007FC00000
00FF800000
01FF000000
03FE000000
07FC000000
0FF8000000
1FF0000000
3FE0000000
7FFFFFFFF0
FFFFFFFFF0
FFFFFFFFF0
FFFFFFFFF0
FFFFFFFFF0
3FFFFFFFF0
ENDCHAR
STARTCHAR braceleft
ENCODING 123
SWIDTH 337 0
DWIDTH 17 0
BBX 11 45 3 -4
BITMAP
03E0
0FE0
1FE0
1F00
1E00
1E00
1E00
1E00
1E00
1E00
1E00
1E00
1E00
1E00
1E00
1E00
1E00
1E00
1E00
1E00
3E00
FC00
F800
FC00
3E00
1E00
1E00
1E00
1E00
1E00
1E00
1E00
1E00
1E00
1E00
1E00
1E00
1E00
1E00
1E00
1E00
1F00
1FE0
0FE0
03E0
ENDCHAR
STARTCHAR bar
ENCODING 124
SWIDTH 297 0
DWIDTH 15 0
BBX 3 45 6 -4
BITMAP
E0
E0
E0
E0
E0
E0
E0
E0
E0
E0
E0
E0
E0
E0
E0
E0
E0
E0
E0
E0
E0
E0
E0
E0
E0
E0
E0
E0
E0
E0
E0
E0
E0
E0
E0
E0
E0
E0
E0
E0
E0
E0
E0
E0
E0
ENDCHAR
STARTCHAR braceright
ENCODING 125
SWIDTH 337 0
DWIDTH 17 0
BBX 11 45 3 -4
BITMAP
F800
FE00
FE00
3F00
1F00
0F00
0F00
0F00
0F00
0F00
0F00
0F00
0F00
0F00
0F00
0F00
0F00
0F00
0F00
0F00
0F00
07E0
03E0
07E0
0F00
0F00
0F00
0F00
0F00
0F00
0F00
0F00
0F00
0F00
0F00
0F00
0F00
0F00
0F00
0F00
0F00
1F00
FE00
FE00
F800
ENDCHAR
STARTCHAR asciitilde
ENCODING 126
SWIDTH 691 0
DWIDTH 35 0
BBX 28 7 3 15
BITMAP
0FE00010
7FFC0010
FFFF80F0
FFFFFFF0
F01FFFF0
C003FFE0
80007F80
ENDCHAR
STARTCHAR exclamdown
ENCODING 161
SWIDTH 298 0
DWIDTH 15 0
BBX 7 37 4 0
BITMAP
38
7C
FE
FE
FE
7C
38
00
00
00
00
00
7E
7E
7E
7E
7E
7E
7E
7E
7E
7E
7E
7E
7E
7E
7E
7E
7E
7E
7E
7E
7E
7E
7E
7E
7E
ENDCHAR
STARTCHAR cent
ENCODING 162
SWIDTH 692 0
DWIDTH 35 0
BBX 30 36 2 0
BITMAP
00003800
00003800
00003800
00003800
003FFFFC
01FFFFFC
03FFFFFC
0FFFFFFC
1FFFFFFC
1FE03800
3F803800
7F003800
7E003800
7C003800
FC003800
F8003800
F8003800
F8003800
F8003800
F8003800
F8003800
7C003800
7C003800
7E003800
3F003800
3F803800
1FE03800
0FFFFFFC
07FFFFFC
03FFFFFC
00FFFFFC
003FFFFC
00003800
00003800
00003800
00003800
ENDCHAR
STARTCHAR sterling
ENCODING 163
SWIDTH 709 0
DWIDTH 35 0
BBX 32 36 1 0
BITMAP
000FFFE0
003FFFE0
00FFFFE0
01FFFFE0
03FFFFE0
03FFFFE0
03FE0000
07F80000
07F00000
07E00000
07E00000
07E00000
07E00000
07E00000
07E00000
3FFFF800
3FFFF800
3FFFF800
3FFFF800
3FFFF800
07E00000
07E00000
07E00000
07E00000
07E00000
07E00000
07E00000
07E00000
07E00000
07E00000
FFFFFFFF
FFFFFFFF
FFFFFFFF
FFFFFFFF
FFFFFFFF
FFFFFFFF
ENDCHAR
STARTCHAR yen
ENCODING 165
SWIDTH 787 0
DWIDTH 39 0
BBX 37 36 1 0
BITMAP
FF000007F8
7F000007F0
3F80000FE0
3FC0001FE0
1FC0001FC0
0FE0003FC0
0FF0003F80
07F0007F00
03F800FF00
03FC00FE00
01FC01FC00
00FE01FC00
00FE03F800
007F07F000
007F87F000
003F8FE000
001FCFC000
001FFFC000
000FFF8000
0007FF0000
07FFFFFF00
07FFFFFF00
07FFFFFF00
07FFFFFF00
0000FC0000
0000FC0000
0000FC0000
0000FC0000
07FFFFFF00
07FFFFFF00
07FFFFFF00
07FFFFFF00
0000FC0000
0000FC0000
0000FC0000
0000FC0000
ENDCHAR
STARTCHAR brokenbar
ENCODING 166
SWIDTH 297 0
DWIDTH 15 0
BBX 3 45 6 -4
BITMAP
E0
E0
E0
E0
E0
E0
E0
E0
E0
E0
E0
E0
E0
E0
E0
E0
E0
E0
E0
E0
00
00
00
00
00
E0
E0
E0
E0
E0
E0
E0
E0
E0
E0
E0
E0
E0
E0
E0
E0
E0
E0
E0
E0
ENDCHAR
STARTCHAR section
ENCODING 167
SWIDTH 773 0
DWIDTH 39 0
BBX 34 46 2 -10
BITMAP
01FFFFFC00
07FFFFFC00
0FFFFFFC00
1FFFFFFC00
3FFFFFFC00
7FFFFFFC00
7FC0000000
7F00000000
7E00000000
FE00000000
FC00000000
7E00000000
7E00000000
7E00000000
7F80000000
3FFFFFE000
1FFFFFF800
0FFFFFFC00
07FFFFFE00
0FFFFFFE00
1F80007F00
1F00003F00
3F00003F00
3F00003F00
3F00003F00
3F00003E00
3FC0007E00
1FFFFFFC00
1FFFFFF800
0FFFFFFC00
07FFFFFE00
01FFFFFF00
0000003F80
0000001F80
0000001FC0
0000000FC0
0000000FC0
0000001FC0
0000001FC0
0000007F80
0FFFFFFF80
0FFFFFFF80
0FFFFFFF00
0FFFFFFE00
0FFFFFFC00
0FFFFFF000
ENDCHAR
STARTCHAR dieresis
ENCODING 168
SWIDTH 393 0
DWIDTH 20 0
BBX 14 4 3 40
BITMAP
F038
F87C
F87C
F038
ENDCHAR
STARTCHAR copyright
ENCODING 169
SWIDTH 829 0
DWIDTH 41 0
BBX 37 37 2 -1
BITMAP
0003FE0000
001FFFC000
007C00F000
00E0003C00
01C0000E00
0700000700
0600000180
0C000001C0
18000000C0
3800000060
3001FF8030
6007FF8030
600F800010
601C000018
C038000018
C038000018
C070000008
C070000008
C070000008
C070000008
C030000018
C038000018
4038000018
601C000018
600F000010
6007FF8030
3001FF8030
3800000060
18000000C0
0C000000C0
0600000180
0300000700
01C0000E00
00E0003C00
007C00F000
001FFFC000
0003FE0000
ENDCHAR
STARTCHAR ordfeminine
ENCODING 170
SWIDTH 604 0
DWIDTH 30 0
BBX 26 20 2 15
BITMAP
000C0000
001E0000
001F0000
003F0000
007F8000
007F8000
00F3C000
01E1E000
01E1E000
03C0F000
03C0F800
07807800
0F1FFC00
0F3FFC00
1E3FFE00
1E001F00
3C000F00
78000780
78000780
F00003C0
ENDCHAR
STARTCHAR guillemotleft
ENCODING 171
SWIDTH 629 0
DWIDTH 31 0
BBX 27 19 2 9
BITMAP
00020020
000C0060
001C00E0
007C03E0
01F00FC0
03E01F00
0F807C00
3E01F000
7803E000
F0078000
F803C000
3E01F000
0F007800
07C03E00
01F00F80
007C03E0
003C01E0
000C0060
00020020
ENDCHAR
STARTCHAR registered
ENCODING 174
SWIDTH 585 0
DWIDTH 29 0
BBX 23 23 3 13
BITMAP
00FE00
03FF80
0F01E0
1C0070
380038
300018
63FE0C
63FF0C
C30186
C30186
C30186
C33F86
C33E06
C30706
430386
6301CC
60000C
300018
180038
1C0070
0781E0
03FF80
007E00
ENDCHAR
STARTCHAR macron
ENCODING 175
SWIDTH 362 0
DWIDTH 18 0
BBX 12 3 3 40
BITMAP
FFF0
FFF0
FFF0
ENDCHAR
STARTCHAR degree
ENCODING 176
SWIDTH 361 0
DWIDTH 18 0
BBX 14 14 2 22
BITMAP
0FC0
3FF0
7FF8
7038
E01C
E01C
E01C
E01C
E01C
E03C
7878
7FF8
3FF0
0F80
ENDCHAR
STARTCHAR plusminus
ENCODING 177
SWIDTH 690 0
DWIDTH 35 0
BBX 28 36 3 -3
BITMAP
000F0000
000F0000
000F0000
000F0000
000F0000
000F0000
000F0000
000F0000
000F0000
000F0000
000F0000
000F0000
FFFFFFF0
FFFFFFF0
FFFFFFF0
FFFFFFF0
FFFFFFF0
000F0000
000F0000
000F0000
000F0000
000F0000
000F0000
000F0000
000F0000
000F0000
000F0000
000F0000
000F0000
00000000
00000000
FFFFFFF0
FFFFFFF0
FFFFFFF0
FFFFFFF0
FFFFFFF0
ENDCHAR
STARTCHAR twosuperior
ENCODING 178
SWIDTH 442 0
DWIDTH 22 0
BBX 18 18 2 19
BITMAP
FFFE00
FFFF80
FFFF80
0003C0
0001C0
0001C0
0001C0
0007C0
3FFF80
7FFF00
780000
F00000
E00000
E00000
E00000
FFFFC0
FFFFC0
FFFFC0
ENDCHAR
STARTCHAR threesuperior
ENCODING 179
SWIDTH 443 0
DWIDTH 22 0
BBX 18 18 2 19
BITMAP
FFFE00
FFFF80
FFFF80
0007C0
0003C0
0001C0
0003C0
000780
0FFF00
0FFF80
0007C0
0001C0
0001C0
0001C0
0003C0
FFFFC0
FFFF80
FFFF00
ENDCHAR
STARTCHAR acute
ENCODING 180
SWIDTH 362 0
DWIDTH 18 0
BBX 12 7 3 38
BITMAP
0010
00F0
0FF0
7FF0
FFC0
FC00
8000
ENDCHAR
STARTCHAR paragraph
ENCODING 182
SWIDTH 629 0
DWIDTH 31 0
BBX 26 41 2 -5
BITMAP
07FFFFC0
1FFFFFC0
3FFFFFC0
7FFFFFC0
7FFF03C0
7FFF03C0
FFFF03C0
FFFF03C0
FFFF03C0
FFFF03C0
FFFF03C0
7FFF03C0
7FFF03C0
3FFF03C0
1FFF03C0
0FFF03C0
000F03C0
000F03C0
000F03C0
000F03C0
000F03C0
000F03C0
000F03C0
000F03C0
000F03C0
000F03C0
000F03C0
000F03C0
000F03C0
000F03C0
000F03C0
000F03C0
000F03C0
000F03C0
000F03C0
000F03C0
000F03C0
000F03C0
000F03C0
000F03C0
000F03C0
ENDCHAR
STARTCHAR periodcentered
ENCODING 183
SWIDTH 262 0
DWIDTH 13 0
BBX 7 6 3 14
BITMAP
7C
FE
FE
FE
7C
38
ENDCHAR
STARTCHAR cedilla
ENCODING 184
SWIDTH 219 0
DWIDTH 11 0
BBX 7 8 2 -10
BITMAP
FE
7C
7C
38
38
10
10
10
ENDCHAR
STARTCHAR onesuperior
ENCODING 185
SWIDTH 222 0
DWIDTH 11 0
BBX 8 18 1 19
BITMAP
F8
FC
FE
1E
0F
07
07
07
07
07
07
07
07
07
07
07
07
07
ENDCHAR
STARTCHAR ordmasculine
ENCODING 186
SWIDTH 592 0
DWIDTH 30 0
BBX 24 20 3 15
BITMAP
03FFC0
0FFFF0
1FFFF8
3E007C
78003E
F8001E
F0000E
F0000F
E0000F
E00007
E00007
E0000F
E0000F
F0000E
70001E
78003C
3E007C
1FFFF8
0FFFE0
03FF80
ENDCHAR
STARTCHAR guillemotright
ENCODING 187
SWIDTH 629 0
DWIDTH 31 0
BBX 27 19 2 9
BITMAP
80040000
C0060000
F0078000
F807E000
3E01F000
0F807C00
07E03F00
01F00F80
007C03E0
001C00E0
003C01E0
00F00780
03E01F00
0F807C00
1E00F000
7C03E000
F0078000
C0060000
80040000
ENDCHAR
STARTCHAR onequarter
ENCODING 188
SWIDTH 972 0
DWIDTH 49 0
BBX 45 42 2 -3
BITMAP
000000007800
00000000F000
0F000001F000
0FC00001E000
0FE00003C000
01E000078000
00F0000F0000
0070001F0000
0070001E0000
0070003C0000
007000780000
007000F80000
007001F00000
007001E00000
007003C00000
007007800000
00700F800000
00700F000000
00701E000000
00703C000000
00007C000000
0000F87001C0
0000F07001C0
0001E07001C0
0003C07001C0
0007C07001C0
0007807001C0
000F007001C0
001E007001C0
003E007001C0
007C007801C0
0078003C01C0
00F0003FFFF8
01E0001FFFF8
03E00003FFF8
07C0000001C0
0780000001C0
0F00000001C0
1E00000001C0
3E00000001C0
3C0000000000
F80000000000
ENDCHAR
STARTCHAR onehalf
ENCODING 189
SWIDTH 948 0
DWIDTH 47 0
BBX 43 42 2 -3
BITMAP
000000007800
00000000F000
0F000001F000
0FC00001E000
0FE00003C000
01E000078000
00F0000F0000
0070001F0000
0070001E0000
0070003C0000
007000780000
007000F80000
007001F00000
007001E00000
007003C00000
007007800000
00700F800000
00700F000000
00701E000000
00703C000000
00007C000000
0000F83FFE00
0000F03FFFC0
0001E03FFFC0
0003C03FFFE0
0007C00000E0
0007800000E0
000F000000E0
001E000001E0
003E000FFFC0
007C001FFF80
0078003FFC00
00F000380000
01E000380000
03E000380000
07C000380000
0780003FFFE0
0F00003FFFE0
1E00003FFFE0
3E00003FFFE0
3C0000000000
F80000000000
ENDCHAR
STARTCHAR threequarters
ENCODING 190
SWIDTH 1029 0
DWIDTH 51 0
BBX 47 42 2 -3
BITMAP
000000000F00
000000001E00
FFFE00003C00
FFFF80007C00
FFFFC0007800
0007C000F000
0001C001E000
0001C003E000
0001C007C000
000780078000
0FFF000F0000
0FFF801E0000
0003C03E0000
0001C03C0000
0001C0780000
0001C0F00000
0003C1F00000
FFFFC3E00000
FFFF83C00000
FFFF07800000
00000F000000
00001F0E0038
00003E0E0038
00003C0E0038
0000780E0038
0000F00E0038
0001F00E0038
0001E00E0038
0003C00E0038
0007800E0038
000F800F0038
001F000F8038
001E0007FFFE
003C0003FFFE
007800007FFE
00F800000038
00F000000038
01E000000038
03C000000038
07C000000038
0F8000000000
1F0000000000
ENDCHAR
ENDFONT
