STARTFONT 2.1
FONT -FontForge-Good Times Rg-Book-R-Normal--18-170-75-75-P-125-ISO10646-1
SIZE 17 75 75
FONTBOUNDINGBOX 23 20 0 -4
COMMENT "Generated by fontforge, http://fontforge.sourceforge.net"
COMMENT "(c) 1998-2012 Typodermic Fonts Inc. See attached license agreement. If agreement is missing visit typodermicfonts.com for more info. Languages by Chikako Larabie"
STARTPROPERTIES 38
FOUNDRY "FontForge"
FAMILY_NAME "Good Times Rg"
WEIGHT_NAME "Book"
SLANT "R"
SETWIDTH_NAME "Normal"
ADD_STYLE_NAME ""
PIXEL_SIZE 18
POINT_SIZE 170
RESOLUTION_X 75
RESOLUTION_Y 75
SPACING "P"
AVERAGE_WIDTH 125
CHARSET_REGISTRY "ISO10646"
CHARSET_ENCODING "1"
FONTNAME_REGISTRY ""
CHARSET_COLLECTIONS "ISO10646-1"
FONT_NAME "GoodTimesRg-Regular"
FACE_NAME "GoodTimesRg-Regular"
COPYRIGHT "(c) 1998-2012 Typodermic Fonts Inc. See attached license agreement. If agreement is missing visit typodermicfonts.com for more info. Languages by Chikako Larabie"
FONT_VERSION "4.001"
FONT_ASCENT 14
FONT_DESCENT 4
UNDERLINE_POSITION -3
UNDERLINE_THICKNESS 1
X_HEIGHT 12
CAP_HEIGHT 12
RAW_ASCENT 799
RAW_DESCENT 201
RELATIVE_WEIGHT 40
RELATIVE_SETWIDTH 50
SUPERSCRIPT_X 0
SUPERSCRIPT_Y 5
SUPERSCRIPT_SIZE 5
SUBSCRIPT_X 0
SUBSCRIPT_Y 0
SUBSCRIPT_SIZE 5
AVG_LOWERCASE_WIDTH 153
AVG_UPPERCASE_WIDTH 156
ENDPROPERTIES
CHARS 120
STARTCHAR exclam
ENCODING 33
SWIDTH 298 0
DWIDTH 5 0
BBX 3 13 1 0
BITMAP
60
60
60
60
60
60
60
60
60
00
00
E0
60
ENDCHAR
STARTCHAR quotedbl
ENCODING 34
SWIDTH 452 0
DWIDTH 8 0
BBX 6 5 1 8
BITMAP
EC
CC
CC
4C
4C
ENDCHAR
STARTCHAR numbersign
ENCODING 35
SWIDTH 697 0
DWIDTH 13 0
BBX 11 13 1 0
BITMAP
0CC0
0CC0
0880
7FE0
7FE0
1180
3100
3300
FF80
FF80
6600
4600
C400
ENDCHAR
STARTCHAR dollar
ENCODING 36
SWIDTH 744 0
DWIDTH 13 0
BBX 11 13 1 0
BITMAP
0400
7FE0
FFE0
C400
C400
FFC0
7FE0
0460
0420
0460
FFE0
FFC0
0400
ENDCHAR
STARTCHAR percent
ENCODING 37
SWIDTH 965 0
DWIDTH 17 0
BBX 16 15 1 -1
BITMAP
000C
7C18
8410
8620
8460
84C0
7880
0100
033E
0642
0C43
0843
1062
303C
6000
ENDCHAR
STARTCHAR ampersand
ENCODING 38
SWIDTH 759 0
DWIDTH 14 0
BBX 12 13 1 0
BITMAP
3E00
7E00
E000
C000
E000
7FE0
7FE0
E1C0
C1C0
C1C0
E1C0
7FF0
3FF0
ENDCHAR
STARTCHAR quotesingle
ENCODING 39
SWIDTH 255 0
DWIDTH 5 0
BBX 2 5 1 8
BITMAP
C0
C0
C0
C0
40
ENDCHAR
STARTCHAR parenleft
ENCODING 40
SWIDTH 356 0
DWIDTH 6 0
BBX 3 16 2 -2
BITMAP
60
60
40
C0
C0
80
80
80
80
80
80
C0
C0
40
60
60
ENDCHAR
STARTCHAR parenright
ENCODING 41
SWIDTH 355 0
DWIDTH 6 0
BBX 4 16 1 -2
BITMAP
C0
40
60
20
20
30
30
30
30
30
30
20
20
60
40
C0
ENDCHAR
STARTCHAR asterisk
ENCODING 42
SWIDTH 469 0
DWIDTH 8 0
BBX 6 6 1 7
BITMAP
10
10
FC
30
68
48
ENDCHAR
STARTCHAR plus
ENCODING 43
SWIDTH 690 0
DWIDTH 12 0
BBX 10 10 1 2
BITMAP
0C00
0C00
0C00
0C00
FFC0
FFC0
0C00
0C00
0C00
0C00
ENDCHAR
STARTCHAR comma
ENCODING 44
SWIDTH 259 0
DWIDTH 5 0
BBX 3 5 1 -2
BITMAP
E0
C0
C0
C0
C0
ENDCHAR
STARTCHAR hyphen
ENCODING 45
SWIDTH 296 0
DWIDTH 5 0
BBX 4 2 1 6
BITMAP
F0
F0
ENDCHAR
STARTCHAR period
ENCODING 46
SWIDTH 262 0
DWIDTH 5 0
BBX 3 2 1 0
BITMAP
E0
C0
ENDCHAR
STARTCHAR slash
ENCODING 47
SWIDTH 444 0
DWIDTH 8 0
BBX 8 13 0 0
BITMAP
03
02
06
04
0C
08
18
10
30
20
60
40
C0
ENDCHAR
STARTCHAR zero
ENCODING 48
SWIDTH 838 0
DWIDTH 15 0
BBX 13 13 1 0
BITMAP
0F80
3FE0
78F0
E038
C018
C018
C018
C018
C018
6038
78F0
3FE0
0F80
ENDCHAR
STARTCHAR one
ENCODING 49
SWIDTH 385 0
DWIDTH 7 0
BBX 6 13 0 0
BITMAP
F0
F8
1C
1C
0C
0C
0C
0C
0C
0C
0C
0C
0C
ENDCHAR
STARTCHAR two
ENCODING 50
SWIDTH 825 0
DWIDTH 15 0
BBX 13 13 1 0
BITMAP
FFE0
FFF0
0038
0018
0038
3FF0
7FF0
E000
C000
C000
C000
FFF8
FFF8
ENDCHAR
STARTCHAR three
ENCODING 51
SWIDTH 827 0
DWIDTH 15 0
BBX 13 13 1 0
BITMAP
FFE0
FFF0
0038
0038
0038
1FF0
1FF0
0038
0018
0018
0038
FFF0
FFE0
ENDCHAR
STARTCHAR four
ENCODING 52
SWIDTH 845 0
DWIDTH 15 0
BBX 14 13 1 0
BITMAP
C030
C030
C030
C030
C030
C030
E030
FFFC
7FFC
0030
0030
0030
0030
ENDCHAR
STARTCHAR five
ENCODING 53
SWIDTH 885 0
DWIDTH 16 0
BBX 14 13 1 0
BITMAP
FFF8
FFF8
C000
C000
C000
FFF0
FFF8
001C
000C
000C
001C
FFF8
FFF0
ENDCHAR
STARTCHAR six
ENCODING 54
SWIDTH 872 0
DWIDTH 16 0
BBX 14 13 1 0
BITMAP
1FF8
7FF8
7000
E000
C000
FFF0
FFF8
C01C
C00C
E01C
701C
7FF8
1FF0
ENDCHAR
STARTCHAR seven
ENCODING 55
SWIDTH 756 0
DWIDTH 14 0
BBX 12 13 1 0
BITMAP
FFF0
FFF0
0070
00E0
01C0
0380
0700
0E00
0E00
1C00
3800
7000
E000
ENDCHAR
STARTCHAR eight
ENCODING 56
SWIDTH 898 0
DWIDTH 16 0
BBX 14 13 1 0
BITMAP
3FF0
7FFC
E01C
C00C
E01C
7FF8
7FF8
E01C
C00C
C00C
E01C
7FF8
3FF0
ENDCHAR
STARTCHAR nine
ENCODING 57
SWIDTH 861 0
DWIDTH 16 0
BBX 14 13 1 0
BITMAP
3FC0
7FF0
E078
C018
C01C
E01C
FFFC
7FFC
001C
0018
0078
7FF0
7FE0
ENDCHAR
STARTCHAR colon
ENCODING 58
SWIDTH 262 0
DWIDTH 5 0
BBX 3 8 1 0
BITMAP
E0
C0
00
00
00
00
E0
C0
ENDCHAR
STARTCHAR semicolon
ENCODING 59
SWIDTH 262 0
DWIDTH 5 0
BBX 3 10 1 -2
BITMAP
E0
C0
00
00
00
E0
C0
C0
C0
C0
ENDCHAR
STARTCHAR less
ENCODING 60
SWIDTH 690 0
DWIDTH 12 0
BBX 10 9 1 2
BITMAP
00C0
0380
1E00
7000
C000
7800
0E00
03C0
0040
ENDCHAR
STARTCHAR equal
ENCODING 61
SWIDTH 690 0
DWIDTH 12 0
BBX 10 7 1 3
BITMAP
FFC0
FFC0
0000
0000
0000
FFC0
FFC0
ENDCHAR
STARTCHAR greater
ENCODING 62
SWIDTH 690 0
DWIDTH 12 0
BBX 10 9 1 2
BITMAP
C000
7800
0E00
03C0
00C0
0780
1E00
F000
C000
ENDCHAR
STARTCHAR question
ENCODING 63
SWIDTH 776 0
DWIDTH 14 0
BBX 12 13 1 0
BITMAP
FFE0
FFF0
0070
0030
0030
3FF0
7FE0
6000
6000
0000
0000
6000
6000
ENDCHAR
STARTCHAR at
ENCODING 64
SWIDTH 833 0
DWIDTH 15 0
BBX 13 13 1 0
BITMAP
0FF8
3FF8
7818
E018
CFD8
C8D8
98D8
C8D8
CFF8
C000
7000
3FF8
0FF8
ENDCHAR
STARTCHAR A
ENCODING 65
SWIDTH 989 0
DWIDTH 18 0
BBX 18 13 0 0
BITMAP
00C000
01C000
01E000
03F000
073000
063800
0E1C00
0C1C00
1DFE00
39FE00
300700
700380
E003C0
ENDCHAR
STARTCHAR B
ENCODING 66
SWIDTH 891 0
DWIDTH 16 0
BBX 14 13 1 0
BITMAP
FFF0
FFF8
C01C
C00C
C01C
CFF8
CFF8
C01C
C00C
C00C
C01C
FFF8
FFF0
ENDCHAR
STARTCHAR C
ENCODING 67
SWIDTH 829 0
DWIDTH 15 0
BBX 13 13 1 0
BITMAP
1FF8
3FF8
7800
E000
C000
C000
C000
C000
C000
E000
7800
3FF8
0FF8
ENDCHAR
STARTCHAR D
ENCODING 68
SWIDTH 879 0
DWIDTH 16 0
BBX 14 13 1 0
BITMAP
FFC0
FFF0
C078
C018
C01C
C00C
C00C
C00C
C01C
C018
C078
FFF0
FFC0
ENDCHAR
STARTCHAR E
ENCODING 69
SWIDTH 759 0
DWIDTH 14 0
BBX 12 13 1 0
BITMAP
FFF0
FFF0
C000
C000
C000
CFE0
CFE0
C000
C000
C000
C000
FFF0
FFF0
ENDCHAR
STARTCHAR F
ENCODING 70
SWIDTH 705 0
DWIDTH 13 0
BBX 11 13 1 0
BITMAP
FFE0
FFE0
C000
C000
C000
C000
CFE0
CFE0
C000
C000
C000
C000
C000
ENDCHAR
STARTCHAR G
ENCODING 71
SWIDTH 888 0
DWIDTH 16 0
BBX 14 13 1 0
BITMAP
1FF8
3FF8
7800
E000
C000
C3FC
C3FC
C00C
C00C
E00C
780C
3FFC
0FFC
ENDCHAR
STARTCHAR H
ENCODING 72
SWIDTH 838 0
DWIDTH 15 0
BBX 13 13 1 0
BITMAP
C018
C018
C018
C018
C018
CFF8
CFF8
C018
C018
C018
C018
C018
C018
ENDCHAR
STARTCHAR I
ENCODING 73
SWIDTH 267 0
DWIDTH 5 0
BBX 3 13 1 0
BITMAP
E0
E0
E0
E0
E0
E0
E0
E0
E0
E0
E0
E0
E0
ENDCHAR
STARTCHAR J
ENCODING 74
SWIDTH 708 0
DWIDTH 13 0
BBX 12 13 0 0
BITMAP
0030
0030
0030
0030
0030
0030
0030
0030
0070
0060
01E0
FFC0
FF80
ENDCHAR
STARTCHAR K
ENCODING 75
SWIDTH 875 0
DWIDTH 16 0
BBX 14 13 1 0
BITMAP
C03C
C070
C1E0
C380
C700
DE00
DC00
CE00
C700
C3C0
C0E0
C070
C03C
ENDCHAR
STARTCHAR L
ENCODING 76
SWIDTH 707 0
DWIDTH 13 0
BBX 11 13 1 0
BITMAP
C000
C000
C000
C000
C000
C000
C000
C000
C000
C000
C000
FFE0
FFE0
ENDCHAR
STARTCHAR M
ENCODING 77
SWIDTH 1115 0
DWIDTH 20 0
BBX 20 13 0 0
BITMAP
0C0300
0C0380
1E0780
1E0780
1F0F80
1B0DC0
338CC0
3198C0
31D8C0
70F0E0
60F060
607060
E06070
ENDCHAR
STARTCHAR N
ENCODING 78
SWIDTH 873 0
DWIDTH 16 0
BBX 14 13 1 0
BITMAP
C01C
E01C
F01C
F81C
DC1C
CE1C
C71C
C39C
C1DC
C0FC
C07C
C03C
C018
ENDCHAR
STARTCHAR O
ENCODING 79
SWIDTH 968 0
DWIDTH 17 0
BBX 16 13 1 0
BITMAP
1FF0
3FFC
781E
E00E
C006
C007
C007
C007
C006
E00E
781C
3FF8
0FF0
ENDCHAR
STARTCHAR P
ENCODING 80
SWIDTH 867 0
DWIDTH 16 0
BBX 14 13 1 0
BITMAP
FFF0
FFF8
C01C
C00C
C00C
C00C
C01C
CFF8
CFF0
C000
C000
C000
C000
ENDCHAR
STARTCHAR Q
ENCODING 81
SWIDTH 968 0
DWIDTH 17 0
BBX 16 13 1 0
BITMAP
1FF0
3FFC
781E
E00E
C006
C007
C007
C107
C0E6
E07E
783C
3FFC
0FF7
ENDCHAR
STARTCHAR R
ENCODING 82
SWIDTH 921 0
DWIDTH 17 0
BBX 16 13 1 0
BITMAP
FFF0
FFF8
C01C
C00C
C00C
C00C
C01C
CFF8
CFF0
C070
C038
C01C
C00F
ENDCHAR
STARTCHAR S
ENCODING 83
SWIDTH 880 0
DWIDTH 16 0
BBX 14 13 1 0
BITMAP
3FF8
7FF8
E000
C000
E000
FFF0
7FF8
001C
000C
000C
001C
FFF8
FFF0
ENDCHAR
STARTCHAR T
ENCODING 84
SWIDTH 720 0
DWIDTH 13 0
BBX 13 13 0 0
BITMAP
FFF8
FFF8
0700
0700
0700
0700
0700
0700
0700
0700
0700
0700
0700
ENDCHAR
STARTCHAR U
ENCODING 85
SWIDTH 889 0
DWIDTH 16 0
BBX 14 13 1 0
BITMAP
C00C
C00C
C00C
C00C
C00C
C00C
C00C
C00C
C00C
E01C
7878
7FF8
1FE0
ENDCHAR
STARTCHAR V
ENCODING 86
SWIDTH 989 0
DWIDTH 18 0
BBX 18 13 0 0
BITMAP
E001C0
700380
380700
380600
1C0E00
0C0C00
0E1C00
073800
073000
03F000
01E000
01C000
00C000
ENDCHAR
STARTCHAR W
ENCODING 87
SWIDTH 1268 0
DWIDTH 23 0
BBX 23 13 0 0
BITMAP
E1C00E
70C01C
30E018
386038
187030
1C3070
0C38E0
0E38C0
077DC0
07ED80
03CF80
01C700
018300
ENDCHAR
STARTCHAR X
ENCODING 88
SWIDTH 1000 0
DWIDTH 18 0
BBX 18 13 0 0
BITMAP
780780
3C0E00
1E1C00
073800
03F000
01E000
01E000
03F000
073800
0E1C00
1C0E00
380700
F003C0
ENDCHAR
STARTCHAR Y
ENCODING 89
SWIDTH 926 0
DWIDTH 17 0
BBX 16 13 0 0
BITMAP
F007
380E
381C
1C18
0E38
0770
03E0
01C0
0180
0180
0180
0180
0180
ENDCHAR
STARTCHAR Z
ENCODING 90
SWIDTH 802 0
DWIDTH 14 0
BBX 13 13 1 0
BITMAP
FFF0
FFF8
0070
00E0
01C0
0380
0700
0E00
1C00
3800
7000
FFF8
FFF8
ENDCHAR
STARTCHAR bracketleft
ENCODING 91
SWIDTH 333 0
DWIDTH 6 0
BBX 3 16 2 -1
BITMAP
E0
E0
80
80
80
80
80
80
80
80
80
80
80
80
80
E0
ENDCHAR
STARTCHAR backslash
ENCODING 92
SWIDTH 445 0
DWIDTH 8 0
BBX 8 13 0 0
BITMAP
C0
40
60
20
30
10
18
08
0C
04
06
02
03
ENDCHAR
STARTCHAR bracketright
ENCODING 93
SWIDTH 333 0
DWIDTH 6 0
BBX 3 16 1 -1
BITMAP
E0
E0
20
20
20
20
20
20
20
20
20
20
20
20
20
E0
ENDCHAR
STARTCHAR asciicircum
ENCODING 94
SWIDTH 559 0
DWIDTH 10 0
BBX 8 8 1 5
BITMAP
18
18
3C
24
24
66
42
C3
ENDCHAR
STARTCHAR underscore
ENCODING 95
SWIDTH 668 0
DWIDTH 12 0
BBX 12 1 0 -3
BITMAP
FFF0
ENDCHAR
STARTCHAR grave
ENCODING 96
SWIDTH 362 0
DWIDTH 7 0
BBX 5 2 1 14
BITMAP
C0
78
ENDCHAR
STARTCHAR a
ENCODING 97
SWIDTH 989 0
DWIDTH 18 0
BBX 18 13 0 0
BITMAP
00C000
01E000
01E000
037000
073000
063800
0E1C00
0C0C00
1DFE00
39FE00
300700
700380
E003C0
ENDCHAR
STARTCHAR b
ENCODING 98
SWIDTH 891 0
DWIDTH 16 0
BBX 14 13 1 0
BITMAP
FFF0
FFF8
C01C
C00C
C00C
CFF8
CFF8
C01C
C00C
C00C
C01C
FFF8
FFF0
ENDCHAR
STARTCHAR c
ENCODING 99
SWIDTH 829 0
DWIDTH 15 0
BBX 13 13 1 0
BITMAP
1FF8
3FF8
7800
E000
C000
C000
C000
C000
E000
E000
7800
3FF8
0FF8
ENDCHAR
STARTCHAR d
ENCODING 100
SWIDTH 879 0
DWIDTH 16 0
BBX 14 13 1 0
BITMAP
FFE0
FFF0
C078
C01C
C01C
C00C
C00C
C00C
C01C
C018
C078
FFF0
FFC0
ENDCHAR
STARTCHAR e
ENCODING 101
SWIDTH 759 0
DWIDTH 14 0
BBX 12 13 1 0
BITMAP
FFF0
FFF0
C000
C000
C000
CFE0
CFE0
C000
C000
C000
C000
FFF0
FFF0
ENDCHAR
STARTCHAR f
ENCODING 102
SWIDTH 705 0
DWIDTH 13 0
BBX 11 13 1 0
BITMAP
FFE0
FFE0
C000
C000
C000
C000
CFE0
CFE0
C000
C000
C000
C000
C000
ENDCHAR
STARTCHAR g
ENCODING 103
SWIDTH 888 0
DWIDTH 16 0
BBX 14 13 1 0
BITMAP
1FF8
3FF8
7800
E000
C000
C3FC
C3FC
C00C
E00C
E00C
780C
3FFC
0FFC
ENDCHAR
STARTCHAR h
ENCODING 104
SWIDTH 838 0
DWIDTH 15 0
BBX 13 13 1 0
BITMAP
C018
C018
C018
C018
C018
CFF8
CFF8
C018
C018
C018
C018
C018
C018
ENDCHAR
STARTCHAR i
ENCODING 105
SWIDTH 267 0
DWIDTH 5 0
BBX 3 13 1 0
BITMAP
E0
E0
E0
E0
E0
E0
E0
E0
E0
E0
E0
E0
E0
ENDCHAR
STARTCHAR j
ENCODING 106
SWIDTH 708 0
DWIDTH 13 0
BBX 12 13 0 0
BITMAP
0030
0030
0030
0030
0030
0030
0030
0030
0070
0060
01E0
FFC0
FF80
ENDCHAR
STARTCHAR k
ENCODING 107
SWIDTH 875 0
DWIDTH 16 0
BBX 14 13 1 0
BITMAP
C03C
C070
C1E0
C380
C700
DE00
DC00
CE00
C700
C3C0
C0E0
C070
C03C
ENDCHAR
STARTCHAR l
ENCODING 108
SWIDTH 707 0
DWIDTH 13 0
BBX 11 13 1 0
BITMAP
C000
C000
C000
C000
C000
C000
C000
C000
C000
C000
C000
FFE0
FFE0
ENDCHAR
STARTCHAR m
ENCODING 109
SWIDTH 1115 0
DWIDTH 20 0
BBX 20 13 0 0
BITMAP
0C0300
0E0380
1E0780
1E0780
1F0F80
3B0DC0
338CC0
3198C0
31D8C0
70F0E0
60F060
607060
E06070
ENDCHAR
STARTCHAR n
ENCODING 110
SWIDTH 873 0
DWIDTH 16 0
BBX 14 13 1 0
BITMAP
E01C
F01C
F81C
FC1C
DE1C
CF1C
C79C
C3DC
C1FC
C0FC
C07C
C03C
C01C
ENDCHAR
STARTCHAR o
ENCODING 111
SWIDTH 968 0
DWIDTH 17 0
BBX 16 13 1 0
BITMAP
1FF0
3FFC
781E
E00E
C006
C007
C007
C007
E006
E00E
781C
3FF8
0FF0
ENDCHAR
STARTCHAR p
ENCODING 112
SWIDTH 867 0
DWIDTH 16 0
BBX 14 13 1 0
BITMAP
FFF0
FFF8
C01C
C00C
C00C
C00C
C01C
CFF8
CFF0
C000
C000
C000
C000
ENDCHAR
STARTCHAR q
ENCODING 113
SWIDTH 968 0
DWIDTH 17 0
BBX 16 13 1 0
BITMAP
1FF0
3FFC
781E
E00E
C006
C007
C007
C107
E0E6
E07E
783C
3FFC
0FF7
ENDCHAR
STARTCHAR r
ENCODING 114
SWIDTH 921 0
DWIDTH 17 0
BBX 16 13 1 0
BITMAP
FFF0
FFF8
C01C
C00C
C00C
C00C
C00C
CFFC
CFF8
C070
C038
C01C
C00F
ENDCHAR
STARTCHAR s
ENCODING 115
SWIDTH 880 0
DWIDTH 16 0
BBX 14 13 1 0
BITMAP
3FF8
7FF8
E000
C000
C000
FFE0
7FF8
001C
000C
000C
001C
FFF8
FFF0
ENDCHAR
STARTCHAR t
ENCODING 116
SWIDTH 720 0
DWIDTH 13 0
BBX 13 13 0 0
BITMAP
FFF8
FFF8
0700
0700
0700
0700
0700
0700
0700
0700
0700
0700
0700
ENDCHAR
STARTCHAR u
ENCODING 117
SWIDTH 889 0
DWIDTH 16 0
BBX 14 13 1 0
BITMAP
C00C
C00C
C00C
C00C
C00C
C00C
C00C
C00C
C00C
E01C
7038
7FF8
1FE0
ENDCHAR
STARTCHAR v
ENCODING 118
SWIDTH 989 0
DWIDTH 18 0
BBX 18 13 0 0
BITMAP
E001C0
700380
380700
380600
1C0E00
0C0C00
0E1C00
073800
073000
03F000
01E000
01E000
00C000
ENDCHAR
STARTCHAR w
ENCODING 119
SWIDTH 1268 0
DWIDTH 23 0
BBX 23 13 0 0
BITMAP
E1C00E
70C01C
30E018
386038
187030
1C3070
0C3860
0E38C0
077DC0
076D80
03CF80
01C700
018700
ENDCHAR
STARTCHAR x
ENCODING 120
SWIDTH 1000 0
DWIDTH 18 0
BBX 18 13 0 0
BITMAP
780780
1C0E00
0E1C00
073800
03F000
01E000
01E000
03F000
073800
0E1C00
1C0E00
380700
F003C0
ENDCHAR
STARTCHAR y
ENCODING 121
SWIDTH 926 0
DWIDTH 17 0
BBX 16 13 0 0
BITMAP
F007
380E
381C
1C38
0E38
0770
03E0
01C0
0180
0180
0180
0180
0180
ENDCHAR
STARTCHAR z
ENCODING 122
SWIDTH 802 0
DWIDTH 14 0
BBX 13 13 1 0
BITMAP
FFF0
FFF8
00F0
01E0
03C0
0780
0700
0E00
1C00
3800
7000
FFF8
FFF8
ENDCHAR
STARTCHAR braceleft
ENCODING 123
SWIDTH 337 0
DWIDTH 6 0
BBX 4 16 1 -1
BITMAP
30
60
60
60
60
60
60
C0
40
60
60
60
60
60
60
30
ENDCHAR
STARTCHAR bar
ENCODING 124
SWIDTH 297 0
DWIDTH 5 0
BBX 1 16 2 -2
BITMAP
80
80
80
80
80
80
80
80
80
80
80
80
80
80
80
80
ENDCHAR
STARTCHAR braceright
ENCODING 125
SWIDTH 337 0
DWIDTH 6 0
BBX 4 16 1 -1
BITMAP
C0
60
60
60
60
60
20
30
20
60
60
60
60
60
60
E0
ENDCHAR
STARTCHAR asciitilde
ENCODING 126
SWIDTH 691 0
DWIDTH 12 0
BBX 10 3 1 5
BITMAP
7840
FFC0
87C0
ENDCHAR
STARTCHAR exclamdown
ENCODING 161
SWIDTH 298 0
DWIDTH 5 0
BBX 3 13 1 0
BITMAP
E0
60
00
00
60
60
60
60
60
60
60
60
60
ENDCHAR
STARTCHAR cent
ENCODING 162
SWIDTH 692 0
DWIDTH 12 0
BBX 11 13 1 0
BITMAP
0200
1FE0
7FE0
F200
C200
C200
C200
C200
C200
7200
7FE0
1FE0
0200
ENDCHAR
STARTCHAR sterling
ENCODING 163
SWIDTH 709 0
DWIDTH 13 0
BBX 11 13 1 0
BITMAP
1F80
3F80
7000
6000
6000
FE00
FE00
6000
6000
6000
6000
FFE0
FFE0
ENDCHAR
STARTCHAR yen
ENCODING 165
SWIDTH 787 0
DWIDTH 14 0
BBX 14 13 0 0
BITMAP
E01C
7038
3870
1860
1CE0
0EC0
0780
3FF0
3FF0
0300
3FF0
3FF0
0300
ENDCHAR
STARTCHAR brokenbar
ENCODING 166
SWIDTH 297 0
DWIDTH 5 0
BBX 1 16 2 -2
BITMAP
80
80
80
80
80
80
80
00
00
80
80
80
80
80
80
80
ENDCHAR
STARTCHAR section
ENCODING 167
SWIDTH 773 0
DWIDTH 14 0
BBX 12 17 1 -4
BITMAP
3FC0
FFC0
E000
C000
C000
FFC0
3FE0
6060
4060
6060
7FC0
3FE0
0070
0030
0070
7FE0
7FC0
ENDCHAR
STARTCHAR dieresis
ENCODING 168
SWIDTH 393 0
DWIDTH 7 0
BBX 5 2 1 14
BITMAP
D8
D8
ENDCHAR
STARTCHAR copyright
ENCODING 169
SWIDTH 829 0
DWIDTH 15 0
BBX 13 13 1 0
BITMAP
0F80
3060
4010
8F88
9808
9008
9008
8808
8788
8010
4010
3060
0F80
ENDCHAR
STARTCHAR ordfeminine
ENCODING 170
SWIDTH 604 0
DWIDTH 11 0
BBX 9 7 1 6
BITMAP
0800
1C00
3400
2200
7F00
4100
8180
ENDCHAR
STARTCHAR guillemotleft
ENCODING 171
SWIDTH 629 0
DWIDTH 11 0
BBX 10 7 1 3
BITMAP
0840
3180
4600
8C00
6300
1880
0840
ENDCHAR
STARTCHAR registered
ENCODING 174
SWIDTH 585 0
DWIDTH 11 0
BBX 8 9 1 4
BITMAP
3C
42
BD
A5
AD
A7
81
42
3C
ENDCHAR
STARTCHAR macron
ENCODING 175
SWIDTH 362 0
DWIDTH 7 0
BBX 5 1 1 15
BITMAP
F8
ENDCHAR
STARTCHAR degree
ENCODING 176
SWIDTH 361 0
DWIDTH 7 0
BBX 5 5 1 8
BITMAP
70
98
88
98
70
ENDCHAR
STARTCHAR plusminus
ENCODING 177
SWIDTH 690 0
DWIDTH 12 0
BBX 10 13 1 -1
BITMAP
0C00
0C00
0C00
0C00
0C00
FFC0
0C00
0C00
0C00
0C00
0000
FFC0
FFC0
ENDCHAR
STARTCHAR twosuperior
ENCODING 178
SWIDTH 442 0
DWIDTH 8 0
BBX 6 6 1 7
BITMAP
FC
04
7C
80
80
FC
ENDCHAR
STARTCHAR threesuperior
ENCODING 179
SWIDTH 443 0
DWIDTH 8 0
BBX 6 6 1 7
BITMAP
FC
04
7C
04
04
FC
ENDCHAR
STARTCHAR acute
ENCODING 180
SWIDTH 362 0
DWIDTH 7 0
BBX 5 2 1 14
BITMAP
38
E0
ENDCHAR
STARTCHAR paragraph
ENCODING 182
SWIDTH 629 0
DWIDTH 11 0
BBX 9 15 1 -2
BITMAP
7F80
F880
F880
F880
F880
3880
0880
0880
0880
0880
0880
0880
0880
0880
0880
ENDCHAR
STARTCHAR periodcentered
ENCODING 183
SWIDTH 262 0
DWIDTH 5 0
BBX 3 2 1 5
BITMAP
E0
C0
ENDCHAR
STARTCHAR cedilla
ENCODING 184
SWIDTH 219 0
DWIDTH 4 0
BBX 2 3 1 -4
BITMAP
C0
C0
80
ENDCHAR
STARTCHAR onesuperior
ENCODING 185
SWIDTH 222 0
DWIDTH 4 0
BBX 3 6 0 7
BITMAP
E0
20
20
20
20
20
ENDCHAR
STARTCHAR ordmasculine
ENCODING 186
SWIDTH 592 0
DWIDTH 11 0
BBX 9 7 1 6
BITMAP
3E00
4300
8180
8180
8180
C100
7E00
ENDCHAR
STARTCHAR guillemotright
ENCODING 187
SWIDTH 629 0
DWIDTH 11 0
BBX 10 7 1 3
BITMAP
8800
C600
3180
18C0
2300
C400
8800
ENDCHAR
STARTCHAR onequarter
ENCODING 188
SWIDTH 972 0
DWIDTH 18 0
BBX 16 15 1 -1
BITMAP
0018
7030
1020
1040
10C0
1180
1100
0200
0642
0C42
1842
107F
2002
6002
C000
ENDCHAR
STARTCHAR onehalf
ENCODING 189
SWIDTH 948 0
DWIDTH 17 0
BBX 15 15 1 -1
BITMAP
0018
7030
1020
1040
10C0
1180
1100
0200
067E
0C02
183E
1040
2040
607E
C000
ENDCHAR
STARTCHAR threequarters
ENCODING 190
SWIDTH 1029 0
DWIDTH 19 0
BBX 17 15 1 -1
BITMAP
000C00
FC0800
041000
7C3000
046000
04C000
FC8000
010000
032100
062100
0C2100
083F80
100100
300100
600000
ENDCHAR
ENDFONT
