STARTFONT 2.1
FONT -FontForge-Good Times Rg-Book-R-Normal--24-240-75-75-P-167-ISO10646-1
SIZE 24 75 75
FONTBOUNDINGBOX 30 27 0 -5
COMMENT "Generated by fontforge, http://fontforge.sourceforge.net"
COMMENT "(c) 1998-2012 Typodermic Fonts Inc. See attached license agreement. If agreement is missing visit typodermicfonts.com for more info. Languages by Chikako Larabie"
STARTPROPERTIES 38
FOUNDRY "FontForge"
FAMILY_NAME "Good Times Rg"
WEIGHT_NAME "Book"
SLANT "R"
SETWIDTH_NAME "Normal"
ADD_STYLE_NAME ""
PIXEL_SIZE 24
POINT_SIZE 240
RESOLUTION_X 75
RESOLUTION_Y 75
SPACING "P"
AVERAGE_WIDTH 167
CHARSET_REGISTRY "ISO10646"
CHARSET_ENCODING "1"
FONTNAME_REGISTRY ""
CHARSET_COLLECTIONS "ISO10646-1"
FONT_NAME "GoodTimesRg-Regular"
FACE_NAME "GoodTimesRg-Regular"
COPYRIGHT "(c) 1998-2012 Typodermic Fonts Inc. See attached license agreement. If agreement is missing visit typodermicfonts.com for more info. Languages by Chikako Larabie"
FONT_VERSION "4.001"
FONT_ASCENT 19
FONT_DESCENT 5
UNDERLINE_POSITION -3
UNDERLINE_THICKNESS 1
X_HEIGHT 16
CAP_HEIGHT 17
RAW_ASCENT 799
RAW_DESCENT 201
RELATIVE_WEIGHT 40
RELATIVE_SETWIDTH 50
SUPERSCRIPT_X 0
SUPERSCRIPT_Y 7
SUPERSCRIPT_SIZE 7
SUBSCRIPT_X 0
SUBSCRIPT_Y 0
SUBSCRIPT_SIZE 7
AVG_LOWERCASE_WIDTH 202
AVG_UPPERCASE_WIDTH 206
ENDPROPERTIES
CHARS 120
STARTCHAR exclam
ENCODING 33
SWIDTH 298 0
DWIDTH 7 0
BBX 3 18 2 0
BITMAP
E0
E0
E0
E0
E0
E0
E0
E0
E0
E0
E0
E0
00
00
00
E0
E0
E0
ENDCHAR
STARTCHAR quotedbl
ENCODING 34
SWIDTH 452 0
DWIDTH 11 0
BBX 7 6 2 12
BITMAP
EE
EE
EE
CE
C6
C6
ENDCHAR
STARTCHAR numbersign
ENCODING 35
SWIDTH 697 0
DWIDTH 17 0
BBX 15 18 1 0
BITMAP
030C
031C
0718
0618
0618
3FFE
3FFE
0C30
0C70
1860
1860
FFF8
FFF8
30C0
30C0
3180
6180
6180
ENDCHAR
STARTCHAR dollar
ENCODING 36
SWIDTH 744 0
DWIDTH 18 0
BBX 15 18 1 0
BITMAP
0180
0180
3FFE
7FFE
7FFE
E180
E180
6180
7FFC
3FFE
0186
0186
0186
7FFE
7FFE
7FF8
0180
0180
ENDCHAR
STARTCHAR percent
ENCODING 37
SWIDTH 965 0
DWIDTH 23 0
BBX 21 21 1 -2
BITMAP
000060
1C00C0
7F00C0
C18180
C18300
C08600
C18C00
C18C00
771800
3E3000
006080
00E3F0
00C638
018C18
030C08
060C08
060C18
0C0630
1803E0
300000
700000
ENDCHAR
STARTCHAR ampersand
ENCODING 38
SWIDTH 759 0
DWIDTH 18 0
BBX 17 18 1 0
BITMAP
1F8000
3F8000
7F8000
780000
700000
700000
780000
3FFE00
3FFE00
7FFE00
F03800
E03800
E03800
E03800
783800
7FFF80
3FFF80
1FFF80
ENDCHAR
STARTCHAR quotesingle
ENCODING 39
SWIDTH 255 0
DWIDTH 6 0
BBX 3 6 2 12
BITMAP
E0
C0
C0
C0
C0
C0
ENDCHAR
STARTCHAR parenleft
ENCODING 40
SWIDTH 356 0
DWIDTH 9 0
BBX 5 23 2 -2
BITMAP
18
30
30
70
60
60
60
60
C0
C0
C0
C0
C0
C0
C0
60
60
60
60
30
30
30
18
ENDCHAR
STARTCHAR parenright
ENCODING 41
SWIDTH 355 0
DWIDTH 9 0
BBX 4 23 2 -2
BITMAP
C0
C0
60
60
60
70
30
30
30
30
30
30
30
30
30
30
30
70
60
60
60
C0
C0
ENDCHAR
STARTCHAR asterisk
ENCODING 42
SWIDTH 469 0
DWIDTH 11 0
BBX 8 8 2 10
BITMAP
10
10
92
FF
38
38
6C
46
ENDCHAR
STARTCHAR plus
ENCODING 43
SWIDTH 690 0
DWIDTH 17 0
BBX 13 14 2 2
BITMAP
0600
0600
0600
0600
0600
0600
FFF8
FFF8
0600
0600
0600
0600
0600
0600
ENDCHAR
STARTCHAR comma
ENCODING 44
SWIDTH 259 0
DWIDTH 6 0
BBX 3 6 2 -3
BITMAP
E0
C0
C0
C0
C0
C0
ENDCHAR
STARTCHAR hyphen
ENCODING 45
SWIDTH 296 0
DWIDTH 7 0
BBX 5 2 1 8
BITMAP
F8
F8
ENDCHAR
STARTCHAR period
ENCODING 46
SWIDTH 262 0
DWIDTH 6 0
BBX 3 3 2 0
BITMAP
C0
E0
C0
ENDCHAR
STARTCHAR slash
ENCODING 47
SWIDTH 444 0
DWIDTH 11 0
BBX 10 18 0 0
BITMAP
00C0
00C0
0180
0180
0300
0300
0700
0600
0600
0C00
0C00
1800
1800
3000
3000
6000
6000
E000
ENDCHAR
STARTCHAR zero
ENCODING 48
SWIDTH 838 0
DWIDTH 20 0
BBX 18 18 1 0
BITMAP
03F000
0FFC00
1FFF00
3E1F00
780780
700380
F001C0
E001C0
E001C0
E001C0
E001C0
F001C0
700380
780780
3E1F00
1FFE00
0FFC00
03F000
ENDCHAR
STARTCHAR one
ENCODING 49
SWIDTH 385 0
DWIDTH 9 0
BBX 7 18 1 0
BITMAP
F0
F8
FC
1C
1E
0E
0E
0E
0E
0E
0E
0E
0E
0E
0E
0E
0E
0E
ENDCHAR
STARTCHAR two
ENCODING 50
SWIDTH 825 0
DWIDTH 20 0
BBX 17 18 2 0
BITMAP
FFFC00
FFFE00
FFFF00
000700
000780
000780
000F00
3FFF00
7FFE00
FFFC00
E00000
E00000
C00000
C00000
C00000
FFFF00
FFFF00
FFFF00
ENDCHAR
STARTCHAR three
ENCODING 51
SWIDTH 827 0
DWIDTH 20 0
BBX 18 18 1 0
BITMAP
FFFE00
FFFF00
FFFF80
000780
000380
000380
000780
0FFF00
0FFF00
0FFF80
000380
0003C0
0001C0
0003C0
000780
FFFF80
FFFF00
FFFE00
ENDCHAR
STARTCHAR four
ENCODING 52
SWIDTH 845 0
DWIDTH 20 0
BBX 19 18 1 0
BITMAP
E00700
E00700
E00700
E00700
E00700
E00700
E00700
E00700
E00700
F00700
7FFFE0
7FFFE0
1FFFE0
000700
000700
000700
000700
000700
ENDCHAR
STARTCHAR five
ENCODING 53
SWIDTH 885 0
DWIDTH 21 0
BBX 18 18 2 0
BITMAP
FFFF80
FFFF80
FFFF80
E00000
E00000
E00000
E00000
FFFF00
FFFF80
FFFF80
0003C0
0001C0
0001C0
0001C0
0003C0
FFFF80
FFFF80
FFFE00
ENDCHAR
STARTCHAR six
ENCODING 54
SWIDTH 872 0
DWIDTH 21 0
BBX 19 18 1 0
BITMAP
07FFC0
1FFFC0
3FFFC0
7C0000
700000
E00000
E00000
FFFF00
FFFFC0
FFFFC0
E001C0
E000E0
F000E0
7000E0
7C01C0
3FFFC0
1FFF80
07FF00
ENDCHAR
STARTCHAR seven
ENCODING 55
SWIDTH 756 0
DWIDTH 18 0
BBX 17 18 1 0
BITMAP
FFFF00
FFFF80
FFFF00
000F00
001E00
003C00
007800
007000
00F000
01E000
03C000
078000
078000
0F0000
1E0000
3C0000
780000
F80000
ENDCHAR
STARTCHAR eight
ENCODING 56
SWIDTH 898 0
DWIDTH 22 0
BBX 19 18 1 0
BITMAP
1FFF00
3FFFC0
7FFFE0
7801E0
7000E0
7000E0
7001E0
3FFFC0
3FFFC0
7FFFE0
F001E0
E000E0
E000E0
F000E0
7801E0
7FFFE0
3FFFC0
1FFF00
ENDCHAR
STARTCHAR nine
ENCODING 57
SWIDTH 861 0
DWIDTH 21 0
BBX 19 18 1 0
BITMAP
1FFC00
3FFF00
7FFF80
F00780
E003C0
E001C0
E001C0
F000E0
FFFFE0
7FFFE0
3FFFE0
0001C0
0001C0
0003C0
0007C0
3FFF80
3FFF00
3FFC00
ENDCHAR
STARTCHAR colon
ENCODING 58
SWIDTH 262 0
DWIDTH 6 0
BBX 3 11 2 0
BITMAP
C0
E0
C0
00
00
00
00
00
C0
E0
C0
ENDCHAR
STARTCHAR semicolon
ENCODING 59
SWIDTH 262 0
DWIDTH 6 0
BBX 3 14 2 -3
BITMAP
C0
E0
C0
00
00
00
00
00
E0
C0
C0
C0
C0
C0
ENDCHAR
STARTCHAR less
ENCODING 60
SWIDTH 690 0
DWIDTH 17 0
BBX 13 14 2 2
BITMAP
0008
0038
00F8
07C0
1F00
7800
E000
F000
7C00
0F80
03E0
00F8
0018
0008
ENDCHAR
STARTCHAR equal
ENCODING 61
SWIDTH 690 0
DWIDTH 17 0
BBX 13 9 2 5
BITMAP
FFF8
FFF8
0000
0000
0000
0000
0000
FFF8
FFF8
ENDCHAR
STARTCHAR greater
ENCODING 62
SWIDTH 690 0
DWIDTH 17 0
BBX 13 14 2 2
BITMAP
8000
E000
F800
3E00
07C0
01F0
0038
0078
03E0
0F80
7C00
F000
C000
8000
ENDCHAR
STARTCHAR question
ENCODING 63
SWIDTH 776 0
DWIDTH 19 0
BBX 17 18 1 0
BITMAP
FFFC00
FFFF00
FFFF00
000780
000380
000380
000780
1FFF00
3FFF00
3FFC00
380000
380000
000000
000000
000000
300000
380000
300000
ENDCHAR
STARTCHAR at
ENCODING 64
SWIDTH 833 0
DWIDTH 20 0
BBX 17 18 1 0
BITMAP
03FF80
0FFF80
1E0180
380180
700180
61F980
E3F980
C61980
C61980
C61980
C71980
E3FF80
61FF80
700000
380000
3E0000
0FFF80
03FF80
ENDCHAR
STARTCHAR A
ENCODING 65
SWIDTH 989 0
DWIDTH 24 0
BBX 23 18 0 0
BITMAP
001800
003C00
007C00
007E00
00FE00
00EF00
01E780
01C380
0383C0
0781C0
0701E0
0F3FF0
0E7FF0
1C7FF8
3C0038
38003C
78001C
F0001E
ENDCHAR
STARTCHAR B
ENCODING 66
SWIDTH 891 0
DWIDTH 21 0
BBX 19 18 1 0
BITMAP
FFFF00
FFFFC0
FFFFE0
F001E0
F000E0
F000E0
F001C0
F3FFC0
F3FF80
F3FFC0
F001E0
F000E0
F000E0
F000E0
F001E0
FFFFC0
FFFFC0
FFFF00
ENDCHAR
STARTCHAR C
ENCODING 67
SWIDTH 829 0
DWIDTH 20 0
BBX 18 18 1 0
BITMAP
07FFC0
0FFFC0
3FFFC0
3E0000
780000
700000
F00000
E00000
E00000
E00000
E00000
F00000
700000
780000
3E0000
1FFFC0
0FFFC0
03FFC0
ENDCHAR
STARTCHAR D
ENCODING 68
SWIDTH 879 0
DWIDTH 21 0
BBX 18 18 2 0
BITMAP
FFF800
FFFE00
FFFF00
E01F80
E00780
E003C0
E001C0
E001C0
E001C0
E001C0
E001C0
E001C0
E00380
E00780
E01F00
FFFF00
FFFC00
FFF000
ENDCHAR
STARTCHAR E
ENCODING 69
SWIDTH 759 0
DWIDTH 18 0
BBX 15 18 2 0
BITMAP
FFFE
FFFE
FFFE
E000
E000
E000
E000
E7FC
E7FC
E7FC
E000
E000
E000
E000
E000
FFFE
FFFE
FFFE
ENDCHAR
STARTCHAR F
ENCODING 70
SWIDTH 705 0
DWIDTH 17 0
BBX 14 18 2 0
BITMAP
FFFC
FFFC
FFFC
E000
E000
E000
E000
E000
E7FC
E7FC
E7FC
E000
E000
E000
E000
E000
E000
E000
ENDCHAR
STARTCHAR G
ENCODING 71
SWIDTH 888 0
DWIDTH 21 0
BBX 19 18 1 0
BITMAP
07FFC0
0FFFC0
3FFFC0
3E0000
780000
700000
F00000
E0FFE0
E0FFE0
E0FFE0
E000E0
F000E0
7000E0
7800E0
3E00E0
1FFFE0
0FFFE0
03FFE0
ENDCHAR
STARTCHAR H
ENCODING 72
SWIDTH 838 0
DWIDTH 20 0
BBX 17 18 2 0
BITMAP
E00380
E00380
E00380
E00380
E00380
E00380
E00380
E7FF80
E7FF80
E7FF80
E00380
E00380
E00380
E00380
E00380
E00380
E00380
E00380
ENDCHAR
STARTCHAR I
ENCODING 73
SWIDTH 267 0
DWIDTH 6 0
BBX 3 18 2 0
BITMAP
E0
E0
E0
E0
E0
E0
E0
E0
E0
E0
E0
E0
E0
E0
E0
E0
E0
E0
ENDCHAR
STARTCHAR J
ENCODING 74
SWIDTH 708 0
DWIDTH 17 0
BBX 15 18 1 0
BITMAP
000E
000E
000E
000E
000E
000E
000E
000E
000E
000E
000E
000E
001C
003C
007C
FFF8
FFF0
FFC0
ENDCHAR
STARTCHAR K
ENCODING 75
SWIDTH 875 0
DWIDTH 21 0
BBX 19 18 2 0
BITMAP
E007C0
E00F00
E03E00
E07C00
E0F000
E1E000
E7C000
EF8000
FE0000
EF0000
E78000
E3C000
E1E000
E0F800
E03C00
E01E00
E00F80
E007E0
ENDCHAR
STARTCHAR L
ENCODING 76
SWIDTH 707 0
DWIDTH 17 0
BBX 14 18 2 0
BITMAP
E000
E000
E000
E000
E000
E000
E000
E000
E000
E000
E000
E000
E000
E000
E000
FFFC
FFFC
FFFC
ENDCHAR
STARTCHAR M
ENCODING 77
SWIDTH 1115 0
DWIDTH 27 0
BBX 25 18 1 0
BITMAP
0E003000
0E003800
0F007800
1F007800
1F80FC00
1F80FC00
1F80DC00
39C1DC00
39C1CE00
38E38E00
38E38E00
70F70F00
70770700
70760700
703E0700
E03E0380
E01C0380
E01C0380
ENDCHAR
STARTCHAR N
ENCODING 78
SWIDTH 873 0
DWIDTH 21 0
BBX 19 18 1 0
BITMAP
6000E0
F000E0
F800E0
FC00E0
FE00E0
EF00E0
E780E0
E3C0E0
E1E0E0
E0F0E0
E078E0
E03CE0
E01EE0
E00FE0
E007E0
E003E0
E001E0
E000C0
ENDCHAR
STARTCHAR O
ENCODING 79
SWIDTH 968 0
DWIDTH 23 0
BBX 21 18 1 0
BITMAP
07FF00
0FFFC0
3FFFE0
3E01F0
7800F0
700078
F00038
E00038
E00038
E00038
E00038
F00038
700078
7800F0
3E01F0
1FFFE0
0FFFC0
03FF00
ENDCHAR
STARTCHAR P
ENCODING 80
SWIDTH 867 0
DWIDTH 21 0
BBX 18 18 2 0
BITMAP
FFFE00
FFFF00
FFFF80
E007C0
E001C0
E001C0
E001C0
E001C0
E001C0
E007C0
E7FF80
E7FF00
E7FE00
E00000
E00000
E00000
E00000
E00000
ENDCHAR
STARTCHAR Q
ENCODING 81
SWIDTH 968 0
DWIDTH 23 0
BBX 22 18 1 0
BITMAP
07FF00
0FFFC0
3FFFE0
3E01F0
7800F0
700078
F00038
E00038
E00038
E00038
E04038
F03C38
700E78
7807F0
3E03F0
1FFFE0
0FFFF0
03FF3C
ENDCHAR
STARTCHAR R
ENCODING 82
SWIDTH 921 0
DWIDTH 22 0
BBX 20 18 2 0
BITMAP
FFFE00
FFFF00
FFFF80
E003C0
E001C0
E001C0
E001C0
E001C0
E001C0
E003C0
E7FF80
E7FF80
E7FE00
E00F00
E00780
E007C0
E003E0
E001F0
ENDCHAR
STARTCHAR S
ENCODING 83
SWIDTH 880 0
DWIDTH 21 0
BBX 19 18 1 0
BITMAP
1FFFC0
3FFFC0
7FFFC0
F00000
E00000
E00000
F00000
7FFF80
3FFFC0
1FFFC0
0001E0
0000E0
0000E0
0000E0
0001E0
7FFFC0
7FFFC0
7FFF00
ENDCHAR
STARTCHAR T
ENCODING 84
SWIDTH 720 0
DWIDTH 17 0
BBX 17 18 0 0
BITMAP
FFFF80
FFFF80
FFFF80
01C000
01C000
01C000
01C000
01C000
01C000
01C000
01C000
01C000
01C000
01C000
01C000
01C000
01C000
01C000
ENDCHAR
STARTCHAR U
ENCODING 85
SWIDTH 889 0
DWIDTH 21 0
BBX 19 18 1 0
BITMAP
E000E0
E000E0
E000E0
E000E0
E000E0
E000E0
E000E0
E000E0
E000E0
E000E0
E000E0
F000E0
F000E0
7801E0
7C07C0
3FFF80
1FFF00
07FC00
ENDCHAR
STARTCHAR V
ENCODING 86
SWIDTH 989 0
DWIDTH 24 0
BBX 23 18 0 0
BITMAP
F0000E
78001E
38003C
3C0038
1E0078
0E0070
0F00F0
0700E0
0781C0
03C3C0
01C380
01E780
00E700
00FE00
007E00
007C00
003C00
001800
ENDCHAR
STARTCHAR W
ENCODING 87
SWIDTH 1268 0
DWIDTH 30 0
BBX 30 18 0 0
BITMAP
F078003C
783C0038
383C0078
3C1E0070
1C1E00F0
1E0F00E0
0E0F01E0
0F0781C0
070383C0
0787C380
0387C780
03CFC700
01CEEE00
00FCEE00
00FC7C00
00787C00
00783800
00303800
ENDCHAR
STARTCHAR X
ENCODING 88
SWIDTH 1000 0
DWIDTH 24 0
BBX 22 18 1 0
BITMAP
F8007C
3C00F0
1E01E0
0F03C0
078780
03CF00
01FE00
00FC00
007800
00FC00
01FE00
03DF00
078F80
0F07C0
1E01E0
3C00F0
780078
F0003C
ENDCHAR
STARTCHAR Y
ENCODING 89
SWIDTH 926 0
DWIDTH 22 0
BBX 22 18 0 0
BITMAP
F8003C
3C0078
3C00F0
1E01E0
0F03C0
078380
03C780
03CF00
01FE00
00FC00
007800
003800
003800
003800
003800
003800
003800
003800
ENDCHAR
STARTCHAR Z
ENCODING 90
SWIDTH 802 0
DWIDTH 19 0
BBX 17 18 1 0
BITMAP
FFFF80
FFFF80
FFFF80
000F00
001E00
003C00
007800
00F000
01E000
03C000
078000
0F0000
1E0000
3C0000
780000
FFFF80
FFFF80
FFFF80
ENDCHAR
STARTCHAR bracketleft
ENCODING 91
SWIDTH 333 0
DWIDTH 8 0
BBX 4 23 2 -2
BITMAP
F0
F0
C0
C0
C0
C0
C0
C0
C0
C0
C0
C0
C0
C0
C0
C0
C0
C0
C0
C0
C0
F0
F0
ENDCHAR
STARTCHAR backslash
ENCODING 92
SWIDTH 445 0
DWIDTH 11 0
BBX 10 18 0 0
BITMAP
C000
6000
6000
3000
3000
1800
1800
0C00
0C00
0E00
0600
0600
0300
0300
0180
0180
00C0
00C0
ENDCHAR
STARTCHAR bracketright
ENCODING 93
SWIDTH 333 0
DWIDTH 8 0
BBX 4 23 2 -2
BITMAP
F0
F0
30
30
30
30
30
30
30
30
30
30
30
30
30
30
30
30
30
30
30
F0
F0
ENDCHAR
STARTCHAR asciicircum
ENCODING 94
SWIDTH 559 0
DWIDTH 13 0
BBX 10 11 2 7
BITMAP
0C00
1C00
1E00
1600
3600
3300
6300
6180
6180
C180
C0C0
ENDCHAR
STARTCHAR underscore
ENCODING 95
SWIDTH 668 0
DWIDTH 16 0
BBX 16 1 0 -4
BITMAP
FFFF
ENDCHAR
STARTCHAR grave
ENCODING 96
SWIDTH 362 0
DWIDTH 9 0
BBX 6 3 1 19
BITMAP
E0
FC
04
ENDCHAR
STARTCHAR a
ENCODING 97
SWIDTH 989 0
DWIDTH 24 0
BBX 23 18 0 0
BITMAP
001000
003800
003C00
007E00
00FE00
00EF00
01E700
01C780
0383C0
0781C0
0701E0
0F3FE0
0E7FF0
1C7FF8
3C0038
38003C
78001C
F0001E
ENDCHAR
STARTCHAR b
ENCODING 98
SWIDTH 891 0
DWIDTH 21 0
BBX 19 17 1 0
BITMAP
FFFF80
FFFFC0
FFFFE0
F001E0
F000E0
F000E0
F001C0
F3FF80
F3FFC0
F003E0
F000E0
F000E0
F000E0
F001E0
FFFFE0
FFFFC0
FFFF00
ENDCHAR
STARTCHAR c
ENCODING 99
SWIDTH 829 0
DWIDTH 20 0
BBX 18 17 1 0
BITMAP
0FFFC0
1FFFC0
3FFFC0
780000
700000
F00000
E00000
E00000
E00000
E00000
E00000
700000
780000
3C0000
3FFFC0
0FFFC0
03FFC0
ENDCHAR
STARTCHAR d
ENCODING 100
SWIDTH 879 0
DWIDTH 21 0
BBX 18 17 2 0
BITMAP
FFFC00
FFFE00
FFFF00
E00780
E00380
E003C0
E001C0
E001C0
E001C0
E001C0
E001C0
E003C0
E00780
E00F00
FFFF00
FFFC00
FFF800
ENDCHAR
STARTCHAR e
ENCODING 101
SWIDTH 759 0
DWIDTH 18 0
BBX 15 17 2 0
BITMAP
FFFE
FFFE
FFFE
E000
E000
E000
E000
E7FC
E7FC
E000
E000
E000
E000
E000
FFFE
FFFE
FFFE
ENDCHAR
STARTCHAR f
ENCODING 102
SWIDTH 705 0
DWIDTH 17 0
BBX 14 17 2 0
BITMAP
FFFC
FFFC
FFFC
E000
E000
E000
E000
E7FC
E7FC
E7FC
E000
E000
E000
E000
E000
E000
E000
ENDCHAR
STARTCHAR g
ENCODING 103
SWIDTH 888 0
DWIDTH 21 0
BBX 19 17 1 0
BITMAP
0FFFC0
1FFFC0
3FFFC0
780000
700000
F00000
E00000
E0FFE0
E0FFE0
E000E0
E000E0
7000E0
7800E0
3C00E0
3FFFE0
0FFFE0
03FFE0
ENDCHAR
STARTCHAR h
ENCODING 104
SWIDTH 838 0
DWIDTH 20 0
BBX 17 17 2 0
BITMAP
E00380
E00380
E00380
E00380
E00380
E00380
E00380
E7FF80
E7FF80
E00380
E00380
E00380
E00380
E00380
E00380
E00380
E00380
ENDCHAR
STARTCHAR i
ENCODING 105
SWIDTH 267 0
DWIDTH 6 0
BBX 3 17 2 0
BITMAP
E0
E0
E0
E0
E0
E0
E0
E0
E0
E0
E0
E0
E0
E0
E0
E0
E0
ENDCHAR
STARTCHAR j
ENCODING 106
SWIDTH 708 0
DWIDTH 17 0
BBX 15 17 1 0
BITMAP
000E
000E
000E
000E
000E
000E
000E
000E
000E
000E
000E
001E
001C
007C
FFF8
FFF0
FFC0
ENDCHAR
STARTCHAR k
ENCODING 107
SWIDTH 875 0
DWIDTH 21 0
BBX 19 17 2 0
BITMAP
E00FC0
E01F00
E03C00
E0F800
E1F000
E3C000
EF8000
EF0000
FE0000
EF8000
E3C000
E1E000
E0F800
E07C00
E01E00
E00F80
E007E0
ENDCHAR
STARTCHAR l
ENCODING 108
SWIDTH 707 0
DWIDTH 17 0
BBX 14 17 2 0
BITMAP
E000
E000
E000
E000
E000
E000
E000
E000
E000
E000
E000
E000
E000
E000
FFFC
FFFC
FFFC
ENDCHAR
STARTCHAR m
ENCODING 109
SWIDTH 1115 0
DWIDTH 27 0
BBX 25 18 1 0
BITMAP
04001000
0E003800
0F007800
0F007800
1F00FC00
1F80FC00
1F80FC00
39C1DC00
39C1CE00
38E38E00
38E38E00
70F70E00
70770700
70770700
703E0700
E03E0380
E01C0380
E01C0380
ENDCHAR
STARTCHAR n
ENCODING 110
SWIDTH 873 0
DWIDTH 21 0
BBX 19 18 1 0
BITMAP
2000E0
F000E0
F800E0
FC00E0
FE00E0
EF00E0
E780E0
E3C0E0
E1E0E0
E0F0E0
E078E0
E03CE0
E01EE0
E00FE0
E007E0
E003E0
E001E0
E000C0
ENDCHAR
STARTCHAR o
ENCODING 111
SWIDTH 968 0
DWIDTH 23 0
BBX 21 17 1 0
BITMAP
0FFF80
1FFFC0
3FFFE0
7800F0
700078
F00038
E00038
E00038
E00038
E00038
E00038
700078
7800F0
3C01F0
3FFFE0
0FFFC0
03FF00
ENDCHAR
STARTCHAR p
ENCODING 112
SWIDTH 867 0
DWIDTH 21 0
BBX 18 17 2 0
BITMAP
FFFF00
FFFF80
FFFF80
E003C0
E001C0
E001C0
E001C0
E001C0
E003C0
E7FF80
E7FF00
E7FE00
E00000
E00000
E00000
E00000
E00000
ENDCHAR
STARTCHAR q
ENCODING 113
SWIDTH 968 0
DWIDTH 23 0
BBX 21 17 1 0
BITMAP
0FFF80
1FFFC0
3FFFE0
7800F0
700078
F00038
E00038
E00038
E00038
E04038
E03C38
701E78
7807F0
3C03F0
3FFFE0
0FFFF0
03FF78
ENDCHAR
STARTCHAR r
ENCODING 114
SWIDTH 921 0
DWIDTH 22 0
BBX 20 17 2 0
BITMAP
FFFF00
FFFF80
FFFFC0
E001C0
E001C0
E001C0
E001C0
E001C0
E001C0
E7FF80
E7FF80
E7FE00
E00F00
E00780
E007C0
E003E0
E001F0
ENDCHAR
STARTCHAR s
ENCODING 115
SWIDTH 880 0
DWIDTH 21 0
BBX 19 17 1 0
BITMAP
3FFFC0
7FFFC0
7FFFC0
F00000
E00000
F00000
700000
7FFF80
3FFFC0
0003E0
0000E0
0000E0
0000E0
0001E0
7FFFC0
7FFFC0
7FFF00
ENDCHAR
STARTCHAR t
ENCODING 116
SWIDTH 720 0
DWIDTH 17 0
BBX 17 17 0 0
BITMAP
FFFF80
FFFF80
FFFF80
01C000
01C000
01C000
01C000
01C000
01C000
01C000
01C000
01C000
01C000
01C000
01C000
01C000
01C000
ENDCHAR
STARTCHAR u
ENCODING 117
SWIDTH 889 0
DWIDTH 21 0
BBX 19 17 1 0
BITMAP
E000E0
E000E0
E000E0
E000E0
E000E0
E000E0
E000E0
E000E0
E000E0
E000E0
E000E0
F000E0
7001E0
7803C0
3FFFC0
1FFF80
07FE00
ENDCHAR
STARTCHAR v
ENCODING 118
SWIDTH 989 0
DWIDTH 24 0
BBX 23 17 0 0
BITMAP
F8001E
38001C
3C003C
1C0038
1E0070
0F00F0
0700E0
0781E0
0381C0
03C380
01E780
00E700
00FF00
007E00
007C00
003C00
001800
ENDCHAR
STARTCHAR w
ENCODING 119
SWIDTH 1268 0
DWIDTH 30 0
BBX 30 17 0 0
BITMAP
F078003C
783C0038
3C1C0070
3C1E0070
1E0E00E0
0E0F01E0
0F0701C0
070783C0
07838380
0387C780
03CFC700
01CFEF00
01FEEE00
00FCFE00
00F87C00
00787800
00303800
ENDCHAR
STARTCHAR x
ENCODING 120
SWIDTH 1000 0
DWIDTH 24 0
BBX 22 17 1 0
BITMAP
F8007C
3C00F0
1E01E0
0F0380
07C700
03EE00
01FC00
00F800
00F800
01FE00
03DF00
078F80
0F07C0
1E03E0
3C01F0
780078
F0003C
ENDCHAR
STARTCHAR y
ENCODING 121
SWIDTH 926 0
DWIDTH 22 0
BBX 22 17 0 0
BITMAP
F8007C
3C00F0
1E00E0
0F01E0
0783C0
078780
03CF00
01FE00
00FC00
007800
003800
003800
003800
003800
003800
003800
003800
ENDCHAR
STARTCHAR z
ENCODING 122
SWIDTH 802 0
DWIDTH 19 0
BBX 17 17 1 0
BITMAP
FFFF80
FFFF80
000F00
001E00
003C00
007800
00F800
01F000
03E000
07C000
0F8000
1F0000
3E0000
7C0000
FFFF80
FFFF80
FFFF80
ENDCHAR
STARTCHAR braceleft
ENCODING 123
SWIDTH 337 0
DWIDTH 8 0
BBX 6 23 1 -2
BITMAP
1C
3C
30
30
30
30
30
30
30
30
30
E0
E0
30
30
30
30
30
30
30
30
3C
1C
ENDCHAR
STARTCHAR bar
ENCODING 124
SWIDTH 297 0
DWIDTH 7 0
BBX 1 23 3 -2
BITMAP
80
80
80
80
80
80
80
80
80
80
80
80
80
80
80
80
80
80
80
80
80
80
80
ENDCHAR
STARTCHAR braceright
ENCODING 125
SWIDTH 337 0
DWIDTH 8 0
BBX 6 23 1 -2
BITMAP
E0
F0
30
30
30
30
30
30
30
30
30
1C
1C
30
30
30
30
30
30
30
30
F0
E0
ENDCHAR
STARTCHAR asciitilde
ENCODING 126
SWIDTH 691 0
DWIDTH 17 0
BBX 13 4 2 7
BITMAP
7808
FF18
87F8
81F0
ENDCHAR
STARTCHAR exclamdown
ENCODING 161
SWIDTH 298 0
DWIDTH 7 0
BBX 3 18 2 0
BITMAP
40
E0
E0
40
00
00
E0
E0
E0
E0
E0
E0
E0
E0
E0
E0
E0
E0
ENDCHAR
STARTCHAR cent
ENCODING 162
SWIDTH 692 0
DWIDTH 17 0
BBX 14 18 1 0
BITMAP
0040
0040
0FFC
3FFC
7FFC
7840
E040
E040
C040
C040
E040
E040
7840
7FFC
3FFC
0FFC
0040
0040
ENDCHAR
STARTCHAR sterling
ENCODING 163
SWIDTH 709 0
DWIDTH 17 0
BBX 15 18 1 0
BITMAP
07F0
1FF0
3FF0
3C00
3800
3800
3800
3800
7FC0
7FC0
3800
3800
3800
3800
3800
FFFE
FFFE
FFFE
ENDCHAR
STARTCHAR yen
ENCODING 165
SWIDTH 787 0
DWIDTH 19 0
BBX 18 18 0 0
BITMAP
F003C0
780380
3C0780
1C0700
1E0E00
0E1E00
071C00
07BC00
03B800
01F000
1FFF00
1FFF00
00E000
00E000
1FFF00
1FFF00
00E000
00E000
ENDCHAR
STARTCHAR brokenbar
ENCODING 166
SWIDTH 297 0
DWIDTH 7 0
BBX 1 23 3 -2
BITMAP
80
80
80
80
80
80
80
80
80
80
00
00
00
80
80
80
80
80
80
80
80
80
80
ENDCHAR
STARTCHAR section
ENCODING 167
SWIDTH 773 0
DWIDTH 19 0
BBX 16 23 1 -5
BITMAP
1FFC
7FFC
7FFC
F000
E000
E000
E000
7000
7FFC
3FFE
700E
7006
7006
780E
3FFC
1FFE
0007
0007
0007
000F
3FFF
3FFE
3FFC
ENDCHAR
STARTCHAR dieresis
ENCODING 168
SWIDTH 393 0
DWIDTH 9 0
BBX 7 2 1 20
BITMAP
E6
E6
ENDCHAR
STARTCHAR copyright
ENCODING 169
SWIDTH 829 0
DWIDTH 20 0
BBX 18 18 1 0
BITMAP
03F000
0C0C00
100200
200100
400080
41F080
860040
840040
8C0040
8C0040
840040
860040
41F080
400080
200100
100200
0C0C00
03F000
ENDCHAR
STARTCHAR ordfeminine
ENCODING 170
SWIDTH 604 0
DWIDTH 15 0
BBX 13 10 1 7
BITMAP
0600
0700
0F00
0980
1980
30C0
37E0
6060
6030
C038
ENDCHAR
STARTCHAR guillemotleft
ENCODING 171
SWIDTH 629 0
DWIDTH 15 0
BBX 13 9 1 5
BITMAP
0208
0618
1C70
70C0
C300
E180
30E0
0C30
0608
ENDCHAR
STARTCHAR registered
ENCODING 174
SWIDTH 585 0
DWIDTH 14 0
BBX 11 12 2 6
BITMAP
1E00
6180
4080
9E40
A140
A120
AE20
A340
8040
4080
6180
1E00
ENDCHAR
STARTCHAR macron
ENCODING 175
SWIDTH 362 0
DWIDTH 9 0
BBX 6 1 1 20
BITMAP
FC
ENDCHAR
STARTCHAR degree
ENCODING 176
SWIDTH 361 0
DWIDTH 9 0
BBX 7 6 1 12
BITMAP
78
C4
86
86
C4
7C
ENDCHAR
STARTCHAR plusminus
ENCODING 177
SWIDTH 690 0
DWIDTH 17 0
BBX 13 17 2 -1
BITMAP
0600
0600
0600
0600
0600
0600
FFF8
FFF8
0600
0600
0600
0600
0600
0600
0000
FFF8
FFF8
ENDCHAR
STARTCHAR twosuperior
ENCODING 178
SWIDTH 442 0
DWIDTH 11 0
BBX 9 9 1 9
BITMAP
FE00
FF00
0180
0180
7F00
C000
C000
FF00
FF00
ENDCHAR
STARTCHAR threesuperior
ENCODING 179
SWIDTH 443 0
DWIDTH 11 0
BBX 9 9 1 9
BITMAP
FE00
FF00
0180
0100
3F00
0180
0180
FF00
FF00
ENDCHAR
STARTCHAR acute
ENCODING 180
SWIDTH 362 0
DWIDTH 9 0
BBX 6 3 1 19
BITMAP
1C
FC
C0
ENDCHAR
STARTCHAR paragraph
ENCODING 182
SWIDTH 629 0
DWIDTH 15 0
BBX 13 20 1 -2
BITMAP
3FF8
7FF8
FF18
FF18
FF18
FF18
7F18
3F18
0318
0318
0318
0318
0318
0318
0318
0318
0318
0318
0318
0318
ENDCHAR
STARTCHAR periodcentered
ENCODING 183
SWIDTH 262 0
DWIDTH 6 0
BBX 3 3 2 7
BITMAP
C0
E0
C0
ENDCHAR
STARTCHAR cedilla
ENCODING 184
SWIDTH 219 0
DWIDTH 5 0
BBX 3 4 1 -5
BITMAP
E0
60
40
40
ENDCHAR
STARTCHAR onesuperior
ENCODING 185
SWIDTH 222 0
DWIDTH 5 0
BBX 3 9 1 9
BITMAP
C0
E0
20
20
20
20
20
20
20
ENDCHAR
STARTCHAR ordmasculine
ENCODING 186
SWIDTH 592 0
DWIDTH 14 0
BBX 12 10 1 7
BITMAP
1F80
7FE0
6060
C030
C030
C030
C030
6060
3FE0
1F80
ENDCHAR
STARTCHAR guillemotright
ENCODING 187
SWIDTH 629 0
DWIDTH 15 0
BBX 13 9 1 5
BITMAP
8200
C300
70C0
1870
0618
0C38
3860
6180
C300
ENDCHAR
STARTCHAR onequarter
ENCODING 188
SWIDTH 972 0
DWIDTH 23 0
BBX 21 21 1 -2
BITMAP
0000C0
300180
380300
0C0600
0C0600
0C0C00
0C1800
0C3000
0C7000
0C6000
00C000
018C10
030C10
030C10
060C10
0C0FF8
1807F8
380010
300010
600000
C00000
ENDCHAR
STARTCHAR onehalf
ENCODING 189
SWIDTH 948 0
DWIDTH 23 0
BBX 21 21 1 -2
BITMAP
0000C0
300180
380300
0C0600
0C0600
0C0C00
0C1800
0C3000
0C7000
0C6000
00C000
018FF0
030018
030018
0607F0
0C0E00
180C00
380C00
300FF8
600000
C00000
ENDCHAR
STARTCHAR threequarters
ENCODING 190
SWIDTH 1029 0
DWIDTH 25 0
BBX 23 21 1 -2
BITMAP
000060
FE00C0
FF00C0
018180
010300
3F0600
018E00
018C00
FF9800
FF3000
006000
00E608
00C608
018608
030608
0603FE
0603FE
0C0008
180008
300000
700000
ENDCHAR
ENDFONT
